<?xml version="1.0" encoding="UTF-8" standalone="no"?><svg xmlns="http://www.w3.org/2000/svg" xmlns:xlink="http://www.w3.org/1999/xlink" contentScriptType="application/ecmascript" contentStyleType="text/css" height="1817px" preserveAspectRatio="none" style="width:1874px;height:1817px;" version="1.1" viewBox="0 0 1874 1817" width="1874px" zoomAndPan="magnify"><defs><filter height="300%" id="f1jc5nw1keaxd1" width="300%" x="-1" y="-1"><feGaussianBlur result="blurOut" stdDeviation="2.0"/><feColorMatrix in="blurOut" result="blurOut2" type="matrix" values="0 0 0 0 0 0 0 0 0 0 0 0 0 0 0 0 0 0 .4 0"/><feOffset dx="4.0" dy="4.0" in="blurOut2" result="blurOut3"/><feBlend in="SourceGraphic" in2="blurOut3" mode="normal"/></filter></defs><g><line style="stroke: #A80036; stroke-width: 1.0; stroke-dasharray: 5.0,5.0;" x1="71" x2="71" y1="38.2969" y2="1777.6016"/><line style="stroke: #A80036; stroke-width: 1.0; stroke-dasharray: 5.0,5.0;" x1="244.5" x2="244.5" y1="38.2969" y2="1777.6016"/><line style="stroke: #A80036; stroke-width: 1.0; stroke-dasharray: 5.0,5.0;" x1="355.5" x2="355.5" y1="38.2969" y2="1777.6016"/><line style="stroke: #A80036; stroke-width: 1.0; stroke-dasharray: 5.0,5.0;" x1="478.5" x2="478.5" y1="38.2969" y2="1777.6016"/><line style="stroke: #A80036; stroke-width: 1.0; stroke-dasharray: 5.0,5.0;" x1="619.5" x2="619.5" y1="38.2969" y2="1777.6016"/><line style="stroke: #A80036; stroke-width: 1.0; stroke-dasharray: 5.0,5.0;" x1="752.5" x2="752.5" y1="38.2969" y2="1777.6016"/><line style="stroke: #A80036; stroke-width: 1.0; stroke-dasharray: 5.0,5.0;" x1="895.5" x2="895.5" y1="38.2969" y2="1777.6016"/><line style="stroke: #A80036; stroke-width: 1.0; stroke-dasharray: 5.0,5.0;" x1="1055.5" x2="1055.5" y1="38.2969" y2="1777.6016"/><line style="stroke: #A80036; stroke-width: 1.0; stroke-dasharray: 5.0,5.0;" x1="1190.5" x2="1190.5" y1="38.2969" y2="1777.6016"/><line style="stroke: #A80036; stroke-width: 1.0; stroke-dasharray: 5.0,5.0;" x1="1316.5" x2="1316.5" y1="38.2969" y2="1777.6016"/><line style="stroke: #A80036; stroke-width: 1.0; stroke-dasharray: 5.0,5.0;" x1="1429.5" x2="1429.5" y1="38.2969" y2="1777.6016"/><line style="stroke: #A80036; stroke-width: 1.0; stroke-dasharray: 5.0,5.0;" x1="1552.5" x2="1552.5" y1="38.2969" y2="1777.6016"/><line style="stroke: #A80036; stroke-width: 1.0; stroke-dasharray: 5.0,5.0;" x1="1695.5" x2="1695.5" y1="38.2969" y2="1777.6016"/><line style="stroke: #A80036; stroke-width: 1.0; stroke-dasharray: 5.0,5.0;" x1="1817.5" x2="1817.5" y1="38.2969" y2="1777.6016"/><rect fill="#FEFECE" filter="url(#f1jc5nw1keaxd1)" height="30.2969" style="stroke: #A80036; stroke-width: 1.5;" width="123" x="8" y="3"/><text fill="#000000" font-family="sans-serif" font-size="14" lengthAdjust="spacingAndGlyphs" textLength="109" x="15" y="22.9951">VueComponent</text><rect fill="#FEFECE" filter="url(#f1jc5nw1keaxd1)" height="30.2969" style="stroke: #A80036; stroke-width: 1.5;" width="123" x="8" y="1776.6016"/><text fill="#000000" font-family="sans-serif" font-size="14" lengthAdjust="spacingAndGlyphs" textLength="109" x="15" y="1796.5967">VueComponent</text><rect fill="#FEFECE" filter="url(#f1jc5nw1keaxd1)" height="30.2969" style="stroke: #A80036; stroke-width: 1.5;" width="94" x="195.5" y="3"/><text fill="#000000" font-family="sans-serif" font-size="14" lengthAdjust="spacingAndGlyphs" textLength="80" x="202.5" y="22.9951">UIController</text><rect fill="#FEFECE" filter="url(#f1jc5nw1keaxd1)" height="30.2969" style="stroke: #A80036; stroke-width: 1.5;" width="94" x="195.5" y="1776.6016"/><text fill="#000000" font-family="sans-serif" font-size="14" lengthAdjust="spacingAndGlyphs" textLength="80" x="202.5" y="1796.5967">UIController</text><rect fill="#FEFECE" filter="url(#f1jc5nw1keaxd1)" height="30.2969" style="stroke: #A80036; stroke-width: 1.5;" width="100" x="303.5" y="3"/><text fill="#000000" font-family="sans-serif" font-size="14" lengthAdjust="spacingAndGlyphs" textLength="86" x="310.5" y="22.9951">LexicalQuery</text><rect fill="#FEFECE" filter="url(#f1jc5nw1keaxd1)" height="30.2969" style="stroke: #A80036; stroke-width: 1.5;" width="100" x="303.5" y="1776.6016"/><text fill="#000000" font-family="sans-serif" font-size="14" lengthAdjust="spacingAndGlyphs" textLength="86" x="310.5" y="1796.5967">LexicalQuery</text><rect fill="#FEFECE" filter="url(#f1jc5nw1keaxd1)" height="30.2969" style="stroke: #A80036; stroke-width: 1.5;" width="119" x="417.5" y="3"/><text fill="#000000" font-family="sans-serif" font-size="14" lengthAdjust="spacingAndGlyphs" textLength="105" x="424.5" y="22.9951">TreebankClient</text><rect fill="#FEFECE" filter="url(#f1jc5nw1keaxd1)" height="30.2969" style="stroke: #A80036; stroke-width: 1.5;" width="119" x="417.5" y="1776.6016"/><text fill="#000000" font-family="sans-serif" font-size="14" lengthAdjust="spacingAndGlyphs" textLength="105" x="424.5" y="1796.5967">TreebankClient</text><rect fill="#FEFECE" filter="url(#f1jc5nw1keaxd1)" height="30.2969" style="stroke: #A80036; stroke-width: 1.5;" width="134" x="550.5" y="3"/><text fill="#000000" font-family="sans-serif" font-size="14" lengthAdjust="spacingAndGlyphs" textLength="120" x="557.5" y="22.9951">MorphologyClient</text><rect fill="#FEFECE" filter="url(#f1jc5nw1keaxd1)" height="30.2969" style="stroke: #A80036; stroke-width: 1.5;" width="134" x="550.5" y="1776.6016"/><text fill="#000000" font-family="sans-serif" font-size="14" lengthAdjust="spacingAndGlyphs" textLength="120" x="557.5" y="1796.5967">MorphologyClient</text><rect fill="#FEFECE" filter="url(#f1jc5nw1keaxd1)" height="30.2969" style="stroke: #A80036; stroke-width: 1.5;" width="105" x="698.5" y="3"/><text fill="#000000" font-family="sans-serif" font-size="14" lengthAdjust="spacingAndGlyphs" textLength="91" x="705.5" y="22.9951">LexiconClient</text><rect fill="#FEFECE" filter="url(#f1jc5nw1keaxd1)" height="30.2969" style="stroke: #A80036; stroke-width: 1.5;" width="105" x="698.5" y="1776.6016"/><text fill="#000000" font-family="sans-serif" font-size="14" lengthAdjust="spacingAndGlyphs" textLength="91" x="705.5" y="1796.5967">LexiconClient</text><rect fill="#FEFECE" filter="url(#f1jc5nw1keaxd1)" height="30.2969" style="stroke: #A80036; stroke-width: 1.5;" width="153" x="817.5" y="3"/><text fill="#000000" font-family="sans-serif" font-size="14" lengthAdjust="spacingAndGlyphs" textLength="139" x="824.5" y="22.9951">ShortDefinitionIndex</text><rect fill="#FEFECE" filter="url(#f1jc5nw1keaxd1)" height="30.2969" style="stroke: #A80036; stroke-width: 1.5;" width="153" x="817.5" y="1776.6016"/><text fill="#000000" font-family="sans-serif" font-size="14" lengthAdjust="spacingAndGlyphs" textLength="139" x="824.5" y="1796.5967">ShortDefinitionIndex</text><rect fill="#FEFECE" filter="url(#f1jc5nw1keaxd1)" height="30.2969" style="stroke: #A80036; stroke-width: 1.5;" width="139" x="984.5" y="3"/><text fill="#000000" font-family="sans-serif" font-size="14" lengthAdjust="spacingAndGlyphs" textLength="125" x="991.5" y="22.9951">FullDefinitionIndex</text><rect fill="#FEFECE" filter="url(#f1jc5nw1keaxd1)" height="30.2969" style="stroke: #A80036; stroke-width: 1.5;" width="139" x="984.5" y="1776.6016"/><text fill="#000000" font-family="sans-serif" font-size="14" lengthAdjust="spacingAndGlyphs" textLength="125" x="991.5" y="1796.5967">FullDefinitionIndex</text><rect fill="#FEFECE" filter="url(#f1jc5nw1keaxd1)" height="30.2969" style="stroke: #A80036; stroke-width: 1.5;" width="102" x="1137.5" y="3"/><text fill="#000000" font-family="sans-serif" font-size="14" lengthAdjust="spacingAndGlyphs" textLength="88" x="1144.5" y="22.9951">FullDefinition</text><rect fill="#FEFECE" filter="url(#f1jc5nw1keaxd1)" height="30.2969" style="stroke: #A80036; stroke-width: 1.5;" width="102" x="1137.5" y="1776.6016"/><text fill="#000000" font-family="sans-serif" font-size="14" lengthAdjust="spacingAndGlyphs" textLength="88" x="1144.5" y="1796.5967">FullDefinition</text><rect fill="#FEFECE" filter="url(#f1jc5nw1keaxd1)" height="30.2969" style="stroke: #A80036; stroke-width: 1.5;" width="122" x="1253.5" y="3"/><text fill="#000000" font-family="sans-serif" font-size="14" lengthAdjust="spacingAndGlyphs" textLength="108" x="1260.5" y="22.9951">InflectionTables</text><rect fill="#FEFECE" filter="url(#f1jc5nw1keaxd1)" height="30.2969" style="stroke: #A80036; stroke-width: 1.5;" width="122" x="1253.5" y="1776.6016"/><text fill="#000000" font-family="sans-serif" font-size="14" lengthAdjust="spacingAndGlyphs" textLength="108" x="1260.5" y="1796.5967">InflectionTables</text><rect fill="#FEFECE" filter="url(#f1jc5nw1keaxd1)" height="30.2969" style="stroke: #A80036; stroke-width: 1.5;" width="77" x="1389.5" y="3"/><text fill="#000000" font-family="sans-serif" font-size="14" lengthAdjust="spacingAndGlyphs" textLength="63" x="1396.5" y="22.9951">Grammar</text><rect fill="#FEFECE" filter="url(#f1jc5nw1keaxd1)" height="30.2969" style="stroke: #A80036; stroke-width: 1.5;" width="77" x="1389.5" y="1776.6016"/><text fill="#000000" font-family="sans-serif" font-size="14" lengthAdjust="spacingAndGlyphs" textLength="63" x="1396.5" y="1796.5967">Grammar</text><rect fill="#FEFECE" filter="url(#f1jc5nw1keaxd1)" height="30.2969" style="stroke: #A80036; stroke-width: 1.5;" width="140" x="1480.5" y="3"/><text fill="#000000" font-family="sans-serif" font-size="14" lengthAdjust="spacingAndGlyphs" textLength="126" x="1487.5" y="22.9951">TranslationService</text><rect fill="#FEFECE" filter="url(#f1jc5nw1keaxd1)" height="30.2969" style="stroke: #A80036; stroke-width: 1.5;" width="140" x="1480.5" y="1776.6016"/><text fill="#000000" font-family="sans-serif" font-size="14" lengthAdjust="spacingAndGlyphs" textLength="126" x="1487.5" y="1796.5967">TranslationService</text><rect fill="#FEFECE" filter="url(#f1jc5nw1keaxd1)" height="30.2969" style="stroke: #A80036; stroke-width: 1.5;" width="119" x="1634.5" y="3"/><text fill="#000000" font-family="sans-serif" font-size="14" lengthAdjust="spacingAndGlyphs" textLength="105" x="1641.5" y="22.9951">RemoteService</text><rect fill="#FEFECE" filter="url(#f1jc5nw1keaxd1)" height="30.2969" style="stroke: #A80036; stroke-width: 1.5;" width="119" x="1634.5" y="1776.6016"/><text fill="#000000" font-family="sans-serif" font-size="14" lengthAdjust="spacingAndGlyphs" textLength="105" x="1641.5" y="1796.5967">RemoteService</text><rect fill="#FEFECE" filter="url(#f1jc5nw1keaxd1)" height="30.2969" style="stroke: #A80036; stroke-width: 1.5;" width="96" x="1767.5" y="3"/><text fill="#000000" font-family="sans-serif" font-size="14" lengthAdjust="spacingAndGlyphs" textLength="82" x="1774.5" y="22.9951">RemoteURL</text><rect fill="#FEFECE" filter="url(#f1jc5nw1keaxd1)" height="30.2969" style="stroke: #A80036; stroke-width: 1.5;" width="96" x="1767.5" y="1776.6016"/><text fill="#000000" font-family="sans-serif" font-size="14" lengthAdjust="spacingAndGlyphs" textLength="82" x="1774.5" y="1796.5967">RemoteURL</text><polygon fill="#A80036" points="343.5,65.4297,353.5,69.4297,343.5,73.4297,347.5,69.4297" style="stroke: #A80036; stroke-width: 1.0;"/><line style="stroke: #A80036; stroke-width: 1.0;" x1="244.5" x2="349.5" y1="69.4297" y2="69.4297"/><text fill="#000000" font-family="sans-serif" font-size="13" lengthAdjust="spacingAndGlyphs" textLength="52" x="251.5" y="64.3638">getData</text><polygon fill="#A80036" points="467,94.5625,477,98.5625,467,102.5625,471,98.5625" style="stroke: #A80036; stroke-width: 1.0;"/><line style="stroke: #A80036; stroke-width: 1.0;" x1="355.5" x2="473" y1="98.5625" y2="98.5625"/><text fill="#000000" font-family="sans-serif" font-size="13" lengthAdjust="spacingAndGlyphs" textLength="88" x="362.5" y="93.4966">getHomonym</text><polygon fill="#A80036" points="1684,123.6953,1694,127.6953,1684,131.6953,1688,127.6953" style="stroke: #A80036; stroke-width: 1.0;"/><line style="stroke: #A80036; stroke-width: 1.0;" x1="479" x2="1690" y1="127.6953" y2="127.6953"/><text fill="#000000" font-family="sans-serif" font-size="13" lengthAdjust="spacingAndGlyphs" textLength="32" x="486" y="122.6294">fetch</text><polygon fill="#A80036" points="490,152.8281,480,156.8281,490,160.8281,486,156.8281" style="stroke: #A80036; stroke-width: 1.0;"/><line style="stroke: #A80036; stroke-width: 1.0;" x1="484" x2="1695" y1="156.8281" y2="156.8281"/><text fill="#000000" font-family="sans-serif" font-size="13" lengthAdjust="spacingAndGlyphs" textLength="57" x="496" y="151.7622">XMLData</text><line style="stroke: #A80036; stroke-width: 1.0;" x1="479" x2="521" y1="185.9609" y2="185.9609"/><line style="stroke: #A80036; stroke-width: 1.0;" x1="521" x2="521" y1="185.9609" y2="198.9609"/><line style="stroke: #A80036; stroke-width: 1.0;" x1="480" x2="521" y1="198.9609" y2="198.9609"/><polygon fill="#A80036" points="490,194.9609,480,198.9609,490,202.9609,486,198.9609" style="stroke: #A80036; stroke-width: 1.0;"/><text fill="#000000" font-family="sans-serif" font-size="13" lengthAdjust="spacingAndGlyphs" textLength="65" x="486" y="180.895">Transform</text><polygon fill="#A80036" points="366.5,224.0938,356.5,228.0938,366.5,232.0938,362.5,228.0938" style="stroke: #A80036; stroke-width: 1.0;"/><line style="stroke: #A80036; stroke-width: 1.0;" x1="360.5" x2="478" y1="228.0938" y2="228.0938"/><text fill="#000000" font-family="sans-serif" font-size="13" lengthAdjust="spacingAndGlyphs" textLength="67" x="372.5" y="223.0278">Homonym</text><polygon fill="#A80036" points="255.5,253.2266,245.5,257.2266,255.5,261.2266,251.5,257.2266" style="stroke: #A80036; stroke-width: 1.0;"/><line style="stroke: #A80036; stroke-width: 1.0;" x1="249.5" x2="354.5" y1="257.2266" y2="257.2266"/><text fill="#000000" font-family="sans-serif" font-size="13" lengthAdjust="spacingAndGlyphs" textLength="36" x="261.5" y="252.1606">Event</text><polygon fill="#A80036" points="82.5,282.3594,72.5,286.3594,82.5,290.3594,78.5,286.3594" style="stroke: #A80036; stroke-width: 1.0;"/><line style="stroke: #A80036; stroke-width: 1.0;" x1="76.5" x2="243.5" y1="286.3594" y2="286.3594"/><text fill="#000000" font-family="sans-serif" font-size="13" lengthAdjust="spacingAndGlyphs" textLength="108" x="88.5" y="281.2935">Data(Homonym)</text><polygon fill="#A80036" points="607.5,311.4922,617.5,315.4922,607.5,319.4922,611.5,315.4922" style="stroke: #A80036; stroke-width: 1.0;"/><line style="stroke: #A80036; stroke-width: 1.0;" x1="355.5" x2="613.5" y1="315.4922" y2="315.4922"/><text fill="#000000" font-family="sans-serif" font-size="13" lengthAdjust="spacingAndGlyphs" textLength="88" x="362.5" y="310.4263">getHomonym</text><polygon fill="#A80036" points="1684,340.625,1694,344.625,1684,348.625,1688,344.625" style="stroke: #A80036; stroke-width: 1.0;"/><line style="stroke: #A80036; stroke-width: 1.0;" x1="619.5" x2="1690" y1="344.625" y2="344.625"/><text fill="#000000" font-family="sans-serif" font-size="13" lengthAdjust="spacingAndGlyphs" textLength="32" x="626.5" y="339.5591">fetch</text><polygon fill="#A80036" points="630.5,369.7578,620.5,373.7578,630.5,377.7578,626.5,373.7578" style="stroke: #A80036; stroke-width: 1.0;"/><line style="stroke: #A80036; stroke-width: 1.0;" x1="624.5" x2="1695" y1="373.7578" y2="373.7578"/><text fill="#000000" font-family="sans-serif" font-size="13" lengthAdjust="spacingAndGlyphs" textLength="63" x="636.5" y="368.6919">JSONData</text><line style="stroke: #A80036; stroke-width: 1.0;" x1="619.5" x2="661.5" y1="402.8906" y2="402.8906"/><line style="stroke: #A80036; stroke-width: 1.0;" x1="661.5" x2="661.5" y1="402.8906" y2="415.8906"/><line style="stroke: #A80036; stroke-width: 1.0;" x1="620.5" x2="661.5" y1="415.8906" y2="415.8906"/><polygon fill="#A80036" points="630.5,411.8906,620.5,415.8906,630.5,419.8906,626.5,415.8906" style="stroke: #A80036; stroke-width: 1.0;"/><text fill="#000000" font-family="sans-serif" font-size="13" lengthAdjust="spacingAndGlyphs" textLength="65" x="626.5" y="397.8247">Transform</text><polygon fill="#A80036" points="366.5,441.0234,356.5,445.0234,366.5,449.0234,362.5,445.0234" style="stroke: #A80036; stroke-width: 1.0;"/><line style="stroke: #A80036; stroke-width: 1.0;" x1="360.5" x2="618.5" y1="445.0234" y2="445.0234"/><text fill="#000000" font-family="sans-serif" font-size="13" lengthAdjust="spacingAndGlyphs" textLength="67" x="372.5" y="439.9575">Homonym</text><polygon fill="#A80036" points="255.5,470.1563,245.5,474.1563,255.5,478.1563,251.5,474.1563" style="stroke: #A80036; stroke-width: 1.0;"/><line style="stroke: #A80036; stroke-width: 1.0;" x1="249.5" x2="354.5" y1="474.1563" y2="474.1563"/><text fill="#000000" font-family="sans-serif" font-size="13" lengthAdjust="spacingAndGlyphs" textLength="36" x="261.5" y="469.0903">Event</text><polygon fill="#A80036" points="82.5,499.2891,72.5,503.2891,82.5,507.2891,78.5,503.2891" style="stroke: #A80036; stroke-width: 1.0;"/><line style="stroke: #A80036; stroke-width: 1.0;" x1="76.5" x2="243.5" y1="503.2891" y2="503.2891"/><text fill="#000000" font-family="sans-serif" font-size="13" lengthAdjust="spacingAndGlyphs" textLength="108" x="88.5" y="498.2231">Data(Homonym)</text><polygon fill="#A80036" points="1304.5,528.4219,1314.5,532.4219,1304.5,536.4219,1308.5,532.4219" style="stroke: #A80036; stroke-width: 1.0;"/><line style="stroke: #A80036; stroke-width: 1.0;" x1="244.5" x2="1310.5" y1="532.4219" y2="532.4219"/><text fill="#000000" font-family="sans-serif" font-size="13" lengthAdjust="spacingAndGlyphs" textLength="129" x="251.5" y="527.356">getInflectionViewSet</text><polygon fill="#A80036" points="255.5,557.5547,245.5,561.5547,255.5,565.5547,251.5,561.5547" style="stroke: #A80036; stroke-width: 1.0;"/><line style="stroke: #A80036; stroke-width: 1.0;" x1="249.5" x2="1315.5" y1="561.5547" y2="561.5547"/><text fill="#000000" font-family="sans-serif" font-size="13" lengthAdjust="spacingAndGlyphs" textLength="108" x="261.5" y="556.4888">InflectionViewSet</text><polygon fill="#A80036" points="82.5,586.6875,72.5,590.6875,82.5,594.6875,78.5,590.6875" style="stroke: #A80036; stroke-width: 1.0;"/><line style="stroke: #A80036; stroke-width: 1.0;" x1="76.5" x2="243.5" y1="590.6875" y2="590.6875"/><text fill="#000000" font-family="sans-serif" font-size="13" lengthAdjust="spacingAndGlyphs" textLength="149" x="88.5" y="585.6216">Data(InflectionViewSet)</text><polygon fill="#A80036" points="1540.5,615.8203,1550.5,619.8203,1540.5,623.8203,1544.5,619.8203" style="stroke: #A80036; stroke-width: 1.0;"/><line style="stroke: #A80036; stroke-width: 1.0;" x1="355.5" x2="1546.5" y1="619.8203" y2="619.8203"/><text fill="#000000" font-family="sans-serif" font-size="13" lengthAdjust="spacingAndGlyphs" textLength="98" x="362.5" y="614.7544">getTranslations</text><polygon fill="#A80036" points="1684,644.9531,1694,648.9531,1684,652.9531,1688,648.9531" style="stroke: #A80036; stroke-width: 1.0;"/><line style="stroke: #A80036; stroke-width: 1.0;" x1="1552.5" x2="1690" y1="648.9531" y2="648.9531"/><text fill="#000000" font-family="sans-serif" font-size="13" lengthAdjust="spacingAndGlyphs" textLength="32" x="1559.5" y="643.8872">fetch</text><polygon fill="#A80036" points="1563.5,674.0859,1553.5,678.0859,1563.5,682.0859,1559.5,678.0859" style="stroke: #A80036; stroke-width: 1.0;"/><line style="stroke: #A80036; stroke-width: 1.0;" x1="1557.5" x2="1695" y1="678.0859" y2="678.0859"/><text fill="#000000" font-family="sans-serif" font-size="13" lengthAdjust="spacingAndGlyphs" textLength="63" x="1569.5" y="673.02">JSONData</text><line style="stroke: #A80036; stroke-width: 1.0;" x1="1552.5" x2="1594.5" y1="707.2188" y2="707.2188"/><line style="stroke: #A80036; stroke-width: 1.0;" x1="1594.5" x2="1594.5" y1="707.2188" y2="720.2188"/><line style="stroke: #A80036; stroke-width: 1.0;" x1="1553.5" x2="1594.5" y1="720.2188" y2="720.2188"/><polygon fill="#A80036" points="1563.5,716.2188,1553.5,720.2188,1563.5,724.2188,1559.5,720.2188" style="stroke: #A80036; stroke-width: 1.0;"/><text fill="#000000" font-family="sans-serif" font-size="13" lengthAdjust="spacingAndGlyphs" textLength="65" x="1559.5" y="702.1528">Transform</text><polygon fill="#A80036" points="366.5,745.3516,356.5,749.3516,366.5,753.3516,362.5,749.3516" style="stroke: #A80036; stroke-width: 1.0;"/><line style="stroke: #A80036; stroke-width: 1.0;" x1="360.5" x2="1551.5" y1="749.3516" y2="749.3516"/><text fill="#000000" font-family="sans-serif" font-size="13" lengthAdjust="spacingAndGlyphs" textLength="77" x="372.5" y="744.2856">Translations</text><polygon fill="#A80036" points="255.5,774.4844,245.5,778.4844,255.5,782.4844,251.5,778.4844" style="stroke: #A80036; stroke-width: 1.0;"/><line style="stroke: #A80036; stroke-width: 1.0;" x1="249.5" x2="354.5" y1="778.4844" y2="778.4844"/><text fill="#000000" font-family="sans-serif" font-size="13" lengthAdjust="spacingAndGlyphs" textLength="36" x="261.5" y="773.4185">Event</text><polygon fill="#A80036" points="82.5,803.6172,72.5,807.6172,82.5,811.6172,78.5,807.6172" style="stroke: #A80036; stroke-width: 1.0;"/><line style="stroke: #A80036; stroke-width: 1.0;" x1="76.5" x2="243.5" y1="807.6172" y2="807.6172"/><text fill="#000000" font-family="sans-serif" font-size="13" lengthAdjust="spacingAndGlyphs" textLength="118" x="88.5" y="802.5513">Data(Translations)</text><polygon fill="#A80036" points="741,832.75,751,836.75,741,840.75,745,836.75" style="stroke: #A80036; stroke-width: 1.0;"/><line style="stroke: #A80036; stroke-width: 1.0;" x1="355.5" x2="747" y1="836.75" y2="836.75"/><text fill="#000000" font-family="sans-serif" font-size="13" lengthAdjust="spacingAndGlyphs" textLength="85" x="362.5" y="831.6841">getShortDefs</text><polygon fill="#A80036" points="1805.5,861.8828,1815.5,865.8828,1805.5,869.8828,1809.5,865.8828" style="stroke: #A80036; stroke-width: 1.0;"/><line style="stroke: #A80036; stroke-width: 1.0;" x1="753" x2="1811.5" y1="865.8828" y2="865.8828"/><text fill="#000000" font-family="sans-serif" font-size="13" lengthAdjust="spacingAndGlyphs" textLength="25" x="760" y="860.8169">GET</text><polygon fill="#A80036" points="764,891.0156,754,895.0156,764,899.0156,760,895.0156" style="stroke: #A80036; stroke-width: 1.0;"/><line style="stroke: #A80036; stroke-width: 1.0;" x1="758" x2="1816.5" y1="895.0156" y2="895.0156"/><text fill="#000000" font-family="sans-serif" font-size="13" lengthAdjust="spacingAndGlyphs" textLength="102" x="770" y="889.9497">CSVData(index)</text><line style="stroke: #A80036; stroke-width: 1.0;" x1="753" x2="795" y1="924.1484" y2="924.1484"/><line style="stroke: #A80036; stroke-width: 1.0;" x1="795" x2="795" y1="924.1484" y2="937.1484"/><line style="stroke: #A80036; stroke-width: 1.0;" x1="754" x2="795" y1="937.1484" y2="937.1484"/><polygon fill="#A80036" points="764,933.1484,754,937.1484,764,941.1484,760,937.1484" style="stroke: #A80036; stroke-width: 1.0;"/><text fill="#000000" font-family="sans-serif" font-size="13" lengthAdjust="spacingAndGlyphs" textLength="65" x="760" y="919.0825">Transform</text><line style="stroke: #A80036; stroke-width: 1.0;" x1="753" x2="795" y1="966.2813" y2="966.2813"/><line style="stroke: #A80036; stroke-width: 1.0;" x1="795" x2="795" y1="966.2813" y2="979.2813"/><line style="stroke: #A80036; stroke-width: 1.0;" x1="754" x2="795" y1="979.2813" y2="979.2813"/><polygon fill="#A80036" points="764,975.2813,754,979.2813,764,983.2813,760,979.2813" style="stroke: #A80036; stroke-width: 1.0;"/><text fill="#000000" font-family="sans-serif" font-size="13" lengthAdjust="spacingAndGlyphs" textLength="84" x="760" y="961.2153">Cache(index)</text><polygon fill="#A80036" points="366.5,1004.4141,356.5,1008.4141,366.5,1012.4141,362.5,1008.4141" style="stroke: #A80036; stroke-width: 1.0;"/><line style="stroke: #A80036; stroke-width: 1.0;" x1="360.5" x2="752" y1="1008.4141" y2="1008.4141"/><text fill="#000000" font-family="sans-serif" font-size="13" lengthAdjust="spacingAndGlyphs" textLength="67" x="372.5" y="1003.3481">Definitions</text><polygon fill="#A80036" points="255.5,1033.5469,245.5,1037.5469,255.5,1041.5469,251.5,1037.5469" style="stroke: #A80036; stroke-width: 1.0;"/><line style="stroke: #A80036; stroke-width: 1.0;" x1="249.5" x2="354.5" y1="1037.5469" y2="1037.5469"/><text fill="#000000" font-family="sans-serif" font-size="13" lengthAdjust="spacingAndGlyphs" textLength="36" x="261.5" y="1032.481">Event</text><polygon fill="#A80036" points="82.5,1062.6797,72.5,1066.6797,82.5,1070.6797,78.5,1066.6797" style="stroke: #A80036; stroke-width: 1.0;"/><line style="stroke: #A80036; stroke-width: 1.0;" x1="76.5" x2="243.5" y1="1066.6797" y2="1066.6797"/><text fill="#000000" font-family="sans-serif" font-size="13" lengthAdjust="spacingAndGlyphs" textLength="108" x="88.5" y="1061.6138">Data(Definitions)</text><polygon fill="#A80036" points="741,1091.8125,751,1095.8125,741,1099.8125,745,1095.8125" style="stroke: #A80036; stroke-width: 1.0;"/><line style="stroke: #A80036; stroke-width: 1.0;" x1="355.5" x2="747" y1="1095.8125" y2="1095.8125"/><text fill="#000000" font-family="sans-serif" font-size="13" lengthAdjust="spacingAndGlyphs" textLength="71" x="362.5" y="1090.7466">getFullDefs</text><polygon fill="#A80036" points="1805.5,1120.9453,1815.5,1124.9453,1805.5,1128.9453,1809.5,1124.9453" style="stroke: #A80036; stroke-width: 1.0;"/><line style="stroke: #A80036; stroke-width: 1.0;" x1="753" x2="1811.5" y1="1124.9453" y2="1124.9453"/><text fill="#000000" font-family="sans-serif" font-size="13" lengthAdjust="spacingAndGlyphs" textLength="25" x="760" y="1119.8794">GET</text><polygon fill="#A80036" points="764,1150.0781,754,1154.0781,764,1158.0781,760,1154.0781" style="stroke: #A80036; stroke-width: 1.0;"/><line style="stroke: #A80036; stroke-width: 1.0;" x1="758" x2="1816.5" y1="1154.0781" y2="1154.0781"/><text fill="#000000" font-family="sans-serif" font-size="13" lengthAdjust="spacingAndGlyphs" textLength="102" x="770" y="1149.0122">CSVData(index)</text><line style="stroke: #A80036; stroke-width: 1.0;" x1="753" x2="795" y1="1183.2109" y2="1183.2109"/><line style="stroke: #A80036; stroke-width: 1.0;" x1="795" x2="795" y1="1183.2109" y2="1196.2109"/><line style="stroke: #A80036; stroke-width: 1.0;" x1="754" x2="795" y1="1196.2109" y2="1196.2109"/><polygon fill="#A80036" points="764,1192.2109,754,1196.2109,764,1200.2109,760,1196.2109" style="stroke: #A80036; stroke-width: 1.0;"/><text fill="#000000" font-family="sans-serif" font-size="13" lengthAdjust="spacingAndGlyphs" textLength="65" x="760" y="1178.145">Transform</text><line style="stroke: #A80036; stroke-width: 1.0;" x1="753" x2="795" y1="1225.3438" y2="1225.3438"/><line style="stroke: #A80036; stroke-width: 1.0;" x1="795" x2="795" y1="1225.3438" y2="1238.3438"/><line style="stroke: #A80036; stroke-width: 1.0;" x1="754" x2="795" y1="1238.3438" y2="1238.3438"/><polygon fill="#A80036" points="764,1234.3438,754,1238.3438,764,1242.3438,760,1238.3438" style="stroke: #A80036; stroke-width: 1.0;"/><text fill="#000000" font-family="sans-serif" font-size="13" lengthAdjust="spacingAndGlyphs" textLength="84" x="760" y="1220.2778">Cache(index)</text><polygon fill="#A80036" points="1684,1263.4766,1694,1267.4766,1684,1271.4766,1688,1267.4766" style="stroke: #A80036; stroke-width: 1.0;"/><line style="stroke: #A80036; stroke-width: 1.0;" x1="753" x2="1690" y1="1267.4766" y2="1267.4766"/><text fill="#000000" font-family="sans-serif" font-size="13" lengthAdjust="spacingAndGlyphs" textLength="69" x="760" y="1262.4106">fetch(defs)</text><polygon fill="#A80036" points="764,1292.6094,754,1296.6094,764,1300.6094,760,1296.6094" style="stroke: #A80036; stroke-width: 1.0;"/><line style="stroke: #A80036; stroke-width: 1.0;" x1="758" x2="1695" y1="1296.6094" y2="1296.6094"/><text fill="#000000" font-family="sans-serif" font-size="13" lengthAdjust="spacingAndGlyphs" textLength="66" x="770" y="1291.5435">HTMLData</text><polygon fill="#A80036" points="366.5,1321.7422,356.5,1325.7422,366.5,1329.7422,362.5,1325.7422" style="stroke: #A80036; stroke-width: 1.0;"/><line style="stroke: #A80036; stroke-width: 1.0;" x1="360.5" x2="752" y1="1325.7422" y2="1325.7422"/><text fill="#000000" font-family="sans-serif" font-size="13" lengthAdjust="spacingAndGlyphs" textLength="67" x="372.5" y="1320.6763">Definitions</text><polygon fill="#A80036" points="255.5,1350.875,245.5,1354.875,255.5,1358.875,251.5,1354.875" style="stroke: #A80036; stroke-width: 1.0;"/><line style="stroke: #A80036; stroke-width: 1.0;" x1="249.5" x2="354.5" y1="1354.875" y2="1354.875"/><text fill="#000000" font-family="sans-serif" font-size="13" lengthAdjust="spacingAndGlyphs" textLength="36" x="261.5" y="1349.8091">Event</text><polygon fill="#A80036" points="82.5,1380.0078,72.5,1384.0078,82.5,1388.0078,78.5,1384.0078" style="stroke: #A80036; stroke-width: 1.0;"/><line style="stroke: #A80036; stroke-width: 1.0;" x1="76.5" x2="243.5" y1="1384.0078" y2="1384.0078"/><text fill="#000000" font-family="sans-serif" font-size="13" lengthAdjust="spacingAndGlyphs" textLength="108" x="88.5" y="1378.9419">Data(Definitions)</text><polygon fill="#A80036" points="1418,1409.1406,1428,1413.1406,1418,1417.1406,1422,1413.1406" style="stroke: #A80036; stroke-width: 1.0;"/><line style="stroke: #A80036; stroke-width: 1.0;" x1="244.5" x2="1424" y1="1413.1406" y2="1413.1406"/><text fill="#000000" font-family="sans-serif" font-size="13" lengthAdjust="spacingAndGlyphs" textLength="142" x="251.5" y="1408.0747">getGrammarResource</text><polygon fill="#A80036" points="1684,1438.2734,1694,1442.2734,1684,1446.2734,1688,1442.2734" style="stroke: #A80036; stroke-width: 1.0;"/><line style="stroke: #A80036; stroke-width: 1.0;" x1="1430" x2="1690" y1="1442.2734" y2="1442.2734"/><text fill="#000000" font-family="sans-serif" font-size="13" lengthAdjust="spacingAndGlyphs" textLength="76" x="1437" y="1437.2075">fetch(index)</text><polygon fill="#A80036" points="1441,1467.4063,1431,1471.4063,1441,1475.4063,1437,1471.4063" style="stroke: #A80036; stroke-width: 1.0;"/><line style="stroke: #A80036; stroke-width: 1.0;" x1="1435" x2="1695" y1="1471.4063" y2="1471.4063"/><text fill="#000000" font-family="sans-serif" font-size="13" lengthAdjust="spacingAndGlyphs" textLength="58" x="1447" y="1466.3403">CSVData</text><line style="stroke: #A80036; stroke-width: 1.0;" x1="1430" x2="1472" y1="1500.5391" y2="1500.5391"/><line style="stroke: #A80036; stroke-width: 1.0;" x1="1472" x2="1472" y1="1500.5391" y2="1513.5391"/><line style="stroke: #A80036; stroke-width: 1.0;" x1="1431" x2="1472" y1="1513.5391" y2="1513.5391"/><polygon fill="#A80036" points="1441,1509.5391,1431,1513.5391,1441,1517.5391,1437,1513.5391" style="stroke: #A80036; stroke-width: 1.0;"/><text fill="#000000" font-family="sans-serif" font-size="13" lengthAdjust="spacingAndGlyphs" textLength="65" x="1437" y="1495.4731">Transform</text><line style="stroke: #A80036; stroke-width: 1.0;" x1="1430" x2="1472" y1="1542.6719" y2="1542.6719"/><line style="stroke: #A80036; stroke-width: 1.0;" x1="1472" x2="1472" y1="1542.6719" y2="1555.6719"/><line style="stroke: #A80036; stroke-width: 1.0;" x1="1431" x2="1472" y1="1555.6719" y2="1555.6719"/><polygon fill="#A80036" points="1441,1551.6719,1431,1555.6719,1441,1559.6719,1437,1555.6719" style="stroke: #A80036; stroke-width: 1.0;"/><text fill="#000000" font-family="sans-serif" font-size="13" lengthAdjust="spacingAndGlyphs" textLength="40" x="1437" y="1537.606">Cache</text><polygon fill="#A80036" points="255.5,1580.8047,245.5,1584.8047,255.5,1588.8047,251.5,1584.8047" style="stroke: #A80036; stroke-width: 1.0;"/><line style="stroke: #A80036; stroke-width: 1.0;" x1="249.5" x2="1429" y1="1584.8047" y2="1584.8047"/><text fill="#000000" font-family="sans-serif" font-size="13" lengthAdjust="spacingAndGlyphs" textLength="25" x="261.5" y="1579.7388">URL</text><polygon fill="#A80036" points="82.5,1609.9375,72.5,1613.9375,82.5,1617.9375,78.5,1613.9375" style="stroke: #A80036; stroke-width: 1.0;"/><line style="stroke: #A80036; stroke-width: 1.0;" x1="76.5" x2="243.5" y1="1613.9375" y2="1613.9375"/><text fill="#000000" font-family="sans-serif" font-size="13" lengthAdjust="spacingAndGlyphs" textLength="126" x="88.5" y="1608.8716">Data(grammarURL)</text><polygon fill="#A80036" points="1805.5,1639.0703,1815.5,1643.0703,1805.5,1647.0703,1809.5,1643.0703" style="stroke: #A80036; stroke-width: 1.0;"/><line style="stroke: #A80036; stroke-width: 1.0;" x1="71.5" x2="1811.5" y1="1643.0703" y2="1643.0703"/><text fill="#000000" font-family="sans-serif" font-size="13" lengthAdjust="spacingAndGlyphs" textLength="25" x="78.5" y="1638.0044">GET</text><polygon fill="#A80036" points="82.5,1668.2031,72.5,1672.2031,82.5,1676.2031,78.5,1672.2031" style="stroke: #A80036; stroke-width: 1.0;"/><line style="stroke: #A80036; stroke-width: 1.0;" x1="76.5" x2="1816.5" y1="1672.2031" y2="1672.2031"/><text fill="#000000" font-family="sans-serif" font-size="13" lengthAdjust="spacingAndGlyphs" textLength="94" x="88.5" y="1667.1372">HTMLResource</text><polygon fill="#A80036" points="82.5,1697.3359,72.5,1701.3359,82.5,1705.3359,78.5,1701.3359" style="stroke: #A80036; stroke-width: 1.0;"/><line style="stroke: #A80036; stroke-width: 1.0;" x1="76.5" x2="243.5" y1="1701.3359" y2="1701.3359"/><text fill="#000000" font-family="sans-serif" font-size="13" lengthAdjust="spacingAndGlyphs" textLength="123" x="88.5" y="1696.27">Data(treebankURL)</text><polygon fill="#A80036" points="1805.5,1726.4688,1815.5,1730.4688,1805.5,1734.4688,1809.5,1730.4688" style="stroke: #A80036; stroke-width: 1.0;"/><line style="stroke: #A80036; stroke-width: 1.0;" x1="71.5" x2="1811.5" y1="1730.4688" y2="1730.4688"/><text fill="#000000" font-family="sans-serif" font-size="13" lengthAdjust="spacingAndGlyphs" textLength="25" x="78.5" y="1725.4028">GET</text><polygon fill="#A80036" points="82.5,1755.6016,72.5,1759.6016,82.5,1763.6016,78.5,1759.6016" style="stroke: #A80036; stroke-width: 1.0;"/><line style="stroke: #A80036; stroke-width: 1.0;" x1="76.5" x2="1816.5" y1="1759.6016" y2="1759.6016"/><text fill="#000000" font-family="sans-serif" font-size="13" lengthAdjust="spacingAndGlyphs" textLength="94" x="88.5" y="1754.5356">HTMLResource</text><!--
@startuml
participant VueComponent as V
participant UIController as C
participant LexicalQuery as L
participant TreebankClient as T
participant MorphologyClient as M
participant LexiconClient as X
participant ShortDefinitionIndex as S
participant FullDefinitionIndex as D
participant FullDefinition as F
participant InflectionTables as I
participant Grammar as G
participant TranslationService as A
participant RemoteService as R
participant RemoteURL as U


C -> L: getData
L -> T: getHomonym
T -> R: fetch
R -> T: XMLData
T -> T: Transform
T -> L: Homonym
L -> C: Event
C -> V: Data(Homonym)
L -> M: getHomonym
M -> R: fetch
R -> M: JSONData
M -> M: Transform
M -> L: Homonym
L -> C: Event
C -> V: Data(Homonym)
C -> I: getInflectionViewSet
I -> C: InflectionViewSet
C -> V: Data(InflectionViewSet)
L -> A: getTranslations
A -> R: fetch
R -> A: JSONData
A -> A: Transform
A -> L: Translations
L -> C: Event
C -> V: Data(Translations)
L -> X: getShortDefs
X -> U: GET
U -> X: CSVData(index)
X -> X: Transform
X -> X: Cache(index)
X -> L: Definitions
L -> C: Event
C -> V: Data(Definitions)
L -> X: getFullDefs
X -> U: GET
U -> X: CSVData(index)
X -> X: Transform
X -> X: Cache(index)
X -> R: fetch(defs)
R -> X: HTMLData
X -> L: Definitions
L -> C: Event
C -> V: Data(Definitions)
C -> G: getGrammarResource
G -> R: fetch(index)
R -> G: CSVData
G -> G: Transform
G -> G: Cache
G -> C: URL
C -> V: Data(grammarURL)
V -> U: GET
U -> V: HTMLResource
C -> V: Data(treebankURL)
V -> U: GET
U -> V: HTMLResource
@enduml

PlantUML version 1.2018.13(Mon Nov 26 17:11:51 UTC 2018)
(GPL source distribution)
Java Runtime: Java(TM) SE Runtime Environment
JVM: Java HotSpot(TM) 64-Bit Server VM
Java Version: 1.7.0_25-b15
Operating System: Linux
Default Encoding: UTF-8
Language: en
Country: US
--></g></svg>