<?xml version="1.0" encoding="UTF-8" standalone="no"?><svg xmlns="http://www.w3.org/2000/svg" xmlns:xlink="http://www.w3.org/1999/xlink" contentScriptType="application/ecmascript" contentStyleType="text/css" height="388px" preserveAspectRatio="none" style="width:1148px;height:388px;" version="1.1" viewBox="0 0 1148 388" width="1148px" zoomAndPan="magnify"><defs><filter height="300%" id="f968frsdiv7uc" width="300%" x="-1" y="-1"><feGaussianBlur result="blurOut" stdDeviation="2.0"/><feColorMatrix in="blurOut" result="blurOut2" type="matrix" values="0 0 0 0 0 0 0 0 0 0 0 0 0 0 0 0 0 0 .4 0"/><feOffset dx="4.0" dy="4.0" in="blurOut2" result="blurOut3"/><feBlend in="SourceGraphic" in2="blurOut3" mode="normal"/></filter></defs><g><!--class Content--><rect fill="#ADD8E6" filter="url(#f968frsdiv7uc)" height="89.5078" id="Content" style="stroke: #A80036; stroke-width: 1.5;" width="223" x="424.5" y="8"/><rect fill="#ADD8E6" height="32" style="stroke: #A80036; stroke-width: 1.5;" width="223" x="424.5" y="8"/><ellipse cx="510.25" cy="24" fill="#ADD1B2" rx="11" ry="11" style="stroke: #A80036; stroke-width: 1.0;"/><path d="M512.25,20.5 Q512.4531,20 512.6875,19.75 Q512.9219,19.5 513.1875,19.5 Q513.6563,19.5 513.9531,19.7813 Q514.25,20.0625 514.25,20.7188 L514.25,22.2813 Q514.25,22.9375 513.9688,23.2188 Q513.6875,23.5 513.25,23.5 Q512.8594,23.5 512.6094,23.3281 Q512.3594,23.1563 512.25,22.7031 Q512.2031,22.3906 512.0313,22.2188 Q511.7188,21.8906 511.1563,21.6953 Q510.5938,21.5 510.0313,21.5 Q509.3281,21.5 508.7422,21.7813 Q508.1563,22.0625 507.7031,22.6875 Q507.25,23.3125 507.25,24.1719 L507.25,25.0938 Q507.25,26.125 508.0938,26.8125 Q508.9375,27.5 510.4375,27.5 Q511.3281,27.5 511.9531,27.2969 Q512.3125,27.1875 512.7188,26.8281 Q512.9844,26.625 513.125,26.5625 Q513.2656,26.5 513.4375,26.5 Q513.7656,26.5 514.0078,26.7578 Q514.25,27.0156 514.25,27.375 Q514.25,27.7188 513.9063,28.125 Q513.4063,28.7188 512.6094,29.0469 Q511.5625,29.5 510.2813,29.5 Q508.7813,29.5 507.5781,28.9063 Q506.6094,28.4375 505.9297,27.4219 Q505.25,26.4063 505.25,25.2031 L505.25,24.1094 Q505.25,22.8594 505.8516,21.7656 Q506.4531,20.6719 507.5078,20.0859 Q508.5625,19.5 509.75,19.5 Q510.4688,19.5 511.0938,19.75 Q511.7188,20 512.25,20.5 Z "/><text fill="#000000" font-family="sans-serif" font-size="12" lengthAdjust="spacingAndGlyphs" textLength="43" x="530.75" y="28.9102">Content</text><line style="stroke: #A80036; stroke-width: 1.5;" x1="425.5" x2="646.5" y1="40" y2="40"/><text fill="#000000" font-family="sans-serif" font-size="11" lengthAdjust="spacingAndGlyphs" textLength="211" x="430.5" y="55.4189">Handling of background script/app requests</text><text fill="#000000" font-family="sans-serif" font-size="11" lengthAdjust="spacingAndGlyphs" textLength="211" x="430.5" y="69.2549">Notification of background of state changes</text><line style="stroke: #A80036; stroke-width: 1.0; stroke-dasharray: 1.0,2.0;" x1="425.5" x2="646.5" y1="75.6719" y2="75.6719"/><text fill="#000000" font-family="sans-serif" font-size="11" lengthAdjust="spacingAndGlyphs" textLength="96" x="430.5" y="91.0908">browser dependent</text><!--class MessagingService--><rect fill="#ADD8E6" filter="url(#f968frsdiv7uc)" height="89.5078" id="MessagingService" style="stroke: #A80036; stroke-width: 1.5;" width="172" x="339" y="162"/><rect fill="#ADD8E6" height="32" style="stroke: #A80036; stroke-width: 1.5;" width="172" x="339" y="162"/><ellipse cx="371.55" cy="178" fill="#ADD1B2" rx="11" ry="11" style="stroke: #A80036; stroke-width: 1.0;"/><path d="M373.55,174.5 Q373.7531,174 373.9875,173.75 Q374.2219,173.5 374.4875,173.5 Q374.9563,173.5 375.2531,173.7813 Q375.55,174.0625 375.55,174.7188 L375.55,176.2813 Q375.55,176.9375 375.2688,177.2188 Q374.9875,177.5 374.55,177.5 Q374.1594,177.5 373.9094,177.3281 Q373.6594,177.1563 373.55,176.7031 Q373.5031,176.3906 373.3313,176.2188 Q373.0188,175.8906 372.4563,175.6953 Q371.8938,175.5 371.3313,175.5 Q370.6281,175.5 370.0422,175.7813 Q369.4563,176.0625 369.0031,176.6875 Q368.55,177.3125 368.55,178.1719 L368.55,179.0938 Q368.55,180.125 369.3938,180.8125 Q370.2375,181.5 371.7375,181.5 Q372.6281,181.5 373.2531,181.2969 Q373.6125,181.1875 374.0188,180.8281 Q374.2844,180.625 374.425,180.5625 Q374.5656,180.5 374.7375,180.5 Q375.0656,180.5 375.3078,180.7578 Q375.55,181.0156 375.55,181.375 Q375.55,181.7188 375.2063,182.125 Q374.7063,182.7188 373.9094,183.0469 Q372.8625,183.5 371.5813,183.5 Q370.0813,183.5 368.8781,182.9063 Q367.9094,182.4375 367.2297,181.4219 Q366.55,180.4063 366.55,179.2031 L366.55,178.1094 Q366.55,176.8594 367.1516,175.7656 Q367.7531,174.6719 368.8078,174.0859 Q369.8625,173.5 371.05,173.5 Q371.7688,173.5 372.3938,173.75 Q373.0188,174 373.55,174.5 Z "/><text fill="#000000" font-family="sans-serif" font-size="12" lengthAdjust="spacingAndGlyphs" textLength="101" x="389.45" y="182.9102">MessagingService</text><line style="stroke: #A80036; stroke-width: 1.5;" x1="340" x2="510" y1="194" y2="194"/><text fill="#000000" font-family="sans-serif" font-size="11" lengthAdjust="spacingAndGlyphs" textLength="160" x="345" y="209.4189">Sending and receiving messages</text><text fill="#000000" font-family="sans-serif" font-size="11" lengthAdjust="spacingAndGlyphs" textLength="94" x="345" y="223.2549">to/from background</text><line style="stroke: #A80036; stroke-width: 1.0; stroke-dasharray: 1.0,2.0;" x1="340" x2="510" y1="229.6719" y2="229.6719"/><text fill="#000000" font-family="sans-serif" font-size="11" lengthAdjust="spacingAndGlyphs" textLength="96" x="345" y="245.0908">browser dependent</text><!--class TabScript--><rect fill="#FEFECE" filter="url(#f968frsdiv7uc)" height="61.8359" id="TabScript" style="stroke: #A80036; stroke-width: 1.5;" width="150" x="71" y="316"/><ellipse cx="115.75" cy="332" fill="#ADD1B2" rx="11" ry="11" style="stroke: #A80036; stroke-width: 1.0;"/><path d="M117.75,328.5 Q117.9531,328 118.1875,327.75 Q118.4219,327.5 118.6875,327.5 Q119.1563,327.5 119.4531,327.7813 Q119.75,328.0625 119.75,328.7188 L119.75,330.2813 Q119.75,330.9375 119.4688,331.2188 Q119.1875,331.5 118.75,331.5 Q118.3594,331.5 118.1094,331.3281 Q117.8594,331.1563 117.75,330.7031 Q117.7031,330.3906 117.5313,330.2188 Q117.2188,329.8906 116.6563,329.6953 Q116.0938,329.5 115.5313,329.5 Q114.8281,329.5 114.2422,329.7813 Q113.6563,330.0625 113.2031,330.6875 Q112.75,331.3125 112.75,332.1719 L112.75,333.0938 Q112.75,334.125 113.5938,334.8125 Q114.4375,335.5 115.9375,335.5 Q116.8281,335.5 117.4531,335.2969 Q117.8125,335.1875 118.2188,334.8281 Q118.4844,334.625 118.625,334.5625 Q118.7656,334.5 118.9375,334.5 Q119.2656,334.5 119.5078,334.7578 Q119.75,335.0156 119.75,335.375 Q119.75,335.7188 119.4063,336.125 Q118.9063,336.7188 118.1094,337.0469 Q117.0625,337.5 115.7813,337.5 Q114.2813,337.5 113.0781,336.9063 Q112.1094,336.4375 111.4297,335.4219 Q110.75,334.4063 110.75,333.2031 L110.75,332.1094 Q110.75,330.8594 111.3516,329.7656 Q111.9531,328.6719 113.0078,328.0859 Q114.0625,327.5 115.25,327.5 Q115.9688,327.5 116.5938,327.75 Q117.2188,328 117.75,328.5 Z "/><text fill="#000000" font-family="sans-serif" font-size="12" lengthAdjust="spacingAndGlyphs" textLength="52" x="136.25" y="336.9102">TabScript</text><line style="stroke: #A80036; stroke-width: 1.5;" x1="72" x2="220" y1="348" y2="348"/><line style="stroke: #A80036; stroke-width: 1.5;" x1="72" x2="220" y1="356" y2="356"/><text fill="#000000" font-family="sans-serif" font-size="11" lengthAdjust="spacingAndGlyphs" textLength="138" x="77" y="371.4189">State of a current tab (page)</text><!--class ContentOptions--><rect fill="#FEFECE" filter="url(#f968frsdiv7uc)" height="61.8359" id="ContentOptions" style="stroke: #A80036; stroke-width: 1.5;" width="194" x="256" y="316"/><ellipse cx="305.75" cy="332" fill="#ADD1B2" rx="11" ry="11" style="stroke: #A80036; stroke-width: 1.0;"/><path d="M307.75,328.5 Q307.9531,328 308.1875,327.75 Q308.4219,327.5 308.6875,327.5 Q309.1563,327.5 309.4531,327.7813 Q309.75,328.0625 309.75,328.7188 L309.75,330.2813 Q309.75,330.9375 309.4688,331.2188 Q309.1875,331.5 308.75,331.5 Q308.3594,331.5 308.1094,331.3281 Q307.8594,331.1563 307.75,330.7031 Q307.7031,330.3906 307.5313,330.2188 Q307.2188,329.8906 306.6563,329.6953 Q306.0938,329.5 305.5313,329.5 Q304.8281,329.5 304.2422,329.7813 Q303.6563,330.0625 303.2031,330.6875 Q302.75,331.3125 302.75,332.1719 L302.75,333.0938 Q302.75,334.125 303.5938,334.8125 Q304.4375,335.5 305.9375,335.5 Q306.8281,335.5 307.4531,335.2969 Q307.8125,335.1875 308.2188,334.8281 Q308.4844,334.625 308.625,334.5625 Q308.7656,334.5 308.9375,334.5 Q309.2656,334.5 309.5078,334.7578 Q309.75,335.0156 309.75,335.375 Q309.75,335.7188 309.4063,336.125 Q308.9063,336.7188 308.1094,337.0469 Q307.0625,337.5 305.7813,337.5 Q304.2813,337.5 303.0781,336.9063 Q302.1094,336.4375 301.4297,335.4219 Q300.75,334.4063 300.75,333.2031 L300.75,332.1094 Q300.75,330.8594 301.3516,329.7656 Q301.9531,328.6719 303.0078,328.0859 Q304.0625,327.5 305.25,327.5 Q305.9688,327.5 306.5938,327.75 Q307.2188,328 307.75,328.5 Z "/><text fill="#000000" font-family="sans-serif" font-size="12" lengthAdjust="spacingAndGlyphs" textLength="86" x="326.25" y="336.9102">ContentOptions</text><line style="stroke: #A80036; stroke-width: 1.5;" x1="257" x2="449" y1="348" y2="348"/><text fill="#000000" font-family="sans-serif" font-size="11" lengthAdjust="spacingAndGlyphs" textLength="182" x="262" y="363.4189">Options of working with page content</text><line style="stroke: #A80036; stroke-width: 1.5;" x1="257" x2="449" y1="369.8359" y2="369.8359"/><!--class ResourceOptions--><rect fill="#FEFECE" filter="url(#f968frsdiv7uc)" height="61.8359" id="ResourceOptions" style="stroke: #A80036; stroke-width: 1.5;" width="162" x="485" y="316"/><ellipse cx="514.85" cy="332" fill="#ADD1B2" rx="11" ry="11" style="stroke: #A80036; stroke-width: 1.0;"/><path d="M516.85,328.5 Q517.0531,328 517.2875,327.75 Q517.5219,327.5 517.7875,327.5 Q518.2563,327.5 518.5531,327.7813 Q518.85,328.0625 518.85,328.7188 L518.85,330.2813 Q518.85,330.9375 518.5688,331.2188 Q518.2875,331.5 517.85,331.5 Q517.4594,331.5 517.2094,331.3281 Q516.9594,331.1563 516.85,330.7031 Q516.8031,330.3906 516.6313,330.2188 Q516.3188,329.8906 515.7563,329.6953 Q515.1938,329.5 514.6313,329.5 Q513.9281,329.5 513.3422,329.7813 Q512.7563,330.0625 512.3031,330.6875 Q511.85,331.3125 511.85,332.1719 L511.85,333.0938 Q511.85,334.125 512.6938,334.8125 Q513.5375,335.5 515.0375,335.5 Q515.9281,335.5 516.5531,335.2969 Q516.9125,335.1875 517.3188,334.8281 Q517.5844,334.625 517.725,334.5625 Q517.8656,334.5 518.0375,334.5 Q518.3656,334.5 518.6078,334.7578 Q518.85,335.0156 518.85,335.375 Q518.85,335.7188 518.5063,336.125 Q518.0063,336.7188 517.2094,337.0469 Q516.1625,337.5 514.8813,337.5 Q513.3813,337.5 512.1781,336.9063 Q511.2094,336.4375 510.5297,335.4219 Q509.85,334.4063 509.85,333.2031 L509.85,332.1094 Q509.85,330.8594 510.4516,329.7656 Q511.0531,328.6719 512.1078,328.0859 Q513.1625,327.5 514.35,327.5 Q515.0688,327.5 515.6938,327.75 Q516.3188,328 516.85,328.5 Z "/><text fill="#000000" font-family="sans-serif" font-size="12" lengthAdjust="spacingAndGlyphs" textLength="97" x="532.15" y="336.9102">ResourceOptions</text><line style="stroke: #A80036; stroke-width: 1.5;" x1="486" x2="646" y1="348" y2="348"/><text fill="#000000" font-family="sans-serif" font-size="11" lengthAdjust="spacingAndGlyphs" textLength="150" x="491" y="363.4189">Options of language resources</text><line style="stroke: #A80036; stroke-width: 1.5;" x1="486" x2="646" y1="369.8359" y2="369.8359"/><!--class UIOptions--><rect fill="#FEFECE" filter="url(#f968frsdiv7uc)" height="61.8359" id="UIOptions" style="stroke: #A80036; stroke-width: 1.5;" width="87" x="682.5" y="316"/><ellipse cx="697.5" cy="332" fill="#ADD1B2" rx="11" ry="11" style="stroke: #A80036; stroke-width: 1.0;"/><path d="M699.5,328.5 Q699.7031,328 699.9375,327.75 Q700.1719,327.5 700.4375,327.5 Q700.9063,327.5 701.2031,327.7813 Q701.5,328.0625 701.5,328.7188 L701.5,330.2813 Q701.5,330.9375 701.2188,331.2188 Q700.9375,331.5 700.5,331.5 Q700.1094,331.5 699.8594,331.3281 Q699.6094,331.1563 699.5,330.7031 Q699.4531,330.3906 699.2813,330.2188 Q698.9688,329.8906 698.4063,329.6953 Q697.8438,329.5 697.2813,329.5 Q696.5781,329.5 695.9922,329.7813 Q695.4063,330.0625 694.9531,330.6875 Q694.5,331.3125 694.5,332.1719 L694.5,333.0938 Q694.5,334.125 695.3438,334.8125 Q696.1875,335.5 697.6875,335.5 Q698.5781,335.5 699.2031,335.2969 Q699.5625,335.1875 699.9688,334.8281 Q700.2344,334.625 700.375,334.5625 Q700.5156,334.5 700.6875,334.5 Q701.0156,334.5 701.2578,334.7578 Q701.5,335.0156 701.5,335.375 Q701.5,335.7188 701.1563,336.125 Q700.6563,336.7188 699.8594,337.0469 Q698.8125,337.5 697.5313,337.5 Q696.0313,337.5 694.8281,336.9063 Q693.8594,336.4375 693.1797,335.4219 Q692.5,334.4063 692.5,333.2031 L692.5,332.1094 Q692.5,330.8594 693.1016,329.7656 Q693.7031,328.6719 694.7578,328.0859 Q695.8125,327.5 697,327.5 Q697.7188,327.5 698.3438,327.75 Q698.9688,328 699.5,328.5 Z "/><text fill="#000000" font-family="sans-serif" font-size="12" lengthAdjust="spacingAndGlyphs" textLength="55" x="711.5" y="336.9102">UIOptions</text><line style="stroke: #A80036; stroke-width: 1.5;" x1="683.5" x2="768.5" y1="348" y2="348"/><text fill="#000000" font-family="sans-serif" font-size="11" lengthAdjust="spacingAndGlyphs" textLength="71" x="688.5" y="363.4189">Options of a UI</text><line style="stroke: #A80036; stroke-width: 1.5;" x1="683.5" x2="768.5" y1="369.8359" y2="369.8359"/><!--class MorphAnalyzerAdapter--><rect fill="#FEFECE" filter="url(#f968frsdiv7uc)" height="75.6719" id="MorphAnalyzerAdapter" style="stroke: #A80036; stroke-width: 1.5;" width="174" x="6" y="15"/><ellipse cx="30.45" cy="31" fill="#ADD1B2" rx="11" ry="11" style="stroke: #A80036; stroke-width: 1.0;"/><path d="M32.45,27.5 Q32.6531,27 32.8875,26.75 Q33.1219,26.5 33.3875,26.5 Q33.8563,26.5 34.1531,26.7813 Q34.45,27.0625 34.45,27.7188 L34.45,29.2813 Q34.45,29.9375 34.1688,30.2188 Q33.8875,30.5 33.45,30.5 Q33.0594,30.5 32.8094,30.3281 Q32.5594,30.1563 32.45,29.7031 Q32.4031,29.3906 32.2313,29.2188 Q31.9188,28.8906 31.3563,28.6953 Q30.7938,28.5 30.2313,28.5 Q29.5281,28.5 28.9422,28.7813 Q28.3563,29.0625 27.9031,29.6875 Q27.45,30.3125 27.45,31.1719 L27.45,32.0938 Q27.45,33.125 28.2938,33.8125 Q29.1375,34.5 30.6375,34.5 Q31.5281,34.5 32.1531,34.2969 Q32.5125,34.1875 32.9188,33.8281 Q33.1844,33.625 33.325,33.5625 Q33.4656,33.5 33.6375,33.5 Q33.9656,33.5 34.2078,33.7578 Q34.45,34.0156 34.45,34.375 Q34.45,34.7188 34.1063,35.125 Q33.6063,35.7188 32.8094,36.0469 Q31.7625,36.5 30.4813,36.5 Q28.9813,36.5 27.7781,35.9063 Q26.8094,35.4375 26.1297,34.4219 Q25.45,33.4063 25.45,32.2031 L25.45,31.1094 Q25.45,29.8594 26.0516,28.7656 Q26.6531,27.6719 27.7078,27.0859 Q28.7625,26.5 29.95,26.5 Q30.6688,26.5 31.2938,26.75 Q31.9188,27 32.45,27.5 Z "/><text fill="#000000" font-family="sans-serif" font-size="12" lengthAdjust="spacingAndGlyphs" textLength="121" x="46.55" y="35.9102">MorphAnalyzerAdapter</text><line style="stroke: #A80036; stroke-width: 1.5;" x1="7" x2="179" y1="47" y2="47"/><text fill="#000000" font-family="sans-serif" font-size="11" lengthAdjust="spacingAndGlyphs" textLength="162" x="12" y="62.4189">Stateless. Not connected directly.</text><text fill="#000000" font-family="sans-serif" font-size="11" lengthAdjust="spacingAndGlyphs" textLength="160" x="12" y="76.2549">Accessed via a Singleton pattern</text><line style="stroke: #A80036; stroke-width: 1.5;" x1="7" x2="179" y1="82.6719" y2="82.6719"/><!--class LemmaTranslations--><rect fill="#FEFECE" filter="url(#f968frsdiv7uc)" height="75.6719" id="LemmaTranslations" style="stroke: #A80036; stroke-width: 1.5;" width="174" x="215" y="15"/><ellipse cx="243.5" cy="31" fill="#ADD1B2" rx="11" ry="11" style="stroke: #A80036; stroke-width: 1.0;"/><path d="M245.5,27.5 Q245.7031,27 245.9375,26.75 Q246.1719,26.5 246.4375,26.5 Q246.9063,26.5 247.2031,26.7813 Q247.5,27.0625 247.5,27.7188 L247.5,29.2813 Q247.5,29.9375 247.2188,30.2188 Q246.9375,30.5 246.5,30.5 Q246.1094,30.5 245.8594,30.3281 Q245.6094,30.1563 245.5,29.7031 Q245.4531,29.3906 245.2813,29.2188 Q244.9688,28.8906 244.4063,28.6953 Q243.8438,28.5 243.2813,28.5 Q242.5781,28.5 241.9922,28.7813 Q241.4063,29.0625 240.9531,29.6875 Q240.5,30.3125 240.5,31.1719 L240.5,32.0938 Q240.5,33.125 241.3438,33.8125 Q242.1875,34.5 243.6875,34.5 Q244.5781,34.5 245.2031,34.2969 Q245.5625,34.1875 245.9688,33.8281 Q246.2344,33.625 246.375,33.5625 Q246.5156,33.5 246.6875,33.5 Q247.0156,33.5 247.2578,33.7578 Q247.5,34.0156 247.5,34.375 Q247.5,34.7188 247.1563,35.125 Q246.6563,35.7188 245.8594,36.0469 Q244.8125,36.5 243.5313,36.5 Q242.0313,36.5 240.8281,35.9063 Q239.8594,35.4375 239.1797,34.4219 Q238.5,33.4063 238.5,32.2031 L238.5,31.1094 Q238.5,29.8594 239.1016,28.7656 Q239.7031,27.6719 240.7578,27.0859 Q241.8125,26.5 243,26.5 Q243.7188,26.5 244.3438,26.75 Q244.9688,27 245.5,27.5 Z "/><text fill="#000000" font-family="sans-serif" font-size="12" lengthAdjust="spacingAndGlyphs" textLength="112" x="260.5" y="35.9102">LemmaTranslations</text><line style="stroke: #A80036; stroke-width: 1.5;" x1="216" x2="388" y1="47" y2="47"/><text fill="#000000" font-family="sans-serif" font-size="11" lengthAdjust="spacingAndGlyphs" textLength="162" x="221" y="62.4189">Stateless. Not connected directly.</text><text fill="#000000" font-family="sans-serif" font-size="11" lengthAdjust="spacingAndGlyphs" textLength="160" x="221" y="76.2549">Accessed via a Singleton pattern</text><line style="stroke: #A80036; stroke-width: 1.5;" x1="216" x2="388" y1="82.6719" y2="82.6719"/><!--class UIController--><rect fill="#FEFECE" filter="url(#f968frsdiv7uc)" height="97.5078" id="UIController" style="stroke: #A80036; stroke-width: 1.5;" width="200" x="546" y="158"/><ellipse cx="608.75" cy="174" fill="#ADD1B2" rx="11" ry="11" style="stroke: #A80036; stroke-width: 1.0;"/><path d="M610.75,170.5 Q610.9531,170 611.1875,169.75 Q611.4219,169.5 611.6875,169.5 Q612.1563,169.5 612.4531,169.7813 Q612.75,170.0625 612.75,170.7188 L612.75,172.2813 Q612.75,172.9375 612.4688,173.2188 Q612.1875,173.5 611.75,173.5 Q611.3594,173.5 611.1094,173.3281 Q610.8594,173.1563 610.75,172.7031 Q610.7031,172.3906 610.5313,172.2188 Q610.2188,171.8906 609.6563,171.6953 Q609.0938,171.5 608.5313,171.5 Q607.8281,171.5 607.2422,171.7813 Q606.6563,172.0625 606.2031,172.6875 Q605.75,173.3125 605.75,174.1719 L605.75,175.0938 Q605.75,176.125 606.5938,176.8125 Q607.4375,177.5 608.9375,177.5 Q609.8281,177.5 610.4531,177.2969 Q610.8125,177.1875 611.2188,176.8281 Q611.4844,176.625 611.625,176.5625 Q611.7656,176.5 611.9375,176.5 Q612.2656,176.5 612.5078,176.7578 Q612.75,177.0156 612.75,177.375 Q612.75,177.7188 612.4063,178.125 Q611.9063,178.7188 611.1094,179.0469 Q610.0625,179.5 608.7813,179.5 Q607.2813,179.5 606.0781,178.9063 Q605.1094,178.4375 604.4297,177.4219 Q603.75,176.4063 603.75,175.2031 L603.75,174.1094 Q603.75,172.8594 604.3516,171.7656 Q604.9531,170.6719 606.0078,170.0859 Q607.0625,169.5 608.25,169.5 Q608.9688,169.5 609.5938,169.75 Q610.2188,170 610.75,170.5 Z "/><text fill="#000000" font-family="sans-serif" font-size="12" lengthAdjust="spacingAndGlyphs" textLength="66" x="629.25" y="178.9102">UIController</text><line style="stroke: #A80036; stroke-width: 1.5;" x1="547" x2="745" y1="190" y2="190"/><text fill="#000000" font-family="sans-serif" font-size="11" lengthAdjust="spacingAndGlyphs" textLength="188" x="552" y="205.4189">Coordinates all interactions with a user</text><line style="stroke: #A80036; stroke-width: 1.0;" x1="547" x2="745" y1="211.8359" y2="211.8359"/><line style="stroke: #A80036; stroke-width: 1.0;" x1="547" x2="745" y1="213.8359" y2="213.8359"/><text fill="#000000" font-family="sans-serif" font-size="11" lengthAdjust="spacingAndGlyphs" textLength="187" x="552" y="227.2549">User communication with page content</text><line style="stroke: #A80036; stroke-width: 1.0; stroke-dasharray: 1.0,2.0;" x1="547" x2="745" y1="233.6719" y2="233.6719"/><text fill="#000000" font-family="sans-serif" font-size="11" lengthAdjust="spacingAndGlyphs" textLength="104" x="552" y="249.0908">browser independent</text><rect fill="#FEFECE" filter="url(#f968frsdiv7uc)" height="52.25" style="stroke: #A80036; stroke-width: 1.5;" width="149" x="804.5" y="321"/><text fill="#000000" font-family="sans-serif" font-size="12" lengthAdjust="spacingAndGlyphs" textLength="106" x="826" y="335.457">Panel Vue Instance</text><line style="stroke: #A80036; stroke-width: 1.5;" x1="805.5" x2="952.5" y1="340.0938" y2="340.0938"/><text fill="#000000" font-family="sans-serif" font-size="10" lengthAdjust="spacingAndGlyphs" textLength="122" x="810.5" y="354.4746">Holds a panel component</text><text fill="#000000" font-family="sans-serif" font-size="10" lengthAdjust="spacingAndGlyphs" textLength="137" x="810.5" y="367.0527">and a tree of subcomponents</text><rect fill="#FEFECE" filter="url(#f968frsdiv7uc)" height="52.25" style="stroke: #A80036; stroke-width: 1.5;" width="149" x="988.5" y="321"/><text fill="#000000" font-family="sans-serif" font-size="12" lengthAdjust="spacingAndGlyphs" textLength="110" x="1008" y="335.457">Popup Vue Instance</text><line style="stroke: #A80036; stroke-width: 1.5;" x1="989.5" x2="1136.5" y1="340.0938" y2="340.0938"/><text fill="#000000" font-family="sans-serif" font-size="10" lengthAdjust="spacingAndGlyphs" textLength="125" x="994.5" y="354.4746">Holds a popup component</text><text fill="#000000" font-family="sans-serif" font-size="10" lengthAdjust="spacingAndGlyphs" textLength="137" x="994.5" y="367.0527">and a tree of subcomponents</text><!--class L10n--><rect fill="#FEFECE" filter="url(#f968frsdiv7uc)" height="75.6719" id="L10n" style="stroke: #A80036; stroke-width: 1.5;" width="174" x="6" y="169"/><ellipse cx="74.75" cy="185" fill="#ADD1B2" rx="11" ry="11" style="stroke: #A80036; stroke-width: 1.0;"/><path d="M76.75,181.5 Q76.9531,181 77.1875,180.75 Q77.4219,180.5 77.6875,180.5 Q78.1563,180.5 78.4531,180.7813 Q78.75,181.0625 78.75,181.7188 L78.75,183.2813 Q78.75,183.9375 78.4688,184.2188 Q78.1875,184.5 77.75,184.5 Q77.3594,184.5 77.1094,184.3281 Q76.8594,184.1563 76.75,183.7031 Q76.7031,183.3906 76.5313,183.2188 Q76.2188,182.8906 75.6563,182.6953 Q75.0938,182.5 74.5313,182.5 Q73.8281,182.5 73.2422,182.7813 Q72.6563,183.0625 72.2031,183.6875 Q71.75,184.3125 71.75,185.1719 L71.75,186.0938 Q71.75,187.125 72.5938,187.8125 Q73.4375,188.5 74.9375,188.5 Q75.8281,188.5 76.4531,188.2969 Q76.8125,188.1875 77.2188,187.8281 Q77.4844,187.625 77.625,187.5625 Q77.7656,187.5 77.9375,187.5 Q78.2656,187.5 78.5078,187.7578 Q78.75,188.0156 78.75,188.375 Q78.75,188.7188 78.4063,189.125 Q77.9063,189.7188 77.1094,190.0469 Q76.0625,190.5 74.7813,190.5 Q73.2813,190.5 72.0781,189.9063 Q71.1094,189.4375 70.4297,188.4219 Q69.75,187.4063 69.75,186.2031 L69.75,185.1094 Q69.75,183.8594 70.3516,182.7656 Q70.9531,181.6719 72.0078,181.0859 Q73.0625,180.5 74.25,180.5 Q74.9688,180.5 75.5938,180.75 Q76.2188,181 76.75,181.5 Z "/><text fill="#000000" font-family="sans-serif" font-size="12" lengthAdjust="spacingAndGlyphs" textLength="28" x="95.25" y="189.9102">L10n</text><line style="stroke: #A80036; stroke-width: 1.5;" x1="7" x2="179" y1="201" y2="201"/><text fill="#000000" font-family="sans-serif" font-size="11" lengthAdjust="spacingAndGlyphs" textLength="162" x="12" y="216.4189">Stateless. Not connected directly.</text><text fill="#000000" font-family="sans-serif" font-size="11" lengthAdjust="spacingAndGlyphs" textLength="160" x="12" y="230.2549">Accessed via a Singleton pattern</text><line style="stroke: #A80036; stroke-width: 1.5;" x1="7" x2="179" y1="236.6719" y2="236.6719"/><!--link Content to UIController--><path d="M575.919,109.16 C587.456,125.103 599.953,142.372 611.156,157.852 " fill="none" id="Content-UIController" style="stroke: #A80036; stroke-width: 1.0;"/><polygon fill="#A80036" points="568.112,98.373,568.3891,105.5788,575.1472,108.0944,574.8701,100.8886,568.112,98.373" style="stroke: #A80036; stroke-width: 1.0;"/><!--link Content to MessagingService--><path d="M495.87,108.953 C483.177,126.334 469.32,145.31 457.253,161.834 " fill="none" id="Content-MessagingService" style="stroke: #A80036; stroke-width: 1.0;"/><polygon fill="#A80036" points="503.596,98.373,496.8275,100.8604,496.5202,108.0649,503.2888,105.5776,503.596,98.373" style="stroke: #A80036; stroke-width: 1.0;"/><!--link UIController to PanelVI--><path d="M738.554,262.817 C772.508,282.9275 809.299,304.7177 836.705,320.9496 " fill="none" id="UIController-PanelVI" style="stroke: #A80036; stroke-width: 1.0;"/><polygon fill="#A80036" points="727.165,256.072,730.2894,262.5711,737.4902,262.1867,734.3659,255.6876,727.165,256.072" style="stroke: #A80036; stroke-width: 1.0;"/><!--link UIController to PopupVI--><path d="M758.583,245.258 C831.447,269.371 924.296,300.0979 988.185,321.2411 " fill="none" id="UIController-PopupVI" style="stroke: #A80036; stroke-width: 1.0;"/><polygon fill="#A80036" points="746.147,241.142,750.5864,246.8245,757.5393,244.9122,753.0999,239.2296,746.147,241.142" style="stroke: #A80036; stroke-width: 1.0;"/><!--link UIController to TabScript--><path d="M533.21,254.38 C531.465,254.934 529.727,255.475 528,256 C402.074,294.2891 365.208,282.2122 238,316 C232.479,317.4663 226.802,319.0723 221.108,320.755 " fill="none" id="UIController-TabScript" style="stroke: #A80036; stroke-width: 1.0;"/><polygon fill="#A80036" points="545.7,250.229,538.7446,248.3256,534.3125,254.0138,541.2679,255.9173,545.7,250.229" style="stroke: #A80036; stroke-width: 1.0;"/><!--link UIController to ContentOptions--><path d="M534.071,260.718 C494.371,279.4159 451.079,299.806 416.783,315.959 " fill="none" id="UIController-ContentOptions" style="stroke: #A80036; stroke-width: 1.0;"/><polygon fill="#A80036" points="545.986,255.106,538.8536,254.0437,535.1298,260.2189,542.2622,261.2812,545.986,255.106" style="stroke: #A80036; stroke-width: 1.0;"/><!--link UIController to ResourceOptions--><path d="M611.458,267.586 C601.839,284.1772 591.792,301.5089 583.597,315.6459 " fill="none" id="UIController-ResourceOptions" style="stroke: #A80036; stroke-width: 1.0;"/><polygon fill="#A80036" points="618.02,256.266,611.5501,259.4504,612.0011,266.6474,618.471,263.463,618.02,256.266" style="stroke: #A80036; stroke-width: 1.0;"/><!--link UIController to UIOptions--><path d="M680.542,267.586 C690.161,284.1772 700.208,301.5089 708.403,315.6459 " fill="none" id="UIController-UIOptions" style="stroke: #A80036; stroke-width: 1.0;"/><polygon fill="#A80036" points="673.98,256.266,673.529,263.463,679.9989,266.6474,680.4499,259.4504,673.98,256.266" style="stroke: #A80036; stroke-width: 1.0;"/><!--link MorphAnalyzerAdapter to LemmaTranslations--><!--link MorphAnalyzerAdapter to L10n--><!--
@startuml
class Content #lightblue {
    Handling of background script/app requests
    Notification of background of state changes
    ..
    browser dependent
}

class MessagingService #lightblue {
    Sending and receiving messages
    to/from background
    ..
    browser dependent
}

class TabScript {
    State of a current tab (page)
}

class ContentOptions {
    Options of working with page content
}

class ResourceOptions {
    Options of language resources
}

class UIOptions {
    Options of a UI
}

class MorphAnalyzerAdapter {
  Stateless. Not connected directly.
  Accessed via a Singleton pattern
}

class LemmaTranslations {
    Stateless. Not connected directly.
    Accessed via a Singleton pattern
}

class UIController {
    Coordinates all interactions with a user
    ==
    User communication with page content
    ..
    browser independent
}

object "Panel Vue Instance" as PanelVI {
    Holds a panel component
    and a tree of subcomponents
}
object "Popup Vue Instance" as PopupVI {
    Holds a popup component
    and a tree of subcomponents
}

class L10n {
    Stateless. Not connected directly.
    Accessed via a Singleton pattern
}

Content *- - UIController
Content *- - MessagingService


UIController *- - PanelVI
UIController *- - PopupVI
UIController *- - TabScript
UIController *- - ContentOptions
UIController *- - ResourceOptions
UIController *- - UIOptions
@enduml

PlantUML version 1.2018.11(Sat Sep 22 20:43:53 SAMT 2018)
(GPL source distribution)
Java Runtime: OpenJDK Runtime Environment
JVM: OpenJDK 64-Bit Server VM
Java Version: 1.8.0_152-release-1248-b8
Operating System: Windows 10
OS Version: 10.0
Default Encoding: Cp1251
Language: en
Country: US
--></g></svg>