<?xml version="1.0" encoding="UTF-8" standalone="no"?><svg xmlns="http://www.w3.org/2000/svg" xmlns:xlink="http://www.w3.org/1999/xlink" contentScriptType="application/ecmascript" contentStyleType="text/css" height="531px" preserveAspectRatio="none" style="width:1411px;height:531px;" version="1.1" viewBox="0 0 1411 531" width="1411px" zoomAndPan="magnify"><defs><filter height="300%" id="f1klgmuramlwy7" width="300%" x="-1" y="-1"><feGaussianBlur result="blurOut" stdDeviation="2.0"/><feColorMatrix in="blurOut" result="blurOut2" type="matrix" values="0 0 0 0 0 0 0 0 0 0 0 0 0 0 0 0 0 0 .4 0"/><feOffset dx="4.0" dy="4.0" in="blurOut2" result="blurOut3"/><feBlend in="SourceGraphic" in2="blurOut3" mode="normal"/></filter></defs><g><!--class Content--><rect fill="#ADD8E6" filter="url(#f1klgmuramlwy7)" height="48" id="Content" style="stroke: #A80036; stroke-width: 1.5;" width="75" x="692.5" y="8"/><rect fill="#ADD8E6" height="32" style="stroke: #A80036; stroke-width: 1.5;" width="75" x="692.5" y="8"/><ellipse cx="707.5" cy="24" fill="#ADD1B2" rx="11" ry="11" style="stroke: #A80036; stroke-width: 1.0;"/><path d="M709.5,20.5 Q709.7031,20 709.9375,19.75 Q710.1719,19.5 710.4375,19.5 Q710.9063,19.5 711.2031,19.7813 Q711.5,20.0625 711.5,20.7188 L711.5,22.2813 Q711.5,22.9375 711.2188,23.2188 Q710.9375,23.5 710.5,23.5 Q710.1094,23.5 709.8594,23.3281 Q709.6094,23.1563 709.5,22.7031 Q709.4531,22.3906 709.2813,22.2188 Q708.9688,21.8906 708.4063,21.6953 Q707.8438,21.5 707.2813,21.5 Q706.5781,21.5 705.9922,21.7813 Q705.4063,22.0625 704.9531,22.6875 Q704.5,23.3125 704.5,24.1719 L704.5,25.0938 Q704.5,26.125 705.3438,26.8125 Q706.1875,27.5 707.6875,27.5 Q708.5781,27.5 709.2031,27.2969 Q709.5625,27.1875 709.9688,26.8281 Q710.2344,26.625 710.375,26.5625 Q710.5156,26.5 710.6875,26.5 Q711.0156,26.5 711.2578,26.7578 Q711.5,27.0156 711.5,27.375 Q711.5,27.7188 711.1563,28.125 Q710.6563,28.7188 709.8594,29.0469 Q708.8125,29.5 707.5313,29.5 Q706.0313,29.5 704.8281,28.9063 Q703.8594,28.4375 703.1797,27.4219 Q702.5,26.4063 702.5,25.2031 L702.5,24.1094 Q702.5,22.8594 703.1016,21.7656 Q703.7031,20.6719 704.7578,20.0859 Q705.8125,19.5 707,19.5 Q707.7188,19.5 708.3438,19.75 Q708.9688,20 709.5,20.5 Z "/><text fill="#000000" font-family="sans-serif" font-size="12" lengthAdjust="spacingAndGlyphs" textLength="43" x="721.5" y="28.9102">Content</text><line style="stroke: #A80036; stroke-width: 1.5;" x1="693.5" x2="766.5" y1="40" y2="40"/><line style="stroke: #A80036; stroke-width: 1.5;" x1="693.5" x2="766.5" y1="48" y2="48"/><!--class ContentProcess--><rect fill="#ADD8E6" filter="url(#f1klgmuramlwy7)" height="133.1797" id="ContentProcess" style="stroke: #A80036; stroke-width: 1.5;" width="223" x="618.5" y="116"/><rect fill="#ADD8E6" height="32" style="stroke: #A80036; stroke-width: 1.5;" width="223" x="618.5" y="116"/><ellipse cx="681.25" cy="132" fill="#ADD1B2" rx="11" ry="11" style="stroke: #A80036; stroke-width: 1.0;"/><path d="M683.25,128.5 Q683.4531,128 683.6875,127.75 Q683.9219,127.5 684.1875,127.5 Q684.6563,127.5 684.9531,127.7813 Q685.25,128.0625 685.25,128.7188 L685.25,130.2813 Q685.25,130.9375 684.9688,131.2188 Q684.6875,131.5 684.25,131.5 Q683.8594,131.5 683.6094,131.3281 Q683.3594,131.1563 683.25,130.7031 Q683.2031,130.3906 683.0313,130.2188 Q682.7188,129.8906 682.1563,129.6953 Q681.5938,129.5 681.0313,129.5 Q680.3281,129.5 679.7422,129.7813 Q679.1563,130.0625 678.7031,130.6875 Q678.25,131.3125 678.25,132.1719 L678.25,133.0938 Q678.25,134.125 679.0938,134.8125 Q679.9375,135.5 681.4375,135.5 Q682.3281,135.5 682.9531,135.2969 Q683.3125,135.1875 683.7188,134.8281 Q683.9844,134.625 684.125,134.5625 Q684.2656,134.5 684.4375,134.5 Q684.7656,134.5 685.0078,134.7578 Q685.25,135.0156 685.25,135.375 Q685.25,135.7188 684.9063,136.125 Q684.4063,136.7188 683.6094,137.0469 Q682.5625,137.5 681.2813,137.5 Q679.7813,137.5 678.5781,136.9063 Q677.6094,136.4375 676.9297,135.4219 Q676.25,134.4063 676.25,133.2031 L676.25,132.1094 Q676.25,130.8594 676.8516,129.7656 Q677.4531,128.6719 678.5078,128.0859 Q679.5625,127.5 680.75,127.5 Q681.4688,127.5 682.0938,127.75 Q682.7188,128 683.25,128.5 Z "/><text fill="#000000" font-family="sans-serif" font-size="12" lengthAdjust="spacingAndGlyphs" textLength="89" x="701.75" y="136.9102">ContentProcess</text><line style="stroke: #A80036; stroke-width: 1.5;" x1="619.5" x2="840.5" y1="148" y2="148"/><text fill="#000000" font-family="sans-serif" font-size="11" lengthAdjust="spacingAndGlyphs" textLength="211" x="624.5" y="163.4189">Handling of background script/app requests</text><text fill="#000000" font-family="sans-serif" font-size="11" lengthAdjust="spacingAndGlyphs" textLength="211" x="624.5" y="177.2549">Notification of background of state changes</text><line style="stroke: #A80036; stroke-width: 1.0; stroke-dasharray: 1.0,2.0;" x1="619.5" x2="840.5" y1="183.6719" y2="183.6719"/><text fill="#000000" font-family="sans-serif" font-size="11" lengthAdjust="spacingAndGlyphs" textLength="96" x="624.5" y="199.0908">browser dependent</text><line style="stroke: #A80036; stroke-width: 1.0;" x1="619.5" x2="840.5" y1="205.5078" y2="205.5078"/><line style="stroke: #A80036; stroke-width: 1.0;" x1="619.5" x2="840.5" y1="207.5078" y2="207.5078"/><text fill="#000000" font-family="sans-serif" font-size="11" lengthAdjust="spacingAndGlyphs" textLength="187" x="624.5" y="220.9268">User communication with page content</text><line style="stroke: #A80036; stroke-width: 1.0; stroke-dasharray: 1.0,2.0;" x1="619.5" x2="840.5" y1="227.3438" y2="227.3438"/><text fill="#000000" font-family="sans-serif" font-size="11" lengthAdjust="spacingAndGlyphs" textLength="104" x="624.5" y="242.7627">browser independent</text><!--class TabScript--><rect fill="#FEFECE" filter="url(#f1klgmuramlwy7)" height="61.8359" id="TabScript" style="stroke: #A80036; stroke-width: 1.5;" width="150" x="6" y="459"/><ellipse cx="50.75" cy="475" fill="#ADD1B2" rx="11" ry="11" style="stroke: #A80036; stroke-width: 1.0;"/><path d="M52.75,471.5 Q52.9531,471 53.1875,470.75 Q53.4219,470.5 53.6875,470.5 Q54.1563,470.5 54.4531,470.7813 Q54.75,471.0625 54.75,471.7188 L54.75,473.2813 Q54.75,473.9375 54.4688,474.2188 Q54.1875,474.5 53.75,474.5 Q53.3594,474.5 53.1094,474.3281 Q52.8594,474.1563 52.75,473.7031 Q52.7031,473.3906 52.5313,473.2188 Q52.2188,472.8906 51.6563,472.6953 Q51.0938,472.5 50.5313,472.5 Q49.8281,472.5 49.2422,472.7813 Q48.6563,473.0625 48.2031,473.6875 Q47.75,474.3125 47.75,475.1719 L47.75,476.0938 Q47.75,477.125 48.5938,477.8125 Q49.4375,478.5 50.9375,478.5 Q51.8281,478.5 52.4531,478.2969 Q52.8125,478.1875 53.2188,477.8281 Q53.4844,477.625 53.625,477.5625 Q53.7656,477.5 53.9375,477.5 Q54.2656,477.5 54.5078,477.7578 Q54.75,478.0156 54.75,478.375 Q54.75,478.7188 54.4063,479.125 Q53.9063,479.7188 53.1094,480.0469 Q52.0625,480.5 50.7813,480.5 Q49.2813,480.5 48.0781,479.9063 Q47.1094,479.4375 46.4297,478.4219 Q45.75,477.4063 45.75,476.2031 L45.75,475.1094 Q45.75,473.8594 46.3516,472.7656 Q46.9531,471.6719 48.0078,471.0859 Q49.0625,470.5 50.25,470.5 Q50.9688,470.5 51.5938,470.75 Q52.2188,471 52.75,471.5 Z "/><text fill="#000000" font-family="sans-serif" font-size="12" lengthAdjust="spacingAndGlyphs" textLength="52" x="71.25" y="479.9102">TabScript</text><line style="stroke: #A80036; stroke-width: 1.5;" x1="7" x2="155" y1="491" y2="491"/><line style="stroke: #A80036; stroke-width: 1.5;" x1="7" x2="155" y1="499" y2="499"/><text fill="#000000" font-family="sans-serif" font-size="11" lengthAdjust="spacingAndGlyphs" textLength="138" x="12" y="514.4189">State of a current tab (page)</text><!--class ContentOptions--><rect fill="#FEFECE" filter="url(#f1klgmuramlwy7)" height="61.8359" id="ContentOptions" style="stroke: #A80036; stroke-width: 1.5;" width="194" x="191" y="459"/><ellipse cx="240.75" cy="475" fill="#ADD1B2" rx="11" ry="11" style="stroke: #A80036; stroke-width: 1.0;"/><path d="M242.75,471.5 Q242.9531,471 243.1875,470.75 Q243.4219,470.5 243.6875,470.5 Q244.1563,470.5 244.4531,470.7813 Q244.75,471.0625 244.75,471.7188 L244.75,473.2813 Q244.75,473.9375 244.4688,474.2188 Q244.1875,474.5 243.75,474.5 Q243.3594,474.5 243.1094,474.3281 Q242.8594,474.1563 242.75,473.7031 Q242.7031,473.3906 242.5313,473.2188 Q242.2188,472.8906 241.6563,472.6953 Q241.0938,472.5 240.5313,472.5 Q239.8281,472.5 239.2422,472.7813 Q238.6563,473.0625 238.2031,473.6875 Q237.75,474.3125 237.75,475.1719 L237.75,476.0938 Q237.75,477.125 238.5938,477.8125 Q239.4375,478.5 240.9375,478.5 Q241.8281,478.5 242.4531,478.2969 Q242.8125,478.1875 243.2188,477.8281 Q243.4844,477.625 243.625,477.5625 Q243.7656,477.5 243.9375,477.5 Q244.2656,477.5 244.5078,477.7578 Q244.75,478.0156 244.75,478.375 Q244.75,478.7188 244.4063,479.125 Q243.9063,479.7188 243.1094,480.0469 Q242.0625,480.5 240.7813,480.5 Q239.2813,480.5 238.0781,479.9063 Q237.1094,479.4375 236.4297,478.4219 Q235.75,477.4063 235.75,476.2031 L235.75,475.1094 Q235.75,473.8594 236.3516,472.7656 Q236.9531,471.6719 238.0078,471.0859 Q239.0625,470.5 240.25,470.5 Q240.9688,470.5 241.5938,470.75 Q242.2188,471 242.75,471.5 Z "/><text fill="#000000" font-family="sans-serif" font-size="12" lengthAdjust="spacingAndGlyphs" textLength="86" x="261.25" y="479.9102">ContentOptions</text><line style="stroke: #A80036; stroke-width: 1.5;" x1="192" x2="384" y1="491" y2="491"/><text fill="#000000" font-family="sans-serif" font-size="11" lengthAdjust="spacingAndGlyphs" textLength="182" x="197" y="506.4189">Options of working with page content</text><line style="stroke: #A80036; stroke-width: 1.5;" x1="192" x2="384" y1="512.8359" y2="512.8359"/><!--class ResourceOptions--><rect fill="#FEFECE" filter="url(#f1klgmuramlwy7)" height="61.8359" id="ResourceOptions" style="stroke: #A80036; stroke-width: 1.5;" width="162" x="420" y="459"/><ellipse cx="449.85" cy="475" fill="#ADD1B2" rx="11" ry="11" style="stroke: #A80036; stroke-width: 1.0;"/><path d="M451.85,471.5 Q452.0531,471 452.2875,470.75 Q452.5219,470.5 452.7875,470.5 Q453.2563,470.5 453.5531,470.7813 Q453.85,471.0625 453.85,471.7188 L453.85,473.2813 Q453.85,473.9375 453.5688,474.2188 Q453.2875,474.5 452.85,474.5 Q452.4594,474.5 452.2094,474.3281 Q451.9594,474.1563 451.85,473.7031 Q451.8031,473.3906 451.6313,473.2188 Q451.3188,472.8906 450.7563,472.6953 Q450.1938,472.5 449.6313,472.5 Q448.9281,472.5 448.3422,472.7813 Q447.7563,473.0625 447.3031,473.6875 Q446.85,474.3125 446.85,475.1719 L446.85,476.0938 Q446.85,477.125 447.6938,477.8125 Q448.5375,478.5 450.0375,478.5 Q450.9281,478.5 451.5531,478.2969 Q451.9125,478.1875 452.3188,477.8281 Q452.5844,477.625 452.725,477.5625 Q452.8656,477.5 453.0375,477.5 Q453.3656,477.5 453.6078,477.7578 Q453.85,478.0156 453.85,478.375 Q453.85,478.7188 453.5063,479.125 Q453.0063,479.7188 452.2094,480.0469 Q451.1625,480.5 449.8813,480.5 Q448.3813,480.5 447.1781,479.9063 Q446.2094,479.4375 445.5297,478.4219 Q444.85,477.4063 444.85,476.2031 L444.85,475.1094 Q444.85,473.8594 445.4516,472.7656 Q446.0531,471.6719 447.1078,471.0859 Q448.1625,470.5 449.35,470.5 Q450.0688,470.5 450.6938,470.75 Q451.3188,471 451.85,471.5 Z "/><text fill="#000000" font-family="sans-serif" font-size="12" lengthAdjust="spacingAndGlyphs" textLength="97" x="467.15" y="479.9102">ResourceOptions</text><line style="stroke: #A80036; stroke-width: 1.5;" x1="421" x2="581" y1="491" y2="491"/><text fill="#000000" font-family="sans-serif" font-size="11" lengthAdjust="spacingAndGlyphs" textLength="150" x="426" y="506.4189">Options of language resources</text><line style="stroke: #A80036; stroke-width: 1.5;" x1="421" x2="581" y1="512.8359" y2="512.8359"/><!--class UIOptions--><rect fill="#FEFECE" filter="url(#f1klgmuramlwy7)" height="61.8359" id="UIOptions" style="stroke: #A80036; stroke-width: 1.5;" width="87" x="1081.5" y="459"/><ellipse cx="1096.5" cy="475" fill="#ADD1B2" rx="11" ry="11" style="stroke: #A80036; stroke-width: 1.0;"/><path d="M1098.5,471.5 Q1098.7031,471 1098.9375,470.75 Q1099.1719,470.5 1099.4375,470.5 Q1099.9063,470.5 1100.2031,470.7813 Q1100.5,471.0625 1100.5,471.7188 L1100.5,473.2813 Q1100.5,473.9375 1100.2188,474.2188 Q1099.9375,474.5 1099.5,474.5 Q1099.1094,474.5 1098.8594,474.3281 Q1098.6094,474.1563 1098.5,473.7031 Q1098.4531,473.3906 1098.2813,473.2188 Q1097.9688,472.8906 1097.4063,472.6953 Q1096.8438,472.5 1096.2813,472.5 Q1095.5781,472.5 1094.9922,472.7813 Q1094.4063,473.0625 1093.9531,473.6875 Q1093.5,474.3125 1093.5,475.1719 L1093.5,476.0938 Q1093.5,477.125 1094.3438,477.8125 Q1095.1875,478.5 1096.6875,478.5 Q1097.5781,478.5 1098.2031,478.2969 Q1098.5625,478.1875 1098.9688,477.8281 Q1099.2344,477.625 1099.375,477.5625 Q1099.5156,477.5 1099.6875,477.5 Q1100.0156,477.5 1100.2578,477.7578 Q1100.5,478.0156 1100.5,478.375 Q1100.5,478.7188 1100.1563,479.125 Q1099.6563,479.7188 1098.8594,480.0469 Q1097.8125,480.5 1096.5313,480.5 Q1095.0313,480.5 1093.8281,479.9063 Q1092.8594,479.4375 1092.1797,478.4219 Q1091.5,477.4063 1091.5,476.2031 L1091.5,475.1094 Q1091.5,473.8594 1092.1016,472.7656 Q1092.7031,471.6719 1093.7578,471.0859 Q1094.8125,470.5 1096,470.5 Q1096.7188,470.5 1097.3438,470.75 Q1097.9688,471 1098.5,471.5 Z "/><text fill="#000000" font-family="sans-serif" font-size="12" lengthAdjust="spacingAndGlyphs" textLength="55" x="1110.5" y="479.9102">UIOptions</text><line style="stroke: #A80036; stroke-width: 1.5;" x1="1082.5" x2="1167.5" y1="491" y2="491"/><text fill="#000000" font-family="sans-serif" font-size="11" lengthAdjust="spacingAndGlyphs" textLength="71" x="1087.5" y="506.4189">Options of a UI</text><line style="stroke: #A80036; stroke-width: 1.5;" x1="1082.5" x2="1167.5" y1="512.8359" y2="512.8359"/><!--class MessagingService--><rect fill="#ADD8E6" filter="url(#f1klgmuramlwy7)" height="89.5078" id="MessagingService" style="stroke: #A80036; stroke-width: 1.5;" width="172" x="860" y="309"/><rect fill="#ADD8E6" height="32" style="stroke: #A80036; stroke-width: 1.5;" width="172" x="860" y="309"/><ellipse cx="892.55" cy="325" fill="#ADD1B2" rx="11" ry="11" style="stroke: #A80036; stroke-width: 1.0;"/><path d="M894.55,321.5 Q894.7531,321 894.9875,320.75 Q895.2219,320.5 895.4875,320.5 Q895.9563,320.5 896.2531,320.7813 Q896.55,321.0625 896.55,321.7188 L896.55,323.2813 Q896.55,323.9375 896.2688,324.2188 Q895.9875,324.5 895.55,324.5 Q895.1594,324.5 894.9094,324.3281 Q894.6594,324.1563 894.55,323.7031 Q894.5031,323.3906 894.3313,323.2188 Q894.0188,322.8906 893.4563,322.6953 Q892.8938,322.5 892.3313,322.5 Q891.6281,322.5 891.0422,322.7813 Q890.4563,323.0625 890.0031,323.6875 Q889.55,324.3125 889.55,325.1719 L889.55,326.0938 Q889.55,327.125 890.3938,327.8125 Q891.2375,328.5 892.7375,328.5 Q893.6281,328.5 894.2531,328.2969 Q894.6125,328.1875 895.0188,327.8281 Q895.2844,327.625 895.425,327.5625 Q895.5656,327.5 895.7375,327.5 Q896.0656,327.5 896.3078,327.7578 Q896.55,328.0156 896.55,328.375 Q896.55,328.7188 896.2063,329.125 Q895.7063,329.7188 894.9094,330.0469 Q893.8625,330.5 892.5813,330.5 Q891.0813,330.5 889.8781,329.9063 Q888.9094,329.4375 888.2297,328.4219 Q887.55,327.4063 887.55,326.2031 L887.55,325.1094 Q887.55,323.8594 888.1516,322.7656 Q888.7531,321.6719 889.8078,321.0859 Q890.8625,320.5 892.05,320.5 Q892.7688,320.5 893.3938,320.75 Q894.0188,321 894.55,321.5 Z "/><text fill="#000000" font-family="sans-serif" font-size="12" lengthAdjust="spacingAndGlyphs" textLength="101" x="910.45" y="329.9102">MessagingService</text><line style="stroke: #A80036; stroke-width: 1.5;" x1="861" x2="1031" y1="341" y2="341"/><text fill="#000000" font-family="sans-serif" font-size="11" lengthAdjust="spacingAndGlyphs" textLength="160" x="866" y="356.4189">Sending and receiving messages</text><text fill="#000000" font-family="sans-serif" font-size="11" lengthAdjust="spacingAndGlyphs" textLength="94" x="866" y="370.2549">to/from background</text><line style="stroke: #A80036; stroke-width: 1.0; stroke-dasharray: 1.0,2.0;" x1="861" x2="1031" y1="376.6719" y2="376.6719"/><text fill="#000000" font-family="sans-serif" font-size="11" lengthAdjust="spacingAndGlyphs" textLength="96" x="866" y="392.0908">browser dependent</text><!--class MorphAnalyzerAdapter--><rect fill="#FEFECE" filter="url(#f1klgmuramlwy7)" height="48" id="MorphAnalyzerAdapter" style="stroke: #A80036; stroke-width: 1.5;" width="153" x="1067.5" y="330"/><ellipse cx="1082.5" cy="346" fill="#ADD1B2" rx="11" ry="11" style="stroke: #A80036; stroke-width: 1.0;"/><path d="M1084.5,342.5 Q1084.7031,342 1084.9375,341.75 Q1085.1719,341.5 1085.4375,341.5 Q1085.9063,341.5 1086.2031,341.7813 Q1086.5,342.0625 1086.5,342.7188 L1086.5,344.2813 Q1086.5,344.9375 1086.2188,345.2188 Q1085.9375,345.5 1085.5,345.5 Q1085.1094,345.5 1084.8594,345.3281 Q1084.6094,345.1563 1084.5,344.7031 Q1084.4531,344.3906 1084.2813,344.2188 Q1083.9688,343.8906 1083.4063,343.6953 Q1082.8438,343.5 1082.2813,343.5 Q1081.5781,343.5 1080.9922,343.7813 Q1080.4063,344.0625 1079.9531,344.6875 Q1079.5,345.3125 1079.5,346.1719 L1079.5,347.0938 Q1079.5,348.125 1080.3438,348.8125 Q1081.1875,349.5 1082.6875,349.5 Q1083.5781,349.5 1084.2031,349.2969 Q1084.5625,349.1875 1084.9688,348.8281 Q1085.2344,348.625 1085.375,348.5625 Q1085.5156,348.5 1085.6875,348.5 Q1086.0156,348.5 1086.2578,348.7578 Q1086.5,349.0156 1086.5,349.375 Q1086.5,349.7188 1086.1563,350.125 Q1085.6563,350.7188 1084.8594,351.0469 Q1083.8125,351.5 1082.5313,351.5 Q1081.0313,351.5 1079.8281,350.9063 Q1078.8594,350.4375 1078.1797,349.4219 Q1077.5,348.4063 1077.5,347.2031 L1077.5,346.1094 Q1077.5,344.8594 1078.1016,343.7656 Q1078.7031,342.6719 1079.7578,342.0859 Q1080.8125,341.5 1082,341.5 Q1082.7188,341.5 1083.3438,341.75 Q1083.9688,342 1084.5,342.5 Z "/><text fill="#000000" font-family="sans-serif" font-size="12" lengthAdjust="spacingAndGlyphs" textLength="121" x="1096.5" y="350.9102">MorphAnalyzerAdapter</text><line style="stroke: #A80036; stroke-width: 1.5;" x1="1068.5" x2="1219.5" y1="362" y2="362"/><line style="stroke: #A80036; stroke-width: 1.5;" x1="1068.5" x2="1219.5" y1="370" y2="370"/><!--class LemmaTranslations--><rect fill="#FEFECE" filter="url(#f1klgmuramlwy7)" height="48" id="LemmaTranslations" style="stroke: #A80036; stroke-width: 1.5;" width="144" x="1256" y="330"/><ellipse cx="1271" cy="346" fill="#ADD1B2" rx="11" ry="11" style="stroke: #A80036; stroke-width: 1.0;"/><path d="M1273,342.5 Q1273.2031,342 1273.4375,341.75 Q1273.6719,341.5 1273.9375,341.5 Q1274.4063,341.5 1274.7031,341.7813 Q1275,342.0625 1275,342.7188 L1275,344.2813 Q1275,344.9375 1274.7188,345.2188 Q1274.4375,345.5 1274,345.5 Q1273.6094,345.5 1273.3594,345.3281 Q1273.1094,345.1563 1273,344.7031 Q1272.9531,344.3906 1272.7813,344.2188 Q1272.4688,343.8906 1271.9063,343.6953 Q1271.3438,343.5 1270.7813,343.5 Q1270.0781,343.5 1269.4922,343.7813 Q1268.9063,344.0625 1268.4531,344.6875 Q1268,345.3125 1268,346.1719 L1268,347.0938 Q1268,348.125 1268.8438,348.8125 Q1269.6875,349.5 1271.1875,349.5 Q1272.0781,349.5 1272.7031,349.2969 Q1273.0625,349.1875 1273.4688,348.8281 Q1273.7344,348.625 1273.875,348.5625 Q1274.0156,348.5 1274.1875,348.5 Q1274.5156,348.5 1274.7578,348.7578 Q1275,349.0156 1275,349.375 Q1275,349.7188 1274.6563,350.125 Q1274.1563,350.7188 1273.3594,351.0469 Q1272.3125,351.5 1271.0313,351.5 Q1269.5313,351.5 1268.3281,350.9063 Q1267.3594,350.4375 1266.6797,349.4219 Q1266,348.4063 1266,347.2031 L1266,346.1094 Q1266,344.8594 1266.6016,343.7656 Q1267.2031,342.6719 1268.2578,342.0859 Q1269.3125,341.5 1270.5,341.5 Q1271.2188,341.5 1271.8438,341.75 Q1272.4688,342 1273,342.5 Z "/><text fill="#000000" font-family="sans-serif" font-size="12" lengthAdjust="spacingAndGlyphs" textLength="112" x="1285" y="350.9102">LemmaTranslations</text><line style="stroke: #A80036; stroke-width: 1.5;" x1="1257" x2="1399" y1="362" y2="362"/><line style="stroke: #A80036; stroke-width: 1.5;" x1="1257" x2="1399" y1="370" y2="370"/><!--class AppController--><rect fill="#FEFECE" filter="url(#f1klgmuramlwy7)" height="61.8359" id="AppController" style="stroke: #A80036; stroke-width: 1.5;" width="200" x="554" y="323"/><ellipse cx="616.75" cy="339" fill="#ADD1B2" rx="11" ry="11" style="stroke: #A80036; stroke-width: 1.0;"/><path d="M618.75,335.5 Q618.9531,335 619.1875,334.75 Q619.4219,334.5 619.6875,334.5 Q620.1563,334.5 620.4531,334.7813 Q620.75,335.0625 620.75,335.7188 L620.75,337.2813 Q620.75,337.9375 620.4688,338.2188 Q620.1875,338.5 619.75,338.5 Q619.3594,338.5 619.1094,338.3281 Q618.8594,338.1563 618.75,337.7031 Q618.7031,337.3906 618.5313,337.2188 Q618.2188,336.8906 617.6563,336.6953 Q617.0938,336.5 616.5313,336.5 Q615.8281,336.5 615.2422,336.7813 Q614.6563,337.0625 614.2031,337.6875 Q613.75,338.3125 613.75,339.1719 L613.75,340.0938 Q613.75,341.125 614.5938,341.8125 Q615.4375,342.5 616.9375,342.5 Q617.8281,342.5 618.4531,342.2969 Q618.8125,342.1875 619.2188,341.8281 Q619.4844,341.625 619.625,341.5625 Q619.7656,341.5 619.9375,341.5 Q620.2656,341.5 620.5078,341.7578 Q620.75,342.0156 620.75,342.375 Q620.75,342.7188 620.4063,343.125 Q619.9063,343.7188 619.1094,344.0469 Q618.0625,344.5 616.7813,344.5 Q615.2813,344.5 614.0781,343.9063 Q613.1094,343.4375 612.4297,342.4219 Q611.75,341.4063 611.75,340.2031 L611.75,339.1094 Q611.75,337.8594 612.3516,336.7656 Q612.9531,335.6719 614.0078,335.0859 Q615.0625,334.5 616.25,334.5 Q616.9688,334.5 617.5938,334.75 Q618.2188,335 618.75,335.5 Z "/><text fill="#000000" font-family="sans-serif" font-size="12" lengthAdjust="spacingAndGlyphs" textLength="66" x="637.25" y="343.9102">AppController</text><line style="stroke: #A80036; stroke-width: 1.5;" x1="555" x2="753" y1="355" y2="355"/><text fill="#000000" font-family="sans-serif" font-size="11" lengthAdjust="spacingAndGlyphs" textLength="188" x="560" y="370.4189">Coordinates all interactions with a user</text><line style="stroke: #A80036; stroke-width: 1.5;" x1="555" x2="753" y1="376.8359" y2="376.8359"/><rect fill="#FEFECE" filter="url(#f1klgmuramlwy7)" height="52.25" style="stroke: #A80036; stroke-width: 1.5;" width="149" x="617.5" y="464"/><text fill="#000000" font-family="sans-serif" font-size="12" lengthAdjust="spacingAndGlyphs" textLength="106" x="639" y="478.457">Panel Vue Instance</text><line style="stroke: #A80036; stroke-width: 1.5;" x1="618.5" x2="765.5" y1="483.0938" y2="483.0938"/><text fill="#000000" font-family="sans-serif" font-size="10" lengthAdjust="spacingAndGlyphs" textLength="122" x="623.5" y="497.4746">Holds a panel component</text><text fill="#000000" font-family="sans-serif" font-size="10" lengthAdjust="spacingAndGlyphs" textLength="137" x="623.5" y="510.0527">and a tree of subcomponents</text><rect fill="#FEFECE" filter="url(#f1klgmuramlwy7)" height="52.25" style="stroke: #A80036; stroke-width: 1.5;" width="149" x="801.5" y="464"/><text fill="#000000" font-family="sans-serif" font-size="12" lengthAdjust="spacingAndGlyphs" textLength="110" x="821" y="478.457">Popup Vue Instance</text><line style="stroke: #A80036; stroke-width: 1.5;" x1="802.5" x2="949.5" y1="483.0938" y2="483.0938"/><text fill="#000000" font-family="sans-serif" font-size="10" lengthAdjust="spacingAndGlyphs" textLength="125" x="807.5" y="497.4746">Holds a popup component</text><text fill="#000000" font-family="sans-serif" font-size="10" lengthAdjust="spacingAndGlyphs" textLength="137" x="807.5" y="510.0527">and a tree of subcomponents</text><!--class L10n--><rect fill="#FEFECE" filter="url(#f1klgmuramlwy7)" height="48" id="L10n" style="stroke: #A80036; stroke-width: 1.5;" width="60" x="986" y="466"/><ellipse cx="1001" cy="482" fill="#ADD1B2" rx="11" ry="11" style="stroke: #A80036; stroke-width: 1.0;"/><path d="M1003,478.5 Q1003.2031,478 1003.4375,477.75 Q1003.6719,477.5 1003.9375,477.5 Q1004.4063,477.5 1004.7031,477.7813 Q1005,478.0625 1005,478.7188 L1005,480.2813 Q1005,480.9375 1004.7188,481.2188 Q1004.4375,481.5 1004,481.5 Q1003.6094,481.5 1003.3594,481.3281 Q1003.1094,481.1563 1003,480.7031 Q1002.9531,480.3906 1002.7813,480.2188 Q1002.4688,479.8906 1001.9063,479.6953 Q1001.3438,479.5 1000.7813,479.5 Q1000.0781,479.5 999.4922,479.7813 Q998.9063,480.0625 998.4531,480.6875 Q998,481.3125 998,482.1719 L998,483.0938 Q998,484.125 998.8438,484.8125 Q999.6875,485.5 1001.1875,485.5 Q1002.0781,485.5 1002.7031,485.2969 Q1003.0625,485.1875 1003.4688,484.8281 Q1003.7344,484.625 1003.875,484.5625 Q1004.0156,484.5 1004.1875,484.5 Q1004.5156,484.5 1004.7578,484.7578 Q1005,485.0156 1005,485.375 Q1005,485.7188 1004.6563,486.125 Q1004.1563,486.7188 1003.3594,487.0469 Q1002.3125,487.5 1001.0313,487.5 Q999.5313,487.5 998.3281,486.9063 Q997.3594,486.4375 996.6797,485.4219 Q996,484.4063 996,483.2031 L996,482.1094 Q996,480.8594 996.6016,479.7656 Q997.2031,478.6719 998.2578,478.0859 Q999.3125,477.5 1000.5,477.5 Q1001.2188,477.5 1001.8438,477.75 Q1002.4688,478 1003,478.5 Z "/><text fill="#000000" font-family="sans-serif" font-size="12" lengthAdjust="spacingAndGlyphs" textLength="28" x="1015" y="486.9102">L10n</text><line style="stroke: #A80036; stroke-width: 1.5;" x1="987" x2="1045" y1="498" y2="498"/><line style="stroke: #A80036; stroke-width: 1.5;" x1="987" x2="1045" y1="506" y2="506"/><!--link Content to ContentProcess--><path d="M730,69.303 C730,83.34 730,99.851 730,115.825 " fill="none" id="Content-ContentProcess" style="stroke: #A80036; stroke-width: 1.0;"/><polygon fill="#A80036" points="730,56.203,726,62.203,730,68.203,734,62.203,730,56.203" style="stroke: #A80036; stroke-width: 1.0;"/><!--link ContentProcess to MessagingService--><path d="M823.768,257.082 C846.253,274.726 869.574,293.027 889.743,308.854 " fill="none" id="ContentProcess-MessagingService" style="stroke: #A80036; stroke-width: 1.0;"/><polygon fill="#A80036" points="813.511,249.033,815.7617,255.8839,822.9513,256.4412,820.7005,249.5904,813.511,249.033" style="stroke: #A80036; stroke-width: 1.0;"/><!--link ContentProcess to MorphAnalyzerAdapter--><path d="M853.923,229.977 C913.566,252.885 985.88,281.453 1050,309 C1065.07,315.472 1081.3,322.903 1095.96,329.793 " fill="none" id="ContentProcess-MorphAnalyzerAdapter" style="stroke: #A80036; stroke-width: 1.0;"/><polygon fill="#A80036" points="841.784,225.325,845.9557,231.2069,852.9896,229.6184,848.818,223.7365,841.784,225.325" style="stroke: #A80036; stroke-width: 1.0;"/><!--link ContentProcess to LemmaTranslations--><path d="M854.299,206.505 C958.514,227.609 1110.34,262.622 1238,309 C1253.86,314.76 1270.62,322.473 1285.32,329.83 " fill="none" id="ContentProcess-LemmaTranslations" style="stroke: #A80036; stroke-width: 1.0;"/><polygon fill="#A80036" points="841.512,203.937,846.6068,209.0402,853.277,206.3,848.1822,201.1968,841.512,203.937" style="stroke: #A80036; stroke-width: 1.0;"/><!--link ContentProcess to AppController--><path d="M695.228,261.051 C685.445,282.869 675.375,305.327 667.637,322.587 " fill="none" id="ContentProcess-AppController" style="stroke: #A80036; stroke-width: 1.0;"/><polygon fill="#A80036" points="700.616,249.033,694.5113,252.8712,695.7063,259.9826,701.811,256.1444,700.616,249.033" style="stroke: #A80036; stroke-width: 1.0;"/><!--link ContentProcess to TabScript--><path d="M605.694,220.997 C537.171,243.348 451.368,274.13 378,309 C283.52,353.904 180.685,420.621 124.218,458.9577 " fill="none" id="ContentProcess-TabScript" style="stroke: #A80036; stroke-width: 1.0;"/><polygon fill="#A80036" points="618.281,216.923,611.3408,214.965,606.8641,220.6183,613.8043,222.5763,618.281,216.923" style="stroke: #A80036; stroke-width: 1.0;"/><!--link ContentProcess to ContentOptions--><path d="M606.675,243.516 C570.38,262.867 531.244,285.445 497,309 C428.942,355.814 357.707,421.267 318.479,458.9842 " fill="none" id="ContentProcess-ContentOptions" style="stroke: #A80036; stroke-width: 1.0;"/><polygon fill="#A80036" points="618.35,237.349,611.1763,236.6151,607.7398,242.9547,614.9135,243.6886,618.35,237.349" style="stroke: #A80036; stroke-width: 1.0;"/><!--link ContentProcess to ResourceOptions--><path d="M607.119,241.76 C580.064,259.83 554.113,282.199 536,309 C505.161,354.631 500.019,420.791 499.926,458.8956 " fill="none" id="ContentProcess-ResourceOptions" style="stroke: #A80036; stroke-width: 1.0;"/><polygon fill="#A80036" points="618.346,234.536,611.1359,234.4186,608.2544,241.029,615.4645,241.1464,618.346,234.536" style="stroke: #A80036; stroke-width: 1.0;"/><!--link ContentProcess to UIOptions--><path d="M753.193,261.487 C770.774,307.771 799.472,364.054 843,399 C922.365,462.7179 968.785,423.0429 1064,459 C1069.74,461.1681 1075.67,463.6932 1081.47,466.3408 " fill="none" id="ContentProcess-UIOptions" style="stroke: #A80036; stroke-width: 1.0;"/><polygon fill="#A80036" points="748.634,249.033,746.9396,256.0422,752.7579,260.3021,754.4523,253.2929,748.634,249.033" style="stroke: #A80036; stroke-width: 1.0;"/><!--link AppController to PanelVI--><path d="M666.114,397.719 C672.307,419.557 679.629,445.3742 684.902,463.97 " fill="none" id="AppController-PanelVI" style="stroke: #A80036; stroke-width: 1.0;"/><polygon fill="#A80036" points="662.528,385.072,660.3161,391.9355,665.801,396.617,668.0128,389.7535,662.528,385.072" style="stroke: #A80036; stroke-width: 1.0;"/><!--link AppController to PopupVI--><path d="M715.262,391.978 C753.226,414.893 800.976,443.7154 834.532,463.97 " fill="none" id="AppController-PopupVI" style="stroke: #A80036; stroke-width: 1.0;"/><polygon fill="#A80036" points="703.821,385.072,706.8911,391.5969,714.0949,391.2725,711.0248,384.7476,703.821,385.072" style="stroke: #A80036; stroke-width: 1.0;"/><!--link AppController to L10n--><path d="M752.571,389.4 C762.168,392.674 771.766,395.919 781,399 C863.798,426.6221 888.827,422.2539 968,459 C973.972,461.7719 980.106,465.1477 985.908,468.6216 " fill="none" id="AppController-L10n" style="stroke: #A80036; stroke-width: 1.0;"/><polygon fill="#A80036" points="739.986,385.09,744.3668,390.8179,751.339,388.9772,746.9582,383.2493,739.986,385.09" style="stroke: #A80036; stroke-width: 1.0;"/><!--link AppController to TabScript--><path d="M540.887,376.061 C442.912,395.11 297.711,425.2792 173,459 C167.486,460.4909 161.814,462.115 156.123,463.8106 " fill="none" id="AppController-TabScript" style="stroke: #A80036; stroke-width: 1.0;"/><polygon fill="#FFFFFF" points="553.792,373.563,547.1413,370.7758,542.0106,375.8428,548.6612,378.6301,553.792,373.563" style="stroke: #A80036; stroke-width: 1.0;"/><!--link AppController to ContentOptions--><path d="M559.608,389.559 C500.982,411.023 426.365,438.3419 370.179,458.9125 " fill="none" id="AppController-ContentOptions" style="stroke: #A80036; stroke-width: 1.0;"/><polygon fill="#FFFFFF" points="571.862,385.072,564.8526,383.3783,560.5933,389.197,567.6027,390.8908,571.862,385.072" style="stroke: #A80036; stroke-width: 1.0;"/><!--link AppController to ResourceOptions--><path d="M609.869,393.651 C586.21,414.371 557.488,439.5272 535.486,458.7966 " fill="none" id="AppController-ResourceOptions" style="stroke: #A80036; stroke-width: 1.0;"/><polygon fill="#FFFFFF" points="619.664,385.072,612.515,386.0161,610.6368,392.9783,617.7859,392.0342,619.664,385.072" style="stroke: #A80036; stroke-width: 1.0;"/><!--link AppController to UIOptions--><path d="M748.548,389.203 C759.43,392.708 770.416,396.057 781,399 C904.874,433.4455 942.489,416.973 1064,459 C1069.69,460.9674 1075.53,463.3416 1081.24,465.8824 " fill="none" id="AppController-UIOptions" style="stroke: #A80036; stroke-width: 1.0;"/><polygon fill="#FFFFFF" points="735.85,385.031,740.3015,390.7041,747.2503,388.777,742.7988,383.1039,735.85,385.031" style="stroke: #A80036; stroke-width: 1.0;"/><!--
@startuml
class Content #lightblue {
}

class ContentProcess #lightblue {
    Handling of background script/app requests
    Notification of background of state changes
    ..
    browser dependent
    ==
    User communication with page content
    ..
    browser independent
}

class TabScript {
    State of a current tab (page)
}

class ContentOptions {
    Options of working with page content
}

class ResourceOptions {
    Options of language resources
}

class UIOptions {
    Options of a UI
}

class MessagingService #lightblue {
    Sending and receiving messages
    to/from background
    ..
    browser dependent
}

class MorphAnalyzerAdapter {
}

class LemmaTranslations {
}

class AppController {
    Coordinates all interactions with a user
}

object "Panel Vue Instance" as PanelVI {
    Holds a panel component
    and a tree of subcomponents
}
object "Popup Vue Instance" as PopupVI {
    Holds a popup component
    and a tree of subcomponents
}

class L10n {
}

Content *- - ContentProcess

ContentProcess *- - MessagingService
ContentProcess *- - MorphAnalyzerAdapter
ContentProcess *- - LemmaTranslations
ContentProcess *- - AppController
ContentProcess *- - TabScript
ContentProcess *- - ContentOptions
ContentProcess *- - ResourceOptions
ContentProcess *- - UIOptions

AppController *- - PanelVI
AppController *- - PopupVI
AppController *- - L10n
AppController o- - TabScript
AppController o- - ContentOptions
AppController o- - ResourceOptions
AppController o- - UIOptions
@enduml

PlantUML version 1.2018.11(Sat Sep 22 20:43:53 SAMT 2018)
(GPL source distribution)
Java Runtime: OpenJDK Runtime Environment
JVM: OpenJDK 64-Bit Server VM
Java Version: 1.8.0_152-release-1248-b8
Operating System: Windows 10
OS Version: 10.0
Default Encoding: Cp1251
Language: en
Country: US
--></g></svg>