<?xml version="1.0" encoding="UTF-8"?><svg xmlns="http://www.w3.org/2000/svg" xmlns:xlink="http://www.w3.org/1999/xlink" fill-opacity="1" color-rendering="auto" color-interpolation="auto" text-rendering="auto" stroke="black" stroke-linecap="square" width="1350" stroke-miterlimit="10" shape-rendering="auto" stroke-opacity="1" fill="black" stroke-dasharray="none" font-weight="normal" stroke-width="1" height="969" font-family="'Dialog'" font-style="normal" stroke-linejoin="miter" font-size="12px" stroke-dashoffset="0" image-rendering="auto">
  <!--Generated by ySVG 2.5-->
  <defs id="genericDefs"/>
  <g>
    <defs id="defs1">
      <clipPath clipPathUnits="userSpaceOnUse" id="clipPath1">
        <path d="M0 0 L1350 0 L1350 969 L0 969 L0 0 Z"/>
      </clipPath>
    </defs>
    <g text-rendering="geometricPrecision" stroke-miterlimit="1.45" shape-rendering="geometricPrecision" stroke-linecap="butt">
      <rect x="447" y="127" clip-path="url(#clipPath1)" fill="none" width="199" rx="19.5" ry="19.5" height="39"/>
      <text x="474.4648" xml:space="preserve" y="151.2139" clip-path="url(#clipPath1)" font-family="sans-serif" stroke="none">new BusinessComponent()</text>
    </g>
    <g text-rendering="geometricPrecision" stroke-miterlimit="1.45" shape-rendering="geometricPrecision" stroke-linecap="butt">
      <circle fill="none" r="35.5" clip-path="url(#clipPath1)" cx="546" cy="62.5"/>
      <text x="518.9824" xml:space="preserve" y="67.2139" clip-path="url(#clipPath1)" font-family="sans-serif" stroke="none">unexisting</text>
    </g>
    <g text-rendering="geometricPrecision" stroke-miterlimit="1.45" shape-rendering="geometricPrecision" stroke-linecap="butt">
      <circle fill="none" r="35.5" clip-path="url(#clipPath1)" cx="546.5" cy="247.5"/>
      <text x="526.4873" xml:space="preserve" y="252.2139" clip-path="url(#clipPath1)" font-family="sans-serif" stroke="none">created</text>
    </g>
    <g text-rendering="geometricPrecision" stroke-miterlimit="1.45" shape-rendering="geometricPrecision" stroke-linecap="butt">
      <rect x="447" y="335" clip-path="url(#clipPath1)" fill="none" width="199" rx="19.5" ry="19.5" height="39"/>
      <text x="534.834" xml:space="preserve" y="359.2139" clip-path="url(#clipPath1)" font-family="sans-serif" stroke="none">init()</text>
    </g>
    <g text-rendering="geometricPrecision" stroke-miterlimit="1.45" shape-rendering="geometricPrecision" stroke-linecap="butt">
      <circle fill="none" r="35.5" clip-path="url(#clipPath1)" cx="546.5" cy="448.5"/>
      <text x="521.8203" xml:space="preserve" y="453.2139" clip-path="url(#clipPath1)" font-family="sans-serif" stroke="none">initialized</text>
    </g>
    <g text-rendering="geometricPrecision" stroke-miterlimit="1.45" shape-rendering="geometricPrecision" stroke-linecap="butt">
      <rect x="447" y="525.5" clip-path="url(#clipPath1)" fill="none" width="199" rx="19.5" ry="19.5" height="39"/>
      <text x="521.8262" xml:space="preserve" y="549.7139" clip-path="url(#clipPath1)" font-family="sans-serif" stroke="none">activate()</text>
    </g>
    <g text-rendering="geometricPrecision" stroke-miterlimit="1.45" shape-rendering="geometricPrecision" stroke-linecap="butt">
      <circle fill="none" r="35.5" clip-path="url(#clipPath1)" cx="546.5" cy="641.5"/>
      <text x="522.4854" xml:space="preserve" y="646.2139" clip-path="url(#clipPath1)" font-family="sans-serif" stroke="none">activated</text>
    </g>
    <g text-rendering="geometricPrecision" stroke-miterlimit="1.45" shape-rendering="geometricPrecision" stroke-linecap="butt">
      <rect x="770" y="622" clip-path="url(#clipPath1)" fill="none" width="199" rx="19.5" ry="19.5" height="39"/>
      <text x="838.1523" xml:space="preserve" y="646.2139" clip-path="url(#clipPath1)" font-family="sans-serif" stroke="none">deactivate()</text>
    </g>
    <g text-rendering="geometricPrecision" stroke-miterlimit="1.45" shape-rendering="geometricPrecision" stroke-linecap="butt">
      <rect x="447" y="718.5" clip-path="url(#clipPath1)" fill="none" width="199" rx="19.5" ry="19.5" height="39"/>
      <text x="495.1367" xml:space="preserve" y="742.7139" clip-path="url(#clipPath1)" font-family="sans-serif" stroke="none">Garbage Collection</text>
    </g>
    <g text-rendering="geometricPrecision" stroke-miterlimit="1.45" shape-rendering="geometricPrecision" stroke-linecap="butt">
      <circle fill="none" r="35.5" clip-path="url(#clipPath1)" cx="546.5" cy="834.5"/>
      <text x="519.4824" xml:space="preserve" y="839.2139" clip-path="url(#clipPath1)" font-family="sans-serif" stroke="none">unexisting</text>
    </g>
    <g text-rendering="geometricPrecision" stroke-miterlimit="1.45" shape-rendering="geometricPrecision" stroke-linecap="butt">
      <path fill="none" d="M546.2112 97.9785 L546.2948 112.0253" clip-path="url(#clipPath1)"/>
    </g>
    <g fill="white" text-rendering="geometricPrecision" stroke-miterlimit="1.45" shape-rendering="geometricPrecision" stroke-linecap="butt" stroke="white">
      <path d="M546.3841 127.0251 L552.2888 110.9896 L540.2889 111.0611 Z" stroke="none" clip-path="url(#clipPath1)"/>
      <path fill="none" d="M546.3841 127.0251 L552.2888 110.9896 L540.2889 111.0611 Z" clip-path="url(#clipPath1)" stroke="black"/>
      <path fill="none" d="M546.5 165.98 L546.5 197.034" clip-path="url(#clipPath1)" stroke="black"/>
      <path d="M546.5 212.034 L552.5 196.034 L540.5 196.034 Z" clip-path="url(#clipPath1)" stroke="none"/>
      <path fill="none" d="M546.5 212.034 L552.5 196.034 L540.5 196.034 Z" clip-path="url(#clipPath1)" stroke="black"/>
      <path fill="none" d="M546.5 283.0012 L546.5 319.9845" clip-path="url(#clipPath1)" stroke="black"/>
      <path d="M546.5 334.9845 L552.5 318.9845 L540.5 318.9845 Z" clip-path="url(#clipPath1)" stroke="none"/>
      <path fill="none" d="M546.5 334.9845 L552.5 318.9845 L540.5 318.9845 Z" clip-path="url(#clipPath1)" stroke="black"/>
      <path fill="none" d="M546.5 374.0095 L546.5 413 L546.5 413.0347" clip-path="url(#clipPath1)" stroke="black"/>
      <path d="M546.5 413.0347 L552.5 397.0347 L540.5 397.0347 Z" clip-path="url(#clipPath1)" stroke="none"/>
      <path fill="none" d="M546.5 413.0347 L552.5 397.0347 L540.5 397.0347 Z" clip-path="url(#clipPath1)" stroke="black"/>
      <path fill="none" d="M546.5 483.9807 L546.5 510.4846" clip-path="url(#clipPath1)" stroke="black"/>
      <path d="M546.5 525.4846 L552.5 509.4846 L540.5 509.4846 Z" clip-path="url(#clipPath1)" stroke="none"/>
      <path fill="none" d="M546.5 525.4846 L552.5 509.4846 L540.5 509.4846 Z" clip-path="url(#clipPath1)" stroke="black"/>
      <path fill="none" d="M546.5 564.4602 L546.5 591.0271" clip-path="url(#clipPath1)" stroke="black"/>
      <path d="M546.5 606.0271 L552.5 590.0271 L540.5 590.0271 Z" clip-path="url(#clipPath1)" stroke="none"/>
      <path fill="none" d="M546.5 606.0271 L552.5 590.0271 L540.5 590.0271 Z" clip-path="url(#clipPath1)" stroke="black"/>
      <path fill="none" d="M581.999 641.5 L769 641.5 L769 641.5 L770.0305 641.5" clip-path="url(#clipPath1)" stroke="black"/>
      <path d="M770.0305 641.5 L754.0305 635.5 L754.0305 647.5 Z" clip-path="url(#clipPath1)" stroke="none"/>
      <path fill="none" d="M770.0305 641.5 L754.0305 635.5 L754.0305 647.5 Z" clip-path="url(#clipPath1)" stroke="black"/>
      <path fill="none" d="M869.5 622.0398 L869.5 448.5 L597.0253 448.5" clip-path="url(#clipPath1)" stroke="black"/>
      <path d="M582.0253 448.5 L598.0253 454.5 L598.0253 442.5 Z" clip-path="url(#clipPath1)" stroke="none"/>
      <path fill="none" d="M582.0253 448.5 L598.0253 454.5 L598.0253 442.5 Z" clip-path="url(#clipPath1)" stroke="black"/>
      <path fill="none" d="M546.5 676.9807 L546.5 703.4846" clip-path="url(#clipPath1)" stroke="black"/>
      <path d="M546.5 718.4846 L552.5 702.4846 L540.5 702.4846 Z" clip-path="url(#clipPath1)" stroke="none"/>
      <path fill="none" d="M546.5 718.4846 L552.5 702.4846 L540.5 702.4846 Z" clip-path="url(#clipPath1)" stroke="black"/>
      <path fill="none" d="M546.5 757.4602 L546.5 784.0271" clip-path="url(#clipPath1)" stroke="black"/>
      <path d="M546.5 799.0271 L552.5 783.0271 L540.5 783.0271 Z" clip-path="url(#clipPath1)" stroke="none"/>
      <path fill="none" d="M546.5 799.0271 L552.5 783.0271 L540.5 783.0271 Z" clip-path="url(#clipPath1)" stroke="black"/>
    </g>
  </g>
</svg>
