<?xml version="1.0" encoding="UTF-8" standalone="no"?><svg xmlns="http://www.w3.org/2000/svg" xmlns:xlink="http://www.w3.org/1999/xlink" contentScriptType="application/ecmascript" contentStyleType="text/css" height="1659px" preserveAspectRatio="none" style="width:1960px;height:1659px;" version="1.1" viewBox="0 0 1960 1659" width="1960px" zoomAndPan="magnify"><defs><filter height="300%" id="fnt8zwi0sn31e" width="300%" x="-1" y="-1"><feGaussianBlur result="blurOut" stdDeviation="2.0"/><feColorMatrix in="blurOut" result="blurOut2" type="matrix" values="0 0 0 0 0 0 0 0 0 0 0 0 0 0 0 0 0 0 .4 0"/><feOffset dx="4.0" dy="4.0" in="blurOut2" result="blurOut3"/><feBlend in="SourceGraphic" in2="blurOut3" mode="normal"/></filter></defs><g><line style="stroke: #A80036; stroke-width: 1.0; stroke-dasharray: 5.0,5.0;" x1="27" x2="27" y1="86.2969" y2="1572.6719"/><line style="stroke: #A80036; stroke-width: 1.0; stroke-dasharray: 5.0,5.0;" x1="182" x2="182" y1="86.2969" y2="1572.6719"/><line style="stroke: #A80036; stroke-width: 1.0; stroke-dasharray: 5.0,5.0;" x1="334" x2="334" y1="86.2969" y2="1572.6719"/><line style="stroke: #A80036; stroke-width: 1.0; stroke-dasharray: 5.0,5.0;" x1="642" x2="642" y1="86.2969" y2="1572.6719"/><line style="stroke: #A80036; stroke-width: 1.0; stroke-dasharray: 5.0,5.0;" x1="816.5" x2="816.5" y1="86.2969" y2="1572.6719"/><line style="stroke: #A80036; stroke-width: 1.0; stroke-dasharray: 5.0,5.0;" x1="940.5" x2="940.5" y1="86.2969" y2="1572.6719"/><line style="stroke: #A80036; stroke-width: 1.0; stroke-dasharray: 5.0,5.0;" x1="1071.5" x2="1071.5" y1="86.2969" y2="1572.6719"/><line style="stroke: #A80036; stroke-width: 1.0; stroke-dasharray: 5.0,5.0;" x1="1249.5" x2="1249.5" y1="86.2969" y2="1572.6719"/><line style="stroke: #A80036; stroke-width: 1.0; stroke-dasharray: 5.0,5.0;" x1="1389.5" x2="1389.5" y1="86.2969" y2="1572.6719"/><line style="stroke: #A80036; stroke-width: 1.0; stroke-dasharray: 5.0,5.0;" x1="1547" x2="1547" y1="86.2969" y2="1572.6719"/><line style="stroke: #A80036; stroke-width: 1.0; stroke-dasharray: 5.0,5.0;" x1="1725.5" x2="1725.5" y1="86.2969" y2="1572.6719"/><line style="stroke: #A80036; stroke-width: 1.0; stroke-dasharray: 5.0,5.0;" x1="1878" x2="1878" y1="86.2969" y2="1572.6719"/><text fill="#000000" font-family="sans-serif" font-size="14" lengthAdjust="spacingAndGlyphs" textLength="32" x="8" y="82.9951">User</text><ellipse cx="27" cy="13" fill="#FEFECE" filter="url(#fnt8zwi0sn31e)" rx="8" ry="8" style="stroke: #A80036; stroke-width: 2.0;"/><path d="M27,21 L27,48 M14,29 L40,29 M27,48 L14,63 M27,48 L40,63 " fill="none" filter="url(#fnt8zwi0sn31e)" style="stroke: #A80036; stroke-width: 2.0;"/><text fill="#000000" font-family="sans-serif" font-size="14" lengthAdjust="spacingAndGlyphs" textLength="32" x="8" y="1584.667">User</text><ellipse cx="27" cy="1597.9688" fill="#FEFECE" filter="url(#fnt8zwi0sn31e)" rx="8" ry="8" style="stroke: #A80036; stroke-width: 2.0;"/><path d="M27,1605.9688 L27,1632.9688 M14,1613.9688 L40,1613.9688 M27,1632.9688 L14,1647.9688 M27,1632.9688 L40,1647.9688 " fill="none" filter="url(#fnt8zwi0sn31e)" style="stroke: #A80036; stroke-width: 2.0;"/><rect fill="#FEFECE" filter="url(#fnt8zwi0sn31e)" height="30.2969" style="stroke: #A80036; stroke-width: 1.5;" width="182" x="89" y="51"/><text fill="#000000" font-family="sans-serif" font-size="14" lengthAdjust="spacingAndGlyphs" textLength="168" x="96" y="70.9951">WordListVueComponent</text><rect fill="#FEFECE" filter="url(#fnt8zwi0sn31e)" height="30.2969" style="stroke: #A80036; stroke-width: 1.5;" width="182" x="89" y="1571.6719"/><text fill="#000000" font-family="sans-serif" font-size="14" lengthAdjust="spacingAndGlyphs" textLength="168" x="96" y="1591.667">WordListVueComponent</text><rect fill="#FEFECE" filter="url(#fnt8zwi0sn31e)" height="30.2969" style="stroke: #A80036; stroke-width: 1.5;" width="94" x="285" y="51"/><text fill="#000000" font-family="sans-serif" font-size="14" lengthAdjust="spacingAndGlyphs" textLength="80" x="292" y="70.9951">AppController</text><rect fill="#FEFECE" filter="url(#fnt8zwi0sn31e)" height="30.2969" style="stroke: #A80036; stroke-width: 1.5;" width="94" x="285" y="1571.6719"/><text fill="#000000" font-family="sans-serif" font-size="14" lengthAdjust="spacingAndGlyphs" textLength="80" x="292" y="1591.667">AppController</text><rect fill="#FEFECE" filter="url(#fnt8zwi0sn31e)" height="30.2969" style="stroke: #A80036; stroke-width: 1.5;" width="140" x="570" y="51"/><text fill="#000000" font-family="sans-serif" font-size="14" lengthAdjust="spacingAndGlyphs" textLength="126" x="577" y="70.9951">WordListController</text><rect fill="#FEFECE" filter="url(#fnt8zwi0sn31e)" height="30.2969" style="stroke: #A80036; stroke-width: 1.5;" width="140" x="570" y="1571.6719"/><text fill="#000000" font-family="sans-serif" font-size="14" lengthAdjust="spacingAndGlyphs" textLength="126" x="577" y="1591.667">WordListController</text><rect fill="#FEFECE" filter="url(#fnt8zwi0sn31e)" height="30.2969" style="stroke: #A80036; stroke-width: 1.5;" width="119" x="755.5" y="51"/><text fill="#000000" font-family="sans-serif" font-size="14" lengthAdjust="spacingAndGlyphs" textLength="105" x="762.5" y="70.9951">UserDataQuery</text><rect fill="#FEFECE" filter="url(#fnt8zwi0sn31e)" height="30.2969" style="stroke: #A80036; stroke-width: 1.5;" width="119" x="755.5" y="1571.6719"/><text fill="#000000" font-family="sans-serif" font-size="14" lengthAdjust="spacingAndGlyphs" textLength="105" x="762.5" y="1591.667">UserDataQuery</text><rect fill="#FEFECE" filter="url(#fnt8zwi0sn31e)" height="30.2969" style="stroke: #A80036; stroke-width: 1.5;" width="100" x="888.5" y="51"/><text fill="#000000" font-family="sans-serif" font-size="14" lengthAdjust="spacingAndGlyphs" textLength="86" x="895.5" y="70.9951">LexicalQuery</text><rect fill="#FEFECE" filter="url(#fnt8zwi0sn31e)" height="30.2969" style="stroke: #A80036; stroke-width: 1.5;" width="100" x="888.5" y="1571.6719"/><text fill="#000000" font-family="sans-serif" font-size="14" lengthAdjust="spacingAndGlyphs" textLength="86" x="895.5" y="1591.667">LexicalQuery</text><rect fill="#FEFECE" filter="url(#fnt8zwi0sn31e)" height="30.2969" style="stroke: #A80036; stroke-width: 1.5;" width="135" x="1002.5" y="51"/><text fill="#000000" font-family="sans-serif" font-size="14" lengthAdjust="spacingAndGlyphs" textLength="121" x="1009.5" y="70.9951">DBSyncController</text><rect fill="#FEFECE" filter="url(#fnt8zwi0sn31e)" height="30.2969" style="stroke: #A80036; stroke-width: 1.5;" width="135" x="1002.5" y="1571.6719"/><text fill="#000000" font-family="sans-serif" font-size="14" lengthAdjust="spacingAndGlyphs" textLength="121" x="1009.5" y="1591.667">DBSyncController</text><text fill="#000000" font-family="sans-serif" font-size="14" lengthAdjust="spacingAndGlyphs" textLength="75" x="1209.5" y="82.9951">IndexedDb</text><path d="M1232,34 C1232,24 1250,24 1250,24 C1250,24 1268,24 1268,34 L1268,60 C1268,70 1250,70 1250,70 C1250,70 1232,70 1232,60 L1232,34 " fill="#FEFECE" filter="url(#fnt8zwi0sn31e)" style="stroke: #000000; stroke-width: 1.5;"/><path d="M1232,34 C1232,44 1250,44 1250,44 C1250,44 1268,44 1268,34 " fill="none" style="stroke: #000000; stroke-width: 1.5;"/><text fill="#000000" font-family="sans-serif" font-size="14" lengthAdjust="spacingAndGlyphs" textLength="75" x="1209.5" y="1584.667">IndexedDb</text><path d="M1232,1597.9688 C1232,1587.9688 1250,1587.9688 1250,1587.9688 C1250,1587.9688 1268,1587.9688 1268,1597.9688 L1268,1623.9688 C1268,1633.9688 1250,1633.9688 1250,1633.9688 C1250,1633.9688 1232,1633.9688 1232,1623.9688 L1232,1597.9688 " fill="#FEFECE" filter="url(#fnt8zwi0sn31e)" style="stroke: #000000; stroke-width: 1.5;"/><path d="M1232,1597.9688 C1232,1607.9688 1250,1607.9688 1250,1607.9688 C1250,1607.9688 1268,1607.9688 1268,1597.9688 " fill="none" style="stroke: #000000; stroke-width: 1.5;"/><rect fill="#FEFECE" filter="url(#fnt8zwi0sn31e)" height="30.2969" style="stroke: #A80036; stroke-width: 1.5;" width="175" x="1300.5" y="51"/><text fill="#000000" font-family="sans-serif" font-size="14" lengthAdjust="spacingAndGlyphs" textLength="161" x="1307.5" y="70.9951">ProtectedClientAdapter</text><rect fill="#FEFECE" filter="url(#fnt8zwi0sn31e)" height="30.2969" style="stroke: #A80036; stroke-width: 1.5;" width="175" x="1300.5" y="1571.6719"/><text fill="#000000" font-family="sans-serif" font-size="14" lengthAdjust="spacingAndGlyphs" textLength="161" x="1307.5" y="1591.667">ProtectedClientAdapter</text><rect fill="#FEFECE" filter="url(#fnt8zwi0sn31e)" height="30.2969" style="stroke: #A80036; stroke-width: 1.5;" width="78" x="1506" y="51"/><text fill="#000000" font-family="sans-serif" font-size="14" lengthAdjust="spacingAndGlyphs" textLength="64" x="1513" y="70.9951">AuthOAPI</text><rect fill="#FEFECE" filter="url(#fnt8zwi0sn31e)" height="30.2969" style="stroke: #A80036; stroke-width: 1.5;" width="78" x="1506" y="1571.6719"/><text fill="#000000" font-family="sans-serif" font-size="14" lengthAdjust="spacingAndGlyphs" textLength="64" x="1513" y="1591.667">AuthOAPI</text><rect fill="#FEFECE" filter="url(#fnt8zwi0sn31e)" height="30.2969" style="stroke: #A80036; stroke-width: 1.5;" width="99" x="1674.5" y="51"/><text fill="#000000" font-family="sans-serif" font-size="14" lengthAdjust="spacingAndGlyphs" textLength="85" x="1681.5" y="70.9951">UserDataAPI</text><rect fill="#FEFECE" filter="url(#fnt8zwi0sn31e)" height="30.2969" style="stroke: #A80036; stroke-width: 1.5;" width="99" x="1674.5" y="1571.6719"/><text fill="#000000" font-family="sans-serif" font-size="14" lengthAdjust="spacingAndGlyphs" textLength="85" x="1681.5" y="1591.667">UserDataAPI</text><text fill="#000000" font-family="sans-serif" font-size="14" lengthAdjust="spacingAndGlyphs" textLength="124" x="1813" y="82.9951">RemoteDataStore</text><path d="M1860,34 C1860,24 1878,24 1878,24 C1878,24 1896,24 1896,34 L1896,60 C1896,70 1878,70 1878,70 C1878,70 1860,70 1860,60 L1860,34 " fill="#FEFECE" filter="url(#fnt8zwi0sn31e)" style="stroke: #000000; stroke-width: 1.5;"/><path d="M1860,34 C1860,44 1878,44 1878,44 C1878,44 1896,44 1896,34 " fill="none" style="stroke: #000000; stroke-width: 1.5;"/><text fill="#000000" font-family="sans-serif" font-size="14" lengthAdjust="spacingAndGlyphs" textLength="124" x="1813" y="1584.667">RemoteDataStore</text><path d="M1860,1597.9688 C1860,1587.9688 1878,1587.9688 1878,1587.9688 C1878,1587.9688 1896,1587.9688 1896,1597.9688 L1896,1623.9688 C1896,1633.9688 1878,1633.9688 1878,1633.9688 C1878,1633.9688 1860,1633.9688 1860,1623.9688 L1860,1597.9688 " fill="#FEFECE" filter="url(#fnt8zwi0sn31e)" style="stroke: #000000; stroke-width: 1.5;"/><path d="M1860,1597.9688 C1860,1607.9688 1878,1607.9688 1878,1607.9688 C1878,1607.9688 1896,1607.9688 1896,1597.9688 " fill="none" style="stroke: #000000; stroke-width: 1.5;"/><rect fill="#EEEEEE" filter="url(#fnt8zwi0sn31e)" height="3" style="stroke: #EEEEEE; stroke-width: 1.0;" width="1945" x="3" y="116.8633"/><line style="stroke: #000000; stroke-width: 1.0;" x1="3" x2="1948" y1="116.8633" y2="116.8633"/><line style="stroke: #000000; stroke-width: 1.0;" x1="3" x2="1948" y1="119.8633" y2="119.8633"/><rect fill="#EEEEEE" filter="url(#fnt8zwi0sn31e)" height="23.1328" style="stroke: #000000; stroke-width: 2.0;" width="143" x="904" y="106.2969"/><text fill="#000000" font-family="sans-serif" font-size="13" font-weight="bold" lengthAdjust="spacingAndGlyphs" textLength="124" x="910" y="122.3638">App Initialization</text><polygon fill="#A80036" points="928.5,156.5625,938.5,160.5625,928.5,164.5625,932.5,160.5625" style="stroke: #A80036; stroke-width: 1.0;"/><line style="stroke: #A80036; stroke-width: 1.0;" x1="642" x2="934.5" y1="160.5625" y2="160.5625"/><text fill="#000000" font-family="sans-serif" font-size="13" font-weight="bold" lengthAdjust="spacingAndGlyphs" textLength="39" x="649" y="155.4966">[001]</text><text fill="#000000" font-family="sans-serif" font-size="13" lengthAdjust="spacingAndGlyphs" textLength="211" x="692" y="155.4966">Subscribe(MORPH_DATA_READY)</text><polygon fill="#A80036" points="630,185.6953,640,189.6953,630,193.6953,634,189.6953" style="stroke: #A80036; stroke-width: 1.0;"/><line style="stroke: #A80036; stroke-width: 1.0;" x1="334" x2="636" y1="189.6953" y2="189.6953"/><text fill="#000000" font-family="sans-serif" font-size="13" font-weight="bold" lengthAdjust="spacingAndGlyphs" textLength="39" x="341" y="184.6294">[002]</text><text fill="#000000" font-family="sans-serif" font-size="13" lengthAdjust="spacingAndGlyphs" textLength="241" x="384" y="184.6294">Subscript(WORDLIST_DATA_UPDATE))</text><rect fill="#EEEEEE" filter="url(#fnt8zwi0sn31e)" height="3" style="stroke: #EEEEEE; stroke-width: 1.0;" width="1945" x="3" y="218.2617"/><line style="stroke: #000000; stroke-width: 1.0;" x1="3" x2="1948" y1="218.2617" y2="218.2617"/><line style="stroke: #000000; stroke-width: 1.0;" x1="3" x2="1948" y1="221.2617" y2="221.2617"/><rect fill="#EEEEEE" filter="url(#fnt8zwi0sn31e)" height="23.1328" style="stroke: #000000; stroke-width: 2.0;" width="201" x="875" y="207.6953"/><text fill="#000000" font-family="sans-serif" font-size="13" font-weight="bold" lengthAdjust="spacingAndGlyphs" textLength="182" x="881" y="223.7622">First Display of WordList</text><polygon fill="#A80036" points="170,257.9609,180,261.9609,170,265.9609,174,261.9609" style="stroke: #A80036; stroke-width: 1.0;"/><line style="stroke: #A80036; stroke-width: 1.0;" x1="27" x2="176" y1="261.9609" y2="261.9609"/><text fill="#000000" font-family="sans-serif" font-size="13" font-weight="bold" lengthAdjust="spacingAndGlyphs" textLength="39" x="34" y="256.895">[003]</text><text fill="#000000" font-family="sans-serif" font-size="13" lengthAdjust="spacingAndGlyphs" textLength="88" x="77" y="256.895">ShowWordList</text><polygon fill="#A80036" points="322,287.0938,332,291.0938,322,295.0938,326,291.0938" style="stroke: #A80036; stroke-width: 1.0;"/><line style="stroke: #A80036; stroke-width: 1.0;" x1="182" x2="328" y1="291.0938" y2="291.0938"/><text fill="#000000" font-family="sans-serif" font-size="13" font-weight="bold" lengthAdjust="spacingAndGlyphs" textLength="39" x="189" y="286.0278">[004]</text><text fill="#000000" font-family="sans-serif" font-size="13" lengthAdjust="spacingAndGlyphs" textLength="77" x="232" y="286.0278">GetWordList</text><polygon fill="#A80036" points="630,316.2266,640,320.2266,630,324.2266,634,320.2266" style="stroke: #A80036; stroke-width: 1.0;"/><line style="stroke: #A80036; stroke-width: 1.0;" x1="334" x2="636" y1="320.2266" y2="320.2266"/><text fill="#000000" font-family="sans-serif" font-size="13" font-weight="bold" lengthAdjust="spacingAndGlyphs" textLength="39" x="341" y="315.1606">[005]</text><text fill="#000000" font-family="sans-serif" font-size="13" lengthAdjust="spacingAndGlyphs" textLength="77" x="384" y="315.1606">GetWordList</text><polygon fill="#A80036" points="805,345.3594,815,349.3594,805,353.3594,809,349.3594" style="stroke: #A80036; stroke-width: 1.0;"/><line style="stroke: #A80036; stroke-width: 1.0;" x1="642" x2="811" y1="349.3594" y2="349.3594"/><text fill="#000000" font-family="sans-serif" font-size="13" font-weight="bold" lengthAdjust="spacingAndGlyphs" textLength="39" x="649" y="344.2935">[006]</text><text fill="#000000" font-family="sans-serif" font-size="13" lengthAdjust="spacingAndGlyphs" textLength="84" x="692" y="344.2935">GetUserData</text><polygon fill="#A80036" points="1060,374.4922,1070,378.4922,1060,382.4922,1064,378.4922" style="stroke: #A80036; stroke-width: 1.0;"/><line style="stroke: #A80036; stroke-width: 1.0;" x1="817" x2="1066" y1="378.4922" y2="378.4922"/><text fill="#000000" font-family="sans-serif" font-size="13" font-weight="bold" lengthAdjust="spacingAndGlyphs" textLength="39" x="824" y="373.4263">[007]</text><text fill="#000000" font-family="sans-serif" font-size="13" lengthAdjust="spacingAndGlyphs" textLength="54" x="867" y="373.4263">GetData</text><polygon fill="#A80036" points="1378,403.625,1388,407.625,1378,411.625,1382,407.625" style="stroke: #A80036; stroke-width: 1.0;"/><line style="stroke: #A80036; stroke-width: 1.0;" x1="1072" x2="1384" y1="407.625" y2="407.625"/><text fill="#000000" font-family="sans-serif" font-size="13" font-weight="bold" lengthAdjust="spacingAndGlyphs" textLength="39" x="1079" y="402.5591">[008]</text><text fill="#000000" font-family="sans-serif" font-size="13" lengthAdjust="spacingAndGlyphs" textLength="104" x="1122" y="402.5591">GetRemoteData</text><polygon fill="#A80036" points="1714,432.7578,1724,436.7578,1714,440.7578,1718,436.7578" style="stroke: #A80036; stroke-width: 1.0;"/><line style="stroke: #A80036; stroke-width: 1.0;" x1="1390" x2="1720" y1="436.7578" y2="436.7578"/><text fill="#000000" font-family="sans-serif" font-size="13" font-weight="bold" lengthAdjust="spacingAndGlyphs" textLength="39" x="1397" y="431.6919">[009]</text><text fill="#000000" font-family="sans-serif" font-size="13" lengthAdjust="spacingAndGlyphs" textLength="54" x="1440" y="431.6919">GetData</text><polygon fill="#A80036" points="1558,461.8906,1548,465.8906,1558,469.8906,1554,465.8906" style="stroke: #A80036; stroke-width: 1.0;"/><line style="stroke: #A80036; stroke-width: 1.0;" x1="1552" x2="1725" y1="465.8906" y2="465.8906"/><text fill="#000000" font-family="sans-serif" font-size="13" font-weight="bold" lengthAdjust="spacingAndGlyphs" textLength="39" x="1564" y="460.8247">[010]</text><text fill="#000000" font-family="sans-serif" font-size="13" lengthAdjust="spacingAndGlyphs" textLength="112" x="1607" y="460.8247">AuthenticateUser</text><polygon fill="#A80036" points="1401,491.0234,1391,495.0234,1401,499.0234,1397,495.0234" style="stroke: #A80036; stroke-width: 1.0;"/><line style="stroke: #A80036; stroke-width: 1.0;" x1="1395" x2="1546" y1="495.0234" y2="495.0234"/><text fill="#000000" font-family="sans-serif" font-size="13" font-weight="bold" lengthAdjust="spacingAndGlyphs" textLength="39" x="1407" y="489.9575">[011]</text><text fill="#000000" font-family="sans-serif" font-size="13" lengthAdjust="spacingAndGlyphs" textLength="90" x="1450" y="489.9575">Authenticated</text><polygon fill="#A80036" points="1714,520.1563,1724,524.1563,1714,528.1563,1718,524.1563" style="stroke: #A80036; stroke-width: 1.0;"/><line style="stroke: #A80036; stroke-width: 1.0;" x1="1390" x2="1720" y1="524.1563" y2="524.1563"/><text fill="#000000" font-family="sans-serif" font-size="13" font-weight="bold" lengthAdjust="spacingAndGlyphs" textLength="39" x="1397" y="519.0903">[012]</text><text fill="#000000" font-family="sans-serif" font-size="13" lengthAdjust="spacingAndGlyphs" textLength="43" x="1440" y="519.0903">UserID</text><polygon fill="#A80036" points="1866,549.2891,1876,553.2891,1866,557.2891,1870,553.2891" style="stroke: #A80036; stroke-width: 1.0;"/><line style="stroke: #A80036; stroke-width: 1.0;" x1="1726" x2="1872" y1="553.2891" y2="553.2891"/><text fill="#000000" font-family="sans-serif" font-size="13" font-weight="bold" lengthAdjust="spacingAndGlyphs" textLength="39" x="1733" y="548.2231">[013]</text><text fill="#000000" font-family="sans-serif" font-size="13" lengthAdjust="spacingAndGlyphs" textLength="61" x="1776" y="548.2231">GetQuery</text><polygon fill="#A80036" points="1737,578.4219,1727,582.4219,1737,586.4219,1733,582.4219" style="stroke: #A80036; stroke-width: 1.0;"/><line style="stroke: #A80036; stroke-width: 1.0;" x1="1731" x2="1877" y1="582.4219" y2="582.4219"/><text fill="#000000" font-family="sans-serif" font-size="13" font-weight="bold" lengthAdjust="spacingAndGlyphs" textLength="39" x="1743" y="577.356">[014]</text><text fill="#000000" font-family="sans-serif" font-size="13" lengthAdjust="spacingAndGlyphs" textLength="31" x="1786" y="577.356">Data</text><polygon fill="#A80036" points="1401,607.5547,1391,611.5547,1401,615.5547,1397,611.5547" style="stroke: #A80036; stroke-width: 1.0;"/><line style="stroke: #A80036; stroke-width: 1.0;" x1="1395" x2="1725" y1="611.5547" y2="611.5547"/><text fill="#000000" font-family="sans-serif" font-size="13" font-weight="bold" lengthAdjust="spacingAndGlyphs" textLength="39" x="1407" y="606.4888">[015]</text><text fill="#000000" font-family="sans-serif" font-size="13" lengthAdjust="spacingAndGlyphs" textLength="31" x="1450" y="606.4888">Data</text><polygon fill="#A80036" points="1083,636.6875,1073,640.6875,1083,644.6875,1079,640.6875" style="stroke: #A80036; stroke-width: 1.0;"/><line style="stroke: #A80036; stroke-width: 1.0;" x1="1077" x2="1389" y1="640.6875" y2="640.6875"/><text fill="#000000" font-family="sans-serif" font-size="13" font-weight="bold" lengthAdjust="spacingAndGlyphs" textLength="39" x="1089" y="635.6216">[016]</text><text fill="#000000" font-family="sans-serif" font-size="13" lengthAdjust="spacingAndGlyphs" textLength="31" x="1132" y="635.6216">Data</text><polygon fill="#A80036" points="1238,665.8203,1248,669.8203,1238,673.8203,1242,669.8203" style="stroke: #A80036; stroke-width: 1.0;"/><line style="stroke: #A80036; stroke-width: 1.0;" x1="1072" x2="1244" y1="669.8203" y2="669.8203"/><text fill="#000000" font-family="sans-serif" font-size="13" font-weight="bold" lengthAdjust="spacingAndGlyphs" textLength="39" x="1079" y="664.7544">[017]</text><text fill="#000000" font-family="sans-serif" font-size="13" lengthAdjust="spacingAndGlyphs" textLength="87" x="1122" y="664.7544">GetLocalData</text><polygon fill="#A80036" points="1083,694.9531,1073,698.9531,1083,702.9531,1079,698.9531" style="stroke: #A80036; stroke-width: 1.0;"/><line style="stroke: #A80036; stroke-width: 1.0;" x1="1077" x2="1249" y1="698.9531" y2="698.9531"/><text fill="#000000" font-family="sans-serif" font-size="13" font-weight="bold" lengthAdjust="spacingAndGlyphs" textLength="39" x="1089" y="693.8872">[018]</text><text fill="#000000" font-family="sans-serif" font-size="13" lengthAdjust="spacingAndGlyphs" textLength="31" x="1132" y="693.8872">Data</text><line style="stroke: #A80036; stroke-width: 1.0;" x1="1072" x2="1114" y1="728.0859" y2="728.0859"/><line style="stroke: #A80036; stroke-width: 1.0;" x1="1114" x2="1114" y1="728.0859" y2="741.0859"/><line style="stroke: #A80036; stroke-width: 1.0;" x1="1073" x2="1114" y1="741.0859" y2="741.0859"/><polygon fill="#A80036" points="1083,737.0859,1073,741.0859,1083,745.0859,1079,741.0859" style="stroke: #A80036; stroke-width: 1.0;"/><text fill="#000000" font-family="sans-serif" font-size="13" font-weight="bold" lengthAdjust="spacingAndGlyphs" textLength="39" x="1079" y="723.02">[019]</text><text fill="#000000" font-family="sans-serif" font-size="13" lengthAdjust="spacingAndGlyphs" textLength="71" x="1122" y="723.02">MergeData</text><polygon fill="#A80036" points="828,766.2188,818,770.2188,828,774.2188,824,770.2188" style="stroke: #A80036; stroke-width: 1.0;"/><line style="stroke: #A80036; stroke-width: 1.0;" x1="822" x2="1071" y1="770.2188" y2="770.2188"/><text fill="#000000" font-family="sans-serif" font-size="13" font-weight="bold" lengthAdjust="spacingAndGlyphs" textLength="39" x="834" y="765.1528">[020]</text><text fill="#000000" font-family="sans-serif" font-size="13" lengthAdjust="spacingAndGlyphs" textLength="31" x="877" y="765.1528">Data</text><polygon fill="#A80036" points="653,795.3516,643,799.3516,653,803.3516,649,799.3516" style="stroke: #A80036; stroke-width: 1.0;"/><line style="stroke: #A80036; stroke-width: 1.0;" x1="647" x2="816" y1="799.3516" y2="799.3516"/><text fill="#000000" font-family="sans-serif" font-size="13" font-weight="bold" lengthAdjust="spacingAndGlyphs" textLength="39" x="659" y="794.2856">[021]</text><text fill="#000000" font-family="sans-serif" font-size="13" lengthAdjust="spacingAndGlyphs" textLength="61" x="702" y="794.2856">UserData</text><line style="stroke: #A80036; stroke-width: 1.0;" x1="642" x2="684" y1="828.4844" y2="828.4844"/><line style="stroke: #A80036; stroke-width: 1.0;" x1="684" x2="684" y1="828.4844" y2="841.4844"/><line style="stroke: #A80036; stroke-width: 1.0;" x1="643" x2="684" y1="841.4844" y2="841.4844"/><polygon fill="#A80036" points="653,837.4844,643,841.4844,653,845.4844,649,841.4844" style="stroke: #A80036; stroke-width: 1.0;"/><text fill="#000000" font-family="sans-serif" font-size="13" font-weight="bold" lengthAdjust="spacingAndGlyphs" textLength="39" x="649" y="823.4185">[022]</text><text fill="#000000" font-family="sans-serif" font-size="13" lengthAdjust="spacingAndGlyphs" textLength="97" x="692" y="823.4185">CreateWordList</text><polygon fill="#A80036" points="345,866.6172,335,870.6172,345,874.6172,341,870.6172" style="stroke: #A80036; stroke-width: 1.0;"/><line style="stroke: #A80036; stroke-width: 1.0;" x1="339" x2="641" y1="870.6172" y2="870.6172"/><text fill="#000000" font-family="sans-serif" font-size="13" font-weight="bold" lengthAdjust="spacingAndGlyphs" textLength="39" x="351" y="865.5513">[023]</text><text fill="#000000" font-family="sans-serif" font-size="13" lengthAdjust="spacingAndGlyphs" textLength="54" x="394" y="865.5513">WordList</text><polygon fill="#A80036" points="193,895.75,183,899.75,193,903.75,189,899.75" style="stroke: #A80036; stroke-width: 1.0;"/><line style="stroke: #A80036; stroke-width: 1.0;" x1="187" x2="333" y1="899.75" y2="899.75"/><text fill="#000000" font-family="sans-serif" font-size="13" font-weight="bold" lengthAdjust="spacingAndGlyphs" textLength="39" x="199" y="894.6841">[024]</text><text fill="#000000" font-family="sans-serif" font-size="13" lengthAdjust="spacingAndGlyphs" textLength="54" x="242" y="894.6841">WordList</text><polygon fill="#A80036" points="38,924.8828,28,928.8828,38,932.8828,34,928.8828" style="stroke: #A80036; stroke-width: 1.0;"/><line style="stroke: #A80036; stroke-width: 1.0;" x1="32" x2="181" y1="928.8828" y2="928.8828"/><text fill="#000000" font-family="sans-serif" font-size="13" font-weight="bold" lengthAdjust="spacingAndGlyphs" textLength="39" x="44" y="923.8169">[025]</text><text fill="#000000" font-family="sans-serif" font-size="13" lengthAdjust="spacingAndGlyphs" textLength="87" x="87" y="923.8169">WordList View</text><rect fill="#EEEEEE" filter="url(#fnt8zwi0sn31e)" height="3" style="stroke: #EEEEEE; stroke-width: 1.0;" width="1945" x="3" y="957.4492"/><line style="stroke: #000000; stroke-width: 1.0;" x1="3" x2="1948" y1="957.4492" y2="957.4492"/><line style="stroke: #000000; stroke-width: 1.0;" x1="3" x2="1948" y1="960.4492" y2="960.4492"/><rect fill="#EEEEEE" filter="url(#fnt8zwi0sn31e)" height="23.1328" style="stroke: #000000; stroke-width: 2.0;" width="227" x="862" y="946.8828"/><text fill="#000000" font-family="sans-serif" font-size="13" font-weight="bold" lengthAdjust="spacingAndGlyphs" textLength="208" x="868" y="962.9497">Update WordList On Lookup</text><polygon fill="#A80036" points="322,997.1484,332,1001.1484,322,1005.1484,326,1001.1484" style="stroke: #A80036; stroke-width: 1.0;"/><line style="stroke: #A80036; stroke-width: 1.0;" x1="27" x2="328" y1="1001.1484" y2="1001.1484"/><text fill="#000000" font-family="sans-serif" font-size="13" font-weight="bold" lengthAdjust="spacingAndGlyphs" textLength="39" x="34" y="996.0825">[026]</text><text fill="#000000" font-family="sans-serif" font-size="13" lengthAdjust="spacingAndGlyphs" textLength="78" x="77" y="996.0825">LookupWord</text><polygon fill="#A80036" points="928.5,1026.2813,938.5,1030.2813,928.5,1034.2813,932.5,1030.2813" style="stroke: #A80036; stroke-width: 1.0;"/><line style="stroke: #A80036; stroke-width: 1.0;" x1="334" x2="934.5" y1="1030.2813" y2="1030.2813"/><text fill="#000000" font-family="sans-serif" font-size="13" font-weight="bold" lengthAdjust="spacingAndGlyphs" textLength="39" x="341" y="1025.2153">[027]</text><text fill="#000000" font-family="sans-serif" font-size="13" lengthAdjust="spacingAndGlyphs" textLength="54" x="384" y="1025.2153">GetData</text><polygon fill="#A80036" points="653,1055.4141,643,1059.4141,653,1063.4141,649,1059.4141" style="stroke: #A80036; stroke-width: 1.0;"/><line style="stroke: #A80036; stroke-width: 1.0;" x1="647" x2="939.5" y1="1059.4141" y2="1059.4141"/><text fill="#000000" font-family="sans-serif" font-size="13" font-weight="bold" lengthAdjust="spacingAndGlyphs" textLength="39" x="659" y="1054.3481">[028]</text><text fill="#000000" font-family="sans-serif" font-size="13" lengthAdjust="spacingAndGlyphs" textLength="193" x="702" y="1054.3481">Publish(MORPH_DATA_READY)</text><polygon fill="#A80036" points="805,1084.5469,815,1088.5469,805,1092.5469,809,1088.5469" style="stroke: #A80036; stroke-width: 1.0;"/><line style="stroke: #A80036; stroke-width: 1.0;" x1="642" x2="811" y1="1088.5469" y2="1088.5469"/><text fill="#000000" font-family="sans-serif" font-size="13" font-weight="bold" lengthAdjust="spacingAndGlyphs" textLength="39" x="649" y="1083.481">[029]</text><text fill="#000000" font-family="sans-serif" font-size="13" lengthAdjust="spacingAndGlyphs" textLength="108" x="692" y="1083.481">UpdateUserData</text><polygon fill="#A80036" points="1060,1113.6797,1070,1117.6797,1060,1121.6797,1064,1117.6797" style="stroke: #A80036; stroke-width: 1.0;"/><line style="stroke: #A80036; stroke-width: 1.0;" x1="817" x2="1066" y1="1117.6797" y2="1117.6797"/><text fill="#000000" font-family="sans-serif" font-size="13" font-weight="bold" lengthAdjust="spacingAndGlyphs" textLength="39" x="824" y="1112.6138">[030]</text><text fill="#000000" font-family="sans-serif" font-size="13" lengthAdjust="spacingAndGlyphs" textLength="78" x="867" y="1112.6138">UpdateData</text><polygon fill="#A80036" points="1238,1142.8125,1248,1146.8125,1238,1150.8125,1242,1146.8125" style="stroke: #A80036; stroke-width: 1.0;"/><line style="stroke: #A80036; stroke-width: 1.0;" x1="1072" x2="1244" y1="1146.8125" y2="1146.8125"/><text fill="#000000" font-family="sans-serif" font-size="13" font-weight="bold" lengthAdjust="spacingAndGlyphs" textLength="39" x="1079" y="1141.7466">[031]</text><text fill="#000000" font-family="sans-serif" font-size="13" lengthAdjust="spacingAndGlyphs" textLength="111" x="1122" y="1141.7466">UpdateLocalData</text><polygon fill="#A80036" points="1083,1171.9453,1073,1175.9453,1083,1179.9453,1079,1175.9453" style="stroke: #A80036; stroke-width: 1.0;"/><line style="stroke: #A80036; stroke-width: 1.0;" x1="1077" x2="1249" y1="1175.9453" y2="1175.9453"/><text fill="#000000" font-family="sans-serif" font-size="13" font-weight="bold" lengthAdjust="spacingAndGlyphs" textLength="39" x="1089" y="1170.8794">[032]</text><text fill="#000000" font-family="sans-serif" font-size="13" lengthAdjust="spacingAndGlyphs" textLength="53" x="1132" y="1170.8794">Success</text><polygon fill="#A80036" points="1378,1201.0781,1388,1205.0781,1378,1209.0781,1382,1205.0781" style="stroke: #A80036; stroke-width: 1.0;"/><line style="stroke: #A80036; stroke-width: 1.0;" x1="1072" x2="1384" y1="1205.0781" y2="1205.0781"/><text fill="#000000" font-family="sans-serif" font-size="13" font-weight="bold" lengthAdjust="spacingAndGlyphs" textLength="39" x="1079" y="1200.0122">[033]</text><text fill="#000000" font-family="sans-serif" font-size="13" lengthAdjust="spacingAndGlyphs" textLength="128" x="1122" y="1200.0122">UpdateRemoteData</text><polygon fill="#A80036" points="1714,1230.2109,1724,1234.2109,1714,1238.2109,1718,1234.2109" style="stroke: #A80036; stroke-width: 1.0;"/><line style="stroke: #A80036; stroke-width: 1.0;" x1="1390" x2="1720" y1="1234.2109" y2="1234.2109"/><text fill="#000000" font-family="sans-serif" font-size="13" font-weight="bold" lengthAdjust="spacingAndGlyphs" textLength="39" x="1397" y="1229.145">[034]</text><text fill="#000000" font-family="sans-serif" font-size="13" lengthAdjust="spacingAndGlyphs" textLength="78" x="1440" y="1229.145">UpdateData</text><polygon fill="#A80036" points="1558,1259.3438,1548,1263.3438,1558,1267.3438,1554,1263.3438" style="stroke: #A80036; stroke-width: 1.0;"/><line style="stroke: #A80036; stroke-width: 1.0;" x1="1552" x2="1725" y1="1263.3438" y2="1263.3438"/><text fill="#000000" font-family="sans-serif" font-size="13" font-weight="bold" lengthAdjust="spacingAndGlyphs" textLength="39" x="1564" y="1258.2778">[035]</text><text fill="#000000" font-family="sans-serif" font-size="13" lengthAdjust="spacingAndGlyphs" textLength="112" x="1607" y="1258.2778">AuthenticateUser</text><polygon fill="#A80036" points="1401,1288.4766,1391,1292.4766,1401,1296.4766,1397,1292.4766" style="stroke: #A80036; stroke-width: 1.0;"/><line style="stroke: #A80036; stroke-width: 1.0;" x1="1395" x2="1546" y1="1292.4766" y2="1292.4766"/><text fill="#000000" font-family="sans-serif" font-size="13" font-weight="bold" lengthAdjust="spacingAndGlyphs" textLength="39" x="1407" y="1287.4106">[036]</text><text fill="#000000" font-family="sans-serif" font-size="13" lengthAdjust="spacingAndGlyphs" textLength="90" x="1450" y="1287.4106">Authenticated</text><polygon fill="#A80036" points="1714,1317.6094,1724,1321.6094,1714,1325.6094,1718,1321.6094" style="stroke: #A80036; stroke-width: 1.0;"/><line style="stroke: #A80036; stroke-width: 1.0;" x1="1390" x2="1720" y1="1321.6094" y2="1321.6094"/><text fill="#000000" font-family="sans-serif" font-size="13" font-weight="bold" lengthAdjust="spacingAndGlyphs" textLength="39" x="1397" y="1316.5435">[037]</text><text fill="#000000" font-family="sans-serif" font-size="13" lengthAdjust="spacingAndGlyphs" textLength="43" x="1440" y="1316.5435">UserID</text><polygon fill="#A80036" points="1866,1346.7422,1876,1350.7422,1866,1354.7422,1870,1350.7422" style="stroke: #A80036; stroke-width: 1.0;"/><line style="stroke: #A80036; stroke-width: 1.0;" x1="1726" x2="1872" y1="1350.7422" y2="1350.7422"/><text fill="#000000" font-family="sans-serif" font-size="13" font-weight="bold" lengthAdjust="spacingAndGlyphs" textLength="39" x="1733" y="1345.6763">[038]</text><text fill="#000000" font-family="sans-serif" font-size="13" lengthAdjust="spacingAndGlyphs" textLength="85" x="1776" y="1345.6763">UpdateQuery</text><polygon fill="#A80036" points="1737,1375.875,1727,1379.875,1737,1383.875,1733,1379.875" style="stroke: #A80036; stroke-width: 1.0;"/><line style="stroke: #A80036; stroke-width: 1.0;" x1="1731" x2="1877" y1="1379.875" y2="1379.875"/><text fill="#000000" font-family="sans-serif" font-size="13" font-weight="bold" lengthAdjust="spacingAndGlyphs" textLength="39" x="1743" y="1374.8091">[039]</text><text fill="#000000" font-family="sans-serif" font-size="13" lengthAdjust="spacingAndGlyphs" textLength="53" x="1786" y="1374.8091">Success</text><polygon fill="#A80036" points="1401,1405.0078,1391,1409.0078,1401,1413.0078,1397,1409.0078" style="stroke: #A80036; stroke-width: 1.0;"/><line style="stroke: #A80036; stroke-width: 1.0;" x1="1395" x2="1725" y1="1409.0078" y2="1409.0078"/><text fill="#000000" font-family="sans-serif" font-size="13" font-weight="bold" lengthAdjust="spacingAndGlyphs" textLength="39" x="1407" y="1403.9419">[040]</text><text fill="#000000" font-family="sans-serif" font-size="13" lengthAdjust="spacingAndGlyphs" textLength="53" x="1450" y="1403.9419">Success</text><polygon fill="#A80036" points="1083,1434.1406,1073,1438.1406,1083,1442.1406,1079,1438.1406" style="stroke: #A80036; stroke-width: 1.0;"/><line style="stroke: #A80036; stroke-width: 1.0;" x1="1077" x2="1389" y1="1438.1406" y2="1438.1406"/><text fill="#000000" font-family="sans-serif" font-size="13" font-weight="bold" lengthAdjust="spacingAndGlyphs" textLength="39" x="1089" y="1433.0747">[041]</text><text fill="#000000" font-family="sans-serif" font-size="13" lengthAdjust="spacingAndGlyphs" textLength="53" x="1132" y="1433.0747">Success</text><polygon fill="#A80036" points="828,1463.2734,818,1467.2734,828,1471.2734,824,1467.2734" style="stroke: #A80036; stroke-width: 1.0;"/><line style="stroke: #A80036; stroke-width: 1.0;" x1="822" x2="1071" y1="1467.2734" y2="1467.2734"/><text fill="#000000" font-family="sans-serif" font-size="13" font-weight="bold" lengthAdjust="spacingAndGlyphs" textLength="39" x="834" y="1462.2075">[042]</text><text fill="#000000" font-family="sans-serif" font-size="13" lengthAdjust="spacingAndGlyphs" textLength="53" x="877" y="1462.2075">Success</text><polygon fill="#A80036" points="653,1492.4063,643,1496.4063,653,1500.4063,649,1496.4063" style="stroke: #A80036; stroke-width: 1.0;"/><line style="stroke: #A80036; stroke-width: 1.0;" x1="647" x2="816" y1="1496.4063" y2="1496.4063"/><text fill="#000000" font-family="sans-serif" font-size="13" font-weight="bold" lengthAdjust="spacingAndGlyphs" textLength="39" x="659" y="1491.3403">[043]</text><text fill="#000000" font-family="sans-serif" font-size="13" lengthAdjust="spacingAndGlyphs" textLength="53" x="702" y="1491.3403">Success</text><polygon fill="#A80036" points="345,1521.5391,335,1525.5391,345,1529.5391,341,1525.5391" style="stroke: #A80036; stroke-width: 1.0;"/><line style="stroke: #A80036; stroke-width: 1.0;" x1="339" x2="641" y1="1525.5391" y2="1525.5391"/><text fill="#000000" font-family="sans-serif" font-size="13" font-weight="bold" lengthAdjust="spacingAndGlyphs" textLength="39" x="351" y="1520.4731">[044]</text><text fill="#000000" font-family="sans-serif" font-size="13" lengthAdjust="spacingAndGlyphs" textLength="211" x="394" y="1520.4731">Publish(WORDLIST_DATA_READY)</text><polygon fill="#A80036" points="193,1550.6719,183,1554.6719,193,1558.6719,189,1554.6719" style="stroke: #A80036; stroke-width: 1.0;"/><line style="stroke: #A80036; stroke-width: 1.0;" x1="187" x2="333" y1="1554.6719" y2="1554.6719"/><text fill="#000000" font-family="sans-serif" font-size="13" font-weight="bold" lengthAdjust="spacingAndGlyphs" textLength="39" x="199" y="1549.606">[045]</text><text fill="#000000" font-family="sans-serif" font-size="13" lengthAdjust="spacingAndGlyphs" textLength="54" x="242" y="1549.606">WordList</text><!--
@startuml
autonumber "<b>[000]"
actor User
participant WordListVueComponent as W
participant AppController as U
participant WordListController as C
participant UserDataQuery as Q
participant LexicalQuery as L
participant DBSyncController as S
database IndexedDb as I
participant ProtectedClientAdapter as P
participant AuthOAPI as O
participant UserDataAPI as D
database RemoteDataStore as B

== App Initialization ==
C -> L: Subscribe(MORPH_DATA_READY)
U -> C: Subscript(WORDLIST_DATA_UPDATE))

== First Display of WordList ==
User -> W: ShowWordList
W -> U: GetWordList
U -> C: GetWordList
C -> Q: GetUserData
Q -> S: GetData
S -> P: GetRemoteData
P -> D: GetData
D -> O: AuthenticateUser
O -> P: Authenticated
P -> D: UserID
D -> B: GetQuery
B -> D: Data
D -> P: Data
P -> S: Data
S -> I: GetLocalData
I -> S: Data
S -> S: MergeData
S -> Q: Data
Q -> C: UserData
C -> C: CreateWordList
C -> U: WordList
U -> W: WordList
W -> User: WordList View

== Update WordList On Lookup ==
User -> U: LookupWord
U -> L: GetData
L -> C: Publish(MORPH_DATA_READY)
C -> Q: UpdateUserData
Q -> S: UpdateData
S -> I: UpdateLocalData
I -> S: Success
S -> P: UpdateRemoteData
P -> D: UpdateData
D -> O: AuthenticateUser
O -> P: Authenticated
P -> D: UserID
D -> B: UpdateQuery
B -> D: Success
D -> P: Success
P -> S: Success
S -> Q: Success
Q -> C: Success
C -> U: Publish(WORDLIST_DATA_READY)
U -> W: WordList
@enduml

PlantUML version 1.2018.14beta6(Unknown compile time)
(GPL source distribution)
Java Runtime: Java(TM) SE Runtime Environment
JVM: Java HotSpot(TM) 64-Bit Server VM
Java Version: 1.7.0_25-b15
Operating System: Linux
Default Encoding: UTF-8
Language: en
Country: US
--></g></svg>