<?xml version="1.0" encoding="UTF-8"?><svg xmlns="http://www.w3.org/2000/svg" xmlns:xlink="http://www.w3.org/1999/xlink" fill-opacity="1" color-rendering="auto" color-interpolation="auto" text-rendering="auto" stroke="black" stroke-linecap="square" width="1333" stroke-miterlimit="10" shape-rendering="auto" stroke-opacity="1" fill="black" stroke-dasharray="none" font-weight="normal" stroke-width="1" height="952" font-family="'Dialog'" font-style="normal" stroke-linejoin="miter" font-size="12px" stroke-dashoffset="0" image-rendering="auto">
  <!--Generated by ySVG 2.5-->
  <defs id="genericDefs"/>
  <g>
    <defs id="defs1">
      <clipPath clipPathUnits="userSpaceOnUse" id="clipPath1">
        <path d="M0 0 L1333 0 L1333 952 L0 952 L0 0 Z"/>
      </clipPath>
      <clipPath clipPathUnits="userSpaceOnUse" id="clipPath2">
        <path d="M-283 -35 L1383.25 -35 L1383.25 1155 L-283 1155 L-283 -35 Z"/>
      </clipPath>
    </defs>
    <g fill="white" text-rendering="geometricPrecision" shape-rendering="geometricPrecision" transform="scale(0.8,0.8) translate(283,35)" stroke="white">
      <rect x="-283" width="1667" height="1190" y="-35" clip-path="url(#clipPath2)" stroke="none"/>
    </g>
    <g text-rendering="geometricPrecision" stroke-miterlimit="1.45" shape-rendering="geometricPrecision" transform="matrix(0.8,0,0,0.8,226.4,28)" stroke-linecap="butt">
      <path fill="none" d="M11 102 L355 102 L355 597 L11 597 Z" clip-path="url(#clipPath2)"/>
      <text x="17" xml:space="preserve" y="120.0645" clip-path="url(#clipPath2)" font-family="sans-serif" stroke="none">Data Module A</text>
      <text x="17" xml:space="preserve" y="134.7656" clip-path="url(#clipPath2)" font-family="sans-serif" stroke="none">publicName: modA</text>
    </g>
    <g text-rendering="geometricPrecision" stroke-miterlimit="1.45" shape-rendering="geometricPrecision" transform="matrix(0.8,0,0,0.8,226.4,28)" stroke-linecap="butt">
      <path fill="none" d="M720 51 L880 51 L880 1145.5 L720 1145.5 Z" clip-path="url(#clipPath2)"/>
      <text x="726" xml:space="preserve" y="69.0645" clip-path="url(#clipPath2)" font-family="sans-serif" stroke="none">Vuex store</text>
    </g>
    <g text-rendering="geometricPrecision" stroke-miterlimit="1.45" shape-rendering="geometricPrecision" transform="matrix(0.8,0,0,0.8,226.4,28)" stroke-linecap="butt">
      <path fill="none" d="M514 51 L674 51 L674 1145.5 L514 1145.5 Z" clip-path="url(#clipPath2)"/>
      <text x="520" xml:space="preserve" y="69.0645" clip-path="url(#clipPath2)" font-family="sans-serif" stroke="none">API store</text>
    </g>
    <g fill="white" text-rendering="geometricPrecision" shape-rendering="geometricPrecision" transform="matrix(0.8,0,0,0.8,226.4,28)" stroke="white">
      <path d="M355 107 L860 107 L860 239.75 L355 239.75 Z" stroke="none" clip-path="url(#clipPath2)"/>
    </g>
    <g text-rendering="geometricPrecision" stroke-miterlimit="1.45" shape-rendering="geometricPrecision" transform="matrix(0.8,0,0,0.8,226.4,28)" stroke-linecap="butt">
      <path fill="none" d="M355 107 L860 107 L860 239.75 L355 239.75 Z" clip-path="url(#clipPath2)"/>
      <text x="607.8652" xml:space="preserve" y="125.0645" clip-path="url(#clipPath2)" font-family="sans-serif" stroke="none">Public Data (a Vuex store object)</text>
      <text x="607.8652" xml:space="preserve" y="139.7656" clip-path="url(#clipPath2)" font-family="sans-serif" stroke="none">    propOne</text>
      <text x="607.8652" xml:space="preserve" y="154.4668" clip-path="url(#clipPath2)" font-family="sans-serif" stroke="none">    propTwo</text>
      <text x="607.8652" xml:space="preserve" y="169.168" clip-path="url(#clipPath2)" font-family="sans-serif" stroke="none">    propThree</text>
      <text x="607.8652" xml:space="preserve" y="183.8691" clip-path="url(#clipPath2)" font-family="sans-serif" stroke="none">Accessible from outside as:</text>
      <text x="607.8652" xml:space="preserve" y="198.5703" clip-path="url(#clipPath2)" font-family="sans-serif" stroke="none">    this.$store.state.modA.propName</text>
      <text x="607.8652" xml:space="preserve" y="213.2715" clip-path="url(#clipPath2)" font-family="sans-serif" stroke="none">Must be claimed as: storeModules['modA']</text>
      <text x="607.8652" xml:space="preserve" y="227.9727" clip-path="url(#clipPath2)" font-family="sans-serif" stroke="none">  (not necessarily but a good practice to do so)</text>
    </g>
    <g fill="white" text-rendering="geometricPrecision" shape-rendering="geometricPrecision" transform="matrix(0.8,0,0,0.8,226.4,28)" stroke="white">
      <path d="M355 251.5 L654 251.5 L654 384.25 L355 384.25 Z" stroke="none" clip-path="url(#clipPath2)"/>
    </g>
    <g text-rendering="geometricPrecision" stroke-miterlimit="1.45" shape-rendering="geometricPrecision" transform="matrix(0.8,0,0,0.8,226.4,28)" stroke-linecap="butt">
      <path fill="none" d="M355 251.5 L654 251.5 L654 384.25 L355 384.25 Z" clip-path="url(#clipPath2)"/>
      <text x="413.7969" xml:space="preserve" y="269.5645" clip-path="url(#clipPath2)" font-family="sans-serif" stroke="none">Public API</text>
      <text x="413.7969" xml:space="preserve" y="284.2656" clip-path="url(#clipPath2)" font-family="sans-serif" stroke="none">(a plain JS object with methods)</text>
      <text x="413.7969" xml:space="preserve" y="298.9668" clip-path="url(#clipPath2)" font-family="sans-serif" stroke="none">    publicMethodOne()</text>
      <text x="413.7969" xml:space="preserve" y="313.668" clip-path="url(#clipPath2)" font-family="sans-serif" stroke="none">    publicMethodTwo()</text>
      <text x="413.7969" xml:space="preserve" y="328.3691" clip-path="url(#clipPath2)" font-family="sans-serif" stroke="none">    publicMethodThree()</text>
      <text x="413.7969" xml:space="preserve" y="343.0703" clip-path="url(#clipPath2)" font-family="sans-serif" stroke="none">Accessible from outside as:</text>
      <text x="413.7969" xml:space="preserve" y="357.7715" clip-path="url(#clipPath2)" font-family="sans-serif" stroke="none">    this.modA.publicMethodName()</text>
      <text x="413.7969" xml:space="preserve" y="372.4727" clip-path="url(#clipPath2)" font-family="sans-serif" stroke="none">Must be claimed as: inject['modA']</text>
    </g>
    <g text-rendering="geometricPrecision" stroke-miterlimit="1.45" shape-rendering="geometricPrecision" transform="matrix(0.8,0,0,0.8,226.4,28)" stroke-linecap="butt">
      <path fill="none" d="M115 497.5 L355 497.5 L355 594.5 L115 594.5 Z" clip-path="url(#clipPath2)"/>
      <text x="121" xml:space="preserve" y="515.5645" clip-path="url(#clipPath2)" font-family="sans-serif" stroke="none">Private API</text>
      <text x="121" xml:space="preserve" y="530.2656" clip-path="url(#clipPath2)" font-family="sans-serif" stroke="none">(regular methods)</text>
      <text x="121" xml:space="preserve" y="544.9668" clip-path="url(#clipPath2)" font-family="sans-serif" stroke="none">    _privateMethodOne()</text>
      <text x="121" xml:space="preserve" y="559.668" clip-path="url(#clipPath2)" font-family="sans-serif" stroke="none">    _privateMethodTwo()</text>
      <text x="121" xml:space="preserve" y="574.3691" clip-path="url(#clipPath2)" font-family="sans-serif" stroke="none">    _privateMethodThree()</text>
    </g>
    <g text-rendering="geometricPrecision" stroke-miterlimit="1.45" shape-rendering="geometricPrecision" transform="matrix(0.8,0,0,0.8,226.4,28)" stroke-linecap="butt">
      <path fill="none" d="M115 390.5 L355 390.5 L355 487.5 L115 487.5 Z" clip-path="url(#clipPath2)"/>
      <text x="121" xml:space="preserve" y="408.5645" clip-path="url(#clipPath2)" font-family="sans-serif" stroke="none">Private Data</text>
      <text x="121" xml:space="preserve" y="423.2656" clip-path="url(#clipPath2)" font-family="sans-serif" stroke="none">(regular properties)</text>
      <text x="121" xml:space="preserve" y="437.9668" clip-path="url(#clipPath2)" font-family="sans-serif" stroke="none">    _propOne</text>
      <text x="121" xml:space="preserve" y="452.668" clip-path="url(#clipPath2)" font-family="sans-serif" stroke="none">    _propTwo()</text>
      <text x="121" xml:space="preserve" y="467.3691" clip-path="url(#clipPath2)" font-family="sans-serif" stroke="none">    _propThree()</text>
    </g>
    <g text-rendering="geometricPrecision" stroke-miterlimit="1.45" shape-rendering="geometricPrecision" transform="matrix(0.8,0,0,0.8,226.4,28)" stroke-linecap="butt">
      <path fill="none" d="M11 610.5 L355 610.5 L355 1105.5 L11 1105.5 Z" clip-path="url(#clipPath2)"/>
      <text x="17" xml:space="preserve" y="628.5645" clip-path="url(#clipPath2)" font-family="sans-serif" stroke="none">UI Module X</text>
      <text x="17" xml:space="preserve" y="643.2656" clip-path="url(#clipPath2)" font-family="sans-serif" stroke="none">publicName: uiX</text>
    </g>
    <g fill="white" text-rendering="geometricPrecision" shape-rendering="geometricPrecision" transform="matrix(0.8,0,0,0.8,226.4,28)" stroke="white">
      <path d="M355 615.5 L860 615.5 L860 748.25 L355 748.25 Z" stroke="none" clip-path="url(#clipPath2)"/>
    </g>
    <g text-rendering="geometricPrecision" stroke-miterlimit="1.45" shape-rendering="geometricPrecision" transform="matrix(0.8,0,0,0.8,226.4,28)" stroke-linecap="butt">
      <path fill="none" d="M355 615.5 L860 615.5 L860 748.25 L355 748.25 Z" clip-path="url(#clipPath2)"/>
      <text x="607.8652" xml:space="preserve" y="633.5645" clip-path="url(#clipPath2)" font-family="sans-serif" stroke="none">Public Data (a Vuex store object)</text>
      <text x="607.8652" xml:space="preserve" y="648.2656" clip-path="url(#clipPath2)" font-family="sans-serif" stroke="none">    propOne</text>
      <text x="607.8652" xml:space="preserve" y="662.9668" clip-path="url(#clipPath2)" font-family="sans-serif" stroke="none">    propTwo</text>
      <text x="607.8652" xml:space="preserve" y="677.668" clip-path="url(#clipPath2)" font-family="sans-serif" stroke="none">    propThree</text>
      <text x="607.8652" xml:space="preserve" y="692.3691" clip-path="url(#clipPath2)" font-family="sans-serif" stroke="none">Accessible from outside as:</text>
      <text x="607.8652" xml:space="preserve" y="707.0703" clip-path="url(#clipPath2)" font-family="sans-serif" stroke="none">    this.$store.state.uiX.propName</text>
      <text x="607.8652" xml:space="preserve" y="721.7715" clip-path="url(#clipPath2)" font-family="sans-serif" stroke="none">Must be claimed as: storeModules['uiX']</text>
      <text x="607.8652" xml:space="preserve" y="736.4727" clip-path="url(#clipPath2)" font-family="sans-serif" stroke="none">  (not necessarily but a good practice to do so)</text>
    </g>
    <g fill="white" text-rendering="geometricPrecision" shape-rendering="geometricPrecision" transform="matrix(0.8,0,0,0.8,226.4,28)" stroke="white">
      <path d="M355 760 L654 760 L654 892.75 L355 892.75 Z" stroke="none" clip-path="url(#clipPath2)"/>
    </g>
    <g text-rendering="geometricPrecision" stroke-miterlimit="1.45" shape-rendering="geometricPrecision" transform="matrix(0.8,0,0,0.8,226.4,28)" stroke-linecap="butt">
      <path fill="none" d="M355 760 L654 760 L654 892.75 L355 892.75 Z" clip-path="url(#clipPath2)"/>
      <text x="477.9199" xml:space="preserve" y="778.0645" clip-path="url(#clipPath2)" font-family="sans-serif" stroke="none">Public API</text>
      <text x="477.9199" xml:space="preserve" y="792.7656" clip-path="url(#clipPath2)" font-family="sans-serif" stroke="none">(a plain JS object with methods)</text>
      <text x="477.9199" xml:space="preserve" y="807.4668" clip-path="url(#clipPath2)" font-family="sans-serif" stroke="none">    publicMethodOne()</text>
      <text x="477.9199" xml:space="preserve" y="822.168" clip-path="url(#clipPath2)" font-family="sans-serif" stroke="none">    publicMethodTwo()</text>
      <text x="477.9199" xml:space="preserve" y="836.8691" clip-path="url(#clipPath2)" font-family="sans-serif" stroke="none">    publicMethodThree()</text>
      <text x="477.9199" xml:space="preserve" y="851.5703" clip-path="url(#clipPath2)" font-family="sans-serif" stroke="none">Accessible from outside as:</text>
      <text x="477.9199" xml:space="preserve" y="866.2715" clip-path="url(#clipPath2)" font-family="sans-serif" stroke="none">    this.uiX.publicMethodName()</text>
      <text x="477.9199" xml:space="preserve" y="880.9727" clip-path="url(#clipPath2)" font-family="sans-serif" stroke="none">Must be claimed as: inject['uiX']</text>
    </g>
    <g text-rendering="geometricPrecision" stroke-miterlimit="1.45" shape-rendering="geometricPrecision" transform="matrix(0.8,0,0,0.8,226.4,28)" stroke-linecap="butt">
      <path fill="none" d="M115 1006 L355 1006 L355 1103 L115 1103 Z" clip-path="url(#clipPath2)"/>
      <text x="121" xml:space="preserve" y="1024.0645" clip-path="url(#clipPath2)" font-family="sans-serif" stroke="none">Private API</text>
      <text x="121" xml:space="preserve" y="1038.7656" clip-path="url(#clipPath2)" font-family="sans-serif" stroke="none">(regular methods)</text>
      <text x="121" xml:space="preserve" y="1053.4668" clip-path="url(#clipPath2)" font-family="sans-serif" stroke="none">    _privateMethodOne()</text>
      <text x="121" xml:space="preserve" y="1068.168" clip-path="url(#clipPath2)" font-family="sans-serif" stroke="none">    _privateMethodTwo()</text>
      <text x="121" xml:space="preserve" y="1082.8691" clip-path="url(#clipPath2)" font-family="sans-serif" stroke="none">    _privateMethodThree()</text>
    </g>
    <g text-rendering="geometricPrecision" stroke-miterlimit="1.45" shape-rendering="geometricPrecision" transform="matrix(0.8,0,0,0.8,226.4,28)" stroke-linecap="butt">
      <path fill="none" d="M115 900.25 L355 900.25 L355 997.25 L115 997.25 Z" clip-path="url(#clipPath2)"/>
      <text x="121" xml:space="preserve" y="918.3145" clip-path="url(#clipPath2)" font-family="sans-serif" stroke="none">Private Data</text>
      <text x="121" xml:space="preserve" y="933.0156" clip-path="url(#clipPath2)" font-family="sans-serif" stroke="none">(regular properties)</text>
      <text x="121" xml:space="preserve" y="947.7168" clip-path="url(#clipPath2)" font-family="sans-serif" stroke="none">    _propOne</text>
      <text x="121" xml:space="preserve" y="962.418" clip-path="url(#clipPath2)" font-family="sans-serif" stroke="none">    _propTwo()</text>
      <text x="121" xml:space="preserve" y="977.1191" clip-path="url(#clipPath2)" font-family="sans-serif" stroke="none">    _propThree()</text>
    </g>
  </g>
</svg>
