<?xml version="1.0" encoding="UTF-8" standalone="no"?><svg xmlns="http://www.w3.org/2000/svg" xmlns:xlink="http://www.w3.org/1999/xlink" contentScriptType="application/ecmascript" contentStyleType="text/css" height="670px" preserveAspectRatio="none" style="width:1383px;height:670px;" version="1.1" viewBox="0 0 1383 670" width="1383px" zoomAndPan="magnify"><defs><filter height="300%" id="fo4bdn7gtpo05" width="300%" x="-1" y="-1"><feGaussianBlur result="blurOut" stdDeviation="2.0"/><feColorMatrix in="blurOut" result="blurOut2" type="matrix" values="0 0 0 0 0 0 0 0 0 0 0 0 0 0 0 0 0 0 .4 0"/><feOffset dx="4.0" dy="4.0" in="blurOut2" result="blurOut3"/><feBlend in="SourceGraphic" in2="blurOut3" mode="normal"/></filter></defs><g><!--cluster Business Methods--><polygon fill="#FFFFFF" filter="url(#fo4bdn7gtpo05)" points="262,563,272,553,825,553,825,648,815,658,262,658,262,563" style="stroke: #000000; stroke-width: 1.5;"/><line style="stroke: #000000; stroke-width: 1.5;" x1="815" x2="824" y1="563" y2="554"/><line style="stroke: #000000; stroke-width: 1.5;" x1="262" x2="815" y1="563" y2="563"/><line style="stroke: #000000; stroke-width: 1.5;" x1="815" x2="815" y1="563" y2="658"/><text fill="#000000" font-family="sans-serif" font-size="14" font-weight="bold" lengthAdjust="spacingAndGlyphs" textLength="131" x="474" y="580.5332">Business Methods</text><!--cluster Event Listeners--><polygon fill="#FFFFFF" filter="url(#fo4bdn7gtpo05)" points="849,563,859,553,1361,553,1361,648,1351,658,849,658,849,563" style="stroke: #000000; stroke-width: 1.5;"/><line style="stroke: #000000; stroke-width: 1.5;" x1="1351" x2="1360" y1="563" y2="554"/><line style="stroke: #000000; stroke-width: 1.5;" x1="849" x2="1351" y1="563" y2="563"/><line style="stroke: #000000; stroke-width: 1.5;" x1="1351" x2="1351" y1="563" y2="658"/><text fill="#000000" font-family="sans-serif" font-size="14" font-weight="bold" lengthAdjust="spacingAndGlyphs" textLength="111" x="1045.5" y="580.5332">Event Listeners</text><!--entity VueRootComponent--><rect fill="#20B2AA" filter="url(#fo4bdn7gtpo05)" height="47.6094" style="stroke: #A80036; stroke-width: 1.5;" width="168" x="731" y="8"/><rect fill="#20B2AA" height="10" style="stroke: #A80036; stroke-width: 1.5;" width="15" x="879" y="13"/><rect fill="#20B2AA" height="2" style="stroke: #A80036; stroke-width: 1.5;" width="4" x="877" y="15"/><rect fill="#20B2AA" height="2" style="stroke: #A80036; stroke-width: 1.5;" width="4" x="877" y="19"/><text fill="#000000" font-family="sans-serif" font-size="14" lengthAdjust="spacingAndGlyphs" textLength="128" x="746" y="42.5332">VueRootComponent</text><!--entity VueComponentA--><rect fill="#20B2AA" filter="url(#fo4bdn7gtpo05)" height="47.6094" style="stroke: #A80036; stroke-width: 1.5;" width="147" x="253.5" y="116"/><rect fill="#20B2AA" height="10" style="stroke: #A80036; stroke-width: 1.5;" width="15" x="380.5" y="121"/><rect fill="#20B2AA" height="2" style="stroke: #A80036; stroke-width: 1.5;" width="4" x="378.5" y="123"/><rect fill="#20B2AA" height="2" style="stroke: #A80036; stroke-width: 1.5;" width="4" x="378.5" y="127"/><text fill="#000000" font-family="sans-serif" font-size="14" lengthAdjust="spacingAndGlyphs" textLength="107" x="268.5" y="150.5332">VueComponentA</text><!--entity VueComponentB--><rect fill="#20B2AA" filter="url(#fo4bdn7gtpo05)" height="47.6094" style="stroke: #A80036; stroke-width: 1.5;" width="147" x="660.5" y="116"/><rect fill="#20B2AA" height="10" style="stroke: #A80036; stroke-width: 1.5;" width="15" x="787.5" y="121"/><rect fill="#20B2AA" height="2" style="stroke: #A80036; stroke-width: 1.5;" width="4" x="785.5" y="123"/><rect fill="#20B2AA" height="2" style="stroke: #A80036; stroke-width: 1.5;" width="4" x="785.5" y="127"/><text fill="#000000" font-family="sans-serif" font-size="14" lengthAdjust="spacingAndGlyphs" textLength="107" x="675.5" y="150.5332">VueComponentB</text><!--entity VueComponentC--><rect fill="#20B2AA" filter="url(#fo4bdn7gtpo05)" height="47.6094" style="stroke: #A80036; stroke-width: 1.5;" width="148" x="6" y="224"/><rect fill="#20B2AA" height="10" style="stroke: #A80036; stroke-width: 1.5;" width="15" x="134" y="229"/><rect fill="#20B2AA" height="2" style="stroke: #A80036; stroke-width: 1.5;" width="4" x="132" y="231"/><rect fill="#20B2AA" height="2" style="stroke: #A80036; stroke-width: 1.5;" width="4" x="132" y="235"/><text fill="#000000" font-family="sans-serif" font-size="14" lengthAdjust="spacingAndGlyphs" textLength="108" x="21" y="258.5332">VueComponentC</text><!--entity VueComponentD--><rect fill="#20B2AA" filter="url(#fo4bdn7gtpo05)" height="47.6094" style="stroke: #A80036; stroke-width: 1.5;" width="148" x="189" y="224"/><rect fill="#20B2AA" height="10" style="stroke: #A80036; stroke-width: 1.5;" width="15" x="317" y="229"/><rect fill="#20B2AA" height="2" style="stroke: #A80036; stroke-width: 1.5;" width="4" x="315" y="231"/><rect fill="#20B2AA" height="2" style="stroke: #A80036; stroke-width: 1.5;" width="4" x="315" y="235"/><text fill="#000000" font-family="sans-serif" font-size="14" lengthAdjust="spacingAndGlyphs" textLength="108" x="204" y="258.5332">VueComponentD</text><!--entity VueComponentE--><rect fill="#20B2AA" filter="url(#fo4bdn7gtpo05)" height="47.6094" style="stroke: #A80036; stroke-width: 1.5;" width="147" x="443.5" y="224"/><rect fill="#20B2AA" height="10" style="stroke: #A80036; stroke-width: 1.5;" width="15" x="570.5" y="229"/><rect fill="#20B2AA" height="2" style="stroke: #A80036; stroke-width: 1.5;" width="4" x="568.5" y="231"/><rect fill="#20B2AA" height="2" style="stroke: #A80036; stroke-width: 1.5;" width="4" x="568.5" y="235"/><text fill="#000000" font-family="sans-serif" font-size="14" lengthAdjust="spacingAndGlyphs" textLength="107" x="458.5" y="258.5332">VueComponentE</text><!--entity VueComponentF--><rect fill="#20B2AA" filter="url(#fo4bdn7gtpo05)" height="47.6094" style="stroke: #A80036; stroke-width: 1.5;" width="147" x="625.5" y="224"/><rect fill="#20B2AA" height="10" style="stroke: #A80036; stroke-width: 1.5;" width="15" x="752.5" y="229"/><rect fill="#20B2AA" height="2" style="stroke: #A80036; stroke-width: 1.5;" width="4" x="750.5" y="231"/><rect fill="#20B2AA" height="2" style="stroke: #A80036; stroke-width: 1.5;" width="4" x="750.5" y="235"/><text fill="#000000" font-family="sans-serif" font-size="14" lengthAdjust="spacingAndGlyphs" textLength="107" x="640.5" y="258.5332">VueComponentF</text><!--entity BusinessMethodA--><rect fill="#00BFFF" filter="url(#fo4bdn7gtpo05)" height="47.6094" style="stroke: #A80036; stroke-width: 1.5;" width="153" x="655.5" y="594"/><rect fill="#00BFFF" height="10" style="stroke: #A80036; stroke-width: 1.5;" width="15" x="788.5" y="599"/><rect fill="#00BFFF" height="2" style="stroke: #A80036; stroke-width: 1.5;" width="4" x="786.5" y="601"/><rect fill="#00BFFF" height="2" style="stroke: #A80036; stroke-width: 1.5;" width="4" x="786.5" y="605"/><text fill="#000000" font-family="sans-serif" font-size="14" lengthAdjust="spacingAndGlyphs" textLength="113" x="670.5" y="628.5332">BusinessMethodA</text><!--entity BusinessMethodB--><rect fill="#00BFFF" filter="url(#fo4bdn7gtpo05)" height="47.6094" style="stroke: #A80036; stroke-width: 1.5;" width="153" x="467.5" y="594"/><rect fill="#00BFFF" height="10" style="stroke: #A80036; stroke-width: 1.5;" width="15" x="600.5" y="599"/><rect fill="#00BFFF" height="2" style="stroke: #A80036; stroke-width: 1.5;" width="4" x="598.5" y="601"/><rect fill="#00BFFF" height="2" style="stroke: #A80036; stroke-width: 1.5;" width="4" x="598.5" y="605"/><text fill="#000000" font-family="sans-serif" font-size="14" lengthAdjust="spacingAndGlyphs" textLength="113" x="482.5" y="628.5332">BusinessMethodB</text><!--entity BusinessMethodC--><rect fill="#00BFFF" filter="url(#fo4bdn7gtpo05)" height="47.6094" style="stroke: #A80036; stroke-width: 1.5;" width="154" x="278" y="594"/><rect fill="#00BFFF" height="10" style="stroke: #A80036; stroke-width: 1.5;" width="15" x="412" y="599"/><rect fill="#00BFFF" height="2" style="stroke: #A80036; stroke-width: 1.5;" width="4" x="410" y="601"/><rect fill="#00BFFF" height="2" style="stroke: #A80036; stroke-width: 1.5;" width="4" x="410" y="605"/><text fill="#000000" font-family="sans-serif" font-size="14" lengthAdjust="spacingAndGlyphs" textLength="114" x="293" y="628.5332">BusinessMethodC</text><!--entity EventListenerA--><rect fill="#7FFFD4" filter="url(#fo4bdn7gtpo05)" height="47.6094" style="stroke: #A80036; stroke-width: 1.5;" width="136" x="1209" y="594"/><rect fill="#7FFFD4" height="10" style="stroke: #A80036; stroke-width: 1.5;" width="15" x="1325" y="599"/><rect fill="#7FFFD4" height="2" style="stroke: #A80036; stroke-width: 1.5;" width="4" x="1323" y="601"/><rect fill="#7FFFD4" height="2" style="stroke: #A80036; stroke-width: 1.5;" width="4" x="1323" y="605"/><text fill="#000000" font-family="sans-serif" font-size="14" lengthAdjust="spacingAndGlyphs" textLength="96" x="1224" y="628.5332">EventListenerA</text><!--entity EventListenerB--><rect fill="#7FFFD4" filter="url(#fo4bdn7gtpo05)" height="47.6094" style="stroke: #A80036; stroke-width: 1.5;" width="136" x="1038" y="594"/><rect fill="#7FFFD4" height="10" style="stroke: #A80036; stroke-width: 1.5;" width="15" x="1154" y="599"/><rect fill="#7FFFD4" height="2" style="stroke: #A80036; stroke-width: 1.5;" width="4" x="1152" y="601"/><rect fill="#7FFFD4" height="2" style="stroke: #A80036; stroke-width: 1.5;" width="4" x="1152" y="605"/><text fill="#000000" font-family="sans-serif" font-size="14" lengthAdjust="spacingAndGlyphs" textLength="96" x="1053" y="628.5332">EventListenerB</text><!--entity EventListenerC--><rect fill="#7FFFD4" filter="url(#fo4bdn7gtpo05)" height="47.6094" style="stroke: #A80036; stroke-width: 1.5;" width="137" x="865.5" y="594"/><rect fill="#7FFFD4" height="10" style="stroke: #A80036; stroke-width: 1.5;" width="15" x="982.5" y="599"/><rect fill="#7FFFD4" height="2" style="stroke: #A80036; stroke-width: 1.5;" width="4" x="980.5" y="601"/><rect fill="#7FFFD4" height="2" style="stroke: #A80036; stroke-width: 1.5;" width="4" x="980.5" y="605"/><text fill="#000000" font-family="sans-serif" font-size="14" lengthAdjust="spacingAndGlyphs" textLength="97" x="880.5" y="628.5332">EventListenerC</text><rect fill="#FEFECE" filter="url(#fo4bdn7gtpo05)" height="89.9844" style="stroke: #A80036; stroke-width: 1.5;" width="113" x="776.5" y="444"/><text fill="#000000" font-family="sans-serif" font-size="12" lengthAdjust="spacingAndGlyphs" textLength="66" x="800" y="458.457">UIController</text><line style="stroke: #A80036; stroke-width: 1.5;" x1="777.5" x2="888.5" y1="463.0938" y2="463.0938"/><text fill="#000000" font-family="sans-serif" font-size="10" lengthAdjust="spacingAndGlyphs" textLength="81" x="782.5" y="477.4746">A container class</text><text fill="#000000" font-family="sans-serif" font-size="10" lengthAdjust="spacingAndGlyphs" textLength="44" x="782.5" y="490.0527">Contains:</text><text fill="#000000" font-family="sans-serif" font-size="10" lengthAdjust="spacingAndGlyphs" textLength="101" x="782.5" y="502.6309">Root Vue component</text><text fill="#000000" font-family="sans-serif" font-size="10" lengthAdjust="spacingAndGlyphs" textLength="83" x="782.5" y="515.209">Business Methods</text><text fill="#000000" font-family="sans-serif" font-size="10" lengthAdjust="spacingAndGlyphs" textLength="71" x="782.5" y="527.7871">Event Listeners</text><rect fill="#2E8B57" filter="url(#fo4bdn7gtpo05)" height="52.25" style="stroke: #A80036; stroke-width: 1.5;" width="227" x="494.5" y="332"/><text fill="#000000" font-family="sans-serif" font-size="12" lengthAdjust="spacingAndGlyphs" textLength="58" x="579" y="346.457">Vuex Store</text><line style="stroke: #A80036; stroke-width: 1.5;" x1="495.5" x2="720.5" y1="351.0938" y2="351.0938"/><text fill="#000000" font-family="sans-serif" font-size="10" lengthAdjust="spacingAndGlyphs" textLength="151" x="500.5" y="365.4746">Stores data for Vue components</text><text fill="#000000" font-family="sans-serif" font-size="10" lengthAdjust="spacingAndGlyphs" textLength="215" x="500.5" y="378.0527">Contains data mutations and actions methods</text><!--link VuexStore to UIController--><path d="M663.356,390.737 C697.679,410.416 741.665,435.635 776.247,455.462 " fill="none" id="VuexStore-UIController" style="stroke: #A80036; stroke-width: 1.0;"/><polygon fill="#A80036" points="651.649,384.025,654.8649,390.4793,662.0596,389.9931,658.8437,383.5389,651.649,384.025" style="stroke: #A80036; stroke-width: 1.0;"/><!--link UIController to BusinessMethodA--><path d="M789.568,544.613 C775.886,561.817 761.498,579.9083 750.529,593.7016 " fill="none" id="UIController-BusinessMethodA" style="stroke: #A80036; stroke-width: 1.0;"/><polygon fill="#A80036" points="797.959,534.062,791.0937,536.2682,790.4897,543.454,797.355,541.2478,797.959,534.062" style="stroke: #A80036; stroke-width: 1.0;"/><!--link UIController to BusinessMethodB--><path d="M763.423,502.894 C725.113,511.627 677.474,525.232 638,545 C612.267,557.887 586.567,578.2117 568.559,593.9854 " fill="none" id="UIController-BusinessMethodB" style="stroke: #A80036; stroke-width: 1.0;"/><polygon fill="#A80036" points="776.293,500.062,769.5734,497.4452,764.5735,502.6414,771.2931,505.2582,776.293,500.062" style="stroke: #A80036; stroke-width: 1.0;"/><!--link UIController to BusinessMethodC--><path d="M763.297,489.659 C684.353,491.585 553.278,501.872 450,545 C422.692,556.404 396.25,577.5332 378.227,593.9648 " fill="none" id="UIController-BusinessMethodC" style="stroke: #A80036; stroke-width: 1.0;"/><polygon fill="#A80036" points="776.459,489.404,770.3823,485.5215,764.4613,489.6374,770.5379,493.52,776.459,489.404" style="stroke: #A80036; stroke-width: 1.0;"/><!--link UIController to EventListenerA--><path d="M903.221,489.622 C978.009,491.706 1098.28,502.311 1192,545 C1217.17,556.463 1240.74,577.586 1256.65,593.9998 " fill="none" id="UIController-EventListenerA" style="stroke: #A80036; stroke-width: 1.0;"/><polygon fill="#A80036" points="889.803,489.326,895.7132,493.4575,901.8001,489.591,895.8899,485.4595,889.803,489.326" style="stroke: #A80036; stroke-width: 1.0;"/><!--link UIController to EventListenerB--><path d="M902.741,503.317 C939.093,512.008 983.465,525.441 1020,545 C1044.03,557.867 1067.5,578.1937 1083.83,593.9732 " fill="none" id="UIController-EventListenerB" style="stroke: #A80036; stroke-width: 1.0;"/><polygon fill="#A80036" points="889.741,500.327,894.6915,505.5703,901.4356,503.0172,896.485,497.7739,889.741,500.327" style="stroke: #A80036; stroke-width: 1.0;"/><!--link UIController to EventListenerC--><path d="M876.432,544.613 C890.114,561.817 904.502,579.9083 915.471,593.7016 " fill="none" id="UIController-EventListenerC" style="stroke: #A80036; stroke-width: 1.0;"/><polygon fill="#A80036" points="868.041,534.062,868.645,541.2478,875.5103,543.454,874.9063,536.2682,868.041,534.062" style="stroke: #A80036; stroke-width: 1.0;"/><!--link UIController to VueRootComponent--><path d="M851.279,431.06 C872.16,356.979 899.608,224.23 868,116 C861.53,93.845 847.145,71.975 834.992,56.25 " fill="none" id="UIController-VueRootComponent" style="stroke: #A80036; stroke-width: 1.0;"/><polygon fill="#A80036" points="847.603,443.752,853.1144,439.1018,850.9418,432.2258,845.4303,436.876,847.603,443.752" style="stroke: #A80036; stroke-width: 1.0;"/><!--link VueRootComponent to VueComponentA--><path d="M717.959,54.079 C624.494,74.38 485.181,104.641 400.545,123.025 " fill="none" id="VueRootComponent-VueComponentA" style="stroke: #A80036; stroke-width: 1.0;"/><polygon fill="#A80036" points="730.832,51.282,724.1195,48.6471,719.1056,53.8298,725.8181,56.4647,730.832,51.282" style="stroke: #A80036; stroke-width: 1.0;"/><!--link VueRootComponent to VueComponentB--><path d="M789.367,66.545 C777.148,82.534 762.834,101.267 751.821,115.678 " fill="none" id="VueRootComponent-VueComponentB" style="stroke: #A80036; stroke-width: 1.0;"/><polygon fill="#A80036" points="797.424,56,790.6024,58.338,790.1369,65.5341,796.9585,63.1961,797.424,56" style="stroke: #A80036; stroke-width: 1.0;"/><!--link VueComponentA to VueComponentC--><path d="M261.408,169.149 C221.596,186.234 171.407,207.773 133.917,223.862 " fill="none" id="VueComponentA-VueComponentC" style="stroke: #A80036; stroke-width: 1.0;"/><polygon fill="#A80036" points="273.405,164,266.3138,162.6904,262.3776,168.7324,269.4688,170.042,273.405,164" style="stroke: #A80036; stroke-width: 1.0;"/><!--link VueComponentA to VueComponentD--><path d="M306.188,175.47 C296.659,191.253 285.615,209.544 277.081,223.678 " fill="none" id="VueComponentA-VueComponentD" style="stroke: #A80036; stroke-width: 1.0;"/><polygon fill="#A80036" points="313.113,164,306.5876,167.0692,306.911,174.273,313.4363,171.2039,313.113,164" style="stroke: #A80036; stroke-width: 1.0;"/><!--link VueComponentB to VueComponentE--><path d="M675.013,169.814 C640.26,186.79 596.879,207.981 564.368,223.862 " fill="none" id="VueComponentB-VueComponentE" style="stroke: #A80036; stroke-width: 1.0;"/><polygon fill="#A80036" points="686.914,164,679.7672,163.0392,676.1315,169.2666,683.2783,170.2275,686.914,164" style="stroke: #A80036; stroke-width: 1.0;"/><!--link VueComponentB to VueComponentF--><path d="M722.311,176.402 C717.171,191.969 711.276,209.821 706.701,223.678 " fill="none" id="VueComponentB-VueComponentF" style="stroke: #A80036; stroke-width: 1.0;"/><polygon fill="#A80036" points="726.406,164,720.7261,168.4428,722.6425,175.3946,728.3225,170.9518,726.406,164" style="stroke: #A80036; stroke-width: 1.0;"/><!--link VueRootComponent to VuexStore--><path d="M827.609,68.467 C843.068,118.822 862.263,211.614 819,272 C795.942,304.184 758.586,324.196 721.666,336.634 " fill="none" id="VueRootComponent-VuexStore" style="stroke: #A80036; stroke-width: 1.0;"/><polygon fill="#FFFFFF" points="823.601,56.038,821.6356,62.9761,827.284,67.4588,829.2494,60.5208,823.601,56.038" style="stroke: #A80036; stroke-width: 1.0;"/><!--link VueComponentA to VuexStore--><path d="M346.353,175.272 C364.041,204.119 392.498,244.893 426,272 C457.855,297.775 498.809,317.796 533.799,331.915 " fill="none" id="VueComponentA-VuexStore" style="stroke: #A80036; stroke-width: 1.0;"/><polygon fill="#FFFFFF" points="339.67,164.095,339.3161,171.2974,345.8284,174.3942,346.1823,167.1918,339.67,164.095" style="stroke: #A80036; stroke-width: 1.0;"/><!--link VueComponentB to VuexStore--><path d="M765.849,174.613 C787.779,201.997 809.701,241.056 790,272 C772.02,300.241 741.932,319.254 711.344,331.989 " fill="none" id="VueComponentB-VuexStore" style="stroke: #A80036; stroke-width: 1.0;"/><polygon fill="#FFFFFF" points="757.213,164.371,758.0227,171.5365,764.9484,173.5451,764.1387,166.3796,757.213,164.371" style="stroke: #A80036; stroke-width: 1.0;"/><!--link VueComponentC to VuexStore--><path d="M167.172,271.137 C168.456,271.429 169.733,271.717 171,272 C280.373,296.439 406.044,320.463 494.461,336.701 " fill="none" id="VueComponentC-VuexStore" style="stroke: #A80036; stroke-width: 1.0;"/><polygon fill="#FFFFFF" points="154.412,268.165,159.3478,273.4221,166.099,270.888,161.1631,265.6308,154.412,268.165" style="stroke: #A80036; stroke-width: 1.0;"/><!--link VueComponentD to VuexStore--><path d="M349.089,275.949 C403.869,293.098 474.324,315.154 527.905,331.927 " fill="none" id="VueComponentD-VuexStore" style="stroke: #A80036; stroke-width: 1.0;"/><polygon fill="#FFFFFF" points="336.588,272.036,341.1187,277.6461,348.0398,275.6216,343.5091,270.0115,336.588,272.036" style="stroke: #A80036; stroke-width: 1.0;"/><!--link VueComponentE to VuexStore--><path d="M544.991,282.22 C558.507,298.261 574.455,317.188 586.924,331.987 " fill="none" id="VueComponentE-VuexStore" style="stroke: #A80036; stroke-width: 1.0;"/><polygon fill="#FFFFFF" points="536.522,272.169,537.3295,279.3348,544.2546,281.3455,543.4471,274.1797,536.522,272.169" style="stroke: #A80036; stroke-width: 1.0;"/><!--link VueComponentF to VuexStore--><path d="M671.009,282.22 C657.493,298.261 641.545,317.188 629.076,331.987 " fill="none" id="VueComponentF-VuexStore" style="stroke: #A80036; stroke-width: 1.0;"/><polygon fill="#FFFFFF" points="679.478,272.169,672.5529,274.1797,671.7454,281.3455,678.6705,279.3348,679.478,272.169" style="stroke: #A80036; stroke-width: 1.0;"/><!--
@startuml
object UIController {
    A container class
    Contains:
    Root Vue component
    Business Methods
    Event Listeners
    
    
}

object "Vuex Store" as VuexStore #seagreen {
    Stores data for Vue components
    Contains data mutations and actions methods
}

component VueRootComponent #lightseagreen {
}

component VueComponentA #lightseagreen{
}

component VueComponentB #lightseagreen {
}

component VueComponentC #lightseagreen {
}

component VueComponentD #lightseagreen {
}

component VueComponentE #lightseagreen {
}

component VueComponentF #lightseagreen {
}

node "Business Methods" {
    component BusinessMethodA #deepskyblue {
    }

    component BusinessMethodB #deepskyblue {
    }

    component BusinessMethodC #deepskyblue {
    }
}

node "Event Listeners" {
    component EventListenerA #aquamarine {
    }

    component EventListenerB #aquamarine {
    }

    component EventListenerC #aquamarine {
    }
}


VuexStore *- - UIController

UIController *- - BusinessMethodA
UIController *- - BusinessMethodB
UIController *- - BusinessMethodC

UIController *- - EventListenerA
UIController *- - EventListenerB
UIController *- - EventListenerC

UIController *- - VueRootComponent
VueRootComponent *- - VueComponentA
VueRootComponent *- - VueComponentB

VueComponentA *- - VueComponentC
VueComponentA *- - VueComponentD
VueComponentB *- - VueComponentE
VueComponentB *- - VueComponentF

VueRootComponent o- - VuexStore
VueComponentA o- - VuexStore
VueComponentB o- - VuexStore
VueComponentC o- - VuexStore
VueComponentD o- - VuexStore
VueComponentE o- - VuexStore
VueComponentF o- - VuexStore

@enduml

PlantUML version 1.2018.11(Sat Sep 22 20:43:53 SAMT 2018)
(GPL source distribution)
Java Runtime: OpenJDK Runtime Environment
JVM: OpenJDK 64-Bit Server VM
Java Version: 1.8.0_152-release-1248-b8
Operating System: Windows 10
OS Version: 10.0
Default Encoding: Cp1251
Language: en
Country: US
--></g></svg>