<?xml version="1.0" encoding="UTF-8"?><svg xmlns="http://www.w3.org/2000/svg" xmlns:xlink="http://www.w3.org/1999/xlink" fill-opacity="1" color-rendering="auto" color-interpolation="auto" text-rendering="auto" stroke="black" stroke-linecap="square" width="744" stroke-miterlimit="10" shape-rendering="auto" stroke-opacity="1" fill="black" stroke-dasharray="none" font-weight="normal" stroke-width="1" height="807" font-family="'Dialog'" font-style="normal" stroke-linejoin="miter" font-size="12px" stroke-dashoffset="0" image-rendering="auto">
  <!--Generated by ySVG 2.5-->
  <defs id="genericDefs"/>
  <g>
    <defs id="defs1">
      <clipPath clipPathUnits="userSpaceOnUse" id="clipPath1">
        <path d="M0 0 L744 0 L744 807 L0 807 L0 0 Z"/>
      </clipPath>
      <clipPath clipPathUnits="userSpaceOnUse" id="clipPath2">
        <path d="M35 118 L779 118 L779 925 L35 925 L35 118 Z"/>
      </clipPath>
    </defs>
    <g fill="rgb(51,204,204)" text-rendering="geometricPrecision" shape-rendering="geometricPrecision" transform="matrix(1,0,0,1,-35,-118)" stroke="rgb(51,204,204)">
      <rect x="35" width="743.5" height="67" y="858" clip-path="url(#clipPath2)" stroke="none"/>
    </g>
    <g text-rendering="geometricPrecision" stroke-miterlimit="1.45" shape-rendering="geometricPrecision" transform="matrix(1,0,0,1,-35,-118)" stroke-linecap="butt">
      <rect fill="none" x="35" width="743.5" height="67" y="858" clip-path="url(#clipPath2)"/>
      <text x="365.7285" xml:space="preserve" y="896.2139" clip-path="url(#clipPath2)" font-family="sans-serif" stroke="none">Client Adapters</text>
    </g>
    <g fill="rgb(255,204,0)" text-rendering="geometricPrecision" shape-rendering="geometricPrecision" transform="matrix(1,0,0,1,-35,-118)" stroke="rgb(255,204,0)">
      <rect x="371" width="96" height="727" y="118" clip-path="url(#clipPath2)" stroke="none"/>
    </g>
    <g text-rendering="geometricPrecision" stroke-miterlimit="1.45" shape-rendering="geometricPrecision" transform="matrix(1,0,0,1,-35,-118)" stroke-linecap="butt">
      <rect fill="none" x="371" width="96" height="727" y="118" clip-path="url(#clipPath2)"/>
      <text x="376.6104" font-size="14px" y="486.9995" clip-path="url(#clipPath2)" font-family="sans-serif" stroke="none" font-weight="bold" xml:space="preserve">UI Controller</text>
    </g>
    <g fill="rgb(51,204,204)" text-rendering="geometricPrecision" shape-rendering="geometricPrecision" transform="matrix(1,0,0,1,-35,-118)" stroke="rgb(51,204,204)">
      <rect x="449" width="329.5" height="63.25" y="126.75" clip-path="url(#clipPath2)" stroke="none"/>
    </g>
    <g text-rendering="geometricPrecision" stroke-miterlimit="1.45" shape-rendering="geometricPrecision" transform="matrix(1,0,0,1,-35,-118)" stroke-linecap="butt">
      <rect fill="none" x="449" width="329.5" height="63.25" y="126.75" clip-path="url(#clipPath2)"/>
      <text x="570.7305" xml:space="preserve" y="155.7383" clip-path="url(#clipPath2)" font-family="sans-serif" stroke="none">Event Controller</text>
      <text x="583.7295" xml:space="preserve" y="170.4395" clip-path="url(#clipPath2)" font-family="sans-serif" stroke="none">(pluggable)</text>
    </g>
    <g fill="aqua" text-rendering="geometricPrecision" shape-rendering="geometricPrecision" transform="matrix(1,0,0,1,-35,-118)" stroke="aqua">
      <rect x="497" width="72" height="186" y="178" clip-path="url(#clipPath2)" stroke="none"/>
    </g>
    <g text-rendering="geometricPrecision" stroke-miterlimit="1.45" shape-rendering="geometricPrecision" transform="matrix(1,0,0,1,-35,-118)" stroke-linecap="butt">
      <rect fill="none" x="497" width="72" height="186" y="178" clip-path="url(#clipPath2)"/>
      <text x="517.6572" xml:space="preserve" y="253.6621" clip-path="url(#clipPath2)" font-family="sans-serif" stroke="none">Event</text>
      <text x="511.9883" xml:space="preserve" y="268.3633" clip-path="url(#clipPath2)" font-family="sans-serif" stroke="none">Handler</text>
      <text x="528.998" xml:space="preserve" y="283.0645" clip-path="url(#clipPath2)" font-family="sans-serif" stroke="none">A</text>
      <text x="502.9795" xml:space="preserve" y="297.7656" clip-path="url(#clipPath2)" font-family="sans-serif" stroke="none">(pluggable)</text>
    </g>
    <g fill="aqua" text-rendering="geometricPrecision" shape-rendering="geometricPrecision" transform="matrix(1,0,0,1,-35,-118)" stroke="aqua">
      <rect x="586" width="72" height="231" y="178" clip-path="url(#clipPath2)" stroke="none"/>
    </g>
    <g text-rendering="geometricPrecision" stroke-miterlimit="1.45" shape-rendering="geometricPrecision" transform="matrix(1,0,0,1,-35,-118)" stroke-linecap="butt">
      <rect fill="none" x="586" width="72" height="231" y="178" clip-path="url(#clipPath2)"/>
      <text x="606.6572" xml:space="preserve" y="276.1621" clip-path="url(#clipPath2)" font-family="sans-serif" stroke="none">Event</text>
      <text x="600.9883" xml:space="preserve" y="290.8633" clip-path="url(#clipPath2)" font-family="sans-serif" stroke="none">Handler</text>
      <text x="617.998" xml:space="preserve" y="305.5645" clip-path="url(#clipPath2)" font-family="sans-serif" stroke="none">B</text>
      <text x="591.9795" xml:space="preserve" y="320.2656" clip-path="url(#clipPath2)" font-family="sans-serif" stroke="none">(pluggable)</text>
    </g>
    <g fill="aqua" text-rendering="geometricPrecision" shape-rendering="geometricPrecision" transform="matrix(1,0,0,1,-35,-118)" stroke="aqua">
      <rect x="676" width="72" height="276" y="178" clip-path="url(#clipPath2)" stroke="none"/>
    </g>
    <g text-rendering="geometricPrecision" stroke-miterlimit="1.45" shape-rendering="geometricPrecision" transform="matrix(1,0,0,1,-35,-118)" stroke-linecap="butt">
      <rect fill="none" x="676" width="72" height="276" y="178" clip-path="url(#clipPath2)"/>
      <text x="696.6572" xml:space="preserve" y="298.6621" clip-path="url(#clipPath2)" font-family="sans-serif" stroke="none">Event</text>
      <text x="690.9883" xml:space="preserve" y="313.3633" clip-path="url(#clipPath2)" font-family="sans-serif" stroke="none">Handler</text>
      <text x="707.667" xml:space="preserve" y="328.0645" clip-path="url(#clipPath2)" font-family="sans-serif" stroke="none">C</text>
      <text x="681.9795" xml:space="preserve" y="342.7656" clip-path="url(#clipPath2)" font-family="sans-serif" stroke="none">(pluggable)</text>
    </g>
    <g fill="rgb(51,153,102)" text-rendering="geometricPrecision" shape-rendering="geometricPrecision" transform="matrix(1,0,0,1,-35,-118)" stroke="rgb(51,153,102)">
      <rect x="449" width="329.5" height="83" y="504" clip-path="url(#clipPath2)" stroke="none"/>
    </g>
    <g text-rendering="geometricPrecision" stroke-miterlimit="1.45" shape-rendering="geometricPrecision" transform="matrix(1,0,0,1,-35,-118)" stroke-linecap="butt">
      <rect fill="none" x="449" width="329.5" height="83" y="504" clip-path="url(#clipPath2)"/>
      <text x="573.0684" xml:space="preserve" y="542.8633" clip-path="url(#clipPath2)" font-family="sans-serif" stroke="none">View Controller</text>
      <text x="583.7295" xml:space="preserve" y="557.5645" clip-path="url(#clipPath2)" font-family="sans-serif" stroke="none">(pluggable)</text>
    </g>
    <g fill="rgb(102,102,153)" text-rendering="geometricPrecision" shape-rendering="geometricPrecision" transform="matrix(1,0,0,1,-35,-118)" stroke="rgb(102,102,153)">
      <rect x="482.5" width="124" height="270.5" y="574.5" clip-path="url(#clipPath2)" stroke="none"/>
    </g>
    <g text-rendering="geometricPrecision" stroke-miterlimit="1.45" shape-rendering="geometricPrecision" transform="matrix(1,0,0,1,-35,-118)" stroke-linecap="butt">
      <rect fill="none" x="482.5" width="124" height="270.5" y="574.5" clip-path="url(#clipPath2)"/>
      <text x="531.4951" xml:space="preserve" y="692.4121" clip-path="url(#clipPath2)" font-family="sans-serif" stroke="none">View</text>
      <text x="518.4902" xml:space="preserve" y="707.1133" clip-path="url(#clipPath2)" font-family="sans-serif" stroke="none">Controller</text>
      <text x="506.1416" xml:space="preserve" y="721.8145" clip-path="url(#clipPath2)" font-family="sans-serif" stroke="none">Presentational</text>
      <text x="516.1494" xml:space="preserve" y="736.5156" clip-path="url(#clipPath2)" font-family="sans-serif" stroke="none">State Data</text>
    </g>
    <g fill="rgb(153,204,0)" text-rendering="geometricPrecision" shape-rendering="geometricPrecision" transform="matrix(1,0,0,1,-35,-118)" stroke="rgb(153,204,0)">
      <rect x="593.5" width="185" height="60" y="616" clip-path="url(#clipPath2)" stroke="none"/>
    </g>
    <g text-rendering="geometricPrecision" stroke-miterlimit="1.45" shape-rendering="geometricPrecision" transform="matrix(1,0,0,1,-35,-118)" stroke-linecap="butt">
      <rect fill="none" x="593.5" width="185" height="60" y="616" clip-path="url(#clipPath2)"/>
      <text x="672.9951" xml:space="preserve" y="636.0127" clip-path="url(#clipPath2)" font-family="sans-serif" stroke="none">View</text>
      <text x="654.9805" xml:space="preserve" y="650.7139" clip-path="url(#clipPath2)" font-family="sans-serif" stroke="none">Component</text>
      <text x="637.9648" xml:space="preserve" y="665.415" clip-path="url(#clipPath2)" font-family="sans-serif" stroke="none">(panel, pluggable)</text>
    </g>
    <g fill="rgb(153,204,0)" text-rendering="geometricPrecision" shape-rendering="geometricPrecision" transform="matrix(1,0,0,1,-35,-118)" stroke="rgb(153,204,0)">
      <rect x="593.5" width="185" height="67" y="689" clip-path="url(#clipPath2)" stroke="none"/>
    </g>
    <g text-rendering="geometricPrecision" stroke-miterlimit="1.45" shape-rendering="geometricPrecision" transform="matrix(1,0,0,1,-35,-118)" stroke-linecap="butt">
      <rect fill="none" x="593.5" width="185" height="67" y="689" clip-path="url(#clipPath2)"/>
      <text x="672.9951" xml:space="preserve" y="712.5127" clip-path="url(#clipPath2)" font-family="sans-serif" stroke="none">View</text>
      <text x="654.9805" xml:space="preserve" y="727.2139" clip-path="url(#clipPath2)" font-family="sans-serif" stroke="none">Component</text>
      <text x="635.9609" xml:space="preserve" y="741.915" clip-path="url(#clipPath2)" font-family="sans-serif" stroke="none">(popup, pluggable)</text>
    </g>
    <g fill="rgb(102,102,153)" text-rendering="geometricPrecision" shape-rendering="geometricPrecision" transform="matrix(1,0,0,1,-35,-118)" stroke="rgb(102,102,153)">
      <rect x="378.5" width="81" height="181" y="656" clip-path="url(#clipPath2)" stroke="none"/>
    </g>
    <g text-rendering="geometricPrecision" stroke-miterlimit="1.45" shape-rendering="geometricPrecision" transform="matrix(1,0,0,1,-35,-118)" stroke-linecap="butt">
      <rect fill="none" x="378.5" width="81" height="181" y="656" clip-path="url(#clipPath2)"/>
      <text x="385.3232" xml:space="preserve" y="743.8633" clip-path="url(#clipPath2)" font-family="sans-serif" stroke="none">UI Controller</text>
      <text x="390.6494" xml:space="preserve" y="758.5645" clip-path="url(#clipPath2)" font-family="sans-serif" stroke="none">State Data</text>
    </g>
    <g fill="aqua" text-rendering="geometricPrecision" shape-rendering="geometricPrecision" transform="matrix(1,0,0,1,-35,-118)" stroke="aqua">
      <rect x="44" width="86" height="570" y="301" clip-path="url(#clipPath2)" stroke="none"/>
    </g>
    <g text-rendering="geometricPrecision" stroke-miterlimit="1.45" shape-rendering="geometricPrecision" transform="matrix(1,0,0,1,-35,-118)" stroke-linecap="butt">
      <rect fill="none" x="44" width="86" height="570" y="301" clip-path="url(#clipPath2)"/>
      <text x="50.3174" xml:space="preserve" y="583.3633" clip-path="url(#clipPath2)" font-family="sans-serif" stroke="none">Lexical Query</text>
      <text x="56.9795" xml:space="preserve" y="598.0645" clip-path="url(#clipPath2)" font-family="sans-serif" stroke="none">(pluggable)</text>
    </g>
    <g fill="aqua" text-rendering="geometricPrecision" shape-rendering="geometricPrecision" transform="matrix(1,0,0,1,-35,-118)" stroke="aqua">
      <rect x="151" width="86" height="514" y="357" clip-path="url(#clipPath2)" stroke="none"/>
    </g>
    <g text-rendering="geometricPrecision" stroke-miterlimit="1.45" shape-rendering="geometricPrecision" transform="matrix(1,0,0,1,-35,-118)" stroke-linecap="butt">
      <rect fill="none" x="151" width="86" height="514" y="357" clip-path="url(#clipPath2)"/>
      <text x="153.6523" xml:space="preserve" y="611.3633" clip-path="url(#clipPath2)" font-family="sans-serif" stroke="none">Resorce Query</text>
      <text x="163.9795" xml:space="preserve" y="626.0645" clip-path="url(#clipPath2)" font-family="sans-serif" stroke="none">(pluggable)</text>
    </g>
    <g fill="aqua" text-rendering="geometricPrecision" shape-rendering="geometricPrecision" transform="matrix(1,0,0,1,-35,-118)" stroke="aqua">
      <rect x="262.5" width="86" height="460" y="411" clip-path="url(#clipPath2)" stroke="none"/>
    </g>
    <g text-rendering="geometricPrecision" stroke-miterlimit="1.45" shape-rendering="geometricPrecision" transform="matrix(1,0,0,1,-35,-118)" stroke-linecap="butt">
      <rect fill="none" x="262.5" width="86" height="460" y="411" clip-path="url(#clipPath2)"/>
      <text x="272.4883" xml:space="preserve" y="638.3633" clip-path="url(#clipPath2)" font-family="sans-serif" stroke="none">Other Query</text>
      <text x="275.4795" xml:space="preserve" y="653.0645" clip-path="url(#clipPath2)" font-family="sans-serif" stroke="none">(pluggable)</text>
    </g>
    <g fill="rgb(255,204,153)" text-rendering="geometricPrecision" shape-rendering="geometricPrecision" transform="matrix(1,0,0,1,-35,-118)" stroke="rgb(255,204,153)">
      <rect x="35" width="371" height="35" y="126.75" clip-path="url(#clipPath2)" stroke="none"/>
    </g>
    <g text-rendering="geometricPrecision" stroke-miterlimit="1.45" shape-rendering="geometricPrecision" transform="matrix(1,0,0,1,-35,-118)" stroke-linecap="butt">
      <rect fill="none" x="35" width="371" height="35" y="126.75" clip-path="url(#clipPath2)"/>
      <text x="168.8057" xml:space="preserve" y="148.9639" clip-path="url(#clipPath2)" font-family="sans-serif" stroke="none">Business Method A</text>
    </g>
    <g fill="rgb(255,204,153)" text-rendering="geometricPrecision" shape-rendering="geometricPrecision" transform="matrix(1,0,0,1,-35,-118)" stroke="rgb(255,204,153)">
      <rect x="35" width="371" height="35" y="174.75" clip-path="url(#clipPath2)" stroke="none"/>
    </g>
    <g text-rendering="geometricPrecision" stroke-miterlimit="1.45" shape-rendering="geometricPrecision" transform="matrix(1,0,0,1,-35,-118)" stroke-linecap="butt">
      <rect fill="none" x="35" width="371" height="35" y="174.75" clip-path="url(#clipPath2)"/>
      <text x="168.8057" xml:space="preserve" y="196.9639" clip-path="url(#clipPath2)" font-family="sans-serif" stroke="none">Business Method B</text>
    </g>
    <g fill="rgb(255,204,153)" text-rendering="geometricPrecision" shape-rendering="geometricPrecision" transform="matrix(1,0,0,1,-35,-118)" stroke="rgb(255,204,153)">
      <rect x="35" width="371" height="35" y="222.75" clip-path="url(#clipPath2)" stroke="none"/>
    </g>
    <g text-rendering="geometricPrecision" stroke-miterlimit="1.45" shape-rendering="geometricPrecision" transform="matrix(1,0,0,1,-35,-118)" stroke-linecap="butt">
      <rect fill="none" x="35" width="371" height="35" y="222.75" clip-path="url(#clipPath2)"/>
      <text x="168.4746" xml:space="preserve" y="244.9639" clip-path="url(#clipPath2)" font-family="sans-serif" stroke="none">Business Method C</text>
    </g>
    <g fill="rgb(255,204,153)" text-rendering="geometricPrecision" shape-rendering="geometricPrecision" transform="matrix(1,0,0,1,-35,-118)" stroke="rgb(255,204,153)">
      <rect x="58.75" width="347.25" height="35" y="309" clip-path="url(#clipPath2)" stroke="none"/>
    </g>
    <g text-rendering="geometricPrecision" stroke-miterlimit="1.45" shape-rendering="geometricPrecision" transform="matrix(1,0,0,1,-35,-118)" stroke-linecap="butt">
      <rect fill="none" x="58.75" width="347.25" height="35" y="309" clip-path="url(#clipPath2)"/>
      <text x="178.3545" xml:space="preserve" y="331.2139" clip-path="url(#clipPath2)" font-family="sans-serif" stroke="none">Lexical Query Caller</text>
    </g>
    <g fill="rgb(255,204,153)" text-rendering="geometricPrecision" shape-rendering="geometricPrecision" transform="matrix(1,0,0,1,-35,-118)" stroke="rgb(255,204,153)">
      <rect x="160" width="246" height="35" y="364" clip-path="url(#clipPath2)" stroke="none"/>
    </g>
    <g text-rendering="geometricPrecision" stroke-miterlimit="1.45" shape-rendering="geometricPrecision" transform="matrix(1,0,0,1,-35,-118)" stroke-linecap="butt">
      <rect fill="none" x="160" width="246" height="35" y="364" clip-path="url(#clipPath2)"/>
      <text x="221.9775" xml:space="preserve" y="386.2139" clip-path="url(#clipPath2)" font-family="sans-serif" stroke="none">Resource Query Caller</text>
    </g>
    <g fill="rgb(255,204,153)" text-rendering="geometricPrecision" shape-rendering="geometricPrecision" transform="matrix(1,0,0,1,-35,-118)" stroke="rgb(255,204,153)">
      <rect x="449" width="114" height="35" y="324" clip-path="url(#clipPath2)" stroke="none"/>
    </g>
    <g text-rendering="geometricPrecision" stroke-miterlimit="1.45" shape-rendering="geometricPrecision" transform="matrix(1,0,0,1,-35,-118)" stroke-linecap="butt">
      <rect fill="none" x="449" width="114" height="35" y="324" clip-path="url(#clipPath2)"/>
      <text x="460.3115" xml:space="preserve" y="346.2139" clip-path="url(#clipPath2)" font-family="sans-serif" stroke="none">Event A Callback</text>
    </g>
    <g fill="rgb(255,204,153)" text-rendering="geometricPrecision" shape-rendering="geometricPrecision" transform="matrix(1,0,0,1,-35,-118)" stroke="rgb(255,204,153)">
      <rect x="450" width="202" height="35" y="369" clip-path="url(#clipPath2)" stroke="none"/>
    </g>
    <g text-rendering="geometricPrecision" stroke-miterlimit="1.45" shape-rendering="geometricPrecision" transform="matrix(1,0,0,1,-35,-118)" stroke-linecap="butt">
      <rect fill="none" x="450" width="202" height="35" y="369" clip-path="url(#clipPath2)"/>
      <text x="505.3115" xml:space="preserve" y="391.2139" clip-path="url(#clipPath2)" font-family="sans-serif" stroke="none">Event B Callback</text>
    </g>
    <g fill="rgb(255,204,153)" text-rendering="geometricPrecision" shape-rendering="geometricPrecision" transform="matrix(1,0,0,1,-35,-118)" stroke="rgb(255,204,153)">
      <rect x="450" width="290" height="35" y="414" clip-path="url(#clipPath2)" stroke="none"/>
    </g>
    <g text-rendering="geometricPrecision" stroke-miterlimit="1.45" shape-rendering="geometricPrecision" transform="matrix(1,0,0,1,-35,-118)" stroke-linecap="butt">
      <rect fill="none" x="450" width="290" height="35" y="414" clip-path="url(#clipPath2)"/>
      <text x="548.9805" xml:space="preserve" y="436.2139" clip-path="url(#clipPath2)" font-family="sans-serif" stroke="none">Event C Callback</text>
    </g>
    <g fill="rgb(255,204,153)" text-rendering="geometricPrecision" shape-rendering="geometricPrecision" transform="matrix(1,0,0,1,-35,-118)" stroke="rgb(255,204,153)">
      <rect x="271" width="135" height="35" y="419" clip-path="url(#clipPath2)" stroke="none"/>
    </g>
    <g text-rendering="geometricPrecision" stroke-miterlimit="1.45" shape-rendering="geometricPrecision" transform="matrix(1,0,0,1,-35,-118)" stroke-linecap="butt">
      <rect fill="none" x="271" width="135" height="35" y="419" clip-path="url(#clipPath2)"/>
      <text x="288.1504" xml:space="preserve" y="441.2139" clip-path="url(#clipPath2)" font-family="sans-serif" stroke="none">Other Query Caller</text>
    </g>
    <g fill="rgb(153,204,0)" text-rendering="geometricPrecision" shape-rendering="geometricPrecision" transform="matrix(1,0,0,1,-35,-118)" stroke="rgb(153,204,0)">
      <rect x="593.5" width="185" height="67" y="769" clip-path="url(#clipPath2)" stroke="none"/>
    </g>
    <g text-rendering="geometricPrecision" stroke-miterlimit="1.45" shape-rendering="geometricPrecision" transform="matrix(1,0,0,1,-35,-118)" stroke-linecap="butt">
      <rect fill="none" x="593.5" width="185" height="67" y="769" clip-path="url(#clipPath2)"/>
      <text x="653.6533" xml:space="preserve" y="792.5127" clip-path="url(#clipPath2)" font-family="sans-serif" stroke="none">Some Other</text>
      <text x="640.3086" xml:space="preserve" y="807.2139" clip-path="url(#clipPath2)" font-family="sans-serif" stroke="none">View Component</text>
      <text x="635.9609" xml:space="preserve" y="821.915" clip-path="url(#clipPath2)" font-family="sans-serif" stroke="none">(popup, pluggable)</text>
    </g>
  </g>
</svg>
