<?xml version="1.0" encoding="UTF-8"?><svg xmlns="http://www.w3.org/2000/svg" xmlns:xlink="http://www.w3.org/1999/xlink" fill-opacity="1" color-rendering="auto" color-interpolation="auto" text-rendering="auto" stroke="black" stroke-linecap="square" width="1333" stroke-miterlimit="10" shape-rendering="auto" stroke-opacity="1" fill="black" stroke-dasharray="none" font-weight="normal" stroke-width="1" height="952" font-family="'Dialog'" font-style="normal" stroke-linejoin="miter" font-size="12px" stroke-dashoffset="0" image-rendering="auto">
  <!--Generated by ySVG 2.5-->
  <defs id="genericDefs"/>
  <g>
    <defs id="defs1">
      <clipPath clipPathUnits="userSpaceOnUse" id="clipPath1">
        <path d="M0 0 L1333 0 L1333 952 L0 952 L0 0 Z"/>
      </clipPath>
      <clipPath clipPathUnits="userSpaceOnUse" id="clipPath2">
        <path d="M-253 10 L1080 10 L1080 962 L-253 962 L-253 10 Z"/>
      </clipPath>
    </defs>
    <g text-rendering="geometricPrecision" stroke-miterlimit="1.45" stroke-dasharray="6,2" shape-rendering="geometricPrecision" transform="matrix(1,0,0,1,253,-10)" stroke-linecap="butt">
      <path fill="none" d="M16 59.25 L801.5 59.25 L801.5 947.75 L16 947.75 Z" clip-path="url(#clipPath2)"/>
      <text x="22" y="77.3145" clip-path="url(#clipPath2)" font-family="sans-serif" stroke-dasharray="none" stroke="none" xml:space="preserve">Business Logic</text>
      <text x="22" y="92.0156" clip-path="url(#clipPath2)" font-family="sans-serif" stroke-dasharray="none" stroke="none" xml:space="preserve">ES JS code</text>
    </g>
    <g text-rendering="geometricPrecision" stroke-miterlimit="1.45" stroke-dasharray="6,2" shape-rendering="geometricPrecision" transform="matrix(1,0,0,1,253,-10)" stroke-linecap="butt">
      <path fill="none" d="M287 79.5 L778.5 79.5 L778.5 496 L287 496 Z" clip-path="url(#clipPath2)"/>
      <text x="663.7617" y="97.5645" clip-path="url(#clipPath2)" font-family="sans-serif" stroke-dasharray="none" stroke="none" xml:space="preserve">Presentational Logic</text>
      <text x="649.7344" y="112.2656" clip-path="url(#clipPath2)" font-family="sans-serif" stroke-dasharray="none" stroke="none" xml:space="preserve">Vue.js dependent code</text>
    </g>
    <g fill="rgb(51,204,204)" text-rendering="geometricPrecision" shape-rendering="geometricPrecision" transform="matrix(1,0,0,1,253,-10)" stroke="rgb(51,204,204)">
      <rect x="35" width="743.5" height="67" y="858" clip-path="url(#clipPath2)" stroke="none"/>
    </g>
    <g text-rendering="geometricPrecision" stroke-miterlimit="1.45" shape-rendering="geometricPrecision" transform="matrix(1,0,0,1,253,-10)" stroke-linecap="butt">
      <rect fill="none" x="35" width="743.5" height="67" y="858" clip-path="url(#clipPath2)"/>
      <text x="365.7285" xml:space="preserve" y="896.2139" clip-path="url(#clipPath2)" font-family="sans-serif" stroke="none">Client Adapters</text>
    </g>
    <g fill="rgb(255,204,0)" text-rendering="geometricPrecision" shape-rendering="geometricPrecision" transform="matrix(1,0,0,1,253,-10)" stroke="rgb(255,204,0)">
      <rect x="368" width="99" height="349" y="496" clip-path="url(#clipPath2)" stroke="none"/>
    </g>
    <g text-rendering="geometricPrecision" stroke-miterlimit="1.45" shape-rendering="geometricPrecision" transform="matrix(1,0,0,1,253,-10)" stroke-linecap="butt">
      <rect fill="none" x="368" width="99" height="349" y="496" clip-path="url(#clipPath2)"/>
      <text x="375.1104" font-size="14px" y="675.9995" clip-path="url(#clipPath2)" font-family="sans-serif" stroke="none" font-weight="bold" xml:space="preserve">UI Controller</text>
    </g>
    <g fill="rgb(51,204,204)" text-rendering="geometricPrecision" shape-rendering="geometricPrecision" transform="matrix(1,0,0,1,253,-10)" stroke="rgb(51,204,204)">
      <rect x="460.5" width="318" height="63.25" y="505.75" clip-path="url(#clipPath2)" stroke="none"/>
    </g>
    <g text-rendering="geometricPrecision" stroke-miterlimit="1.45" shape-rendering="geometricPrecision" transform="matrix(1,0,0,1,253,-10)" stroke-linecap="butt">
      <rect fill="none" x="460.5" width="318" height="63.25" y="505.75" clip-path="url(#clipPath2)"/>
      <text x="547.1338" xml:space="preserve" y="534.7383" clip-path="url(#clipPath2)" font-family="sans-serif" stroke="none">User Input Event Controller</text>
      <text x="589.4795" xml:space="preserve" y="549.4395" clip-path="url(#clipPath2)" font-family="sans-serif" stroke="none">(pluggable)</text>
    </g>
    <g fill="aqua" text-rendering="geometricPrecision" shape-rendering="geometricPrecision" transform="matrix(1,0,0,1,253,-10)" stroke="aqua">
      <rect x="497" width="72" height="186" y="557" clip-path="url(#clipPath2)" stroke="none"/>
    </g>
    <g text-rendering="geometricPrecision" stroke-miterlimit="1.45" shape-rendering="geometricPrecision" transform="matrix(1,0,0,1,253,-10)" stroke-linecap="butt">
      <rect fill="none" x="497" width="72" height="186" y="557" clip-path="url(#clipPath2)"/>
      <text x="517.6572" xml:space="preserve" y="632.6621" clip-path="url(#clipPath2)" font-family="sans-serif" stroke="none">Event</text>
      <text x="511.9883" xml:space="preserve" y="647.3633" clip-path="url(#clipPath2)" font-family="sans-serif" stroke="none">Handler</text>
      <text x="528.998" xml:space="preserve" y="662.0645" clip-path="url(#clipPath2)" font-family="sans-serif" stroke="none">A</text>
      <text x="502.9795" xml:space="preserve" y="676.7656" clip-path="url(#clipPath2)" font-family="sans-serif" stroke="none">(pluggable)</text>
    </g>
    <g fill="aqua" text-rendering="geometricPrecision" shape-rendering="geometricPrecision" transform="matrix(1,0,0,1,253,-10)" stroke="aqua">
      <rect x="586" width="72" height="231" y="557" clip-path="url(#clipPath2)" stroke="none"/>
    </g>
    <g text-rendering="geometricPrecision" stroke-miterlimit="1.45" shape-rendering="geometricPrecision" transform="matrix(1,0,0,1,253,-10)" stroke-linecap="butt">
      <rect fill="none" x="586" width="72" height="231" y="557" clip-path="url(#clipPath2)"/>
      <text x="606.6572" xml:space="preserve" y="655.1621" clip-path="url(#clipPath2)" font-family="sans-serif" stroke="none">Event</text>
      <text x="600.9883" xml:space="preserve" y="669.8633" clip-path="url(#clipPath2)" font-family="sans-serif" stroke="none">Handler</text>
      <text x="617.998" xml:space="preserve" y="684.5645" clip-path="url(#clipPath2)" font-family="sans-serif" stroke="none">B</text>
      <text x="591.9795" xml:space="preserve" y="699.2656" clip-path="url(#clipPath2)" font-family="sans-serif" stroke="none">(pluggable)</text>
    </g>
    <g fill="aqua" text-rendering="geometricPrecision" shape-rendering="geometricPrecision" transform="matrix(1,0,0,1,253,-10)" stroke="aqua">
      <rect x="676" width="72" height="276" y="557" clip-path="url(#clipPath2)" stroke="none"/>
    </g>
    <g text-rendering="geometricPrecision" stroke-miterlimit="1.45" shape-rendering="geometricPrecision" transform="matrix(1,0,0,1,253,-10)" stroke-linecap="butt">
      <rect fill="none" x="676" width="72" height="276" y="557" clip-path="url(#clipPath2)"/>
      <text x="696.6572" xml:space="preserve" y="677.6621" clip-path="url(#clipPath2)" font-family="sans-serif" stroke="none">Event</text>
      <text x="690.9883" xml:space="preserve" y="692.3633" clip-path="url(#clipPath2)" font-family="sans-serif" stroke="none">Handler</text>
      <text x="707.667" xml:space="preserve" y="707.0645" clip-path="url(#clipPath2)" font-family="sans-serif" stroke="none">C</text>
      <text x="681.9795" xml:space="preserve" y="721.7656" clip-path="url(#clipPath2)" font-family="sans-serif" stroke="none">(pluggable)</text>
    </g>
    <g fill="rgb(102,102,153)" text-rendering="geometricPrecision" shape-rendering="geometricPrecision" transform="matrix(1,0,0,1,253,-10)" stroke="rgb(102,102,153)">
      <rect x="368" width="99" height="403" y="93" clip-path="url(#clipPath2)" stroke="none"/>
    </g>
    <g text-rendering="geometricPrecision" stroke-miterlimit="1.45" shape-rendering="geometricPrecision" transform="matrix(1,0,0,1,253,-10)" stroke-linecap="butt">
      <rect fill="none" x="368" width="99" height="403" y="93" clip-path="url(#clipPath2)"/>
      <text x="387.8164" xml:space="preserve" y="284.5127" clip-path="url(#clipPath2)" font-family="sans-serif" stroke="none">Vuex Store</text>
      <text x="405.8252" xml:space="preserve" y="299.2139" clip-path="url(#clipPath2)" font-family="sans-serif" stroke="none">of a </text>
      <text x="383.8232" xml:space="preserve" y="313.915" clip-path="url(#clipPath2)" font-family="sans-serif" stroke="none">UI Controller</text>
    </g>
    <g fill="aqua" text-rendering="geometricPrecision" shape-rendering="geometricPrecision" transform="matrix(1,0,0,1,253,-10)" stroke="aqua">
      <rect x="44" width="86" height="365.25" y="505.75" clip-path="url(#clipPath2)" stroke="none"/>
    </g>
    <g text-rendering="geometricPrecision" stroke-miterlimit="1.45" shape-rendering="geometricPrecision" transform="matrix(1,0,0,1,253,-10)" stroke-linecap="butt">
      <rect fill="none" x="44" width="86" height="365.25" y="505.75" clip-path="url(#clipPath2)"/>
      <text x="50.3174" xml:space="preserve" y="685.7383" clip-path="url(#clipPath2)" font-family="sans-serif" stroke="none">Lexical Query</text>
      <text x="56.9795" xml:space="preserve" y="700.4395" clip-path="url(#clipPath2)" font-family="sans-serif" stroke="none">(pluggable)</text>
    </g>
    <g fill="aqua" text-rendering="geometricPrecision" shape-rendering="geometricPrecision" transform="matrix(1,0,0,1,253,-10)" stroke="aqua">
      <rect x="151" width="86" height="314" y="557" clip-path="url(#clipPath2)" stroke="none"/>
    </g>
    <g text-rendering="geometricPrecision" stroke-miterlimit="1.45" shape-rendering="geometricPrecision" transform="matrix(1,0,0,1,253,-10)" stroke-linecap="butt">
      <rect fill="none" x="151" width="86" height="314" y="557" clip-path="url(#clipPath2)"/>
      <text x="153.6523" xml:space="preserve" y="711.3633" clip-path="url(#clipPath2)" font-family="sans-serif" stroke="none">Resorce Query</text>
      <text x="163.9795" xml:space="preserve" y="726.0645" clip-path="url(#clipPath2)" font-family="sans-serif" stroke="none">(pluggable)</text>
    </g>
    <g fill="aqua" text-rendering="geometricPrecision" shape-rendering="geometricPrecision" transform="matrix(1,0,0,1,253,-10)" stroke="aqua">
      <rect x="262.5" width="86" height="255" y="616" clip-path="url(#clipPath2)" stroke="none"/>
    </g>
    <g text-rendering="geometricPrecision" stroke-miterlimit="1.45" shape-rendering="geometricPrecision" transform="matrix(1,0,0,1,253,-10)" stroke-linecap="butt">
      <rect fill="none" x="262.5" width="86" height="255" y="616" clip-path="url(#clipPath2)"/>
      <text x="272.4883" xml:space="preserve" y="740.8633" clip-path="url(#clipPath2)" font-family="sans-serif" stroke="none">Other Query</text>
      <text x="275.4795" xml:space="preserve" y="755.5645" clip-path="url(#clipPath2)" font-family="sans-serif" stroke="none">(pluggable)</text>
    </g>
    <g fill="rgb(255,204,153)" text-rendering="geometricPrecision" shape-rendering="geometricPrecision" transform="matrix(1,0,0,1,253,-10)" stroke="rgb(255,204,153)">
      <rect x="58.75" width="319.25" height="35" y="513.5" clip-path="url(#clipPath2)" stroke="none"/>
    </g>
    <g text-rendering="geometricPrecision" stroke-miterlimit="1.45" shape-rendering="geometricPrecision" transform="matrix(1,0,0,1,253,-10)" stroke-linecap="butt">
      <rect fill="none" x="58.75" width="319.25" height="35" y="513.5" clip-path="url(#clipPath2)"/>
      <text x="164.3545" xml:space="preserve" y="535.7139" clip-path="url(#clipPath2)" font-family="sans-serif" stroke="none">Lexical Query Caller</text>
    </g>
    <g fill="rgb(255,204,153)" text-rendering="geometricPrecision" shape-rendering="geometricPrecision" transform="matrix(1,0,0,1,253,-10)" stroke="rgb(255,204,153)">
      <rect x="160" width="218" height="35" y="568.5" clip-path="url(#clipPath2)" stroke="none"/>
    </g>
    <g text-rendering="geometricPrecision" stroke-miterlimit="1.45" shape-rendering="geometricPrecision" transform="matrix(1,0,0,1,253,-10)" stroke-linecap="butt">
      <rect fill="none" x="160" width="218" height="35" y="568.5" clip-path="url(#clipPath2)"/>
      <text x="207.9775" xml:space="preserve" y="590.7139" clip-path="url(#clipPath2)" font-family="sans-serif" stroke="none">Resource Query Caller</text>
    </g>
    <g fill="rgb(255,204,153)" text-rendering="geometricPrecision" shape-rendering="geometricPrecision" transform="matrix(1,0,0,1,253,-10)" stroke="rgb(255,204,153)">
      <rect x="460.5" width="102.5" height="35" y="703" clip-path="url(#clipPath2)" stroke="none"/>
    </g>
    <g text-rendering="geometricPrecision" stroke-miterlimit="1.45" shape-rendering="geometricPrecision" transform="matrix(1,0,0,1,253,-10)" stroke-linecap="butt">
      <rect fill="none" x="460.5" width="102.5" height="35" y="703" clip-path="url(#clipPath2)"/>
      <text x="466.0615" xml:space="preserve" y="725.2139" clip-path="url(#clipPath2)" font-family="sans-serif" stroke="none">Event A Callback</text>
    </g>
    <g fill="rgb(255,204,153)" text-rendering="geometricPrecision" shape-rendering="geometricPrecision" transform="matrix(1,0,0,1,253,-10)" stroke="rgb(255,204,153)">
      <rect x="460.5" width="191.5" height="35" y="748" clip-path="url(#clipPath2)" stroke="none"/>
    </g>
    <g text-rendering="geometricPrecision" stroke-miterlimit="1.45" shape-rendering="geometricPrecision" transform="matrix(1,0,0,1,253,-10)" stroke-linecap="butt">
      <rect fill="none" x="460.5" width="191.5" height="35" y="748" clip-path="url(#clipPath2)"/>
      <text x="510.5615" xml:space="preserve" y="770.2139" clip-path="url(#clipPath2)" font-family="sans-serif" stroke="none">Event B Callback</text>
    </g>
    <g fill="rgb(255,204,153)" text-rendering="geometricPrecision" shape-rendering="geometricPrecision" transform="matrix(1,0,0,1,253,-10)" stroke="rgb(255,204,153)">
      <rect x="460.5" width="279.5" height="35" y="793" clip-path="url(#clipPath2)" stroke="none"/>
    </g>
    <g text-rendering="geometricPrecision" stroke-miterlimit="1.45" shape-rendering="geometricPrecision" transform="matrix(1,0,0,1,253,-10)" stroke-linecap="butt">
      <rect fill="none" x="460.5" width="279.5" height="35" y="793" clip-path="url(#clipPath2)"/>
      <text x="554.2305" xml:space="preserve" y="815.2139" clip-path="url(#clipPath2)" font-family="sans-serif" stroke="none">Event C Callback</text>
    </g>
    <g fill="rgb(255,204,153)" text-rendering="geometricPrecision" shape-rendering="geometricPrecision" transform="matrix(1,0,0,1,253,-10)" stroke="rgb(255,204,153)">
      <rect x="271" width="107" height="35" y="623.5" clip-path="url(#clipPath2)" stroke="none"/>
    </g>
    <g text-rendering="geometricPrecision" stroke-miterlimit="1.45" shape-rendering="geometricPrecision" transform="matrix(1,0,0,1,253,-10)" stroke-linecap="butt">
      <rect fill="none" x="271" width="107" height="35" y="623.5" clip-path="url(#clipPath2)"/>
      <text x="274.1504" xml:space="preserve" y="645.7139" clip-path="url(#clipPath2)" font-family="sans-serif" stroke="none">Other Query Caller</text>
    </g>
    <g fill="rgb(204,255,204)" text-rendering="geometricPrecision" shape-rendering="geometricPrecision" transform="matrix(1,0,0,1,253,-10)" stroke="rgb(204,255,204)">
      <rect x="460.5" width="108.5" height="186" y="306" clip-path="url(#clipPath2)" stroke="none"/>
    </g>
    <g text-rendering="geometricPrecision" stroke-miterlimit="1.45" shape-rendering="geometricPrecision" transform="matrix(1,0,0,1,253,-10)" stroke-linecap="butt">
      <rect fill="none" x="460.5" width="108.5" height="186" y="306" clip-path="url(#clipPath2)"/>
      <text x="489.7334" xml:space="preserve" y="389.0127" clip-path="url(#clipPath2)" font-family="sans-serif" stroke="none">Popup UI</text>
      <text x="495.0713" xml:space="preserve" y="403.7139" clip-path="url(#clipPath2)" font-family="sans-serif" stroke="none">Module</text>
      <text x="484.7295" xml:space="preserve" y="418.415" clip-path="url(#clipPath2)" font-family="sans-serif" stroke="none">(pluggable)</text>
    </g>
    <g fill="rgb(255,153,204)" text-rendering="geometricPrecision" shape-rendering="geometricPrecision" transform="matrix(1,0,0,1,253,-10)" stroke="rgb(255,153,204)">
      <rect x="35" width="220" height="105" y="99" clip-path="url(#clipPath2)" stroke="none"/>
    </g>
    <g text-rendering="geometricPrecision" stroke-miterlimit="1.45" shape-rendering="geometricPrecision" transform="matrix(1,0,0,1,253,-10)" stroke-linecap="butt">
      <rect fill="none" x="35" width="220" height="105" y="99" clip-path="url(#clipPath2)"/>
      <text x="111.6455" xml:space="preserve" y="156.2139" clip-path="url(#clipPath2)" font-family="sans-serif" stroke="none">L10n Library</text>
    </g>
    <g fill="rgb(204,255,204)" text-rendering="geometricPrecision" shape-rendering="geometricPrecision" transform="matrix(1,0,0,1,253,-10)" stroke="rgb(204,255,204)">
      <rect x="243" width="135" height="70" y="99" clip-path="url(#clipPath2)" stroke="none"/>
    </g>
    <g text-rendering="geometricPrecision" stroke-miterlimit="1.45" shape-rendering="geometricPrecision" transform="matrix(1,0,0,1,253,-10)" stroke-linecap="butt">
      <rect fill="none" x="243" width="135" height="70" y="99" clip-path="url(#clipPath2)"/>
      <text x="261.4658" xml:space="preserve" y="131.3633" clip-path="url(#clipPath2)" font-family="sans-serif" stroke="none">L10n Data Module</text>
      <text x="280.4795" xml:space="preserve" y="146.0645" clip-path="url(#clipPath2)" font-family="sans-serif" stroke="none">(pluggable)</text>
    </g>
    <g fill="rgb(255,153,204)" text-rendering="geometricPrecision" shape-rendering="geometricPrecision" transform="matrix(1,0,0,1,253,-10)" stroke="rgb(255,153,204)">
      <rect x="35" width="220" height="105" y="221" clip-path="url(#clipPath2)" stroke="none"/>
    </g>
    <g text-rendering="geometricPrecision" stroke-miterlimit="1.45" shape-rendering="geometricPrecision" transform="matrix(1,0,0,1,253,-10)" stroke-linecap="butt">
      <rect fill="none" x="35" width="220" height="105" y="221" clip-path="url(#clipPath2)"/>
      <text x="81.3027" xml:space="preserve" y="278.2139" clip-path="url(#clipPath2)" font-family="sans-serif" stroke="none">Inflection Tables Library</text>
    </g>
    <g fill="rgb(204,255,204)" text-rendering="geometricPrecision" shape-rendering="geometricPrecision" transform="matrix(1,0,0,1,253,-10)" stroke="rgb(204,255,204)">
      <rect x="243" width="135" height="70" y="221" clip-path="url(#clipPath2)" stroke="none"/>
    </g>
    <g text-rendering="geometricPrecision" stroke-miterlimit="1.45" shape-rendering="geometricPrecision" transform="matrix(1,0,0,1,253,-10)" stroke-linecap="butt">
      <rect fill="none" x="243" width="135" height="70" y="221" clip-path="url(#clipPath2)"/>
      <text x="266.8096" xml:space="preserve" y="246.0127" clip-path="url(#clipPath2)" font-family="sans-serif" stroke="none">Inflection Tables</text>
      <text x="276.4805" xml:space="preserve" y="260.7139" clip-path="url(#clipPath2)" font-family="sans-serif" stroke="none">Data Module</text>
      <text x="280.4795" xml:space="preserve" y="275.415" clip-path="url(#clipPath2)" font-family="sans-serif" stroke="none">(pluggable)</text>
    </g>
    <g fill="rgb(204,255,204)" text-rendering="geometricPrecision" shape-rendering="geometricPrecision" transform="matrix(1,0,0,1,253,-10)" stroke="rgb(204,255,204)">
      <rect x="559" width="202" height="48" y="315" clip-path="url(#clipPath2)" stroke="none"/>
    </g>
    <g text-rendering="geometricPrecision" stroke-miterlimit="1.45" shape-rendering="geometricPrecision" transform="matrix(1,0,0,1,253,-10)" stroke-linecap="butt">
      <rect fill="none" x="559" width="202" height="48" y="315" clip-path="url(#clipPath2)"/>
      <text x="587.6133" xml:space="preserve" y="343.7139" clip-path="url(#clipPath2)" font-family="sans-serif" stroke="none">Popup Subcomponent One</text>
    </g>
    <g fill="rgb(204,255,204)" text-rendering="geometricPrecision" shape-rendering="geometricPrecision" transform="matrix(1,0,0,1,253,-10)" stroke="rgb(204,255,204)">
      <rect x="559" width="202" height="48" y="375" clip-path="url(#clipPath2)" stroke="none"/>
    </g>
    <g text-rendering="geometricPrecision" stroke-miterlimit="1.45" shape-rendering="geometricPrecision" transform="matrix(1,0,0,1,253,-10)" stroke-linecap="butt">
      <rect fill="none" x="559" width="202" height="48" y="375" clip-path="url(#clipPath2)"/>
      <text x="587.6191" xml:space="preserve" y="403.7139" clip-path="url(#clipPath2)" font-family="sans-serif" stroke="none">Popup Subcomponent Two</text>
    </g>
    <g fill="rgb(204,255,204)" text-rendering="geometricPrecision" shape-rendering="geometricPrecision" transform="matrix(1,0,0,1,253,-10)" stroke="rgb(204,255,204)">
      <rect x="559" width="202" height="48" y="435" clip-path="url(#clipPath2)" stroke="none"/>
    </g>
    <g text-rendering="geometricPrecision" stroke-miterlimit="1.45" shape-rendering="geometricPrecision" transform="matrix(1,0,0,1,253,-10)" stroke-linecap="butt">
      <rect fill="none" x="559" width="202" height="48" y="435" clip-path="url(#clipPath2)"/>
      <text x="583.2803" xml:space="preserve" y="463.7139" clip-path="url(#clipPath2)" font-family="sans-serif" stroke="none">Popup Subcomponent Three</text>
    </g>
    <g fill="rgb(204,255,204)" text-rendering="geometricPrecision" shape-rendering="geometricPrecision" transform="matrix(1,0,0,1,253,-10)" stroke="rgb(204,255,204)">
      <rect x="460.5" width="108.5" height="186" y="108" clip-path="url(#clipPath2)" stroke="none"/>
    </g>
    <g text-rendering="geometricPrecision" stroke-miterlimit="1.45" shape-rendering="geometricPrecision" transform="matrix(1,0,0,1,253,-10)" stroke-linecap="butt">
      <rect fill="none" x="460.5" width="108.5" height="186" y="108" clip-path="url(#clipPath2)"/>
      <text x="491.7373" xml:space="preserve" y="191.0127" clip-path="url(#clipPath2)" font-family="sans-serif" stroke="none">Panel UI</text>
      <text x="495.0713" xml:space="preserve" y="205.7139" clip-path="url(#clipPath2)" font-family="sans-serif" stroke="none">Module</text>
      <text x="484.7295" xml:space="preserve" y="220.415" clip-path="url(#clipPath2)" font-family="sans-serif" stroke="none">(pluggable)</text>
    </g>
    <g fill="rgb(204,255,204)" text-rendering="geometricPrecision" shape-rendering="geometricPrecision" transform="matrix(1,0,0,1,253,-10)" stroke="rgb(204,255,204)">
      <rect x="559" width="202" height="48" y="117" clip-path="url(#clipPath2)" stroke="none"/>
    </g>
    <g text-rendering="geometricPrecision" stroke-miterlimit="1.45" shape-rendering="geometricPrecision" transform="matrix(1,0,0,1,253,-10)" stroke-linecap="butt">
      <rect fill="none" x="559" width="202" height="48" y="117" clip-path="url(#clipPath2)"/>
      <text x="589.6172" xml:space="preserve" y="145.7139" clip-path="url(#clipPath2)" font-family="sans-serif" stroke="none">Panel Subcomponent One</text>
    </g>
    <g fill="rgb(204,255,204)" text-rendering="geometricPrecision" shape-rendering="geometricPrecision" transform="matrix(1,0,0,1,253,-10)" stroke="rgb(204,255,204)">
      <rect x="559" width="202" height="48" y="177" clip-path="url(#clipPath2)" stroke="none"/>
    </g>
    <g text-rendering="geometricPrecision" stroke-miterlimit="1.45" shape-rendering="geometricPrecision" transform="matrix(1,0,0,1,253,-10)" stroke-linecap="butt">
      <rect fill="none" x="559" width="202" height="48" y="177" clip-path="url(#clipPath2)"/>
      <text x="589.623" xml:space="preserve" y="205.7139" clip-path="url(#clipPath2)" font-family="sans-serif" stroke="none">Panel Subcomponent Two</text>
    </g>
    <g fill="rgb(204,255,204)" text-rendering="geometricPrecision" shape-rendering="geometricPrecision" transform="matrix(1,0,0,1,253,-10)" stroke="rgb(204,255,204)">
      <rect x="559" width="202" height="48" y="237" clip-path="url(#clipPath2)" stroke="none"/>
    </g>
    <g text-rendering="geometricPrecision" stroke-miterlimit="1.45" shape-rendering="geometricPrecision" transform="matrix(1,0,0,1,253,-10)" stroke-linecap="butt">
      <rect fill="none" x="559" width="202" height="48" y="237" clip-path="url(#clipPath2)"/>
      <text x="585.2842" xml:space="preserve" y="265.7139" clip-path="url(#clipPath2)" font-family="sans-serif" stroke="none">Panel Subcomponent Three</text>
    </g>
    <g fill="rgb(255,153,204)" text-rendering="geometricPrecision" shape-rendering="geometricPrecision" transform="matrix(1,0,0,1,253,-10)" stroke="rgb(255,153,204)">
      <rect x="37" width="220" height="105" y="343" clip-path="url(#clipPath2)" stroke="none"/>
    </g>
    <g text-rendering="geometricPrecision" stroke-miterlimit="1.45" shape-rendering="geometricPrecision" transform="matrix(1,0,0,1,253,-10)" stroke-linecap="butt">
      <rect fill="none" x="37" width="220" height="105" y="343" clip-path="url(#clipPath2)"/>
      <text x="94.6465" xml:space="preserve" y="400.2139" clip-path="url(#clipPath2)" font-family="sans-serif" stroke="none">Some Other Library</text>
    </g>
    <g fill="rgb(204,255,204)" text-rendering="geometricPrecision" shape-rendering="geometricPrecision" transform="matrix(1,0,0,1,253,-10)" stroke="rgb(204,255,204)">
      <rect x="245" width="135" height="70" y="343" clip-path="url(#clipPath2)" stroke="none"/>
    </g>
    <g text-rendering="geometricPrecision" stroke-miterlimit="1.45" shape-rendering="geometricPrecision" transform="matrix(1,0,0,1,253,-10)" stroke-linecap="butt">
      <rect fill="none" x="245" width="135" height="70" y="343" clip-path="url(#clipPath2)"/>
      <text x="280.1533" xml:space="preserve" y="368.0127" clip-path="url(#clipPath2)" font-family="sans-serif" stroke="none">Some Other</text>
      <text x="278.4805" xml:space="preserve" y="382.7139" clip-path="url(#clipPath2)" font-family="sans-serif" stroke="none">Data Module</text>
      <text x="282.4795" xml:space="preserve" y="397.415" clip-path="url(#clipPath2)" font-family="sans-serif" stroke="none">(pluggable)</text>
    </g>
  </g>
</svg>
