<?xml version="1.0" encoding="UTF-8" standalone="no"?><svg xmlns="http://www.w3.org/2000/svg" xmlns:xlink="http://www.w3.org/1999/xlink" contentScriptType="application/ecmascript" contentStyleType="text/css" height="427px" preserveAspectRatio="none" style="width:895px;height:427px;" version="1.1" viewBox="0 0 895 427" width="895px" zoomAndPan="magnify"><defs><filter height="300%" id="fyp0mbzric5mu" width="300%" x="-1" y="-1"><feGaussianBlur result="blurOut" stdDeviation="2.0"/><feColorMatrix in="blurOut" result="blurOut2" type="matrix" values="0 0 0 0 0 0 0 0 0 0 0 0 0 0 0 0 0 0 .4 0"/><feOffset dx="4.0" dy="4.0" in="blurOut2" result="blurOut3"/><feBlend in="SourceGraphic" in2="blurOut3" mode="normal"/></filter></defs><g><!--cluster userstories--><rect fill="#FFFFFF" filter="url(#fyp0mbzric5mu)" height="80" style="stroke: #000000; stroke-width: 1.5;" width="862" x="22" y="133"/><text fill="#000000" font-family="sans-serif" font-size="14" font-weight="bold" lengthAdjust="spacingAndGlyphs" textLength="91" x="407.5" y="147.9951">userstories</text><ellipse cx="709.9203" cy="182.5236" fill="#FEFECE" filter="url(#fyp0mbzric5mu)" rx="24.9203" ry="14.5236" style="stroke: #808080; stroke-width: 1.5;"/><a target="_top" xlink:actuate="onRequest" xlink:href="https://github.com/alpheios-project/documentation/blob/master/design/core-user-stories.csv" xlink:show="new" xlink:title="https://github.com/alpheios-project/documentation/blob/master/design/core-user-stories.csv" xlink:type="simple"><text fill="#0000FF" font-family="sans-serif" font-size="14" lengthAdjust="spacingAndGlyphs" text-decoration="underline" textLength="31" x="694.4203" y="187.1721">core</text><line style="stroke: #0000FF; stroke-width: 1.0;" x1="694.4203" x2="725.4203" y1="189.1721" y2="189.1721"/></a><ellipse cx="624.9203" cy="182.5236" fill="#FEFECE" filter="url(#fyp0mbzric5mu)" rx="24.9203" ry="14.5236" style="stroke: #808080; stroke-width: 1.5;"/><a target="_top" xlink:actuate="onRequest" xlink:href="https://github.com/alpheios-project/documentation/blob/master/design/auth-user-stories.csv" xlink:show="new" xlink:title="https://github.com/alpheios-project/documentation/blob/master/design/auth-user-stories.csv" xlink:type="simple"><text fill="#0000FF" font-family="sans-serif" font-size="14" lengthAdjust="spacingAndGlyphs" text-decoration="underline" textLength="31" x="609.4203" y="187.1721">auth</text><line style="stroke: #0000FF; stroke-width: 1.0;" x1="609.4203" x2="640.4203" y1="189.1721" y2="189.1721"/></a><ellipse cx="321.1985" cy="182.5236" fill="#FEFECE" filter="url(#fyp0mbzric5mu)" rx="32.6985" ry="14.5236" style="stroke: #808080; stroke-width: 1.5;"/><a target="_top" xlink:actuate="onRequest" xlink:href="https://github.com/alpheios-project/documentation/blob/master/design/config-user-stories.csv" xlink:show="new" xlink:title="https://github.com/alpheios-project/documentation/blob/master/design/config-user-stories.csv" xlink:type="simple"><text fill="#0000FF" font-family="sans-serif" font-size="14" lengthAdjust="spacingAndGlyphs" text-decoration="underline" textLength="42" x="300.1985" y="187.1721">config</text><line style="stroke: #0000FF; stroke-width: 1.0;" x1="300.1985" x2="342.1985" y1="189.1721" y2="189.1721"/></a><ellipse cx="95.9472" cy="182.5236" fill="#FEFECE" filter="url(#fyp0mbzric5mu)" rx="57.4472" ry="14.5236" style="stroke: #808080; stroke-width: 1.5;"/><a target="_top" xlink:actuate="onRequest" xlink:href="https://github.com/alpheios-project/documentation/blob/master/design/browserextension-user-stories.csv" xlink:show="new" xlink:title="https://github.com/alpheios-project/documentation/blob/master/design/browserextension-user-stories.csv" xlink:type="simple"><text fill="#0000FF" font-family="sans-serif" font-size="14" lengthAdjust="spacingAndGlyphs" text-decoration="underline" textLength="77" x="57.4472" y="187.1721">browserext</text><line style="stroke: #0000FF; stroke-width: 1.0;" x1="57.4472" x2="134.4472" y1="189.1721" y2="189.1721"/></a><ellipse cx="220.9914" cy="182.5236" fill="#FEFECE" filter="url(#fyp0mbzric5mu)" rx="31.9914" ry="14.5236" style="stroke: #808080; stroke-width: 1.5;"/><a target="_top" xlink:actuate="onRequest" xlink:href="https://github.com/alpheios-project/documentation/blob/master/design/offline-user-stories.csv" xlink:show="new" xlink:title="https://github.com/alpheios-project/documentation/blob/master/design/offline-user-stories.csv" xlink:type="simple"><text fill="#0000FF" font-family="sans-serif" font-size="14" lengthAdjust="spacingAndGlyphs" text-decoration="underline" textLength="41" x="200.4914" y="187.1721">offline</text><line style="stroke: #0000FF; stroke-width: 1.0;" x1="200.4914" x2="241.4914" y1="189.1721" y2="189.1721"/></a><ellipse cx="424.0269" cy="182.5236" fill="#FEFECE" filter="url(#fyp0mbzric5mu)" rx="35.5269" ry="14.5236" style="stroke: #808080; stroke-width: 1.5;"/><a target="_top" xlink:actuate="onRequest" xlink:href="https://github.com/alpheios-project/documentation/blob/master/design/mobile-user-stories.csv" xlink:show="new" xlink:title="https://github.com/alpheios-project/documentation/blob/master/design/mobile-user-stories.csv" xlink:type="simple"><text fill="#0000FF" font-family="sans-serif" font-size="14" lengthAdjust="spacingAndGlyphs" text-decoration="underline" textLength="46" x="401.0269" y="187.1721">mobile</text><line style="stroke: #0000FF; stroke-width: 1.0;" x1="401.0269" x2="447.0269" y1="189.1721" y2="189.1721"/></a><ellipse cx="818.7548" cy="182.5236" fill="#FEFECE" filter="url(#fyp0mbzric5mu)" rx="48.2548" ry="14.5236" style="stroke: #808080; stroke-width: 1.5;"/><a target="_top" xlink:actuate="onRequest" xlink:href="https://github.com/alpheios-project/documentation/blob/master/design/embedlib-user-stories.csv" xlink:show="new" xlink:title="https://github.com/alpheios-project/documentation/blob/master/design/embedlib-user-stories.csv" xlink:type="simple"><text fill="#0000FF" font-family="sans-serif" font-size="14" lengthAdjust="spacingAndGlyphs" text-decoration="underline" textLength="64" x="786.7548" y="187.1721">embedlib</text><line style="stroke: #0000FF; stroke-width: 1.0;" x1="786.7548" x2="850.7548" y1="189.1721" y2="189.1721"/></a><ellipse cx="529.8198" cy="182.5236" fill="#FEFECE" filter="url(#fyp0mbzric5mu)" rx="34.8198" ry="14.5236" style="stroke: #808080; stroke-width: 1.5;"/><a target="_top" xlink:actuate="onRequest" xlink:href="https://github.com/alpheios-project/documentation/blob/master/design/reader-user-stories.csv" xlink:show="new" xlink:title="https://github.com/alpheios-project/documentation/blob/master/design/reader-user-stories.csv" xlink:type="simple"><text fill="#0000FF" font-family="sans-serif" font-size="14" lengthAdjust="spacingAndGlyphs" text-decoration="underline" textLength="45" x="507.3198" y="187.1721">reader</text><line style="stroke: #0000FF; stroke-width: 1.0;" x1="507.3198" x2="552.3198" y1="189.1721" y2="189.1721"/></a><!--entity user1--><ellipse cx="321" cy="34.2969" fill="#FEFECE" filter="url(#fyp0mbzric5mu)" rx="8" ry="8" style="stroke: #000000; stroke-width: 2.0;"/><path d="M321,42.2969 L321,69.2969 M308,50.2969 L334,50.2969 M321,69.2969 L308,84.2969 M321,69.2969 L334,84.2969 " fill="none" filter="url(#fyp0mbzric5mu)" style="stroke: #000000; stroke-width: 2.0;"/><text fill="#000000" font-family="sans-serif" font-size="14" lengthAdjust="spacingAndGlyphs" textLength="40" x="301" y="104.292">user1</text><text fill="#000000" font-family="sans-serif" font-size="14" font-style="italic" lengthAdjust="spacingAndGlyphs" textLength="141" x="250.5" y="20.9951">«browserExtension»</text><!--entity user2--><ellipse cx="561" cy="34.2969" fill="#FEFECE" filter="url(#fyp0mbzric5mu)" rx="8" ry="8" style="stroke: #0000FF; stroke-width: 2.0;"/><path d="M561,42.2969 L561,69.2969 M548,50.2969 L574,50.2969 M561,69.2969 L548,84.2969 M561,69.2969 L574,84.2969 " fill="none" filter="url(#fyp0mbzric5mu)" style="stroke: #0000FF; stroke-width: 2.0;"/><text fill="#000000" font-family="sans-serif" font-size="14" lengthAdjust="spacingAndGlyphs" textLength="40" x="541" y="104.292">user2</text><text fill="#000000" font-family="sans-serif" font-size="14" font-style="italic" lengthAdjust="spacingAndGlyphs" textLength="140" x="491" y="20.9951">«embeddedLibrary»</text><!--entity user3--><ellipse cx="477" cy="344.2969" fill="#FEFECE" filter="url(#fyp0mbzric5mu)" rx="8" ry="8" style="stroke: #FF0000; stroke-width: 2.0;"/><path d="M477,352.2969 L477,379.2969 M464,360.2969 L490,360.2969 M477,379.2969 L464,394.2969 M477,379.2969 L490,394.2969 " fill="none" filter="url(#fyp0mbzric5mu)" style="stroke: #FF0000; stroke-width: 2.0;"/><text fill="#000000" font-family="sans-serif" font-size="14" lengthAdjust="spacingAndGlyphs" textLength="40" x="457" y="414.292">user3</text><text fill="#000000" font-family="sans-serif" font-size="14" font-style="italic" lengthAdjust="spacingAndGlyphs" textLength="91" x="431.5" y="330.9951">«readerApp»</text><!--link user1 to [[https://github.com/alpheios-project/documentation/blob/master/design/core-user-stories.csv core]]--><path d="M391.646,85.421 C416.976,93.916 445.959,102.535 473,108 C515.636,116.616 630.022,103.794 668,125 C683.397,133.597 694.779,150.451 701.782,163.523 " fill="none" id="user1-[[https://github.com/alpheios-project/documentation/blob/master/design/core-user-stories.csv core]]" style="stroke: #000000; stroke-width: 1.0;"/><polygon fill="#000000" points="704.163,168.146,703.5964,158.3135,701.8728,163.7013,696.4849,161.9778,704.163,168.146" style="stroke: #000000; stroke-width: 1.0;"/><!--link user1 to [[https://github.com/alpheios-project/documentation/blob/master/design/auth-user-stories.csv auth]]--><path d="M391.866,84.418 C417.216,92.823 446.155,101.641 473,108 C521.137,119.403 540.632,99.462 583,125 C598.103,134.103 609.523,150.892 616.614,163.812 " fill="none" id="user1-[[https://github.com/alpheios-project/documentation/blob/master/design/auth-user-stories.csv auth]]" style="stroke: #000000; stroke-width: 1.0;"/><polygon fill="#000000" points="619.03,168.376,618.3553,158.5503,616.6911,163.9568,611.2846,162.2925,619.03,168.376" style="stroke: #000000; stroke-width: 1.0;"/><!--link user1 to [[https://github.com/alpheios-project/documentation/blob/master/design/config-user-stories.csv config]]--><path d="M321,108.12 C321,127.327 321,148.193 321,162.746 " fill="none" id="user1-[[https://github.com/alpheios-project/documentation/blob/master/design/config-user-stories.csv config]]" style="stroke: #000000; stroke-width: 1.0;"/><polygon fill="#000000" points="321,167.808,325,158.808,321,162.808,317,158.808,321,167.808" style="stroke: #000000; stroke-width: 1.0;"/><!--link user1 to [[https://github.com/alpheios-project/documentation/blob/master/design/browserextension-user-stories.csv browserext]]--><path d="M250.266,86.148 C224.653,97.002 195.915,110.4 171,125 C150.816,136.828 129.693,153.15 115.026,165.211 " fill="none" id="user1-[[https://github.com/alpheios-project/documentation/blob/master/design/browserextension-user-stories.csv browserext]]" style="stroke: #000000; stroke-width: 1.0;"/><polygon fill="#000000" points="111.067,168.492,120.5493,165.8299,114.9171,165.3019,115.4451,159.6698,111.067,168.492" style="stroke: #000000; stroke-width: 1.0;"/><!--link user1 to [[https://github.com/alpheios-project/documentation/blob/master/design/offline-user-stories.csv offline]]--><path d="M280.902,108.12 C264.512,128.198 246.643,150.088 234.726,164.686 " fill="none" id="user1-[[https://github.com/alpheios-project/documentation/blob/master/design/offline-user-stories.csv offline]]" style="stroke: #000000; stroke-width: 1.0;"/><polygon fill="#000000" points="231.529,168.602,240.3182,164.1578,234.6901,164.7281,234.1199,159.1,231.529,168.602" style="stroke: #000000; stroke-width: 1.0;"/><!--link user2 to [[https://github.com/alpheios-project/documentation/blob/master/design/core-user-stories.csv core]]--><path d="M631.103,96.907 C644.011,105.335 656.9,114.822 668,125 C680.406,136.376 691.619,151.864 699.332,163.747 " fill="none" id="user2-[[https://github.com/alpheios-project/documentation/blob/master/design/core-user-stories.csv core]]" style="stroke: #0000FF; stroke-width: 1.0;"/><polygon fill="#0000FF" points="702.214,168.271,700.7525,158.5312,699.5278,164.0539,694.0051,162.8291,702.214,168.271" style="stroke: #0000FF; stroke-width: 1.0;"/><!--link user2 to [[https://github.com/alpheios-project/documentation/blob/master/design/auth-user-stories.csv auth]]--><path d="M586.662,108.12 C596.911,127.735 608.062,149.079 615.682,163.665 " fill="none" id="user2-[[https://github.com/alpheios-project/documentation/blob/master/design/auth-user-stories.csv auth]]" style="stroke: #0000FF; stroke-width: 1.0;"/><polygon fill="#0000FF" points="618.124,168.339,617.5009,158.5099,615.8083,163.9076,610.4106,162.215,618.124,168.339" style="stroke: #0000FF; stroke-width: 1.0;"/><!--link user2 to [[https://github.com/alpheios-project/documentation/blob/master/design/mobile-user-stories.csv mobile]]--><path d="M496.416,108.109 C489.74,113.667 483.154,119.362 477,125 C463.279,137.57 448.908,153.057 438.598,164.635 " fill="none" id="user2-[[https://github.com/alpheios-project/documentation/blob/master/design/mobile-user-stories.csv mobile]]" style="stroke: #0000FF; stroke-width: 1.0;"/><polygon fill="#0000FF" points="435.263,168.402,444.2234,164.3141,438.577,164.658,438.233,159.0116,435.263,168.402" style="stroke: #0000FF; stroke-width: 1.0;"/><!--link user2 to [[https://github.com/alpheios-project/documentation/blob/master/design/config-user-stories.csv config]]--><path d="M490.746,81.49 C441.074,97.716 381.516,117.954 371,125 C355.688,135.26 342.102,151.312 332.971,163.689 " fill="none" id="user2-[[https://github.com/alpheios-project/documentation/blob/master/design/config-user-stories.csv config]]" style="stroke: #0000FF; stroke-width: 1.0;"/><polygon fill="#0000FF" points="329.813,168.064,338.3232,163.1066,332.7389,164.0095,331.836,158.4251,329.813,168.064" style="stroke: #0000FF; stroke-width: 1.0;"/><!--link user2 to [[https://github.com/alpheios-project/documentation/blob/master/design/embedlib-user-stories.csv embedlib]]--><path d="M631.238,76.238 C668.828,87.137 715.06,103.3 753,125 C771.748,135.723 790.171,152.126 802.768,164.501 " fill="none" id="user2-[[https://github.com/alpheios-project/documentation/blob/master/design/embedlib-user-stories.csv embedlib]]" style="stroke: #0000FF; stroke-width: 1.0;"/><polygon fill="#0000FF" points="806.484,168.202,802.9299,159.0168,802.9413,164.6736,797.2845,164.685,806.484,168.202" style="stroke: #0000FF; stroke-width: 1.0;"/><!--link user2 to [[https://github.com/alpheios-project/documentation/blob/master/design/offline-user-stories.csv offline]]--><path d="M490.622,84.754 C465.191,93.241 436.075,102.025 409,108 C348.655,121.318 325.686,96.219 271,125 C254.129,133.879 240.28,150.925 231.47,163.981 " fill="none" id="user2-[[https://github.com/alpheios-project/documentation/blob/master/design/offline-user-stories.csv offline]]" style="stroke: #0000FF; stroke-width: 1.0;"/><polygon fill="#0000FF" points="228.678,168.238,236.9586,162.9058,231.4201,164.057,230.269,158.5185,228.678,168.238" style="stroke: #0000FF; stroke-width: 1.0;"/><!--link [[https://github.com/alpheios-project/documentation/blob/master/design/core-user-stories.csv core]] to user3--><path d="M693.308,198.932 C685.705,205.822 676.519,213.959 668,221 C619.423,261.154 561.7,304.734 522.521,333.729 " fill="none" id="[[https://github.com/alpheios-project/documentation/blob/master/design/core-user-stories.csv core]]-user3" style="stroke: #FF0000; stroke-width: 1.0;"/><polygon fill="#FF0000" points="697.354,195.247,688.0066,198.3497,693.6573,198.6137,693.3934,204.2644,697.354,195.247" style="stroke: #FF0000; stroke-width: 1.0;"/><!--link [[https://github.com/alpheios-project/documentation/blob/master/design/auth-user-stories.csv auth]] to user3--><path d="M611.856,199.797 C590.731,225.989 548.391,278.484 516.759,317.704 " fill="none" id="[[https://github.com/alpheios-project/documentation/blob/master/design/auth-user-stories.csv auth]]-user3" style="stroke: #FF0000; stroke-width: 1.0;"/><polygon fill="#FF0000" points="615.059,195.825,606.2962,200.3208,611.9207,199.7175,612.5241,205.3421,615.059,195.825" style="stroke: #FF0000; stroke-width: 1.0;"/><!--link [[https://github.com/alpheios-project/documentation/blob/master/design/reader-user-stories.csv reader]] to user3--><path d="M524.647,202.035 C516.892,228.883 502.258,279.55 491.245,317.679 " fill="none" id="[[https://github.com/alpheios-project/documentation/blob/master/design/reader-user-stories.csv reader]]-user3" style="stroke: #FF0000; stroke-width: 1.0;"/><polygon fill="#FF0000" points="526.103,196.993,519.7634,204.5302,524.716,201.7968,527.4494,206.7494,526.103,196.993" style="stroke: #FF0000; stroke-width: 1.0;"/><!--link [[https://github.com/alpheios-project/documentation/blob/master/design/mobile-user-stories.csv mobile]] to user3--><path d="M429.353,202.035 C437.108,228.883 451.742,279.55 462.755,317.679 " fill="none" id="[[https://github.com/alpheios-project/documentation/blob/master/design/mobile-user-stories.csv mobile]]-user3" style="stroke: #FF0000; stroke-width: 1.0;"/><polygon fill="#FF0000" points="427.897,196.993,426.5506,206.7494,429.284,201.7968,434.2366,204.5302,427.897,196.993" style="stroke: #FF0000; stroke-width: 1.0;"/><!--link [[https://github.com/alpheios-project/documentation/blob/master/design/config-user-stories.csv config]] to user3--><path d="M335.378,200.413 C357.813,226.802 401.999,278.777 435.079,317.69 " fill="none" id="[[https://github.com/alpheios-project/documentation/blob/master/design/config-user-stories.csv config]]-user3" style="stroke: #FF0000; stroke-width: 1.0;"/><polygon fill="#FF0000" points="331.97,196.403,334.7512,205.851,335.2083,200.2127,340.8466,200.6698,331.97,196.403" style="stroke: #FF0000; stroke-width: 1.0;"/><!--link user3 to [[https://github.com/alpheios-project/documentation/blob/master/design/offline-user-stories.csv offline]]--><path d="M431.337,335.1638 C389.425,305.819 325.723,260.902 271,221 C261.054,213.748 250.105,205.56 240.995,198.689 " fill="none" id="user3-[[https://github.com/alpheios-project/documentation/blob/master/design/offline-user-stories.csv offline]]" style="stroke: #FF0000; stroke-width: 1.0;"/><polygon fill="#FF0000" points="236.683,195.432,241.455,204.0476,240.6732,198.445,246.2758,197.6633,236.683,195.432" style="stroke: #FF0000; stroke-width: 1.0;"/><!--
@startuml
skinparam packageStyle rectangle
skinparam usecase {
  ArrowColor<< browserExtension >> black
  ArrowColor<< embeddedLibrary >> blue
  ArrowColor<< readerApp >> red
  BorderColor gray

}
skinparam actor {
  BorderColor<< browserExtension >> black
  BorderColor<< embeddedLibrary >> blue
  BorderColor<< readerApp >> red

}
	
actor user1 <<browserExtension>>
rectangle userstories {
  user1 - -> ([[https://github.com/alpheios-project/documentation/blob/master/design/core-user-stories.csv core]]) <<browserExtension>>
  user1 - -> ([[https://github.com/alpheios-project/documentation/blob/master/design/auth-user-stories.csv auth]]) <<browserExtension>>
  user1 - -> ([[https://github.com/alpheios-project/documentation/blob/master/design/config-user-stories.csv config]]) <<browserExtension>>
  user1 - -> ([[https://github.com/alpheios-project/documentation/blob/master/design/browserextension-user-stories.csv browserext]]) <<browserExtension>>
  user1 - -> ([[https://github.com/alpheios-project/documentation/blob/master/design/offline-user-stories.csv offline]]) <<browserExtension>>
  
}
actor user2 <<embeddedLibrary>>
rectangle userstories {
  user2 - -> ([[https://github.com/alpheios-project/documentation/blob/master/design/core-user-stories.csv core]]) <<embeddedLibrary>>
  user2 - -> ([[https://github.com/alpheios-project/documentation/blob/master/design/auth-user-stories.csv auth]]) <<embeddedLibrary>>
  user2 - -> ([[https://github.com/alpheios-project/documentation/blob/master/design/mobile-user-stories.csv mobile]]) <<embeddedLibrary>>
  user2 - -> ([[https://github.com/alpheios-project/documentation/blob/master/design/config-user-stories.csv config]]) <<embeddedLibrary>>
  user2 - -> ([[https://github.com/alpheios-project/documentation/blob/master/design/embedlib-user-stories.csv embedlib]]) <<embeddedLibrary>>
  user2 - -> ([[https://github.com/alpheios-project/documentation/blob/master/design/offline-user-stories.csv offline]]) <<embeddedLibrary>>
  
}
actor user3 <<readerApp>>
rectangle userstories {
  user3 -up- -> ([[https://github.com/alpheios-project/documentation/blob/master/design/core-user-stories.csv core]]) <<readerApp>>
  user3 -up- -> ([[https://github.com/alpheios-project/documentation/blob/master/design/auth-user-stories.csv auth]]) <<readerApp>>
  user3 -up- -> ([[https://github.com/alpheios-project/documentation/blob/master/design/reader-user-stories.csv reader]]) <<readerApp>>
  user3 -up- -> ([[https://github.com/alpheios-project/documentation/blob/master/design/mobile-user-stories.csv mobile]]) <<readerApp>>
  user3 -up- -> ([[https://github.com/alpheios-project/documentation/blob/master/design/config-user-stories.csv config]]) <<readerApp>>
  user3 - -> ([[https://github.com/alpheios-project/documentation/blob/master/design/offline-user-stories.csv offline]]) <<readerApp>>
  
}
@enduml

PlantUML version 1.2018.13(Mon Nov 26 17:11:51 UTC 2018)
(GPL source distribution)
Java Runtime: Java(TM) SE Runtime Environment
JVM: Java HotSpot(TM) 64-Bit Server VM
Java Version: 1.7.0_25-b15
Operating System: Linux
Default Encoding: UTF-8
Language: en
Country: US
--></g></svg>