<?xml version="1.0" encoding="UTF-8" standalone="no"?><svg xmlns="http://www.w3.org/2000/svg" xmlns:xlink="http://www.w3.org/1999/xlink" contentScriptType="application/ecmascript" contentStyleType="text/css" height="1738.4px" preserveAspectRatio="none" style="width:837px;height:1738px;" version="1.1" viewBox="0 0 837 1738" width="837.6px" zoomAndPan="magnify"><defs><filter height="300%" id="fhpigxoi63u3t" width="300%" x="-1" y="-1"><feGaussianBlur result="blurOut" stdDeviation="1.6"/><feColorMatrix in="blurOut" result="blurOut2" type="matrix" values="0 0 0 0 0 0 0 0 0 0 0 0 0 0 0 0 0 0 .4 0"/><feOffset dx="3.2" dy="3.2" in="blurOut2" result="blurOut3"/><feBlend in="SourceGraphic" in2="blurOut3" mode="normal"/></filter></defs><g><text fill="#000000" font-family="sans-serif" font-size="11.2" font-weight="bold" lengthAdjust="spacingAndGlyphs" textLength="237.6" x="300" y="19.6266">A FAST TRACK DEVELOPMENT WORKFLOW</text><text fill="#000000" font-family="sans-serif" font-size="11.2" font-weight="bold" lengthAdjust="spacingAndGlyphs" textLength="217.6" x="311.6" y="33.7141">green notes indicate a version change</text><text fill="#000000" font-family="sans-serif" font-size="11.2" font-weight="bold" lengthAdjust="spacingAndGlyphs" textLength="125.6" x="356" y="47.8016">gray notes are git tags</text><text fill="#000000" font-family="sans-serif" font-size="11.2" font-weight="bold" lengthAdjust="spacingAndGlyphs" textLength="150.4" x="345.2" y="61.8891">yellow boxes are branches</text><line style="stroke: #A80036; stroke-width: 0.8; stroke-dasharray: 5.0,5.0;" x1="47.2" x2="47.2" y1="113.325" y2="1691.6688"/><line style="stroke: #A80036; stroke-width: 0.8; stroke-dasharray: 5.0,5.0;" x1="222.8" x2="222.8" y1="113.325" y2="1691.6688"/><line style="stroke: #A80036; stroke-width: 0.8; stroke-dasharray: 5.0,5.0;" x1="334.8" x2="334.8" y1="113.325" y2="1691.6688"/><line style="stroke: #A80036; stroke-width: 0.8; stroke-dasharray: 5.0,5.0;" x1="460.4" x2="460.4" y1="113.325" y2="1691.6688"/><line style="stroke: #A80036; stroke-width: 0.8; stroke-dasharray: 5.0,5.0;" x1="572.4" x2="572.4" y1="113.325" y2="1691.6688"/><line style="stroke: #A80036; stroke-width: 0.8; stroke-dasharray: 5.0,5.0;" x1="676" x2="676" y1="113.325" y2="1691.6688"/><line style="stroke: #A80036; stroke-width: 0.8; stroke-dasharray: 5.0,5.0;" x1="781.6" x2="781.6" y1="113.325" y2="1691.6688"/><rect fill="#FEFECE" filter="url(#fhpigxoi63u3t)" height="39.375" style="stroke: #A80036; stroke-width: 1.2000000000000002;" width="79.2" x="6.4" y="69.95"/><text fill="#000000" font-family="sans-serif" font-size="11.2" lengthAdjust="spacingAndGlyphs" textLength="34.4" x="28.8" y="87.1766">master</text><text fill="#000000" font-family="sans-serif" font-size="11.2" lengthAdjust="spacingAndGlyphs" textLength="64.8" x="15.2" y="101.2641">development</text><rect fill="#FEFECE" filter="url(#fhpigxoi63u3t)" height="39.375" style="stroke: #A80036; stroke-width: 1.2000000000000002;" width="79.2" x="6.4" y="1690.8688"/><text fill="#000000" font-family="sans-serif" font-size="11.2" lengthAdjust="spacingAndGlyphs" textLength="34.4" x="28.8" y="1708.0953">master</text><text fill="#000000" font-family="sans-serif" font-size="11.2" lengthAdjust="spacingAndGlyphs" textLength="64.8" x="15.2" y="1722.1828">development</text><rect fill="#FEFECE" filter="url(#fhpigxoi63u3t)" height="39.375" style="stroke: #A80036; stroke-width: 1.2000000000000002;" width="89.6" x="176.4" y="69.95"/><text fill="#000000" font-family="sans-serif" font-size="11.2" lengthAdjust="spacingAndGlyphs" textLength="46.4" x="198" y="87.1766">feature-a</text><text fill="#000000" font-family="sans-serif" font-size="11.2" lengthAdjust="spacingAndGlyphs" textLength="75.2" x="185.2" y="101.2641">(minor feature)</text><rect fill="#FEFECE" filter="url(#fhpigxoi63u3t)" height="39.375" style="stroke: #A80036; stroke-width: 1.2000000000000002;" width="89.6" x="176.4" y="1690.8688"/><text fill="#000000" font-family="sans-serif" font-size="11.2" lengthAdjust="spacingAndGlyphs" textLength="46.4" x="198" y="1708.0953">feature-a</text><text fill="#000000" font-family="sans-serif" font-size="11.2" lengthAdjust="spacingAndGlyphs" textLength="75.2" x="185.2" y="1722.1828">(minor feature)</text><rect fill="#FEFECE" filter="url(#fhpigxoi63u3t)" height="39.375" style="stroke: #A80036; stroke-width: 1.2000000000000002;" width="89.6" x="288.4" y="69.95"/><text fill="#000000" font-family="sans-serif" font-size="11.2" lengthAdjust="spacingAndGlyphs" textLength="46.4" x="310" y="87.1766">feature-b</text><text fill="#000000" font-family="sans-serif" font-size="11.2" lengthAdjust="spacingAndGlyphs" textLength="75.2" x="297.2" y="101.2641">(patch feature)</text><rect fill="#FEFECE" filter="url(#fhpigxoi63u3t)" height="39.375" style="stroke: #A80036; stroke-width: 1.2000000000000002;" width="89.6" x="288.4" y="1690.8688"/><text fill="#000000" font-family="sans-serif" font-size="11.2" lengthAdjust="spacingAndGlyphs" textLength="46.4" x="310" y="1708.0953">feature-b</text><text fill="#000000" font-family="sans-serif" font-size="11.2" lengthAdjust="spacingAndGlyphs" textLength="75.2" x="297.2" y="1722.1828">(patch feature)</text><rect fill="#FEFECE" filter="url(#fhpigxoi63u3t)" height="39.375" style="stroke: #A80036; stroke-width: 1.2000000000000002;" width="139.2" x="389.2" y="69.95"/><text fill="#000000" font-family="sans-serif" font-size="11.2" lengthAdjust="spacingAndGlyphs" textLength="45.6" x="436" y="87.1766">feature-c</text><text fill="#000000" font-family="sans-serif" font-size="11.2" lengthAdjust="spacingAndGlyphs" textLength="124.8" x="398" y="101.2641">(major fast track feature)</text><rect fill="#FEFECE" filter="url(#fhpigxoi63u3t)" height="39.375" style="stroke: #A80036; stroke-width: 1.2000000000000002;" width="139.2" x="389.2" y="1690.8688"/><text fill="#000000" font-family="sans-serif" font-size="11.2" lengthAdjust="spacingAndGlyphs" textLength="45.6" x="436" y="1708.0953">feature-c</text><text fill="#000000" font-family="sans-serif" font-size="11.2" lengthAdjust="spacingAndGlyphs" textLength="124.8" x="398" y="1722.1828">(major fast track feature)</text><rect fill="#FEFECE" filter="url(#fhpigxoi63u3t)" height="39.375" style="stroke: #A80036; stroke-width: 1.2000000000000002;" width="24" x="558.8" y="69.95"/><text fill="#000000" font-family="sans-serif" font-size="11.2" lengthAdjust="spacingAndGlyphs" textLength="12.8" x="564.4" y="87.1766">qa</text><text fill="#000000" font-family="sans-serif" font-size="11.2" lengthAdjust="spacingAndGlyphs" textLength="0" x="572.4" y="101.2641"/><rect fill="#FEFECE" filter="url(#fhpigxoi63u3t)" height="39.375" style="stroke: #A80036; stroke-width: 1.2000000000000002;" width="24" x="558.8" y="1690.8688"/><text fill="#000000" font-family="sans-serif" font-size="11.2" lengthAdjust="spacingAndGlyphs" textLength="12.8" x="564.4" y="1708.0953">qa</text><text fill="#000000" font-family="sans-serif" font-size="11.2" lengthAdjust="spacingAndGlyphs" textLength="0" x="572.4" y="1722.1828"/><rect fill="#FEFECE" filter="url(#fhpigxoi63u3t)" height="39.375" style="stroke: #A80036; stroke-width: 1.2000000000000002;" width="88.8" x="630.4" y="69.95"/><text fill="#000000" font-family="sans-serif" font-size="11.2" lengthAdjust="spacingAndGlyphs" textLength="19.2" x="665.2" y="87.1766">ftqa</text><text fill="#000000" font-family="sans-serif" font-size="11.2" lengthAdjust="spacingAndGlyphs" textLength="74.4" x="639.2" y="101.2641">(fast-track QA)</text><rect fill="#FEFECE" filter="url(#fhpigxoi63u3t)" height="39.375" style="stroke: #A80036; stroke-width: 1.2000000000000002;" width="88.8" x="630.4" y="1690.8688"/><text fill="#000000" font-family="sans-serif" font-size="11.2" lengthAdjust="spacingAndGlyphs" textLength="19.2" x="665.2" y="1708.0953">ftqa</text><text fill="#000000" font-family="sans-serif" font-size="11.2" lengthAdjust="spacingAndGlyphs" textLength="74.4" x="639.2" y="1722.1828">(fast-track QA)</text><rect fill="#FEFECE" filter="url(#fhpigxoi63u3t)" height="39.375" style="stroke: #A80036; stroke-width: 1.2000000000000002;" width="64.8" x="748" y="69.95"/><text fill="#000000" font-family="sans-serif" font-size="11.2" lengthAdjust="spacingAndGlyphs" textLength="53.6" x="753.6" y="87.1766">production</text><text fill="#000000" font-family="sans-serif" font-size="11.2" lengthAdjust="spacingAndGlyphs" textLength="0" x="782" y="101.2641"/><rect fill="#FEFECE" filter="url(#fhpigxoi63u3t)" height="39.375" style="stroke: #A80036; stroke-width: 1.2000000000000002;" width="64.8" x="748" y="1690.8688"/><text fill="#000000" font-family="sans-serif" font-size="11.2" lengthAdjust="spacingAndGlyphs" textLength="53.6" x="753.6" y="1708.0953">production</text><text fill="#000000" font-family="sans-serif" font-size="11.2" lengthAdjust="spacingAndGlyphs" textLength="0" x="782" y="1722.1828"/><path d="M24,125.325 L24,146.125 L68,146.125 L68,133.325 L60,125.325 L24,125.325 " fill="#FFAAAA" filter="url(#fhpigxoi63u3t)" style="stroke: #A80036; stroke-width: 0.8;"/><path d="M60,125.325 L60,133.325 L68,133.325 L60,125.325 " fill="#FFAAAA" style="stroke: #A80036; stroke-width: 0.8;"/><text fill="#000000" font-family="sans-serif" font-size="10.4" lengthAdjust="spacingAndGlyphs" textLength="27.2" x="28.8" y="140.1211">v1.2.3</text><polygon fill="#A80036" points="213.2,168.2875,221.2,171.4875,213.2,174.6875,216.4,171.4875" style="stroke: #A80036; stroke-width: 0.8;"/><line style="stroke: #A80036; stroke-width: 0.8;" x1="47.6" x2="218" y1="171.4875" y2="171.4875"/><text fill="#000000" font-family="sans-serif" font-size="10.4" lengthAdjust="spacingAndGlyphs" textLength="148" x="53.2" y="167.6023">Start a development of feature A</text><path d="M199.2,181.8875 L199.2,202.6875 L243.2,202.6875 L243.2,189.8875 L235.2,181.8875 L199.2,181.8875 " fill="#FFAAAA" filter="url(#fhpigxoi63u3t)" style="stroke: #A80036; stroke-width: 0.8;"/><path d="M235.2,181.8875 L235.2,189.8875 L243.2,189.8875 L235.2,181.8875 " fill="#FFAAAA" style="stroke: #A80036; stroke-width: 0.8;"/><text fill="#000000" font-family="sans-serif" font-size="10.4" lengthAdjust="spacingAndGlyphs" textLength="27.2" x="204" y="196.6836">v1.2.3</text><line style="stroke: #A80036; stroke-width: 0.8;" x1="222.8" x2="256.4" y1="228.05" y2="228.05"/><line style="stroke: #A80036; stroke-width: 0.8;" x1="256.4" x2="256.4" y1="228.05" y2="238.45"/><line style="stroke: #A80036; stroke-width: 0.8;" x1="223.6" x2="256.4" y1="238.45" y2="238.45"/><polygon fill="#A80036" points="231.6,235.25,223.6,238.45,231.6,241.65,228.4,238.45" style="stroke: #A80036; stroke-width: 0.8;"/><text fill="#000000" font-family="sans-serif" font-size="10.4" lengthAdjust="spacingAndGlyphs" textLength="100.8" x="228.4" y="224.1648">Develop a new feature</text><polygon fill="#A80036" points="325.2,259.5313,333.2,262.7313,325.2,265.9313,328.4,262.7313" style="stroke: #A80036; stroke-width: 0.8;"/><line style="stroke: #A80036; stroke-width: 0.8;" x1="47.6" x2="330" y1="262.7313" y2="262.7313"/><text fill="#000000" font-family="sans-serif" font-size="10.4" lengthAdjust="spacingAndGlyphs" textLength="148" x="53.2" y="258.8461">Start a development of feature B</text><path d="M311.2,273.1313 L311.2,293.9313 L355.2,293.9313 L355.2,281.1313 L347.2,273.1313 L311.2,273.1313 " fill="#FFAAAA" filter="url(#fhpigxoi63u3t)" style="stroke: #A80036; stroke-width: 0.8;"/><path d="M347.2,273.1313 L347.2,281.1313 L355.2,281.1313 L347.2,273.1313 " fill="#FFAAAA" style="stroke: #A80036; stroke-width: 0.8;"/><text fill="#000000" font-family="sans-serif" font-size="10.4" lengthAdjust="spacingAndGlyphs" textLength="27.2" x="316" y="287.9273">v1.2.3</text><line style="stroke: #A80036; stroke-width: 0.8; stroke-dasharray: 2.0,2.0;" x1="222.8" x2="256.4" y1="319.2938" y2="319.2938"/><line style="stroke: #A80036; stroke-width: 0.8; stroke-dasharray: 2.0,2.0;" x1="256.4" x2="256.4" y1="319.2938" y2="329.6938"/><line style="stroke: #A80036; stroke-width: 0.8; stroke-dasharray: 2.0,2.0;" x1="223.6" x2="256.4" y1="329.6938" y2="329.6938"/><polygon fill="#A80036" points="231.6,326.4938,223.6,329.6938,231.6,332.8938,228.4,329.6938" style="stroke: #A80036; stroke-width: 0.8;"/><text fill="#000000" font-family="sans-serif" font-size="10.4" lengthAdjust="spacingAndGlyphs" textLength="37.6" x="228.4" y="315.4086">Dev test</text><line style="stroke: #A80036; stroke-width: 0.8;" x1="334.8" x2="368.4" y1="353.975" y2="353.975"/><line style="stroke: #A80036; stroke-width: 0.8;" x1="368.4" x2="368.4" y1="353.975" y2="364.375"/><line style="stroke: #A80036; stroke-width: 0.8;" x1="335.6" x2="368.4" y1="364.375" y2="364.375"/><polygon fill="#A80036" points="343.6,361.175,335.6,364.375,343.6,367.575,340.4,364.375" style="stroke: #A80036; stroke-width: 0.8;"/><text fill="#000000" font-family="sans-serif" font-size="10.4" lengthAdjust="spacingAndGlyphs" textLength="100.8" x="340.4" y="350.0898">Develop a new feature</text><line style="stroke: #A80036; stroke-width: 0.8;" x1="222.8" x2="256.4" y1="388.6563" y2="388.6563"/><line style="stroke: #A80036; stroke-width: 0.8;" x1="256.4" x2="256.4" y1="388.6563" y2="399.0563"/><line style="stroke: #A80036; stroke-width: 0.8;" x1="223.6" x2="256.4" y1="399.0563" y2="399.0563"/><polygon fill="#A80036" points="231.6,395.8563,223.6,399.0563,231.6,402.2563,228.4,399.0563" style="stroke: #A80036; stroke-width: 0.8;"/><text fill="#000000" font-family="sans-serif" font-size="10.4" lengthAdjust="spacingAndGlyphs" textLength="48" x="228.4" y="384.7711">Fix issues</text><polygon fill="#A80036" points="213.2,420.1375,221.2,423.3375,213.2,426.5375,216.4,423.3375" style="stroke: #A80036; stroke-width: 0.8;"/><line style="stroke: #A80036; stroke-width: 0.8;" x1="47.6" x2="218" y1="423.3375" y2="423.3375"/><text fill="#000000" font-family="sans-serif" font-size="10.4" lengthAdjust="spacingAndGlyphs" textLength="152" x="53.2" y="419.4523">Merge upstream changes (if any)</text><polygon fill="#A80036" points="56.4,444.4188,48.4,447.6188,56.4,450.8188,53.2,447.6188" style="stroke: #A80036; stroke-width: 0.8;"/><line style="stroke: #A80036; stroke-width: 0.8;" x1="51.6" x2="222" y1="447.6188" y2="447.6188"/><text fill="#000000" font-family="sans-serif" font-size="10.4" lengthAdjust="spacingAndGlyphs" textLength="156" x="61.2" y="443.7336">Feature A dev is complete (minor)</text><path d="M24,458.0188 L24,478.8188 L68,478.8188 L68,466.0188 L60,458.0188 L24,458.0188 " fill="#FFAAAA" filter="url(#fhpigxoi63u3t)" style="stroke: #A80036; stroke-width: 0.8;"/><path d="M60,458.0188 L60,466.0188 L68,466.0188 L60,458.0188 " fill="#FFAAAA" style="stroke: #A80036; stroke-width: 0.8;"/><text fill="#000000" font-family="sans-serif" font-size="10.4" lengthAdjust="spacingAndGlyphs" textLength="27.2" x="28.8" y="472.8148">v1.2.3</text><line style="stroke: #A80036; stroke-width: 0.8; stroke-dasharray: 2.0,2.0;" x1="334.8" x2="368.4" y1="504.1813" y2="504.1813"/><line style="stroke: #A80036; stroke-width: 0.8; stroke-dasharray: 2.0,2.0;" x1="368.4" x2="368.4" y1="504.1813" y2="514.5813"/><line style="stroke: #A80036; stroke-width: 0.8; stroke-dasharray: 2.0,2.0;" x1="335.6" x2="368.4" y1="514.5813" y2="514.5813"/><polygon fill="#A80036" points="343.6,511.3813,335.6,514.5813,343.6,517.7813,340.4,514.5813" style="stroke: #A80036; stroke-width: 0.8;"/><text fill="#000000" font-family="sans-serif" font-size="10.4" lengthAdjust="spacingAndGlyphs" textLength="37.6" x="340.4" y="500.2961">Dev test</text><line style="stroke: #A80036; stroke-width: 0.8;" x1="334.8" x2="368.4" y1="538.8625" y2="538.8625"/><line style="stroke: #A80036; stroke-width: 0.8;" x1="368.4" x2="368.4" y1="538.8625" y2="549.2625"/><line style="stroke: #A80036; stroke-width: 0.8;" x1="335.6" x2="368.4" y1="549.2625" y2="549.2625"/><polygon fill="#A80036" points="343.6,546.0625,335.6,549.2625,343.6,552.4625,340.4,549.2625" style="stroke: #A80036; stroke-width: 0.8;"/><text fill="#000000" font-family="sans-serif" font-size="10.4" lengthAdjust="spacingAndGlyphs" textLength="48" x="340.4" y="534.9773">Fix issues</text><polygon fill="#A80036" points="325.2,570.3438,333.2,573.5438,325.2,576.7438,328.4,573.5438" style="stroke: #A80036; stroke-width: 0.8;"/><line style="stroke: #A80036; stroke-width: 0.8;" x1="47.6" x2="330" y1="573.5438" y2="573.5438"/><text fill="#000000" font-family="sans-serif" font-size="10.4" lengthAdjust="spacingAndGlyphs" textLength="152" x="53.2" y="569.6586">Merge upstream changes (if any)</text><polygon fill="#A80036" points="56.4,594.625,48.4,597.825,56.4,601.025,53.2,597.825" style="stroke: #A80036; stroke-width: 0.8;"/><line style="stroke: #A80036; stroke-width: 0.8;" x1="51.6" x2="334" y1="597.825" y2="597.825"/><text fill="#000000" font-family="sans-serif" font-size="10.4" lengthAdjust="spacingAndGlyphs" textLength="156" x="61.2" y="593.9398">Feature B dev is complete (patch)</text><path d="M24,608.225 L24,629.025 L68,629.025 L68,616.225 L60,608.225 L24,608.225 " fill="#FFAAAA" filter="url(#fhpigxoi63u3t)" style="stroke: #A80036; stroke-width: 0.8;"/><path d="M60,608.225 L60,616.225 L68,616.225 L60,608.225 " fill="#FFAAAA" style="stroke: #A80036; stroke-width: 0.8;"/><text fill="#000000" font-family="sans-serif" font-size="10.4" lengthAdjust="spacingAndGlyphs" textLength="27.2" x="28.8" y="623.0211">v1.2.3</text><polygon fill="#A80036" points="562.8,651.1875,570.8,654.3875,562.8,657.5875,566,654.3875" style="stroke: #A80036; stroke-width: 0.8;"/><line style="stroke: #A80036; stroke-width: 0.8;" x1="47.6" x2="567.6" y1="654.3875" y2="654.3875"/><text fill="#000000" font-family="sans-serif" font-size="10.4" lengthAdjust="spacingAndGlyphs" textLength="128.8" x="53.2" y="650.5023">Add a set of changes to QA</text><path d="M548.8,664.7875 L548.8,685.5875 L592.8,685.5875 L592.8,672.7875 L584.8,664.7875 L548.8,664.7875 " fill="#FFAAAA" filter="url(#fhpigxoi63u3t)" style="stroke: #A80036; stroke-width: 0.8;"/><path d="M584.8,664.7875 L584.8,672.7875 L592.8,672.7875 L584.8,664.7875 " fill="#FFAAAA" style="stroke: #A80036; stroke-width: 0.8;"/><text fill="#000000" font-family="sans-serif" font-size="10.4" lengthAdjust="spacingAndGlyphs" textLength="27.2" x="553.6" y="679.5836">v1.2.3</text><path d="M519.2,697.0688 L519.2,717.8688 L621.6,717.8688 L621.6,705.0688 L613.6,697.0688 L519.2,697.0688 " fill="#B0C4DE" filter="url(#fhpigxoi63u3t)" style="stroke: #A80036; stroke-width: 0.8;"/><path d="M613.6,697.0688 L613.6,705.0688 L621.6,705.0688 L613.6,697.0688 " fill="#B0C4DE" style="stroke: #A80036; stroke-width: 0.8;"/><text fill="#000000" font-family="sans-serif" font-size="10.4" lengthAdjust="spacingAndGlyphs" textLength="85.6" x="524" y="711.8648">tag: qa.200228345</text><line style="stroke: #A80036; stroke-width: 0.8; stroke-dasharray: 2.0,2.0;" x1="572.4" x2="606" y1="743.2313" y2="743.2313"/><line style="stroke: #A80036; stroke-width: 0.8; stroke-dasharray: 2.0,2.0;" x1="606" x2="606" y1="743.2313" y2="753.6313"/><line style="stroke: #A80036; stroke-width: 0.8; stroke-dasharray: 2.0,2.0;" x1="573.2" x2="606" y1="753.6313" y2="753.6313"/><polygon fill="#A80036" points="581.2,750.4313,573.2,753.6313,581.2,756.8313,578,753.6313" style="stroke: #A80036; stroke-width: 0.8;"/><text fill="#000000" font-family="sans-serif" font-size="10.4" lengthAdjust="spacingAndGlyphs" textLength="33.6" x="578" y="739.3461">Testing</text><line style="stroke: #A80036; stroke-width: 0.8;" x1="572.4" x2="606" y1="777.9125" y2="777.9125"/><line style="stroke: #A80036; stroke-width: 0.8;" x1="606" x2="606" y1="777.9125" y2="788.3125"/><line style="stroke: #A80036; stroke-width: 0.8;" x1="573.2" x2="606" y1="788.3125" y2="788.3125"/><polygon fill="#A80036" points="581.2,785.1125,573.2,788.3125,581.2,791.5125,578,788.3125" style="stroke: #A80036; stroke-width: 0.8;"/><text fill="#000000" font-family="sans-serif" font-size="10.4" lengthAdjust="spacingAndGlyphs" textLength="51.2" x="578" y="774.0273">Bugs fixing</text><polygon fill="#A80036" points="450.8,809.3938,458.8,812.5938,450.8,815.7938,454,812.5938" style="stroke: #A80036; stroke-width: 0.8;"/><line style="stroke: #A80036; stroke-width: 0.8;" x1="47.6" x2="455.6" y1="812.5938" y2="812.5938"/><text fill="#000000" font-family="sans-serif" font-size="10.4" lengthAdjust="spacingAndGlyphs" textLength="203.2" x="53.2" y="808.7086">Start a development of a fast-track feature C</text><path d="M436.8,822.9938 L436.8,843.7938 L480.8,843.7938 L480.8,830.9938 L472.8,822.9938 L436.8,822.9938 " fill="#FFAAAA" filter="url(#fhpigxoi63u3t)" style="stroke: #A80036; stroke-width: 0.8;"/><path d="M472.8,822.9938 L472.8,830.9938 L480.8,830.9938 L472.8,822.9938 " fill="#FFAAAA" style="stroke: #A80036; stroke-width: 0.8;"/><text fill="#000000" font-family="sans-serif" font-size="10.4" lengthAdjust="spacingAndGlyphs" textLength="27.2" x="441.6" y="837.7898">v1.2.3</text><line style="stroke: #A80036; stroke-width: 0.8;" x1="460.4" x2="494" y1="869.1563" y2="869.1563"/><line style="stroke: #A80036; stroke-width: 0.8;" x1="494" x2="494" y1="869.1563" y2="879.5563"/><line style="stroke: #A80036; stroke-width: 0.8;" x1="461.2" x2="494" y1="879.5563" y2="879.5563"/><polygon fill="#A80036" points="469.2,876.3563,461.2,879.5563,469.2,882.7563,466,879.5563" style="stroke: #A80036; stroke-width: 0.8;"/><text fill="#000000" font-family="sans-serif" font-size="10.4" lengthAdjust="spacingAndGlyphs" textLength="100.8" x="466" y="865.2711">Develop a new feature</text><line style="stroke: #A80036; stroke-width: 0.8; stroke-dasharray: 2.0,2.0;" x1="460.4" x2="494" y1="903.8375" y2="903.8375"/><line style="stroke: #A80036; stroke-width: 0.8; stroke-dasharray: 2.0,2.0;" x1="494" x2="494" y1="903.8375" y2="914.2375"/><line style="stroke: #A80036; stroke-width: 0.8; stroke-dasharray: 2.0,2.0;" x1="461.2" x2="494" y1="914.2375" y2="914.2375"/><polygon fill="#A80036" points="469.2,911.0375,461.2,914.2375,469.2,917.4375,466,914.2375" style="stroke: #A80036; stroke-width: 0.8;"/><text fill="#000000" font-family="sans-serif" font-size="10.4" lengthAdjust="spacingAndGlyphs" textLength="37.6" x="466" y="899.9523">Dev test</text><line style="stroke: #A80036; stroke-width: 0.8;" x1="460.4" x2="494" y1="938.5188" y2="938.5188"/><line style="stroke: #A80036; stroke-width: 0.8;" x1="494" x2="494" y1="938.5188" y2="948.9188"/><line style="stroke: #A80036; stroke-width: 0.8;" x1="461.2" x2="494" y1="948.9188" y2="948.9188"/><polygon fill="#A80036" points="469.2,945.7188,461.2,948.9188,469.2,952.1188,466,948.9188" style="stroke: #A80036; stroke-width: 0.8;"/><text fill="#000000" font-family="sans-serif" font-size="10.4" lengthAdjust="spacingAndGlyphs" textLength="48" x="466" y="934.6336">Fix issues</text><polygon fill="#A80036" points="56.4,970,48.4,973.2,56.4,976.4,53.2,973.2" style="stroke: #A80036; stroke-width: 0.8;"/><line style="stroke: #A80036; stroke-width: 0.8;" x1="51.6" x2="459.6" y1="973.2" y2="973.2"/><text fill="#000000" font-family="sans-serif" font-size="10.4" lengthAdjust="spacingAndGlyphs" textLength="202.4" x="61.2" y="969.3148">Fast-track feature C dev is complete (major)</text><polygon fill="#A80036" points="666.8,994.2813,674.8,997.4813,666.8,1000.6813,670,997.4813" style="stroke: #A80036; stroke-width: 0.8;"/><line style="stroke: #A80036; stroke-width: 0.8;" x1="460.4" x2="671.6" y1="997.4813" y2="997.4813"/><text fill="#000000" font-family="sans-serif" font-size="10.4" lengthAdjust="spacingAndGlyphs" textLength="196.8" x="466" y="993.5961">Add a new set of fast-track changes to QA</text><path d="M652.8,1007.8813 L652.8,1028.6813 L696.8,1028.6813 L696.8,1015.8813 L688.8,1007.8813 L652.8,1007.8813 " fill="#FFAAAA" filter="url(#fhpigxoi63u3t)" style="stroke: #A80036; stroke-width: 0.8;"/><path d="M688.8,1007.8813 L688.8,1015.8813 L696.8,1015.8813 L688.8,1007.8813 " fill="#FFAAAA" style="stroke: #A80036; stroke-width: 0.8;"/><text fill="#000000" font-family="sans-serif" font-size="10.4" lengthAdjust="spacingAndGlyphs" textLength="27.2" x="657.6" y="1022.6773">v1.2.3</text><path d="M623.2,1040.1625 L623.2,1060.9625 L725.6,1060.9625 L725.6,1048.1625 L717.6,1040.1625 L623.2,1040.1625 " fill="#B0C4DE" filter="url(#fhpigxoi63u3t)" style="stroke: #A80036; stroke-width: 0.8;"/><path d="M717.6,1040.1625 L717.6,1048.1625 L725.6,1048.1625 L717.6,1040.1625 " fill="#B0C4DE" style="stroke: #A80036; stroke-width: 0.8;"/><text fill="#000000" font-family="sans-serif" font-size="10.4" lengthAdjust="spacingAndGlyphs" textLength="85.6" x="628" y="1054.9586">tag: fta.200228444</text><line style="stroke: #A80036; stroke-width: 0.8; stroke-dasharray: 2.0,2.0;" x1="676.4" x2="710" y1="1086.325" y2="1086.325"/><line style="stroke: #A80036; stroke-width: 0.8; stroke-dasharray: 2.0,2.0;" x1="710" x2="710" y1="1086.325" y2="1096.725"/><line style="stroke: #A80036; stroke-width: 0.8; stroke-dasharray: 2.0,2.0;" x1="677.2" x2="710" y1="1096.725" y2="1096.725"/><polygon fill="#A80036" points="685.2,1093.525,677.2,1096.725,685.2,1099.925,682,1096.725" style="stroke: #A80036; stroke-width: 0.8;"/><text fill="#000000" font-family="sans-serif" font-size="10.4" lengthAdjust="spacingAndGlyphs" textLength="33.6" x="682" y="1082.4398">Testing</text><line style="stroke: #A80036; stroke-width: 0.8;" x1="676.4" x2="710" y1="1121.0063" y2="1121.0063"/><line style="stroke: #A80036; stroke-width: 0.8;" x1="710" x2="710" y1="1121.0063" y2="1131.4063"/><line style="stroke: #A80036; stroke-width: 0.8;" x1="677.2" x2="710" y1="1131.4063" y2="1131.4063"/><polygon fill="#A80036" points="685.2,1128.2063,677.2,1131.4063,685.2,1134.6063,682,1131.4063" style="stroke: #A80036; stroke-width: 0.8;"/><text fill="#000000" font-family="sans-serif" font-size="10.4" lengthAdjust="spacingAndGlyphs" textLength="45.6" x="682" y="1117.1211">Bug fixing</text><path d="M620.8,1141.8063 L620.8,1162.6063 L728.8,1162.6063 L728.8,1149.8063 L720.8,1141.8063 L620.8,1141.8063 " fill="#B0C4DE" filter="url(#fhpigxoi63u3t)" style="stroke: #A80036; stroke-width: 0.8;"/><path d="M720.8,1141.8063 L720.8,1149.8063 L728.8,1149.8063 L720.8,1141.8063 " fill="#B0C4DE" style="stroke: #A80036; stroke-width: 0.8;"/><text fill="#000000" font-family="sans-serif" font-size="10.4" lengthAdjust="spacingAndGlyphs" textLength="91.2" x="625.6" y="1156.6023">tag: ftqa.200228497</text><line style="stroke: #A80036; stroke-width: 0.8; stroke-dasharray: 2.0,2.0;" x1="676.4" x2="710" y1="1187.9688" y2="1187.9688"/><line style="stroke: #A80036; stroke-width: 0.8; stroke-dasharray: 2.0,2.0;" x1="710" x2="710" y1="1187.9688" y2="1198.3688"/><line style="stroke: #A80036; stroke-width: 0.8; stroke-dasharray: 2.0,2.0;" x1="677.2" x2="710" y1="1198.3688" y2="1198.3688"/><polygon fill="#A80036" points="685.2,1195.1688,677.2,1198.3688,685.2,1201.5688,682,1198.3688" style="stroke: #A80036; stroke-width: 0.8;"/><text fill="#000000" font-family="sans-serif" font-size="10.4" lengthAdjust="spacingAndGlyphs" textLength="33.6" x="682" y="1184.0836">Testing</text><polygon fill="#A80036" points="772.4,1219.45,780.4,1222.65,772.4,1225.85,775.6,1222.65" style="stroke: #A80036; stroke-width: 0.8;"/><line style="stroke: #A80036; stroke-width: 0.8;" x1="676.4" x2="777.2" y1="1222.65" y2="1222.65"/><text fill="#000000" font-family="sans-serif" font-size="10.4" lengthAdjust="spacingAndGlyphs" textLength="84.8" x="682" y="1218.7648">Changes approved</text><path d="M758.4,1233.05 L758.4,1253.85 L802.4,1253.85 L802.4,1241.05 L794.4,1233.05 L758.4,1233.05 " fill="#ADFF2F" filter="url(#fhpigxoi63u3t)" style="stroke: #A80036; stroke-width: 0.8;"/><path d="M794.4,1233.05 L794.4,1241.05 L802.4,1241.05 L794.4,1233.05 " fill="#ADFF2F" style="stroke: #A80036; stroke-width: 0.8;"/><text fill="#000000" font-family="sans-serif" font-size="10.4" lengthAdjust="spacingAndGlyphs" textLength="27.2" x="763.2" y="1247.8461">v2.0.0</text><path d="M748,1265.3313 L748,1286.1313 L812.8,1286.1313 L812.8,1273.3313 L804.8,1265.3313 L748,1265.3313 " fill="#B0C4DE" filter="url(#fhpigxoi63u3t)" style="stroke: #A80036; stroke-width: 0.8;"/><path d="M804.8,1265.3313 L804.8,1273.3313 L812.8,1273.3313 L804.8,1265.3313 " fill="#B0C4DE" style="stroke: #A80036; stroke-width: 0.8;"/><text fill="#000000" font-family="sans-serif" font-size="10.4" lengthAdjust="spacingAndGlyphs" textLength="48" x="752.8" y="1280.1273">tag: v2.0.0</text><path d="M736,1297.6125 L736,1318.4125 L824,1318.4125 L824,1305.6125 L816,1297.6125 L736,1297.6125 " fill="#FFFFFF" filter="url(#fhpigxoi63u3t)" style="stroke: #A80036; stroke-width: 0.8;"/><path d="M816,1297.6125 L816,1305.6125 L824,1305.6125 L816,1297.6125 " fill="#FFFFFF" style="stroke: #A80036; stroke-width: 0.8;"/><text fill="#000000" font-family="sans-serif" font-size="10.4" lengthAdjust="spacingAndGlyphs" textLength="71.2" x="740.8" y="1312.4086">RC deployment</text><polygon fill="#A80036" points="56.4,1340.575,48.4,1343.775,56.4,1346.975,53.2,1343.775" style="stroke: #A80036; stroke-width: 0.8;"/><line style="stroke: #A80036; stroke-width: 0.8;" x1="51.6" x2="781.2" y1="1343.775" y2="1343.775"/><text fill="#000000" font-family="sans-serif" font-size="10.4" lengthAdjust="spacingAndGlyphs" textLength="143.2" x="61.2" y="1339.8898">Merge fast-track changes back</text><path d="M24,1354.175 L24,1374.975 L68,1374.975 L68,1362.175 L60,1354.175 L24,1354.175 " fill="#FFAAAA" filter="url(#fhpigxoi63u3t)" style="stroke: #A80036; stroke-width: 0.8;"/><path d="M60,1354.175 L60,1362.175 L68,1362.175 L60,1354.175 " fill="#FFAAAA" style="stroke: #A80036; stroke-width: 0.8;"/><text fill="#000000" font-family="sans-serif" font-size="10.4" lengthAdjust="spacingAndGlyphs" textLength="27.2" x="28.8" y="1368.9711">v2.0.0</text><polygon fill="#A80036" points="581.2,1397.1375,573.2,1400.3375,581.2,1403.5375,578,1400.3375" style="stroke: #A80036; stroke-width: 0.8;"/><line style="stroke: #A80036; stroke-width: 0.8;" x1="576.4" x2="781.2" y1="1400.3375" y2="1400.3375"/><text fill="#000000" font-family="sans-serif" font-size="10.4" lengthAdjust="spacingAndGlyphs" textLength="190.4" x="586" y="1396.4523">Merge fast-track changes to "normal" QA</text><path d="M548.8,1410.7375 L548.8,1431.5375 L592.8,1431.5375 L592.8,1418.7375 L584.8,1410.7375 L548.8,1410.7375 " fill="#ADFF2F" filter="url(#fhpigxoi63u3t)" style="stroke: #A80036; stroke-width: 0.8;"/><path d="M584.8,1410.7375 L584.8,1418.7375 L592.8,1418.7375 L584.8,1410.7375 " fill="#ADFF2F" style="stroke: #A80036; stroke-width: 0.8;"/><text fill="#000000" font-family="sans-serif" font-size="10.4" lengthAdjust="spacingAndGlyphs" textLength="27.2" x="553.6" y="1425.5336">v2.0.0</text><path d="M519.2,1443.0188 L519.2,1463.8188 L621.6,1463.8188 L621.6,1451.0188 L613.6,1443.0188 L519.2,1443.0188 " fill="#B0C4DE" filter="url(#fhpigxoi63u3t)" style="stroke: #A80036; stroke-width: 0.8;"/><path d="M613.6,1443.0188 L613.6,1451.0188 L621.6,1451.0188 L613.6,1443.0188 " fill="#B0C4DE" style="stroke: #A80036; stroke-width: 0.8;"/><text fill="#000000" font-family="sans-serif" font-size="10.4" lengthAdjust="spacingAndGlyphs" textLength="85.6" x="524" y="1457.8148">tag: qa.200228561</text><line style="stroke: #A80036; stroke-width: 0.8; stroke-dasharray: 2.0,2.0;" x1="572.4" x2="606" y1="1489.1813" y2="1489.1813"/><line style="stroke: #A80036; stroke-width: 0.8; stroke-dasharray: 2.0,2.0;" x1="606" x2="606" y1="1489.1813" y2="1499.5813"/><line style="stroke: #A80036; stroke-width: 0.8; stroke-dasharray: 2.0,2.0;" x1="573.2" x2="606" y1="1499.5813" y2="1499.5813"/><polygon fill="#A80036" points="581.2,1496.3813,573.2,1499.5813,581.2,1502.7813,578,1499.5813" style="stroke: #A80036; stroke-width: 0.8;"/><text fill="#000000" font-family="sans-serif" font-size="10.4" lengthAdjust="spacingAndGlyphs" textLength="33.6" x="578" y="1485.2961">Testing</text><polygon fill="#A80036" points="772.4,1520.6625,780.4,1523.8625,772.4,1527.0625,775.6,1523.8625" style="stroke: #A80036; stroke-width: 0.8;"/><line style="stroke: #A80036; stroke-width: 0.8;" x1="572.4" x2="777.2" y1="1523.8625" y2="1523.8625"/><text fill="#000000" font-family="sans-serif" font-size="10.4" lengthAdjust="spacingAndGlyphs" textLength="84.8" x="578" y="1519.9773">Changes approved</text><path d="M758.4,1534.2625 L758.4,1555.0625 L802.4,1555.0625 L802.4,1542.2625 L794.4,1534.2625 L758.4,1534.2625 " fill="#ADFF2F" filter="url(#fhpigxoi63u3t)" style="stroke: #A80036; stroke-width: 0.8;"/><path d="M794.4,1534.2625 L794.4,1542.2625 L802.4,1542.2625 L794.4,1534.2625 " fill="#ADFF2F" style="stroke: #A80036; stroke-width: 0.8;"/><text fill="#000000" font-family="sans-serif" font-size="10.4" lengthAdjust="spacingAndGlyphs" textLength="27.2" x="763.2" y="1549.0586">v2.1.0</text><path d="M748,1566.5438 L748,1587.3438 L812.8,1587.3438 L812.8,1574.5438 L804.8,1566.5438 L748,1566.5438 " fill="#B0C4DE" filter="url(#fhpigxoi63u3t)" style="stroke: #A80036; stroke-width: 0.8;"/><path d="M804.8,1566.5438 L804.8,1574.5438 L812.8,1574.5438 L804.8,1566.5438 " fill="#B0C4DE" style="stroke: #A80036; stroke-width: 0.8;"/><text fill="#000000" font-family="sans-serif" font-size="10.4" lengthAdjust="spacingAndGlyphs" textLength="48" x="752.8" y="1581.3398">tag: v2.1.0</text><path d="M732.8,1598.825 L732.8,1619.625 L828,1619.625 L828,1606.825 L820,1598.825 L732.8,1598.825 " fill="#D8BFD8" filter="url(#fhpigxoi63u3t)" style="stroke: #A80036; stroke-width: 0.8;"/><path d="M820,1598.825 L820,1606.825 L828,1606.825 L820,1598.825 " fill="#D8BFD8" style="stroke: #A80036; stroke-width: 0.8;"/><text fill="#000000" font-family="sans-serif" font-size="10.4" lengthAdjust="spacingAndGlyphs" textLength="78.4" x="737.6" y="1613.6211">Prod deployment</text><polygon fill="#A80036" points="56.4,1641.7875,48.4,1644.9875,56.4,1648.1875,53.2,1644.9875" style="stroke: #A80036; stroke-width: 0.8;"/><line style="stroke: #A80036; stroke-width: 0.8;" x1="51.6" x2="781.2" y1="1644.9875" y2="1644.9875"/><text fill="#000000" font-family="sans-serif" font-size="10.4" lengthAdjust="spacingAndGlyphs" textLength="79.2" x="61.2" y="1641.1023">Merge fixes back</text><path d="M24,1655.3875 L24,1676.1875 L68,1676.1875 L68,1663.3875 L60,1655.3875 L24,1655.3875 " fill="#FFAAAA" filter="url(#fhpigxoi63u3t)" style="stroke: #A80036; stroke-width: 0.8;"/><path d="M60,1655.3875 L60,1663.3875 L68,1663.3875 L60,1655.3875 " fill="#FFAAAA" style="stroke: #A80036; stroke-width: 0.8;"/><text fill="#000000" font-family="sans-serif" font-size="10.4" lengthAdjust="spacingAndGlyphs" textLength="27.2" x="28.8" y="1670.1836">v2.1.0</text><!--MD5=[d6acbae21c1f224a07bf46b31c6280b0]
@startuml
title A FAST TRACK DEVELOPMENT WORKFLOW\n green notes indicate a version change\n gray notes are git tags \n yellow boxes are branches
participant "master\n development" as mst
participant "feature-a\n (minor feature)" as f1
participant "feature-b\n (patch feature)" as f2
participant "feature-c\n (major fast track feature)" as f3
participant "qa\n" as qa
participant "ftqa\n (fast-track QA)" as ftqa
participant "production\n" as prod

note over mst #FFAAAA: v1.2.3
mst -> f1: Start a development of feature A
note over f1 #FFAAAA: v1.2.3
f1 -> f1: Develop a new feature
mst -> f2: Start a development of feature B
note over f2 #FFAAAA: v1.2.3
f1 - -> f1: Dev test
f2 -> f2: Develop a new feature
f1 -> f1: Fix issues
mst -> f1: Merge upstream changes (if any)
f1 -> mst: Feature A dev is complete (minor)
note over mst #FFAAAA: v1.2.3

f2 - -> f2: Dev test
f2 -> f2: Fix issues
mst -> f2: Merge upstream changes (if any)
f2 -> mst: Feature B dev is complete (patch)
note over mst #FFAAAA: v1.2.3

mst -> qa: Add a set of changes to QA
note over qa #FFAAAA: v1.2.3
note over qa #LightSteelBlue: tag: qa.200228345
qa - -> qa: Testing
qa -> qa: Bugs fixing

mst -> f3: Start a development of a fast-track feature C
note over f3 #FFAAAA: v1.2.3
f3 -> f3: Develop a new feature
f3 - -> f3: Dev test
f3 -> f3: Fix issues
f3 -> mst: Fast-track feature C dev is complete (major)

f3 -> ftqa: Add a new set of fast-track changes to QA
note over ftqa #FFAAAA: v1.2.3
note over ftqa #LightSteelBlue: tag: fta.200228444
ftqa - -> ftqa: Testing
ftqa -> ftqa: Bug fixing
note over ftqa #LightSteelBlue: tag: ftqa.200228497
ftqa - -> ftqa: Testing
ftqa -> prod: Changes approved
note over prod #GreenYellow: v2.0.0
note over prod #LightSteelBlue: tag: v2.0.0
note over prod #White: RC deployment

prod -> mst: Merge fast-track changes back
note over mst #FFAAAA: v2.0.0
prod -> qa: Merge fast-track changes to "normal" QA
note over qa #GreenYellow: v2.0.0
note over qa #LightSteelBlue: tag: qa.200228561

qa - -> qa: Testing
qa -> prod: Changes approved
note over prod #GreenYellow: v2.1.0
note over prod #LightSteelBlue: tag: v2.1.0
note over prod #Thistle: Prod deployment
prod -> mst: Merge fixes back
note over mst #FFAAAA: v2.1.0
@enduml

PlantUML version 1.2019.11(Sun Sep 22 14:02:15 SAMT 2019)
(GPL source distribution)
Java Runtime: OpenJDK Runtime Environment
JVM: OpenJDK 64-Bit Server VM
Java Version: 11.0.5+10-b520.38
Operating System: Windows 10
Default Encoding: Cp1251
Language: en
Country: US
--></g></svg>