<?xml version="1.0" encoding="UTF-8" standalone="no"?><svg xmlns="http://www.w3.org/2000/svg" xmlns:xlink="http://www.w3.org/1999/xlink" contentScriptType="application/ecmascript" contentStyleType="text/css" height="1425px" preserveAspectRatio="none" style="width:729px;height:1425px;" version="1.1" viewBox="0 0 729 1425" width="729.6px" zoomAndPan="magnify"><defs><filter height="300%" id="f1w3s3tr9ly7d0" width="300%" x="-1" y="-1"><feGaussianBlur result="blurOut" stdDeviation="1.2"/><feColorMatrix in="blurOut" result="blurOut2" type="matrix" values="0 0 0 0 0 0 0 0 0 0 0 0 0 0 0 0 0 0 .4 0"/><feOffset dx="2.4" dy="2.4" in="blurOut2" result="blurOut3"/><feBlend in="SourceGraphic" in2="blurOut3" mode="normal"/></filter></defs><g><text fill="#000000" font-family="sans-serif" font-size="8.4" font-weight="bold" lengthAdjust="spacingAndGlyphs" textLength="171.6" x="279.45" y="14.7199">A STANDARD DEVELOPMENT WORKFLOW</text><text fill="#000000" font-family="sans-serif" font-size="8.4" font-weight="bold" lengthAdjust="spacingAndGlyphs" textLength="211.2" x="260.85" y="25.2855">notes in green indicates when version is changed</text><text fill="#000000" font-family="sans-serif" font-size="8.4" font-weight="bold" lengthAdjust="spacingAndGlyphs" textLength="192.6" x="270.15" y="35.8512">those commits are tagged and pushed to npm</text><text fill="#000000" font-family="sans-serif" font-size="8.4" font-weight="bold" lengthAdjust="spacingAndGlyphs" textLength="112.8" x="310.05" y="46.4168">yellow boxes are branches</text><line style="stroke: #A80036; stroke-width: 0.6; stroke-dasharray: 5.0,5.0;" x1="35.4" x2="35.4" y1="84.9937" y2="1390.0172"/><line style="stroke: #A80036; stroke-width: 0.6; stroke-dasharray: 5.0,5.0;" x1="167.1" x2="167.1" y1="84.9937" y2="1390.0172"/><line style="stroke: #A80036; stroke-width: 0.6; stroke-dasharray: 5.0,5.0;" x1="251.1" x2="251.1" y1="84.9937" y2="1390.0172"/><line style="stroke: #A80036; stroke-width: 0.6; stroke-dasharray: 5.0,5.0;" x1="335.1" x2="335.1" y1="84.9937" y2="1390.0172"/><line style="stroke: #A80036; stroke-width: 0.6; stroke-dasharray: 5.0,5.0;" x1="419.1" x2="419.1" y1="84.9937" y2="1390.0172"/><line style="stroke: #A80036; stroke-width: 0.6; stroke-dasharray: 5.0,5.0;" x1="472.5" x2="472.5" y1="84.9937" y2="1390.0172"/><line style="stroke: #A80036; stroke-width: 0.6; stroke-dasharray: 5.0,5.0;" x1="549.3" x2="549.3" y1="84.9937" y2="1390.0172"/><line style="stroke: #A80036; stroke-width: 0.6; stroke-dasharray: 5.0,5.0;" x1="609.9" x2="609.9" y1="84.9937" y2="1390.0172"/><line style="stroke: #A80036; stroke-width: 0.6; stroke-dasharray: 5.0,5.0;" x1="699.9" x2="699.9" y1="84.9937" y2="1390.0172"/><rect fill="#FEFECE" filter="url(#f1w3s3tr9ly7d0)" height="29.5313" style="stroke: #A80036; stroke-width: 0.8999999999999999;" width="59.4" x="4.8" y="52.4625"/><text fill="#000000" font-family="sans-serif" font-size="8.4" lengthAdjust="spacingAndGlyphs" textLength="25.8" x="21.6" y="65.3824">master</text><text fill="#000000" font-family="sans-serif" font-size="8.4" lengthAdjust="spacingAndGlyphs" textLength="48.6" x="11.4" y="75.948">development</text><rect fill="#FEFECE" filter="url(#f1w3s3tr9ly7d0)" height="29.5313" style="stroke: #A80036; stroke-width: 0.8999999999999999;" width="59.4" x="4.8" y="1389.4172"/><text fill="#000000" font-family="sans-serif" font-size="8.4" lengthAdjust="spacingAndGlyphs" textLength="25.8" x="21.6" y="1402.3371">master</text><text fill="#000000" font-family="sans-serif" font-size="8.4" lengthAdjust="spacingAndGlyphs" textLength="48.6" x="11.4" y="1412.9027">development</text><rect fill="#FEFECE" filter="url(#f1w3s3tr9ly7d0)" height="29.5313" style="stroke: #A80036; stroke-width: 0.8999999999999999;" width="67.2" x="132.3" y="52.4625"/><text fill="#000000" font-family="sans-serif" font-size="8.4" lengthAdjust="spacingAndGlyphs" textLength="34.8" x="148.5" y="65.3824">feature-a</text><text fill="#000000" font-family="sans-serif" font-size="8.4" lengthAdjust="spacingAndGlyphs" textLength="56.4" x="138.9" y="75.948">(minor feature)</text><rect fill="#FEFECE" filter="url(#f1w3s3tr9ly7d0)" height="29.5313" style="stroke: #A80036; stroke-width: 0.8999999999999999;" width="67.2" x="132.3" y="1389.4172"/><text fill="#000000" font-family="sans-serif" font-size="8.4" lengthAdjust="spacingAndGlyphs" textLength="34.8" x="148.5" y="1402.3371">feature-a</text><text fill="#000000" font-family="sans-serif" font-size="8.4" lengthAdjust="spacingAndGlyphs" textLength="56.4" x="138.9" y="1412.9027">(minor feature)</text><rect fill="#FEFECE" filter="url(#f1w3s3tr9ly7d0)" height="29.5313" style="stroke: #A80036; stroke-width: 0.8999999999999999;" width="67.2" x="216.3" y="52.4625"/><text fill="#000000" font-family="sans-serif" font-size="8.4" lengthAdjust="spacingAndGlyphs" textLength="34.8" x="232.5" y="65.3824">feature-b</text><text fill="#000000" font-family="sans-serif" font-size="8.4" lengthAdjust="spacingAndGlyphs" textLength="56.4" x="222.9" y="75.948">(patch feature)</text><rect fill="#FEFECE" filter="url(#f1w3s3tr9ly7d0)" height="29.5313" style="stroke: #A80036; stroke-width: 0.8999999999999999;" width="67.2" x="216.3" y="1389.4172"/><text fill="#000000" font-family="sans-serif" font-size="8.4" lengthAdjust="spacingAndGlyphs" textLength="34.8" x="232.5" y="1402.3371">feature-b</text><text fill="#000000" font-family="sans-serif" font-size="8.4" lengthAdjust="spacingAndGlyphs" textLength="56.4" x="222.9" y="1412.9027">(patch feature)</text><rect fill="#FEFECE" filter="url(#f1w3s3tr9ly7d0)" height="29.5313" style="stroke: #A80036; stroke-width: 0.8999999999999999;" width="67.2" x="300.3" y="52.4625"/><text fill="#000000" font-family="sans-serif" font-size="8.4" lengthAdjust="spacingAndGlyphs" textLength="34.2" x="316.8" y="65.3824">feature-c</text><text fill="#000000" font-family="sans-serif" font-size="8.4" lengthAdjust="spacingAndGlyphs" textLength="56.4" x="306.9" y="75.948">(patch feature)</text><rect fill="#FEFECE" filter="url(#f1w3s3tr9ly7d0)" height="29.5313" style="stroke: #A80036; stroke-width: 0.8999999999999999;" width="67.2" x="300.3" y="1389.4172"/><text fill="#000000" font-family="sans-serif" font-size="8.4" lengthAdjust="spacingAndGlyphs" textLength="34.2" x="316.8" y="1402.3371">feature-c</text><text fill="#000000" font-family="sans-serif" font-size="8.4" lengthAdjust="spacingAndGlyphs" textLength="56.4" x="306.9" y="1412.9027">(patch feature)</text><rect fill="#FEFECE" filter="url(#f1w3s3tr9ly7d0)" height="29.5313" style="stroke: #A80036; stroke-width: 0.8999999999999999;" width="18" x="408.9" y="52.4625"/><text fill="#000000" font-family="sans-serif" font-size="8.4" lengthAdjust="spacingAndGlyphs" textLength="9.6" x="413.1" y="65.3824">qa</text><text fill="#000000" font-family="sans-serif" font-size="8.4" lengthAdjust="spacingAndGlyphs" textLength="0" x="419.1" y="75.948"/><rect fill="#FEFECE" filter="url(#f1w3s3tr9ly7d0)" height="29.5313" style="stroke: #A80036; stroke-width: 0.8999999999999999;" width="18" x="408.9" y="1389.4172"/><text fill="#000000" font-family="sans-serif" font-size="8.4" lengthAdjust="spacingAndGlyphs" textLength="9.6" x="413.1" y="1402.3371">qa</text><text fill="#000000" font-family="sans-serif" font-size="8.4" lengthAdjust="spacingAndGlyphs" textLength="0" x="419.1" y="1412.9027"/><rect fill="#FEFECE" filter="url(#f1w3s3tr9ly7d0)" height="29.5313" style="stroke: #A80036; stroke-width: 0.8999999999999999;" width="68.4" x="437.1" y="52.4625"/><text fill="#000000" font-family="sans-serif" font-size="8.4" lengthAdjust="spacingAndGlyphs" textLength="51.6" x="445.5" y="65.3824">qa-fixes-1.3.1</text><text fill="#000000" font-family="sans-serif" font-size="8.4" lengthAdjust="spacingAndGlyphs" textLength="57.6" x="443.7" y="75.948">ad-hoc qa fixes</text><rect fill="#FEFECE" filter="url(#f1w3s3tr9ly7d0)" height="29.5313" style="stroke: #A80036; stroke-width: 0.8999999999999999;" width="68.4" x="437.1" y="1389.4172"/><text fill="#000000" font-family="sans-serif" font-size="8.4" lengthAdjust="spacingAndGlyphs" textLength="51.6" x="445.5" y="1402.3371">qa-fixes-1.3.1</text><text fill="#000000" font-family="sans-serif" font-size="8.4" lengthAdjust="spacingAndGlyphs" textLength="57.6" x="443.7" y="1412.9027">ad-hoc qa fixes</text><rect fill="#FEFECE" filter="url(#f1w3s3tr9ly7d0)" height="29.5313" style="stroke: #A80036; stroke-width: 0.8999999999999999;" width="68.4" x="513.9" y="52.4625"/><text fill="#000000" font-family="sans-serif" font-size="8.4" lengthAdjust="spacingAndGlyphs" textLength="56.4" x="519.9" y="65.3824">qa-fixes-1.3.21</text><text fill="#000000" font-family="sans-serif" font-size="8.4" lengthAdjust="spacingAndGlyphs" textLength="57.6" x="520.5" y="75.948">ad-hoc qa fixes</text><rect fill="#FEFECE" filter="url(#f1w3s3tr9ly7d0)" height="29.5313" style="stroke: #A80036; stroke-width: 0.8999999999999999;" width="68.4" x="513.9" y="1389.4172"/><text fill="#000000" font-family="sans-serif" font-size="8.4" lengthAdjust="spacingAndGlyphs" textLength="56.4" x="519.9" y="1402.3371">qa-fixes-1.3.21</text><text fill="#000000" font-family="sans-serif" font-size="8.4" lengthAdjust="spacingAndGlyphs" textLength="57.6" x="520.5" y="1412.9027">ad-hoc qa fixes</text><rect fill="#FEFECE" filter="url(#f1w3s3tr9ly7d0)" height="29.5313" style="stroke: #A80036; stroke-width: 0.8999999999999999;" width="36.6" x="590.7" y="52.4625"/><text fill="#000000" font-family="sans-serif" font-size="8.4" lengthAdjust="spacingAndGlyphs" textLength="28.2" x="594.9" y="65.3824">release</text><text fill="#000000" font-family="sans-serif" font-size="8.4" lengthAdjust="spacingAndGlyphs" textLength="0" x="610.2" y="75.948"/><rect fill="#FEFECE" filter="url(#f1w3s3tr9ly7d0)" height="29.5313" style="stroke: #A80036; stroke-width: 0.8999999999999999;" width="36.6" x="590.7" y="1389.4172"/><text fill="#000000" font-family="sans-serif" font-size="8.4" lengthAdjust="spacingAndGlyphs" textLength="28.2" x="594.9" y="1402.3371">release</text><text fill="#000000" font-family="sans-serif" font-size="8.4" lengthAdjust="spacingAndGlyphs" textLength="0" x="610.2" y="1412.9027"/><rect fill="#FEFECE" filter="url(#f1w3s3tr9ly7d0)" height="29.5313" style="stroke: #A80036; stroke-width: 0.8999999999999999;" width="48.6" x="674.7" y="52.4625"/><text fill="#000000" font-family="sans-serif" font-size="8.4" lengthAdjust="spacingAndGlyphs" textLength="40.2" x="678.9" y="65.3824">production</text><text fill="#000000" font-family="sans-serif" font-size="8.4" lengthAdjust="spacingAndGlyphs" textLength="0" x="700.2" y="75.948"/><rect fill="#FEFECE" filter="url(#f1w3s3tr9ly7d0)" height="29.5313" style="stroke: #A80036; stroke-width: 0.8999999999999999;" width="48.6" x="674.7" y="1389.4172"/><text fill="#000000" font-family="sans-serif" font-size="8.4" lengthAdjust="spacingAndGlyphs" textLength="40.2" x="678.9" y="1402.3371">production</text><text fill="#000000" font-family="sans-serif" font-size="8.4" lengthAdjust="spacingAndGlyphs" textLength="0" x="700.2" y="1412.9027"/><path d="M7.8,93.9937 L7.8,109.5938 L61.2,109.5938 L61.2,99.9937 L55.2,93.9937 L7.8,93.9937 " fill="#FFAAAA" filter="url(#f1w3s3tr9ly7d0)" style="stroke: #A80036; stroke-width: 0.6;"/><path d="M55.2,93.9937 L55.2,99.9937 L61.2,99.9937 L55.2,93.9937 " fill="#FFAAAA" style="stroke: #A80036; stroke-width: 0.6;"/><text fill="#000000" font-family="sans-serif" font-size="7.8" lengthAdjust="spacingAndGlyphs" textLength="40.8" x="11.4" y="105.0908">v1.2.3-dev.3</text><polygon fill="#A80036" points="159.9,126.2156,165.9,128.6156,159.9,131.0156,162.3,128.6156" style="stroke: #A80036; stroke-width: 0.6;"/><line style="stroke: #A80036; stroke-width: 0.6;" x1="35.7" x2="163.5" y1="128.6156" y2="128.6156"/><text fill="#000000" font-family="sans-serif" font-size="7.8" lengthAdjust="spacingAndGlyphs" textLength="111" x="39.9" y="125.7018">Start a development of feature A</text><path d="M139.2,136.4156 L139.2,152.0156 L192.6,152.0156 L192.6,142.4156 L186.6,136.4156 L139.2,136.4156 " fill="#FFAAAA" filter="url(#f1w3s3tr9ly7d0)" style="stroke: #A80036; stroke-width: 0.6;"/><path d="M186.6,136.4156 L186.6,142.4156 L192.6,142.4156 L186.6,136.4156 " fill="#FFAAAA" style="stroke: #A80036; stroke-width: 0.6;"/><text fill="#000000" font-family="sans-serif" font-size="7.8" lengthAdjust="spacingAndGlyphs" textLength="40.8" x="142.8" y="147.5127">v1.2.3-dev.3</text><line style="stroke: #A80036; stroke-width: 0.6;" x1="167.1" x2="192.3" y1="171.0375" y2="171.0375"/><line style="stroke: #A80036; stroke-width: 0.6;" x1="192.3" x2="192.3" y1="171.0375" y2="178.8375"/><line style="stroke: #A80036; stroke-width: 0.6;" x1="167.7" x2="192.3" y1="178.8375" y2="178.8375"/><polygon fill="#A80036" points="173.7,176.4375,167.7,178.8375,173.7,181.2375,171.3,178.8375" style="stroke: #A80036; stroke-width: 0.6;"/><text fill="#000000" font-family="sans-serif" font-size="7.8" lengthAdjust="spacingAndGlyphs" textLength="75.6" x="171.3" y="168.1236">Develop a new feature</text><polygon fill="#A80036" points="243.9,194.6484,249.9,197.0484,243.9,199.4484,246.3,197.0484" style="stroke: #A80036; stroke-width: 0.6;"/><line style="stroke: #A80036; stroke-width: 0.6;" x1="35.7" x2="247.5" y1="197.0484" y2="197.0484"/><text fill="#000000" font-family="sans-serif" font-size="7.8" lengthAdjust="spacingAndGlyphs" textLength="111" x="39.9" y="194.1346">Start a development of feature B</text><path d="M223.2,204.8484 L223.2,220.4484 L276.6,220.4484 L276.6,210.8484 L270.6,204.8484 L223.2,204.8484 " fill="#FFAAAA" filter="url(#f1w3s3tr9ly7d0)" style="stroke: #A80036; stroke-width: 0.6;"/><path d="M270.6,204.8484 L270.6,210.8484 L276.6,210.8484 L270.6,204.8484 " fill="#FFAAAA" style="stroke: #A80036; stroke-width: 0.6;"/><text fill="#000000" font-family="sans-serif" font-size="7.8" lengthAdjust="spacingAndGlyphs" textLength="40.8" x="226.8" y="215.9455">v1.2.3-dev.3</text><line style="stroke: #A80036; stroke-width: 0.6; stroke-dasharray: 2.0,2.0;" x1="167.1" x2="192.3" y1="239.4703" y2="239.4703"/><line style="stroke: #A80036; stroke-width: 0.6; stroke-dasharray: 2.0,2.0;" x1="192.3" x2="192.3" y1="239.4703" y2="247.2703"/><line style="stroke: #A80036; stroke-width: 0.6; stroke-dasharray: 2.0,2.0;" x1="167.7" x2="192.3" y1="247.2703" y2="247.2703"/><polygon fill="#A80036" points="173.7,244.8703,167.7,247.2703,173.7,249.6703,171.3,247.2703" style="stroke: #A80036; stroke-width: 0.6;"/><text fill="#000000" font-family="sans-serif" font-size="7.8" lengthAdjust="spacingAndGlyphs" textLength="28.2" x="171.3" y="236.5564">Dev test</text><line style="stroke: #A80036; stroke-width: 0.6;" x1="251.1" x2="276.3" y1="265.4813" y2="265.4813"/><line style="stroke: #A80036; stroke-width: 0.6;" x1="276.3" x2="276.3" y1="265.4813" y2="273.2813"/><line style="stroke: #A80036; stroke-width: 0.6;" x1="251.7" x2="276.3" y1="273.2813" y2="273.2813"/><polygon fill="#A80036" points="257.7,270.8812,251.7,273.2813,257.7,275.6813,255.3,273.2813" style="stroke: #A80036; stroke-width: 0.6;"/><text fill="#000000" font-family="sans-serif" font-size="7.8" lengthAdjust="spacingAndGlyphs" textLength="75.6" x="255.3" y="262.5674">Develop a new feature</text><line style="stroke: #A80036; stroke-width: 0.6;" x1="167.1" x2="192.3" y1="291.4922" y2="291.4922"/><line style="stroke: #A80036; stroke-width: 0.6;" x1="192.3" x2="192.3" y1="291.4922" y2="299.2922"/><line style="stroke: #A80036; stroke-width: 0.6;" x1="167.7" x2="192.3" y1="299.2922" y2="299.2922"/><polygon fill="#A80036" points="173.7,296.8922,167.7,299.2922,173.7,301.6922,171.3,299.2922" style="stroke: #A80036; stroke-width: 0.6;"/><text fill="#000000" font-family="sans-serif" font-size="7.8" lengthAdjust="spacingAndGlyphs" textLength="36" x="171.3" y="288.5783">Fix issues</text><path d="M139.2,307.0922 L139.2,322.6922 L192.6,322.6922 L192.6,313.0922 L186.6,307.0922 L139.2,307.0922 " fill="#FFAAAA" filter="url(#f1w3s3tr9ly7d0)" style="stroke: #A80036; stroke-width: 0.6;"/><path d="M186.6,307.0922 L186.6,313.0922 L192.6,313.0922 L186.6,307.0922 " fill="#FFAAAA" style="stroke: #A80036; stroke-width: 0.6;"/><text fill="#000000" font-family="sans-serif" font-size="7.8" lengthAdjust="spacingAndGlyphs" textLength="40.8" x="142.8" y="318.1893">v1.2.3-dev.3</text><polygon fill="#A80036" points="159.9,339.3141,165.9,341.7141,159.9,344.1141,162.3,341.7141" style="stroke: #A80036; stroke-width: 0.6;"/><line style="stroke: #A80036; stroke-width: 0.6;" x1="35.7" x2="163.5" y1="341.7141" y2="341.7141"/><text fill="#000000" font-family="sans-serif" font-size="7.8" lengthAdjust="spacingAndGlyphs" textLength="114" x="39.9" y="338.8002">Merge upstream changes (if any)</text><polygon fill="#A80036" points="42.3,357.525,36.3,359.925,42.3,362.325,39.9,359.925" style="stroke: #A80036; stroke-width: 0.6;"/><line style="stroke: #A80036; stroke-width: 0.6;" x1="38.7" x2="166.5" y1="359.925" y2="359.925"/><text fill="#000000" font-family="sans-serif" font-size="7.8" lengthAdjust="spacingAndGlyphs" textLength="117" x="45.9" y="357.0111">Feature A dev is complete (minor)</text><path d="M7.8,367.725 L7.8,383.325 L61.2,383.325 L61.2,373.725 L55.2,367.725 L7.8,367.725 " fill="#ADFF2F" filter="url(#f1w3s3tr9ly7d0)" style="stroke: #A80036; stroke-width: 0.6;"/><path d="M55.2,367.725 L55.2,373.725 L61.2,373.725 L55.2,367.725 " fill="#ADFF2F" style="stroke: #A80036; stroke-width: 0.6;"/><text fill="#000000" font-family="sans-serif" font-size="7.8" lengthAdjust="spacingAndGlyphs" textLength="40.8" x="11.4" y="378.8221">v1.3.0-dev.0</text><line style="stroke: #A80036; stroke-width: 0.6; stroke-dasharray: 2.0,2.0;" x1="251.1" x2="276.3" y1="402.3469" y2="402.3469"/><line style="stroke: #A80036; stroke-width: 0.6; stroke-dasharray: 2.0,2.0;" x1="276.3" x2="276.3" y1="402.3469" y2="410.1469"/><line style="stroke: #A80036; stroke-width: 0.6; stroke-dasharray: 2.0,2.0;" x1="251.7" x2="276.3" y1="410.1469" y2="410.1469"/><polygon fill="#A80036" points="257.7,407.7469,251.7,410.1469,257.7,412.5469,255.3,410.1469" style="stroke: #A80036; stroke-width: 0.6;"/><text fill="#000000" font-family="sans-serif" font-size="7.8" lengthAdjust="spacingAndGlyphs" textLength="28.2" x="255.3" y="399.433">Dev test</text><line style="stroke: #A80036; stroke-width: 0.6;" x1="251.1" x2="276.3" y1="428.3578" y2="428.3578"/><line style="stroke: #A80036; stroke-width: 0.6;" x1="276.3" x2="276.3" y1="428.3578" y2="436.1578"/><line style="stroke: #A80036; stroke-width: 0.6;" x1="251.7" x2="276.3" y1="436.1578" y2="436.1578"/><polygon fill="#A80036" points="257.7,433.7578,251.7,436.1578,257.7,438.5578,255.3,436.1578" style="stroke: #A80036; stroke-width: 0.6;"/><text fill="#000000" font-family="sans-serif" font-size="7.8" lengthAdjust="spacingAndGlyphs" textLength="36" x="255.3" y="425.4439">Fix issues</text><path d="M223.2,443.9578 L223.2,459.5578 L276.6,459.5578 L276.6,449.9578 L270.6,443.9578 L223.2,443.9578 " fill="#FFAAAA" filter="url(#f1w3s3tr9ly7d0)" style="stroke: #A80036; stroke-width: 0.6;"/><path d="M270.6,443.9578 L270.6,449.9578 L276.6,449.9578 L270.6,443.9578 " fill="#FFAAAA" style="stroke: #A80036; stroke-width: 0.6;"/><text fill="#000000" font-family="sans-serif" font-size="7.8" lengthAdjust="spacingAndGlyphs" textLength="40.8" x="226.8" y="455.0549">v1.2.3-dev.3</text><polygon fill="#A80036" points="243.9,476.1797,249.9,478.5797,243.9,480.9797,246.3,478.5797" style="stroke: #A80036; stroke-width: 0.6;"/><line style="stroke: #A80036; stroke-width: 0.6;" x1="35.7" x2="247.5" y1="478.5797" y2="478.5797"/><text fill="#000000" font-family="sans-serif" font-size="7.8" lengthAdjust="spacingAndGlyphs" textLength="114" x="39.9" y="475.6658">Merge upstream changes (if any)</text><polygon fill="#A80036" points="42.3,494.3906,36.3,496.7906,42.3,499.1906,39.9,496.7906" style="stroke: #A80036; stroke-width: 0.6;"/><line style="stroke: #A80036; stroke-width: 0.6;" x1="38.7" x2="250.5" y1="496.7906" y2="496.7906"/><text fill="#000000" font-family="sans-serif" font-size="7.8" lengthAdjust="spacingAndGlyphs" textLength="117" x="45.9" y="493.8768">Feature B dev is complete (patch)</text><path d="M7.8,504.5906 L7.8,520.1906 L61.2,520.1906 L61.2,510.5906 L55.2,504.5906 L7.8,504.5906 " fill="#ADFF2F" filter="url(#f1w3s3tr9ly7d0)" style="stroke: #A80036; stroke-width: 0.6;"/><path d="M55.2,504.5906 L55.2,510.5906 L61.2,510.5906 L55.2,504.5906 " fill="#ADFF2F" style="stroke: #A80036; stroke-width: 0.6;"/><text fill="#000000" font-family="sans-serif" font-size="7.8" lengthAdjust="spacingAndGlyphs" textLength="40.8" x="11.4" y="515.6877">v1.3.1-dev.0</text><polygon fill="#A80036" points="411.9,536.8125,417.9,539.2125,411.9,541.6125,414.3,539.2125" style="stroke: #A80036; stroke-width: 0.6;"/><line style="stroke: #A80036; stroke-width: 0.6;" x1="35.7" x2="415.5" y1="539.2125" y2="539.2125"/><text fill="#000000" font-family="sans-serif" font-size="7.8" lengthAdjust="spacingAndGlyphs" textLength="96.6" x="39.9" y="536.2986">Add a set of changes to QA</text><path d="M392.4,547.0125 L392.4,562.6125 L442.8,562.6125 L442.8,553.0125 L436.8,547.0125 L392.4,547.0125 " fill="#ADFF2F" filter="url(#f1w3s3tr9ly7d0)" style="stroke: #A80036; stroke-width: 0.6;"/><path d="M436.8,547.0125 L436.8,553.0125 L442.8,553.0125 L436.8,547.0125 " fill="#ADFF2F" style="stroke: #A80036; stroke-width: 0.6;"/><text fill="#000000" font-family="sans-serif" font-size="7.8" lengthAdjust="spacingAndGlyphs" textLength="37.8" x="396" y="558.1096">v1.3.1-qa.0</text><line style="stroke: #A80036; stroke-width: 0.6; stroke-dasharray: 2.0,2.0;" x1="419.1" x2="444.3" y1="581.6344" y2="581.6344"/><line style="stroke: #A80036; stroke-width: 0.6; stroke-dasharray: 2.0,2.0;" x1="444.3" x2="444.3" y1="581.6344" y2="589.4344"/><line style="stroke: #A80036; stroke-width: 0.6; stroke-dasharray: 2.0,2.0;" x1="419.7" x2="444.3" y1="589.4344" y2="589.4344"/><polygon fill="#A80036" points="425.7,587.0344,419.7,589.4344,425.7,591.8344,423.3,589.4344" style="stroke: #A80036; stroke-width: 0.6;"/><text fill="#000000" font-family="sans-serif" font-size="7.8" lengthAdjust="spacingAndGlyphs" textLength="25.2" x="423.3" y="578.7205">Testing</text><polygon fill="#A80036" points="465.3,605.2453,471.3,607.6453,465.3,610.0453,467.7,607.6453" style="stroke: #A80036; stroke-width: 0.6;"/><line style="stroke: #A80036; stroke-width: 0.6;" x1="419.1" x2="468.9" y1="607.6453" y2="607.6453"/><text fill="#000000" font-family="sans-serif" font-size="7.8" lengthAdjust="spacingAndGlyphs" textLength="39" x="423.3" y="604.7314">Bugs found</text><path d="M445.8,615.4453 L445.8,631.0453 L496.2,631.0453 L496.2,621.4453 L490.2,615.4453 L445.8,615.4453 " fill="#FFAAAA" filter="url(#f1w3s3tr9ly7d0)" style="stroke: #A80036; stroke-width: 0.6;"/><path d="M490.2,615.4453 L490.2,621.4453 L496.2,621.4453 L490.2,615.4453 " fill="#FFAAAA" style="stroke: #A80036; stroke-width: 0.6;"/><text fill="#000000" font-family="sans-serif" font-size="7.8" lengthAdjust="spacingAndGlyphs" textLength="37.8" x="449.4" y="626.5424">v1.3.1-qa.0</text><line style="stroke: #A80036; stroke-width: 0.6;" x1="472.5" x2="497.7" y1="650.0672" y2="650.0672"/><line style="stroke: #A80036; stroke-width: 0.6;" x1="497.7" x2="497.7" y1="650.0672" y2="657.8672"/><line style="stroke: #A80036; stroke-width: 0.6;" x1="473.1" x2="497.7" y1="657.8672" y2="657.8672"/><polygon fill="#A80036" points="479.1,655.4672,473.1,657.8672,479.1,660.2672,476.7,657.8672" style="stroke: #A80036; stroke-width: 0.6;"/><text fill="#000000" font-family="sans-serif" font-size="7.8" lengthAdjust="spacingAndGlyphs" textLength="34.2" x="476.7" y="647.1533">Bug fixing</text><path d="M445.8,665.6672 L445.8,681.2672 L496.2,681.2672 L496.2,671.6672 L490.2,665.6672 L445.8,665.6672 " fill="#FFAAAA" filter="url(#f1w3s3tr9ly7d0)" style="stroke: #A80036; stroke-width: 0.6;"/><path d="M490.2,665.6672 L490.2,671.6672 L496.2,671.6672 L490.2,665.6672 " fill="#FFAAAA" style="stroke: #A80036; stroke-width: 0.6;"/><text fill="#000000" font-family="sans-serif" font-size="7.8" lengthAdjust="spacingAndGlyphs" textLength="37.8" x="449.4" y="676.7643">v1.3.1-qa.0</text><polygon fill="#A80036" points="425.7,697.8891,419.7,700.2891,425.7,702.6891,423.3,700.2891" style="stroke: #A80036; stroke-width: 0.6;"/><line style="stroke: #A80036; stroke-width: 0.6;" x1="422.1" x2="471.9" y1="700.2891" y2="700.2891"/><text fill="#000000" font-family="sans-serif" font-size="7.8" lengthAdjust="spacingAndGlyphs" textLength="36.6" x="429.3" y="697.3752">Bugs fixed</text><path d="M392.4,708.0891 L392.4,723.6891 L442.8,723.6891 L442.8,714.0891 L436.8,708.0891 L392.4,708.0891 " fill="#ADFF2F" filter="url(#f1w3s3tr9ly7d0)" style="stroke: #A80036; stroke-width: 0.6;"/><path d="M436.8,708.0891 L436.8,714.0891 L442.8,714.0891 L436.8,708.0891 " fill="#ADFF2F" style="stroke: #A80036; stroke-width: 0.6;"/><text fill="#000000" font-family="sans-serif" font-size="7.8" lengthAdjust="spacingAndGlyphs" textLength="37.8" x="396" y="719.1861">v1.3.1-qa.1</text><polygon fill="#A80036" points="327.9,740.3109,333.9,742.7109,327.9,745.1109,330.3,742.7109" style="stroke: #A80036; stroke-width: 0.6;"/><line style="stroke: #A80036; stroke-width: 0.6;" x1="35.7" x2="331.5" y1="742.7109" y2="742.7109"/><text fill="#000000" font-family="sans-serif" font-size="7.8" lengthAdjust="spacingAndGlyphs" textLength="111" x="39.9" y="739.7971">Start a development of feature C</text><path d="M307.2,750.5109 L307.2,766.1109 L360.6,766.1109 L360.6,756.5109 L354.6,750.5109 L307.2,750.5109 " fill="#FFAAAA" filter="url(#f1w3s3tr9ly7d0)" style="stroke: #A80036; stroke-width: 0.6;"/><path d="M354.6,750.5109 L354.6,756.5109 L360.6,756.5109 L354.6,750.5109 " fill="#FFAAAA" style="stroke: #A80036; stroke-width: 0.6;"/><text fill="#000000" font-family="sans-serif" font-size="7.8" lengthAdjust="spacingAndGlyphs" textLength="40.8" x="310.8" y="761.608">v1.3.1-dev.0</text><line style="stroke: #A80036; stroke-width: 0.6;" x1="335.1" x2="360.3" y1="785.1328" y2="785.1328"/><line style="stroke: #A80036; stroke-width: 0.6;" x1="360.3" x2="360.3" y1="785.1328" y2="792.9328"/><line style="stroke: #A80036; stroke-width: 0.6;" x1="335.7" x2="360.3" y1="792.9328" y2="792.9328"/><polygon fill="#A80036" points="341.7,790.5328,335.7,792.9328,341.7,795.3328,339.3,792.9328" style="stroke: #A80036; stroke-width: 0.6;"/><text fill="#000000" font-family="sans-serif" font-size="7.8" lengthAdjust="spacingAndGlyphs" textLength="75.6" x="339.3" y="782.2189">Develop a new feature</text><line style="stroke: #A80036; stroke-width: 0.6; stroke-dasharray: 2.0,2.0;" x1="335.1" x2="360.3" y1="811.1438" y2="811.1438"/><line style="stroke: #A80036; stroke-width: 0.6; stroke-dasharray: 2.0,2.0;" x1="360.3" x2="360.3" y1="811.1438" y2="818.9438"/><line style="stroke: #A80036; stroke-width: 0.6; stroke-dasharray: 2.0,2.0;" x1="335.7" x2="360.3" y1="818.9438" y2="818.9438"/><polygon fill="#A80036" points="341.7,816.5437,335.7,818.9438,341.7,821.3438,339.3,818.9438" style="stroke: #A80036; stroke-width: 0.6;"/><text fill="#000000" font-family="sans-serif" font-size="7.8" lengthAdjust="spacingAndGlyphs" textLength="28.2" x="339.3" y="808.2299">Dev test</text><line style="stroke: #A80036; stroke-width: 0.6;" x1="335.1" x2="360.3" y1="837.1547" y2="837.1547"/><line style="stroke: #A80036; stroke-width: 0.6;" x1="360.3" x2="360.3" y1="837.1547" y2="844.9547"/><line style="stroke: #A80036; stroke-width: 0.6;" x1="335.7" x2="360.3" y1="844.9547" y2="844.9547"/><polygon fill="#A80036" points="341.7,842.5547,335.7,844.9547,341.7,847.3547,339.3,844.9547" style="stroke: #A80036; stroke-width: 0.6;"/><text fill="#000000" font-family="sans-serif" font-size="7.8" lengthAdjust="spacingAndGlyphs" textLength="36" x="339.3" y="834.2408">Fix issues</text><path d="M307.2,852.7547 L307.2,868.3547 L360.6,868.3547 L360.6,858.7547 L354.6,852.7547 L307.2,852.7547 " fill="#FFAAAA" filter="url(#f1w3s3tr9ly7d0)" style="stroke: #A80036; stroke-width: 0.6;"/><path d="M354.6,852.7547 L354.6,858.7547 L360.6,858.7547 L354.6,852.7547 " fill="#FFAAAA" style="stroke: #A80036; stroke-width: 0.6;"/><text fill="#000000" font-family="sans-serif" font-size="7.8" lengthAdjust="spacingAndGlyphs" textLength="40.8" x="310.8" y="863.8518">v1.3.1-dev.0</text><polygon fill="#A80036" points="327.9,884.9766,333.9,887.3766,327.9,889.7766,330.3,887.3766" style="stroke: #A80036; stroke-width: 0.6;"/><line style="stroke: #A80036; stroke-width: 0.6;" x1="35.7" x2="331.5" y1="887.3766" y2="887.3766"/><text fill="#000000" font-family="sans-serif" font-size="7.8" lengthAdjust="spacingAndGlyphs" textLength="114" x="39.9" y="884.4627">Merge upstream changes (if any)</text><path d="M307.2,895.1766 L307.2,910.7766 L360.6,910.7766 L360.6,901.1766 L354.6,895.1766 L307.2,895.1766 " fill="#FFAAAA" filter="url(#f1w3s3tr9ly7d0)" style="stroke: #A80036; stroke-width: 0.6;"/><path d="M354.6,895.1766 L354.6,901.1766 L360.6,901.1766 L354.6,895.1766 " fill="#FFAAAA" style="stroke: #A80036; stroke-width: 0.6;"/><text fill="#000000" font-family="sans-serif" font-size="7.8" lengthAdjust="spacingAndGlyphs" textLength="40.8" x="310.8" y="906.2736">v1.3.1-dev.1</text><polygon fill="#A80036" points="42.3,927.3984,36.3,929.7984,42.3,932.1984,39.9,929.7984" style="stroke: #A80036; stroke-width: 0.6;"/><line style="stroke: #A80036; stroke-width: 0.6;" x1="38.7" x2="334.5" y1="929.7984" y2="929.7984"/><text fill="#000000" font-family="sans-serif" font-size="7.8" lengthAdjust="spacingAndGlyphs" textLength="117" x="45.9" y="926.8846">Feature C dev is complete (patch)</text><path d="M7.8,937.5984 L7.8,953.1984 L61.2,953.1984 L61.2,943.5984 L55.2,937.5984 L7.8,937.5984 " fill="#ADFF2F" filter="url(#f1w3s3tr9ly7d0)" style="stroke: #A80036; stroke-width: 0.6;"/><path d="M55.2,937.5984 L55.2,943.5984 L61.2,943.5984 L55.2,937.5984 " fill="#ADFF2F" style="stroke: #A80036; stroke-width: 0.6;"/><text fill="#000000" font-family="sans-serif" font-size="7.8" lengthAdjust="spacingAndGlyphs" textLength="40.8" x="11.4" y="948.6955">v1.3.2-dev.0</text><line style="stroke: #A80036; stroke-width: 0.6; stroke-dasharray: 2.0,2.0;" x1="419.1" x2="444.3" y1="972.2203" y2="972.2203"/><line style="stroke: #A80036; stroke-width: 0.6; stroke-dasharray: 2.0,2.0;" x1="444.3" x2="444.3" y1="972.2203" y2="980.0203"/><line style="stroke: #A80036; stroke-width: 0.6; stroke-dasharray: 2.0,2.0;" x1="419.7" x2="444.3" y1="980.0203" y2="980.0203"/><polygon fill="#A80036" points="425.7,977.6203,419.7,980.0203,425.7,982.4203,423.3,980.0203" style="stroke: #A80036; stroke-width: 0.6;"/><text fill="#000000" font-family="sans-serif" font-size="7.8" lengthAdjust="spacingAndGlyphs" textLength="25.2" x="423.3" y="969.3064">Testing</text><polygon fill="#A80036" points="603,995.8313,609,998.2312,603,1000.6312,605.4,998.2312" style="stroke: #A80036; stroke-width: 0.6;"/><line style="stroke: #A80036; stroke-width: 0.6;" x1="419.1" x2="606.6" y1="998.2312" y2="998.2312"/><text fill="#000000" font-family="sans-serif" font-size="7.8" lengthAdjust="spacingAndGlyphs" textLength="63.6" x="423.3" y="995.3174">Changes approved</text><path d="M583.8,1006.0313 L583.8,1021.6312 L634.2,1021.6312 L634.2,1012.0313 L628.2,1006.0313 L583.8,1006.0313 " fill="#ADFF2F" filter="url(#f1w3s3tr9ly7d0)" style="stroke: #A80036; stroke-width: 0.6;"/><path d="M628.2,1006.0313 L628.2,1012.0313 L634.2,1012.0313 L628.2,1006.0313 " fill="#ADFF2F" style="stroke: #A80036; stroke-width: 0.6;"/><text fill="#000000" font-family="sans-serif" font-size="7.8" lengthAdjust="spacingAndGlyphs" textLength="37.8" x="587.4" y="1017.1283">v1.3.1-rel.0</text><polygon fill="#A80036" points="42.3,1038.2531,36.3,1040.6531,42.3,1043.0531,39.9,1040.6531" style="stroke: #A80036; stroke-width: 0.6;"/><line style="stroke: #A80036; stroke-width: 0.6;" x1="38.7" x2="609.6" y1="1040.6531" y2="1040.6531"/><text fill="#000000" font-family="sans-serif" font-size="7.8" lengthAdjust="spacingAndGlyphs" textLength="59.4" x="45.9" y="1037.7393">Merge fixes back</text><path d="M7.8,1048.4531 L7.8,1064.0531 L61.2,1064.0531 L61.2,1054.4531 L55.2,1048.4531 L7.8,1048.4531 " fill="#ADFF2F" filter="url(#f1w3s3tr9ly7d0)" style="stroke: #A80036; stroke-width: 0.6;"/><path d="M55.2,1048.4531 L55.2,1054.4531 L61.2,1054.4531 L55.2,1048.4531 " fill="#ADFF2F" style="stroke: #A80036; stroke-width: 0.6;"/><text fill="#000000" font-family="sans-serif" font-size="7.8" lengthAdjust="spacingAndGlyphs" textLength="40.8" x="11.4" y="1059.5502">v1.3.2-dev.1</text><polygon fill="#A80036" points="411.9,1080.675,417.9,1083.075,411.9,1085.475,414.3,1083.075" style="stroke: #A80036; stroke-width: 0.6;"/><line style="stroke: #A80036; stroke-width: 0.6;" x1="35.7" x2="415.5" y1="1083.075" y2="1083.075"/><text fill="#000000" font-family="sans-serif" font-size="7.8" lengthAdjust="spacingAndGlyphs" textLength="112.8" x="39.9" y="1080.1611">Add a new set of changes to QA</text><path d="M392.4,1090.875 L392.4,1106.475 L442.8,1106.475 L442.8,1096.875 L436.8,1090.875 L392.4,1090.875 " fill="#ADFF2F" filter="url(#f1w3s3tr9ly7d0)" style="stroke: #A80036; stroke-width: 0.6;"/><path d="M436.8,1090.875 L436.8,1096.875 L442.8,1096.875 L436.8,1090.875 " fill="#ADFF2F" style="stroke: #A80036; stroke-width: 0.6;"/><text fill="#000000" font-family="sans-serif" font-size="7.8" lengthAdjust="spacingAndGlyphs" textLength="37.8" x="396" y="1101.9721">v1.3.2-qa.0</text><line style="stroke: #A80036; stroke-width: 0.6; stroke-dasharray: 2.0,2.0;" x1="419.1" x2="444.3" y1="1125.4969" y2="1125.4969"/><line style="stroke: #A80036; stroke-width: 0.6; stroke-dasharray: 2.0,2.0;" x1="444.3" x2="444.3" y1="1125.4969" y2="1133.2969"/><line style="stroke: #A80036; stroke-width: 0.6; stroke-dasharray: 2.0,2.0;" x1="419.7" x2="444.3" y1="1133.2969" y2="1133.2969"/><polygon fill="#A80036" points="425.7,1130.8969,419.7,1133.2969,425.7,1135.6969,423.3,1133.2969" style="stroke: #A80036; stroke-width: 0.6;"/><text fill="#000000" font-family="sans-serif" font-size="7.8" lengthAdjust="spacingAndGlyphs" textLength="25.2" x="423.3" y="1122.583">Testing</text><polygon fill="#A80036" points="542.1,1149.1078,548.1,1151.5078,542.1,1153.9078,544.5,1151.5078" style="stroke: #A80036; stroke-width: 0.6;"/><line style="stroke: #A80036; stroke-width: 0.6;" x1="419.1" x2="545.7" y1="1151.5078" y2="1151.5078"/><text fill="#000000" font-family="sans-serif" font-size="7.8" lengthAdjust="spacingAndGlyphs" textLength="39" x="423.3" y="1148.5939">Bugs found</text><path d="M522.6,1159.3078 L522.6,1174.9078 L573,1174.9078 L573,1165.3078 L567,1159.3078 L522.6,1159.3078 " fill="#FFAAAA" filter="url(#f1w3s3tr9ly7d0)" style="stroke: #A80036; stroke-width: 0.6;"/><path d="M567,1159.3078 L567,1165.3078 L573,1165.3078 L567,1159.3078 " fill="#FFAAAA" style="stroke: #A80036; stroke-width: 0.6;"/><text fill="#000000" font-family="sans-serif" font-size="7.8" lengthAdjust="spacingAndGlyphs" textLength="37.8" x="526.2" y="1170.4049">v1.3.2-qa.0</text><line style="stroke: #A80036; stroke-width: 0.6;" x1="549.3" x2="574.5" y1="1193.9297" y2="1193.9297"/><line style="stroke: #A80036; stroke-width: 0.6;" x1="574.5" x2="574.5" y1="1193.9297" y2="1201.7297"/><line style="stroke: #A80036; stroke-width: 0.6;" x1="549.9" x2="574.5" y1="1201.7297" y2="1201.7297"/><polygon fill="#A80036" points="555.9,1199.3297,549.9,1201.7297,555.9,1204.1297,553.5,1201.7297" style="stroke: #A80036; stroke-width: 0.6;"/><text fill="#000000" font-family="sans-serif" font-size="7.8" lengthAdjust="spacingAndGlyphs" textLength="34.2" x="553.5" y="1191.0158">Bug fixing</text><path d="M522.6,1209.5297 L522.6,1225.1297 L573,1225.1297 L573,1215.5297 L567,1209.5297 L522.6,1209.5297 " fill="#FFAAAA" filter="url(#f1w3s3tr9ly7d0)" style="stroke: #A80036; stroke-width: 0.6;"/><path d="M567,1209.5297 L567,1215.5297 L573,1215.5297 L567,1209.5297 " fill="#FFAAAA" style="stroke: #A80036; stroke-width: 0.6;"/><text fill="#000000" font-family="sans-serif" font-size="7.8" lengthAdjust="spacingAndGlyphs" textLength="37.8" x="526.2" y="1220.6268">v1.3.2-qa.0</text><polygon fill="#A80036" points="425.7,1241.7516,419.7,1244.1516,425.7,1246.5516,423.3,1244.1516" style="stroke: #A80036; stroke-width: 0.6;"/><line style="stroke: #A80036; stroke-width: 0.6;" x1="422.1" x2="548.7" y1="1244.1516" y2="1244.1516"/><text fill="#000000" font-family="sans-serif" font-size="7.8" lengthAdjust="spacingAndGlyphs" textLength="36.6" x="429.3" y="1241.2377">Bugs fixed</text><path d="M392.4,1251.9516 L392.4,1267.5516 L442.8,1267.5516 L442.8,1257.9516 L436.8,1251.9516 L392.4,1251.9516 " fill="#ADFF2F" filter="url(#f1w3s3tr9ly7d0)" style="stroke: #A80036; stroke-width: 0.6;"/><path d="M436.8,1251.9516 L436.8,1257.9516 L442.8,1257.9516 L436.8,1251.9516 " fill="#ADFF2F" style="stroke: #A80036; stroke-width: 0.6;"/><text fill="#000000" font-family="sans-serif" font-size="7.8" lengthAdjust="spacingAndGlyphs" textLength="37.8" x="396" y="1263.0486">v1.3.2-qa.1</text><line style="stroke: #A80036; stroke-width: 0.6; stroke-dasharray: 2.0,2.0;" x1="419.1" x2="444.3" y1="1286.5734" y2="1286.5734"/><line style="stroke: #A80036; stroke-width: 0.6; stroke-dasharray: 2.0,2.0;" x1="444.3" x2="444.3" y1="1286.5734" y2="1294.3734"/><line style="stroke: #A80036; stroke-width: 0.6; stroke-dasharray: 2.0,2.0;" x1="419.7" x2="444.3" y1="1294.3734" y2="1294.3734"/><polygon fill="#A80036" points="425.7,1291.9734,419.7,1294.3734,425.7,1296.7734,423.3,1294.3734" style="stroke: #A80036; stroke-width: 0.6;"/><text fill="#000000" font-family="sans-serif" font-size="7.8" lengthAdjust="spacingAndGlyphs" textLength="25.2" x="423.3" y="1283.6596">Testing</text><polygon fill="#A80036" points="603,1310.1844,609,1312.5844,603,1314.9844,605.4,1312.5844" style="stroke: #A80036; stroke-width: 0.6;"/><line style="stroke: #A80036; stroke-width: 0.6;" x1="419.1" x2="606.6" y1="1312.5844" y2="1312.5844"/><text fill="#000000" font-family="sans-serif" font-size="7.8" lengthAdjust="spacingAndGlyphs" textLength="63.6" x="423.3" y="1309.6705">Changes approved</text><path d="M583.8,1320.3844 L583.8,1335.9844 L634.2,1335.9844 L634.2,1326.3844 L628.2,1320.3844 L583.8,1320.3844 " fill="#ADFF2F" filter="url(#f1w3s3tr9ly7d0)" style="stroke: #A80036; stroke-width: 0.6;"/><path d="M628.2,1320.3844 L628.2,1326.3844 L634.2,1326.3844 L628.2,1320.3844 " fill="#ADFF2F" style="stroke: #A80036; stroke-width: 0.6;"/><text fill="#000000" font-family="sans-serif" font-size="7.8" lengthAdjust="spacingAndGlyphs" textLength="37.8" x="587.4" y="1331.4814">v1.3.2-rel.0</text><polygon fill="#A80036" points="693,1352.6063,699,1355.0063,693,1357.4063,695.4,1355.0063" style="stroke: #A80036; stroke-width: 0.6;"/><line style="stroke: #A80036; stroke-width: 0.6;" x1="610.2" x2="696.6" y1="1355.0063" y2="1355.0063"/><text fill="#000000" font-family="sans-serif" font-size="7.8" lengthAdjust="spacingAndGlyphs" textLength="75.6" x="614.4" y="1352.0924">Release to production</text><path d="M682.2,1362.8062 L682.2,1378.4063 L715.2,1378.4063 L715.2,1368.8062 L709.2,1362.8062 L682.2,1362.8062 " fill="#ADFF2F" filter="url(#f1w3s3tr9ly7d0)" style="stroke: #A80036; stroke-width: 0.6;"/><path d="M709.2,1362.8062 L709.2,1368.8062 L715.2,1368.8062 L709.2,1362.8062 " fill="#ADFF2F" style="stroke: #A80036; stroke-width: 0.6;"/><text fill="#000000" font-family="sans-serif" font-size="7.8" lengthAdjust="spacingAndGlyphs" textLength="20.4" x="685.8" y="1373.9033">v1.3.2</text><!--MD5=[41aa0f15e2b66855008f06f383c74e0b]
@startuml
title A STANDARD DEVELOPMENT WORKFLOW\n notes in green indicates when version is changed\n those commits are tagged and pushed to npm\n yellow boxes are branches
participant "master\n development" as mst
participant "feature-a\n (minor feature)" as f1
participant "feature-b\n (patch feature)" as f2
participant "feature-c\n (patch feature)" as f3
participant "qa\n" as qa
participant "qa-fixes-1.3.1\n ad-hoc qa fixes" as qafix
participant "qa-fixes-1.3.21\n ad-hoc qa fixes" as qafix2
participant "release\n" as rel
participant "production\n" as prod

note over mst #FFAAAA: v1.2.3-dev.3
mst -> f1: Start a development of feature A
note over f1 #FFAAAA: v1.2.3-dev.3
f1 -> f1: Develop a new feature
mst -> f2: Start a development of feature B
note over f2 #FFAAAA: v1.2.3-dev.3
f1 - -> f1: Dev test
f2 -> f2: Develop a new feature
f1 -> f1: Fix issues
note over f1 #FFAAAA: v1.2.3-dev.3
mst -> f1: Merge upstream changes (if any)
f1 -> mst: Feature A dev is complete (minor)
note over mst #GreenYellow: v1.3.0-dev.0

f2 - -> f2: Dev test
f2 -> f2: Fix issues
note over f2 #FFAAAA: v1.2.3-dev.3
mst -> f2: Merge upstream changes (if any)
f2 -> mst: Feature B dev is complete (patch)
note over mst #GreenYellow: v1.3.1-dev.0

mst -> qa: Add a set of changes to QA
note over qa #GreenYellow: v1.3.1-qa.0
qa - -> qa: Testing
qa -> qafix: Bugs found
note over qafix #FFAAAA: v1.3.1-qa.0
qafix -> qafix: Bug fixing
note over qafix #FFAAAA: v1.3.1-qa.0
qafix -> qa: Bugs fixed
note over qa #GreenYellow: v1.3.1-qa.1

mst -> f3: Start a development of feature C
note over f3 #FFAAAA: v1.3.1-dev.0
f3 -> f3: Develop a new feature
f3 - -> f3: Dev test
f3 -> f3: Fix issues
note over f3 #FFAAAA: v1.3.1-dev.0
mst -> f3: Merge upstream changes (if any)
note over f3 #FFAAAA: v1.3.1-dev.1
f3 -> mst: Feature C dev is complete (patch)
note over mst #GreenYellow: v1.3.2-dev.0

qa - -> qa: Testing
qa -> rel: Changes approved
note over rel #GreenYellow: v1.3.1-rel.0
rel -> mst: Merge fixes back
note over mst #GreenYellow: v1.3.2-dev.1

mst -> qa: Add a new set of changes to QA
note over qa #GreenYellow: v1.3.2-qa.0
qa - -> qa: Testing
qa -> qafix2: Bugs found
note over qafix2 #FFAAAA: v1.3.2-qa.0
qafix2 -> qafix2: Bug fixing
note over qafix2 #FFAAAA: v1.3.2-qa.0
qafix2 -> qa: Bugs fixed
note over qa #GreenYellow: v1.3.2-qa.1
qa - -> qa: Testing
qa -> rel: Changes approved
note over rel #GreenYellow: v1.3.2-rel.0

rel -> prod: Release to production
note over prod #GreenYellow: v1.3.2
@enduml

PlantUML version 1.2019.11(Sun Sep 22 14:02:15 SAMT 2019)
(GPL source distribution)
Java Runtime: OpenJDK Runtime Environment
JVM: OpenJDK 64-Bit Server VM
Java Version: 11.0.5+10-b520.30
Operating System: Windows 10
Default Encoding: Cp1251
Language: en
Country: US
--></g></svg>