<?xml version="1.0" encoding="UTF-8" standalone="no"?><svg xmlns="http://www.w3.org/2000/svg" xmlns:xlink="http://www.w3.org/1999/xlink" contentScriptType="application/ecmascript" contentStyleType="text/css" height="2406px" preserveAspectRatio="none" style="width:1216px;height:2406px;" version="1.1" viewBox="0 0 1216 2406" width="1216px" zoomAndPan="magnify"><defs><filter height="300%" id="ftxgcrts6c3uh" width="300%" x="-1" y="-1"><feGaussianBlur result="blurOut" stdDeviation="2.0"/><feColorMatrix in="blurOut" result="blurOut2" type="matrix" values="0 0 0 0 0 0 0 0 0 0 0 0 0 0 0 0 0 0 .4 0"/><feOffset dx="4.0" dy="4.0" in="blurOut2" result="blurOut3"/><feBlend in="SourceGraphic" in2="blurOut3" mode="normal"/></filter></defs><g><text fill="#000000" font-family="sans-serif" font-size="14" font-weight="bold" lengthAdjust="spacingAndGlyphs" textLength="286" x="465.75" y="24.5332">A STANDARD DEVELOPMENT WORKFLOW</text><text fill="#000000" font-family="sans-serif" font-size="14" font-weight="bold" lengthAdjust="spacingAndGlyphs" textLength="352" x="434.75" y="42.1426">notes in green indicates when version is changed</text><text fill="#000000" font-family="sans-serif" font-size="14" font-weight="bold" lengthAdjust="spacingAndGlyphs" textLength="321" x="450.25" y="59.752">those commits are tagged and pushed to npm</text><text fill="#000000" font-family="sans-serif" font-size="14" font-weight="bold" lengthAdjust="spacingAndGlyphs" textLength="188" x="516.75" y="77.3613">yellow boxes are branches</text><line style="stroke: #A80036; stroke-width: 1.0; stroke-dasharray: 5.0,5.0;" x1="59" x2="59" y1="141.6563" y2="2347.0469"/><line style="stroke: #A80036; stroke-width: 1.0; stroke-dasharray: 5.0,5.0;" x1="278.5" x2="278.5" y1="141.6563" y2="2347.0469"/><line style="stroke: #A80036; stroke-width: 1.0; stroke-dasharray: 5.0,5.0;" x1="418.5" x2="418.5" y1="141.6563" y2="2347.0469"/><line style="stroke: #A80036; stroke-width: 1.0; stroke-dasharray: 5.0,5.0;" x1="558.5" x2="558.5" y1="141.6563" y2="2347.0469"/><line style="stroke: #A80036; stroke-width: 1.0; stroke-dasharray: 5.0,5.0;" x1="698.5" x2="698.5" y1="141.6563" y2="2347.0469"/><line style="stroke: #A80036; stroke-width: 1.0; stroke-dasharray: 5.0,5.0;" x1="787.5" x2="787.5" y1="141.6563" y2="2347.0469"/><line style="stroke: #A80036; stroke-width: 1.0; stroke-dasharray: 5.0,5.0;" x1="915.5" x2="915.5" y1="141.6563" y2="2347.0469"/><line style="stroke: #A80036; stroke-width: 1.0; stroke-dasharray: 5.0,5.0;" x1="1016.5" x2="1016.5" y1="141.6563" y2="2347.0469"/><line style="stroke: #A80036; stroke-width: 1.0; stroke-dasharray: 5.0,5.0;" x1="1166.5" x2="1166.5" y1="141.6563" y2="2347.0469"/><rect fill="#FEFECE" filter="url(#ftxgcrts6c3uh)" height="49.2188" style="stroke: #A80036; stroke-width: 1.5;" width="99" x="8" y="87.4375"/><text fill="#000000" font-family="sans-serif" font-size="14" lengthAdjust="spacingAndGlyphs" textLength="43" x="36" y="108.9707">master</text><text fill="#000000" font-family="sans-serif" font-size="14" lengthAdjust="spacingAndGlyphs" textLength="81" x="19" y="126.5801">development</text><rect fill="#FEFECE" filter="url(#ftxgcrts6c3uh)" height="49.2188" style="stroke: #A80036; stroke-width: 1.5;" width="99" x="8" y="2346.0469"/><text fill="#000000" font-family="sans-serif" font-size="14" lengthAdjust="spacingAndGlyphs" textLength="43" x="36" y="2367.5801">master</text><text fill="#000000" font-family="sans-serif" font-size="14" lengthAdjust="spacingAndGlyphs" textLength="81" x="19" y="2385.1895">development</text><rect fill="#FEFECE" filter="url(#ftxgcrts6c3uh)" height="49.2188" style="stroke: #A80036; stroke-width: 1.5;" width="112" x="220.5" y="87.4375"/><text fill="#000000" font-family="sans-serif" font-size="14" lengthAdjust="spacingAndGlyphs" textLength="58" x="247.5" y="108.9707">feature-a</text><text fill="#000000" font-family="sans-serif" font-size="14" lengthAdjust="spacingAndGlyphs" textLength="94" x="231.5" y="126.5801">(minor feature)</text><rect fill="#FEFECE" filter="url(#ftxgcrts6c3uh)" height="49.2188" style="stroke: #A80036; stroke-width: 1.5;" width="112" x="220.5" y="2346.0469"/><text fill="#000000" font-family="sans-serif" font-size="14" lengthAdjust="spacingAndGlyphs" textLength="58" x="247.5" y="2367.5801">feature-a</text><text fill="#000000" font-family="sans-serif" font-size="14" lengthAdjust="spacingAndGlyphs" textLength="94" x="231.5" y="2385.1895">(minor feature)</text><rect fill="#FEFECE" filter="url(#ftxgcrts6c3uh)" height="49.2188" style="stroke: #A80036; stroke-width: 1.5;" width="112" x="360.5" y="87.4375"/><text fill="#000000" font-family="sans-serif" font-size="14" lengthAdjust="spacingAndGlyphs" textLength="58" x="387.5" y="108.9707">feature-b</text><text fill="#000000" font-family="sans-serif" font-size="14" lengthAdjust="spacingAndGlyphs" textLength="94" x="371.5" y="126.5801">(patch feature)</text><rect fill="#FEFECE" filter="url(#ftxgcrts6c3uh)" height="49.2188" style="stroke: #A80036; stroke-width: 1.5;" width="112" x="360.5" y="2346.0469"/><text fill="#000000" font-family="sans-serif" font-size="14" lengthAdjust="spacingAndGlyphs" textLength="58" x="387.5" y="2367.5801">feature-b</text><text fill="#000000" font-family="sans-serif" font-size="14" lengthAdjust="spacingAndGlyphs" textLength="94" x="371.5" y="2385.1895">(patch feature)</text><rect fill="#FEFECE" filter="url(#ftxgcrts6c3uh)" height="49.2188" style="stroke: #A80036; stroke-width: 1.5;" width="112" x="500.5" y="87.4375"/><text fill="#000000" font-family="sans-serif" font-size="14" lengthAdjust="spacingAndGlyphs" textLength="57" x="528" y="108.9707">feature-c</text><text fill="#000000" font-family="sans-serif" font-size="14" lengthAdjust="spacingAndGlyphs" textLength="94" x="511.5" y="126.5801">(patch feature)</text><rect fill="#FEFECE" filter="url(#ftxgcrts6c3uh)" height="49.2188" style="stroke: #A80036; stroke-width: 1.5;" width="112" x="500.5" y="2346.0469"/><text fill="#000000" font-family="sans-serif" font-size="14" lengthAdjust="spacingAndGlyphs" textLength="57" x="528" y="2367.5801">feature-c</text><text fill="#000000" font-family="sans-serif" font-size="14" lengthAdjust="spacingAndGlyphs" textLength="94" x="511.5" y="2385.1895">(patch feature)</text><rect fill="#FEFECE" filter="url(#ftxgcrts6c3uh)" height="49.2188" style="stroke: #A80036; stroke-width: 1.5;" width="30" x="681.5" y="87.4375"/><text fill="#000000" font-family="sans-serif" font-size="14" lengthAdjust="spacingAndGlyphs" textLength="16" x="688.5" y="108.9707">qa</text><text fill="#000000" font-family="sans-serif" font-size="14" lengthAdjust="spacingAndGlyphs" textLength="0" x="698.5" y="126.5801"/><rect fill="#FEFECE" filter="url(#ftxgcrts6c3uh)" height="49.2188" style="stroke: #A80036; stroke-width: 1.5;" width="30" x="681.5" y="2346.0469"/><text fill="#000000" font-family="sans-serif" font-size="14" lengthAdjust="spacingAndGlyphs" textLength="16" x="688.5" y="2367.5801">qa</text><text fill="#000000" font-family="sans-serif" font-size="14" lengthAdjust="spacingAndGlyphs" textLength="0" x="698.5" y="2385.1895"/><rect fill="#FEFECE" filter="url(#ftxgcrts6c3uh)" height="49.2188" style="stroke: #A80036; stroke-width: 1.5;" width="114" x="728.5" y="87.4375"/><text fill="#000000" font-family="sans-serif" font-size="14" lengthAdjust="spacingAndGlyphs" textLength="86" x="742.5" y="108.9707">qa-fixes-1.3.1</text><text fill="#000000" font-family="sans-serif" font-size="14" lengthAdjust="spacingAndGlyphs" textLength="96" x="739.5" y="126.5801">ad-hoc qa fixes</text><rect fill="#FEFECE" filter="url(#ftxgcrts6c3uh)" height="49.2188" style="stroke: #A80036; stroke-width: 1.5;" width="114" x="728.5" y="2346.0469"/><text fill="#000000" font-family="sans-serif" font-size="14" lengthAdjust="spacingAndGlyphs" textLength="86" x="742.5" y="2367.5801">qa-fixes-1.3.1</text><text fill="#000000" font-family="sans-serif" font-size="14" lengthAdjust="spacingAndGlyphs" textLength="96" x="739.5" y="2385.1895">ad-hoc qa fixes</text><rect fill="#FEFECE" filter="url(#ftxgcrts6c3uh)" height="49.2188" style="stroke: #A80036; stroke-width: 1.5;" width="114" x="856.5" y="87.4375"/><text fill="#000000" font-family="sans-serif" font-size="14" lengthAdjust="spacingAndGlyphs" textLength="94" x="866.5" y="108.9707">qa-fixes-1.3.21</text><text fill="#000000" font-family="sans-serif" font-size="14" lengthAdjust="spacingAndGlyphs" textLength="96" x="867.5" y="126.5801">ad-hoc qa fixes</text><rect fill="#FEFECE" filter="url(#ftxgcrts6c3uh)" height="49.2188" style="stroke: #A80036; stroke-width: 1.5;" width="114" x="856.5" y="2346.0469"/><text fill="#000000" font-family="sans-serif" font-size="14" lengthAdjust="spacingAndGlyphs" textLength="94" x="866.5" y="2367.5801">qa-fixes-1.3.21</text><text fill="#000000" font-family="sans-serif" font-size="14" lengthAdjust="spacingAndGlyphs" textLength="96" x="867.5" y="2385.1895">ad-hoc qa fixes</text><rect fill="#FEFECE" filter="url(#ftxgcrts6c3uh)" height="49.2188" style="stroke: #A80036; stroke-width: 1.5;" width="61" x="984.5" y="87.4375"/><text fill="#000000" font-family="sans-serif" font-size="14" lengthAdjust="spacingAndGlyphs" textLength="47" x="991.5" y="108.9707">release</text><text fill="#000000" font-family="sans-serif" font-size="14" lengthAdjust="spacingAndGlyphs" textLength="0" x="1017" y="126.5801"/><rect fill="#FEFECE" filter="url(#ftxgcrts6c3uh)" height="49.2188" style="stroke: #A80036; stroke-width: 1.5;" width="61" x="984.5" y="2346.0469"/><text fill="#000000" font-family="sans-serif" font-size="14" lengthAdjust="spacingAndGlyphs" textLength="47" x="991.5" y="2367.5801">release</text><text fill="#000000" font-family="sans-serif" font-size="14" lengthAdjust="spacingAndGlyphs" textLength="0" x="1017" y="2385.1895"/><rect fill="#FEFECE" filter="url(#ftxgcrts6c3uh)" height="49.2188" style="stroke: #A80036; stroke-width: 1.5;" width="81" x="1124.5" y="87.4375"/><text fill="#000000" font-family="sans-serif" font-size="14" lengthAdjust="spacingAndGlyphs" textLength="67" x="1131.5" y="108.9707">production</text><text fill="#000000" font-family="sans-serif" font-size="14" lengthAdjust="spacingAndGlyphs" textLength="0" x="1167" y="126.5801"/><rect fill="#FEFECE" filter="url(#ftxgcrts6c3uh)" height="49.2188" style="stroke: #A80036; stroke-width: 1.5;" width="81" x="1124.5" y="2346.0469"/><text fill="#000000" font-family="sans-serif" font-size="14" lengthAdjust="spacingAndGlyphs" textLength="67" x="1131.5" y="2367.5801">production</text><text fill="#000000" font-family="sans-serif" font-size="14" lengthAdjust="spacingAndGlyphs" textLength="0" x="1167" y="2385.1895"/><path d="M13,156.6563 L13,182.6563 L102,182.6563 L102,166.6563 L92,156.6563 L13,156.6563 " fill="#FFAAAA" filter="url(#ftxgcrts6c3uh)" style="stroke: #A80036; stroke-width: 1.0;"/><path d="M92,156.6563 L92,166.6563 L102,166.6563 L92,156.6563 " fill="#FFAAAA" style="stroke: #A80036; stroke-width: 1.0;"/><text fill="#000000" font-family="sans-serif" font-size="13" lengthAdjust="spacingAndGlyphs" textLength="68" x="19" y="175.1514">v1.2.3-dev.3</text><polygon fill="#A80036" points="266.5,210.3594,276.5,214.3594,266.5,218.3594,270.5,214.3594" style="stroke: #A80036; stroke-width: 1.0;"/><line style="stroke: #A80036; stroke-width: 1.0;" x1="59.5" x2="272.5" y1="214.3594" y2="214.3594"/><text fill="#000000" font-family="sans-serif" font-size="13" lengthAdjust="spacingAndGlyphs" textLength="185" x="66.5" y="209.5029">Start a development of feature A</text><path d="M232,227.3594 L232,253.3594 L321,253.3594 L321,237.3594 L311,227.3594 L232,227.3594 " fill="#FFAAAA" filter="url(#ftxgcrts6c3uh)" style="stroke: #A80036; stroke-width: 1.0;"/><path d="M311,227.3594 L311,237.3594 L321,237.3594 L311,227.3594 " fill="#FFAAAA" style="stroke: #A80036; stroke-width: 1.0;"/><text fill="#000000" font-family="sans-serif" font-size="13" lengthAdjust="spacingAndGlyphs" textLength="68" x="238" y="245.8545">v1.2.3-dev.3</text><line style="stroke: #A80036; stroke-width: 1.0;" x1="278.5" x2="320.5" y1="285.0625" y2="285.0625"/><line style="stroke: #A80036; stroke-width: 1.0;" x1="320.5" x2="320.5" y1="285.0625" y2="298.0625"/><line style="stroke: #A80036; stroke-width: 1.0;" x1="279.5" x2="320.5" y1="298.0625" y2="298.0625"/><polygon fill="#A80036" points="289.5,294.0625,279.5,298.0625,289.5,302.0625,285.5,298.0625" style="stroke: #A80036; stroke-width: 1.0;"/><text fill="#000000" font-family="sans-serif" font-size="13" lengthAdjust="spacingAndGlyphs" textLength="126" x="285.5" y="280.2061">Develop a new feature</text><polygon fill="#A80036" points="406.5,324.4141,416.5,328.4141,406.5,332.4141,410.5,328.4141" style="stroke: #A80036; stroke-width: 1.0;"/><line style="stroke: #A80036; stroke-width: 1.0;" x1="59.5" x2="412.5" y1="328.4141" y2="328.4141"/><text fill="#000000" font-family="sans-serif" font-size="13" lengthAdjust="spacingAndGlyphs" textLength="185" x="66.5" y="323.5576">Start a development of feature B</text><path d="M372,341.4141 L372,367.4141 L461,367.4141 L461,351.4141 L451,341.4141 L372,341.4141 " fill="#FFAAAA" filter="url(#ftxgcrts6c3uh)" style="stroke: #A80036; stroke-width: 1.0;"/><path d="M451,341.4141 L451,351.4141 L461,351.4141 L451,341.4141 " fill="#FFAAAA" style="stroke: #A80036; stroke-width: 1.0;"/><text fill="#000000" font-family="sans-serif" font-size="13" lengthAdjust="spacingAndGlyphs" textLength="68" x="378" y="359.9092">v1.2.3-dev.3</text><line style="stroke: #A80036; stroke-width: 1.0; stroke-dasharray: 2.0,2.0;" x1="278.5" x2="320.5" y1="399.1172" y2="399.1172"/><line style="stroke: #A80036; stroke-width: 1.0; stroke-dasharray: 2.0,2.0;" x1="320.5" x2="320.5" y1="399.1172" y2="412.1172"/><line style="stroke: #A80036; stroke-width: 1.0; stroke-dasharray: 2.0,2.0;" x1="279.5" x2="320.5" y1="412.1172" y2="412.1172"/><polygon fill="#A80036" points="289.5,408.1172,279.5,412.1172,289.5,416.1172,285.5,412.1172" style="stroke: #A80036; stroke-width: 1.0;"/><text fill="#000000" font-family="sans-serif" font-size="13" lengthAdjust="spacingAndGlyphs" textLength="47" x="285.5" y="394.2607">Dev test</text><line style="stroke: #A80036; stroke-width: 1.0;" x1="418.5" x2="460.5" y1="442.4688" y2="442.4688"/><line style="stroke: #A80036; stroke-width: 1.0;" x1="460.5" x2="460.5" y1="442.4688" y2="455.4688"/><line style="stroke: #A80036; stroke-width: 1.0;" x1="419.5" x2="460.5" y1="455.4688" y2="455.4688"/><polygon fill="#A80036" points="429.5,451.4688,419.5,455.4688,429.5,459.4688,425.5,455.4688" style="stroke: #A80036; stroke-width: 1.0;"/><text fill="#000000" font-family="sans-serif" font-size="13" lengthAdjust="spacingAndGlyphs" textLength="126" x="425.5" y="437.6123">Develop a new feature</text><line style="stroke: #A80036; stroke-width: 1.0;" x1="278.5" x2="320.5" y1="485.8203" y2="485.8203"/><line style="stroke: #A80036; stroke-width: 1.0;" x1="320.5" x2="320.5" y1="485.8203" y2="498.8203"/><line style="stroke: #A80036; stroke-width: 1.0;" x1="279.5" x2="320.5" y1="498.8203" y2="498.8203"/><polygon fill="#A80036" points="289.5,494.8203,279.5,498.8203,289.5,502.8203,285.5,498.8203" style="stroke: #A80036; stroke-width: 1.0;"/><text fill="#000000" font-family="sans-serif" font-size="13" lengthAdjust="spacingAndGlyphs" textLength="60" x="285.5" y="480.9639">Fix issues</text><path d="M232,511.8203 L232,537.8203 L321,537.8203 L321,521.8203 L311,511.8203 L232,511.8203 " fill="#FFAAAA" filter="url(#ftxgcrts6c3uh)" style="stroke: #A80036; stroke-width: 1.0;"/><path d="M311,511.8203 L311,521.8203 L321,521.8203 L311,511.8203 " fill="#FFAAAA" style="stroke: #A80036; stroke-width: 1.0;"/><text fill="#000000" font-family="sans-serif" font-size="13" lengthAdjust="spacingAndGlyphs" textLength="68" x="238" y="530.3154">v1.2.3-dev.3</text><polygon fill="#A80036" points="266.5,565.5234,276.5,569.5234,266.5,573.5234,270.5,569.5234" style="stroke: #A80036; stroke-width: 1.0;"/><line style="stroke: #A80036; stroke-width: 1.0;" x1="59.5" x2="272.5" y1="569.5234" y2="569.5234"/><text fill="#000000" font-family="sans-serif" font-size="13" lengthAdjust="spacingAndGlyphs" textLength="190" x="66.5" y="564.667">Merge upstream changes (if any)</text><polygon fill="#A80036" points="70.5,595.875,60.5,599.875,70.5,603.875,66.5,599.875" style="stroke: #A80036; stroke-width: 1.0;"/><line style="stroke: #A80036; stroke-width: 1.0;" x1="64.5" x2="277.5" y1="599.875" y2="599.875"/><text fill="#000000" font-family="sans-serif" font-size="13" lengthAdjust="spacingAndGlyphs" textLength="195" x="76.5" y="595.0186">Feature A dev is complete (minor)</text><path d="M13,612.875 L13,638.875 L102,638.875 L102,622.875 L92,612.875 L13,612.875 " fill="#ADFF2F" filter="url(#ftxgcrts6c3uh)" style="stroke: #A80036; stroke-width: 1.0;"/><path d="M92,612.875 L92,622.875 L102,622.875 L92,612.875 " fill="#ADFF2F" style="stroke: #A80036; stroke-width: 1.0;"/><text fill="#000000" font-family="sans-serif" font-size="13" lengthAdjust="spacingAndGlyphs" textLength="68" x="19" y="631.3701">v1.3.0-dev.0</text><line style="stroke: #A80036; stroke-width: 1.0; stroke-dasharray: 2.0,2.0;" x1="418.5" x2="460.5" y1="670.5781" y2="670.5781"/><line style="stroke: #A80036; stroke-width: 1.0; stroke-dasharray: 2.0,2.0;" x1="460.5" x2="460.5" y1="670.5781" y2="683.5781"/><line style="stroke: #A80036; stroke-width: 1.0; stroke-dasharray: 2.0,2.0;" x1="419.5" x2="460.5" y1="683.5781" y2="683.5781"/><polygon fill="#A80036" points="429.5,679.5781,419.5,683.5781,429.5,687.5781,425.5,683.5781" style="stroke: #A80036; stroke-width: 1.0;"/><text fill="#000000" font-family="sans-serif" font-size="13" lengthAdjust="spacingAndGlyphs" textLength="47" x="425.5" y="665.7217">Dev test</text><line style="stroke: #A80036; stroke-width: 1.0;" x1="418.5" x2="460.5" y1="713.9297" y2="713.9297"/><line style="stroke: #A80036; stroke-width: 1.0;" x1="460.5" x2="460.5" y1="713.9297" y2="726.9297"/><line style="stroke: #A80036; stroke-width: 1.0;" x1="419.5" x2="460.5" y1="726.9297" y2="726.9297"/><polygon fill="#A80036" points="429.5,722.9297,419.5,726.9297,429.5,730.9297,425.5,726.9297" style="stroke: #A80036; stroke-width: 1.0;"/><text fill="#000000" font-family="sans-serif" font-size="13" lengthAdjust="spacingAndGlyphs" textLength="60" x="425.5" y="709.0732">Fix issues</text><path d="M372,739.9297 L372,765.9297 L461,765.9297 L461,749.9297 L451,739.9297 L372,739.9297 " fill="#FFAAAA" filter="url(#ftxgcrts6c3uh)" style="stroke: #A80036; stroke-width: 1.0;"/><path d="M451,739.9297 L451,749.9297 L461,749.9297 L451,739.9297 " fill="#FFAAAA" style="stroke: #A80036; stroke-width: 1.0;"/><text fill="#000000" font-family="sans-serif" font-size="13" lengthAdjust="spacingAndGlyphs" textLength="68" x="378" y="758.4248">v1.2.3-dev.3</text><polygon fill="#A80036" points="406.5,793.6328,416.5,797.6328,406.5,801.6328,410.5,797.6328" style="stroke: #A80036; stroke-width: 1.0;"/><line style="stroke: #A80036; stroke-width: 1.0;" x1="59.5" x2="412.5" y1="797.6328" y2="797.6328"/><text fill="#000000" font-family="sans-serif" font-size="13" lengthAdjust="spacingAndGlyphs" textLength="190" x="66.5" y="792.7764">Merge upstream changes (if any)</text><polygon fill="#A80036" points="70.5,823.9844,60.5,827.9844,70.5,831.9844,66.5,827.9844" style="stroke: #A80036; stroke-width: 1.0;"/><line style="stroke: #A80036; stroke-width: 1.0;" x1="64.5" x2="417.5" y1="827.9844" y2="827.9844"/><text fill="#000000" font-family="sans-serif" font-size="13" lengthAdjust="spacingAndGlyphs" textLength="195" x="76.5" y="823.1279">Feature B dev is complete (patch)</text><path d="M13,840.9844 L13,866.9844 L102,866.9844 L102,850.9844 L92,840.9844 L13,840.9844 " fill="#ADFF2F" filter="url(#ftxgcrts6c3uh)" style="stroke: #A80036; stroke-width: 1.0;"/><path d="M92,840.9844 L92,850.9844 L102,850.9844 L92,840.9844 " fill="#ADFF2F" style="stroke: #A80036; stroke-width: 1.0;"/><text fill="#000000" font-family="sans-serif" font-size="13" lengthAdjust="spacingAndGlyphs" textLength="68" x="19" y="859.4795">v1.3.1-dev.0</text><polygon fill="#A80036" points="686.5,894.6875,696.5,898.6875,686.5,902.6875,690.5,898.6875" style="stroke: #A80036; stroke-width: 1.0;"/><line style="stroke: #A80036; stroke-width: 1.0;" x1="59.5" x2="692.5" y1="898.6875" y2="898.6875"/><text fill="#000000" font-family="sans-serif" font-size="13" lengthAdjust="spacingAndGlyphs" textLength="161" x="66.5" y="893.8311">Add a set of changes to QA</text><path d="M654,911.6875 L654,937.6875 L738,937.6875 L738,921.6875 L728,911.6875 L654,911.6875 " fill="#ADFF2F" filter="url(#ftxgcrts6c3uh)" style="stroke: #A80036; stroke-width: 1.0;"/><path d="M728,911.6875 L728,921.6875 L738,921.6875 L728,911.6875 " fill="#ADFF2F" style="stroke: #A80036; stroke-width: 1.0;"/><text fill="#000000" font-family="sans-serif" font-size="13" lengthAdjust="spacingAndGlyphs" textLength="63" x="660" y="930.1826">v1.3.1-qa.0</text><line style="stroke: #A80036; stroke-width: 1.0; stroke-dasharray: 2.0,2.0;" x1="698.5" x2="740.5" y1="969.3906" y2="969.3906"/><line style="stroke: #A80036; stroke-width: 1.0; stroke-dasharray: 2.0,2.0;" x1="740.5" x2="740.5" y1="969.3906" y2="982.3906"/><line style="stroke: #A80036; stroke-width: 1.0; stroke-dasharray: 2.0,2.0;" x1="699.5" x2="740.5" y1="982.3906" y2="982.3906"/><polygon fill="#A80036" points="709.5,978.3906,699.5,982.3906,709.5,986.3906,705.5,982.3906" style="stroke: #A80036; stroke-width: 1.0;"/><text fill="#000000" font-family="sans-serif" font-size="13" lengthAdjust="spacingAndGlyphs" textLength="42" x="705.5" y="964.5342">Testing</text><polygon fill="#A80036" points="775.5,1008.7422,785.5,1012.7422,775.5,1016.7422,779.5,1012.7422" style="stroke: #A80036; stroke-width: 1.0;"/><line style="stroke: #A80036; stroke-width: 1.0;" x1="698.5" x2="781.5" y1="1012.7422" y2="1012.7422"/><text fill="#000000" font-family="sans-serif" font-size="13" lengthAdjust="spacingAndGlyphs" textLength="65" x="705.5" y="1007.8857">Bugs found</text><path d="M743,1025.7422 L743,1051.7422 L827,1051.7422 L827,1035.7422 L817,1025.7422 L743,1025.7422 " fill="#FFAAAA" filter="url(#ftxgcrts6c3uh)" style="stroke: #A80036; stroke-width: 1.0;"/><path d="M817,1025.7422 L817,1035.7422 L827,1035.7422 L817,1025.7422 " fill="#FFAAAA" style="stroke: #A80036; stroke-width: 1.0;"/><text fill="#000000" font-family="sans-serif" font-size="13" lengthAdjust="spacingAndGlyphs" textLength="63" x="749" y="1044.2373">v1.3.1-qa.0</text><line style="stroke: #A80036; stroke-width: 1.0;" x1="787.5" x2="829.5" y1="1083.4453" y2="1083.4453"/><line style="stroke: #A80036; stroke-width: 1.0;" x1="829.5" x2="829.5" y1="1083.4453" y2="1096.4453"/><line style="stroke: #A80036; stroke-width: 1.0;" x1="788.5" x2="829.5" y1="1096.4453" y2="1096.4453"/><polygon fill="#A80036" points="798.5,1092.4453,788.5,1096.4453,798.5,1100.4453,794.5,1096.4453" style="stroke: #A80036; stroke-width: 1.0;"/><text fill="#000000" font-family="sans-serif" font-size="13" lengthAdjust="spacingAndGlyphs" textLength="57" x="794.5" y="1078.5889">Bug fixing</text><path d="M743,1109.4453 L743,1135.4453 L827,1135.4453 L827,1119.4453 L817,1109.4453 L743,1109.4453 " fill="#FFAAAA" filter="url(#ftxgcrts6c3uh)" style="stroke: #A80036; stroke-width: 1.0;"/><path d="M817,1109.4453 L817,1119.4453 L827,1119.4453 L817,1109.4453 " fill="#FFAAAA" style="stroke: #A80036; stroke-width: 1.0;"/><text fill="#000000" font-family="sans-serif" font-size="13" lengthAdjust="spacingAndGlyphs" textLength="63" x="749" y="1127.9404">v1.3.1-qa.0</text><polygon fill="#A80036" points="709.5,1163.1484,699.5,1167.1484,709.5,1171.1484,705.5,1167.1484" style="stroke: #A80036; stroke-width: 1.0;"/><line style="stroke: #A80036; stroke-width: 1.0;" x1="703.5" x2="786.5" y1="1167.1484" y2="1167.1484"/><text fill="#000000" font-family="sans-serif" font-size="13" lengthAdjust="spacingAndGlyphs" textLength="61" x="715.5" y="1162.292">Bugs fixed</text><path d="M654,1180.1484 L654,1206.1484 L738,1206.1484 L738,1190.1484 L728,1180.1484 L654,1180.1484 " fill="#ADFF2F" filter="url(#ftxgcrts6c3uh)" style="stroke: #A80036; stroke-width: 1.0;"/><path d="M728,1180.1484 L728,1190.1484 L738,1190.1484 L728,1180.1484 " fill="#ADFF2F" style="stroke: #A80036; stroke-width: 1.0;"/><text fill="#000000" font-family="sans-serif" font-size="13" lengthAdjust="spacingAndGlyphs" textLength="63" x="660" y="1198.6436">v1.3.1-qa.1</text><polygon fill="#A80036" points="546.5,1233.8516,556.5,1237.8516,546.5,1241.8516,550.5,1237.8516" style="stroke: #A80036; stroke-width: 1.0;"/><line style="stroke: #A80036; stroke-width: 1.0;" x1="59.5" x2="552.5" y1="1237.8516" y2="1237.8516"/><text fill="#000000" font-family="sans-serif" font-size="13" lengthAdjust="spacingAndGlyphs" textLength="185" x="66.5" y="1232.9951">Start a development of feature C</text><path d="M512,1250.8516 L512,1276.8516 L601,1276.8516 L601,1260.8516 L591,1250.8516 L512,1250.8516 " fill="#FFAAAA" filter="url(#ftxgcrts6c3uh)" style="stroke: #A80036; stroke-width: 1.0;"/><path d="M591,1250.8516 L591,1260.8516 L601,1260.8516 L591,1250.8516 " fill="#FFAAAA" style="stroke: #A80036; stroke-width: 1.0;"/><text fill="#000000" font-family="sans-serif" font-size="13" lengthAdjust="spacingAndGlyphs" textLength="68" x="518" y="1269.3467">v1.3.1-dev.0</text><line style="stroke: #A80036; stroke-width: 1.0;" x1="558.5" x2="600.5" y1="1308.5547" y2="1308.5547"/><line style="stroke: #A80036; stroke-width: 1.0;" x1="600.5" x2="600.5" y1="1308.5547" y2="1321.5547"/><line style="stroke: #A80036; stroke-width: 1.0;" x1="559.5" x2="600.5" y1="1321.5547" y2="1321.5547"/><polygon fill="#A80036" points="569.5,1317.5547,559.5,1321.5547,569.5,1325.5547,565.5,1321.5547" style="stroke: #A80036; stroke-width: 1.0;"/><text fill="#000000" font-family="sans-serif" font-size="13" lengthAdjust="spacingAndGlyphs" textLength="126" x="565.5" y="1303.6982">Develop a new feature</text><line style="stroke: #A80036; stroke-width: 1.0; stroke-dasharray: 2.0,2.0;" x1="558.5" x2="600.5" y1="1351.9063" y2="1351.9063"/><line style="stroke: #A80036; stroke-width: 1.0; stroke-dasharray: 2.0,2.0;" x1="600.5" x2="600.5" y1="1351.9063" y2="1364.9063"/><line style="stroke: #A80036; stroke-width: 1.0; stroke-dasharray: 2.0,2.0;" x1="559.5" x2="600.5" y1="1364.9063" y2="1364.9063"/><polygon fill="#A80036" points="569.5,1360.9063,559.5,1364.9063,569.5,1368.9063,565.5,1364.9063" style="stroke: #A80036; stroke-width: 1.0;"/><text fill="#000000" font-family="sans-serif" font-size="13" lengthAdjust="spacingAndGlyphs" textLength="47" x="565.5" y="1347.0498">Dev test</text><line style="stroke: #A80036; stroke-width: 1.0;" x1="558.5" x2="600.5" y1="1395.2578" y2="1395.2578"/><line style="stroke: #A80036; stroke-width: 1.0;" x1="600.5" x2="600.5" y1="1395.2578" y2="1408.2578"/><line style="stroke: #A80036; stroke-width: 1.0;" x1="559.5" x2="600.5" y1="1408.2578" y2="1408.2578"/><polygon fill="#A80036" points="569.5,1404.2578,559.5,1408.2578,569.5,1412.2578,565.5,1408.2578" style="stroke: #A80036; stroke-width: 1.0;"/><text fill="#000000" font-family="sans-serif" font-size="13" lengthAdjust="spacingAndGlyphs" textLength="60" x="565.5" y="1390.4014">Fix issues</text><path d="M512,1421.2578 L512,1447.2578 L601,1447.2578 L601,1431.2578 L591,1421.2578 L512,1421.2578 " fill="#FFAAAA" filter="url(#ftxgcrts6c3uh)" style="stroke: #A80036; stroke-width: 1.0;"/><path d="M591,1421.2578 L591,1431.2578 L601,1431.2578 L591,1421.2578 " fill="#FFAAAA" style="stroke: #A80036; stroke-width: 1.0;"/><text fill="#000000" font-family="sans-serif" font-size="13" lengthAdjust="spacingAndGlyphs" textLength="68" x="518" y="1439.7529">v1.3.1-dev.0</text><polygon fill="#A80036" points="546.5,1474.9609,556.5,1478.9609,546.5,1482.9609,550.5,1478.9609" style="stroke: #A80036; stroke-width: 1.0;"/><line style="stroke: #A80036; stroke-width: 1.0;" x1="59.5" x2="552.5" y1="1478.9609" y2="1478.9609"/><text fill="#000000" font-family="sans-serif" font-size="13" lengthAdjust="spacingAndGlyphs" textLength="190" x="66.5" y="1474.1045">Merge upstream changes (if any)</text><path d="M512,1491.9609 L512,1517.9609 L601,1517.9609 L601,1501.9609 L591,1491.9609 L512,1491.9609 " fill="#FFAAAA" filter="url(#ftxgcrts6c3uh)" style="stroke: #A80036; stroke-width: 1.0;"/><path d="M591,1491.9609 L591,1501.9609 L601,1501.9609 L591,1491.9609 " fill="#FFAAAA" style="stroke: #A80036; stroke-width: 1.0;"/><text fill="#000000" font-family="sans-serif" font-size="13" lengthAdjust="spacingAndGlyphs" textLength="68" x="518" y="1510.4561">v1.3.1-dev.1</text><polygon fill="#A80036" points="70.5,1545.6641,60.5,1549.6641,70.5,1553.6641,66.5,1549.6641" style="stroke: #A80036; stroke-width: 1.0;"/><line style="stroke: #A80036; stroke-width: 1.0;" x1="64.5" x2="557.5" y1="1549.6641" y2="1549.6641"/><text fill="#000000" font-family="sans-serif" font-size="13" lengthAdjust="spacingAndGlyphs" textLength="195" x="76.5" y="1544.8076">Feature C dev is complete (patch)</text><path d="M13,1562.6641 L13,1588.6641 L102,1588.6641 L102,1572.6641 L92,1562.6641 L13,1562.6641 " fill="#ADFF2F" filter="url(#ftxgcrts6c3uh)" style="stroke: #A80036; stroke-width: 1.0;"/><path d="M92,1562.6641 L92,1572.6641 L102,1572.6641 L92,1562.6641 " fill="#ADFF2F" style="stroke: #A80036; stroke-width: 1.0;"/><text fill="#000000" font-family="sans-serif" font-size="13" lengthAdjust="spacingAndGlyphs" textLength="68" x="19" y="1581.1592">v1.3.2-dev.0</text><line style="stroke: #A80036; stroke-width: 1.0; stroke-dasharray: 2.0,2.0;" x1="698.5" x2="740.5" y1="1620.3672" y2="1620.3672"/><line style="stroke: #A80036; stroke-width: 1.0; stroke-dasharray: 2.0,2.0;" x1="740.5" x2="740.5" y1="1620.3672" y2="1633.3672"/><line style="stroke: #A80036; stroke-width: 1.0; stroke-dasharray: 2.0,2.0;" x1="699.5" x2="740.5" y1="1633.3672" y2="1633.3672"/><polygon fill="#A80036" points="709.5,1629.3672,699.5,1633.3672,709.5,1637.3672,705.5,1633.3672" style="stroke: #A80036; stroke-width: 1.0;"/><text fill="#000000" font-family="sans-serif" font-size="13" lengthAdjust="spacingAndGlyphs" textLength="42" x="705.5" y="1615.5107">Testing</text><polygon fill="#A80036" points="1005,1659.7188,1015,1663.7188,1005,1667.7188,1009,1663.7188" style="stroke: #A80036; stroke-width: 1.0;"/><line style="stroke: #A80036; stroke-width: 1.0;" x1="698.5" x2="1011" y1="1663.7188" y2="1663.7188"/><text fill="#000000" font-family="sans-serif" font-size="13" lengthAdjust="spacingAndGlyphs" textLength="106" x="705.5" y="1658.8623">Changes approved</text><path d="M973,1676.7188 L973,1702.7188 L1057,1702.7188 L1057,1686.7188 L1047,1676.7188 L973,1676.7188 " fill="#ADFF2F" filter="url(#ftxgcrts6c3uh)" style="stroke: #A80036; stroke-width: 1.0;"/><path d="M1047,1676.7188 L1047,1686.7188 L1057,1686.7188 L1047,1676.7188 " fill="#ADFF2F" style="stroke: #A80036; stroke-width: 1.0;"/><text fill="#000000" font-family="sans-serif" font-size="13" lengthAdjust="spacingAndGlyphs" textLength="63" x="979" y="1695.2139">v1.3.1-rel.0</text><polygon fill="#A80036" points="70.5,1730.4219,60.5,1734.4219,70.5,1738.4219,66.5,1734.4219" style="stroke: #A80036; stroke-width: 1.0;"/><line style="stroke: #A80036; stroke-width: 1.0;" x1="64.5" x2="1016" y1="1734.4219" y2="1734.4219"/><text fill="#000000" font-family="sans-serif" font-size="13" lengthAdjust="spacingAndGlyphs" textLength="99" x="76.5" y="1729.5654">Merge fixes back</text><path d="M13,1747.4219 L13,1773.4219 L102,1773.4219 L102,1757.4219 L92,1747.4219 L13,1747.4219 " fill="#ADFF2F" filter="url(#ftxgcrts6c3uh)" style="stroke: #A80036; stroke-width: 1.0;"/><path d="M92,1747.4219 L92,1757.4219 L102,1757.4219 L92,1747.4219 " fill="#ADFF2F" style="stroke: #A80036; stroke-width: 1.0;"/><text fill="#000000" font-family="sans-serif" font-size="13" lengthAdjust="spacingAndGlyphs" textLength="68" x="19" y="1765.917">v1.3.2-dev.1</text><polygon fill="#A80036" points="686.5,1801.125,696.5,1805.125,686.5,1809.125,690.5,1805.125" style="stroke: #A80036; stroke-width: 1.0;"/><line style="stroke: #A80036; stroke-width: 1.0;" x1="59.5" x2="692.5" y1="1805.125" y2="1805.125"/><text fill="#000000" font-family="sans-serif" font-size="13" lengthAdjust="spacingAndGlyphs" textLength="188" x="66.5" y="1800.2686">Add a new set of changes to QA</text><path d="M654,1818.125 L654,1844.125 L738,1844.125 L738,1828.125 L728,1818.125 L654,1818.125 " fill="#ADFF2F" filter="url(#ftxgcrts6c3uh)" style="stroke: #A80036; stroke-width: 1.0;"/><path d="M728,1818.125 L728,1828.125 L738,1828.125 L728,1818.125 " fill="#ADFF2F" style="stroke: #A80036; stroke-width: 1.0;"/><text fill="#000000" font-family="sans-serif" font-size="13" lengthAdjust="spacingAndGlyphs" textLength="63" x="660" y="1836.6201">v1.3.2-qa.0</text><line style="stroke: #A80036; stroke-width: 1.0; stroke-dasharray: 2.0,2.0;" x1="698.5" x2="740.5" y1="1875.8281" y2="1875.8281"/><line style="stroke: #A80036; stroke-width: 1.0; stroke-dasharray: 2.0,2.0;" x1="740.5" x2="740.5" y1="1875.8281" y2="1888.8281"/><line style="stroke: #A80036; stroke-width: 1.0; stroke-dasharray: 2.0,2.0;" x1="699.5" x2="740.5" y1="1888.8281" y2="1888.8281"/><polygon fill="#A80036" points="709.5,1884.8281,699.5,1888.8281,709.5,1892.8281,705.5,1888.8281" style="stroke: #A80036; stroke-width: 1.0;"/><text fill="#000000" font-family="sans-serif" font-size="13" lengthAdjust="spacingAndGlyphs" textLength="42" x="705.5" y="1870.9717">Testing</text><polygon fill="#A80036" points="903.5,1915.1797,913.5,1919.1797,903.5,1923.1797,907.5,1919.1797" style="stroke: #A80036; stroke-width: 1.0;"/><line style="stroke: #A80036; stroke-width: 1.0;" x1="698.5" x2="909.5" y1="1919.1797" y2="1919.1797"/><text fill="#000000" font-family="sans-serif" font-size="13" lengthAdjust="spacingAndGlyphs" textLength="65" x="705.5" y="1914.3232">Bugs found</text><path d="M871,1932.1797 L871,1958.1797 L955,1958.1797 L955,1942.1797 L945,1932.1797 L871,1932.1797 " fill="#FFAAAA" filter="url(#ftxgcrts6c3uh)" style="stroke: #A80036; stroke-width: 1.0;"/><path d="M945,1932.1797 L945,1942.1797 L955,1942.1797 L945,1932.1797 " fill="#FFAAAA" style="stroke: #A80036; stroke-width: 1.0;"/><text fill="#000000" font-family="sans-serif" font-size="13" lengthAdjust="spacingAndGlyphs" textLength="63" x="877" y="1950.6748">v1.3.2-qa.0</text><line style="stroke: #A80036; stroke-width: 1.0;" x1="915.5" x2="957.5" y1="1989.8828" y2="1989.8828"/><line style="stroke: #A80036; stroke-width: 1.0;" x1="957.5" x2="957.5" y1="1989.8828" y2="2002.8828"/><line style="stroke: #A80036; stroke-width: 1.0;" x1="916.5" x2="957.5" y1="2002.8828" y2="2002.8828"/><polygon fill="#A80036" points="926.5,1998.8828,916.5,2002.8828,926.5,2006.8828,922.5,2002.8828" style="stroke: #A80036; stroke-width: 1.0;"/><text fill="#000000" font-family="sans-serif" font-size="13" lengthAdjust="spacingAndGlyphs" textLength="57" x="922.5" y="1985.0264">Bug fixing</text><path d="M871,2015.8828 L871,2041.8828 L955,2041.8828 L955,2025.8828 L945,2015.8828 L871,2015.8828 " fill="#FFAAAA" filter="url(#ftxgcrts6c3uh)" style="stroke: #A80036; stroke-width: 1.0;"/><path d="M945,2015.8828 L945,2025.8828 L955,2025.8828 L945,2015.8828 " fill="#FFAAAA" style="stroke: #A80036; stroke-width: 1.0;"/><text fill="#000000" font-family="sans-serif" font-size="13" lengthAdjust="spacingAndGlyphs" textLength="63" x="877" y="2034.3779">v1.3.2-qa.0</text><polygon fill="#A80036" points="709.5,2069.5859,699.5,2073.5859,709.5,2077.5859,705.5,2073.5859" style="stroke: #A80036; stroke-width: 1.0;"/><line style="stroke: #A80036; stroke-width: 1.0;" x1="703.5" x2="914.5" y1="2073.5859" y2="2073.5859"/><text fill="#000000" font-family="sans-serif" font-size="13" lengthAdjust="spacingAndGlyphs" textLength="61" x="715.5" y="2068.7295">Bugs fixed</text><path d="M654,2086.5859 L654,2112.5859 L738,2112.5859 L738,2096.5859 L728,2086.5859 L654,2086.5859 " fill="#ADFF2F" filter="url(#ftxgcrts6c3uh)" style="stroke: #A80036; stroke-width: 1.0;"/><path d="M728,2086.5859 L728,2096.5859 L738,2096.5859 L728,2086.5859 " fill="#ADFF2F" style="stroke: #A80036; stroke-width: 1.0;"/><text fill="#000000" font-family="sans-serif" font-size="13" lengthAdjust="spacingAndGlyphs" textLength="63" x="660" y="2105.0811">v1.3.2-qa.1</text><line style="stroke: #A80036; stroke-width: 1.0; stroke-dasharray: 2.0,2.0;" x1="698.5" x2="740.5" y1="2144.2891" y2="2144.2891"/><line style="stroke: #A80036; stroke-width: 1.0; stroke-dasharray: 2.0,2.0;" x1="740.5" x2="740.5" y1="2144.2891" y2="2157.2891"/><line style="stroke: #A80036; stroke-width: 1.0; stroke-dasharray: 2.0,2.0;" x1="699.5" x2="740.5" y1="2157.2891" y2="2157.2891"/><polygon fill="#A80036" points="709.5,2153.2891,699.5,2157.2891,709.5,2161.2891,705.5,2157.2891" style="stroke: #A80036; stroke-width: 1.0;"/><text fill="#000000" font-family="sans-serif" font-size="13" lengthAdjust="spacingAndGlyphs" textLength="42" x="705.5" y="2139.4326">Testing</text><polygon fill="#A80036" points="1005,2183.6406,1015,2187.6406,1005,2191.6406,1009,2187.6406" style="stroke: #A80036; stroke-width: 1.0;"/><line style="stroke: #A80036; stroke-width: 1.0;" x1="698.5" x2="1011" y1="2187.6406" y2="2187.6406"/><text fill="#000000" font-family="sans-serif" font-size="13" lengthAdjust="spacingAndGlyphs" textLength="106" x="705.5" y="2182.7842">Changes approved</text><path d="M973,2200.6406 L973,2226.6406 L1057,2226.6406 L1057,2210.6406 L1047,2200.6406 L973,2200.6406 " fill="#ADFF2F" filter="url(#ftxgcrts6c3uh)" style="stroke: #A80036; stroke-width: 1.0;"/><path d="M1047,2200.6406 L1047,2210.6406 L1057,2210.6406 L1047,2200.6406 " fill="#ADFF2F" style="stroke: #A80036; stroke-width: 1.0;"/><text fill="#000000" font-family="sans-serif" font-size="13" lengthAdjust="spacingAndGlyphs" textLength="63" x="979" y="2219.1357">v1.3.2-rel.0</text><polygon fill="#A80036" points="70.5,2254.3438,60.5,2258.3438,70.5,2262.3438,66.5,2258.3438" style="stroke: #A80036; stroke-width: 1.0;"/><line style="stroke: #A80036; stroke-width: 1.0;" x1="64.5" x2="1016" y1="2258.3438" y2="2258.3438"/><text fill="#000000" font-family="sans-serif" font-size="13" lengthAdjust="spacingAndGlyphs" textLength="99" x="76.5" y="2253.4873">Merge fixes back</text><polygon fill="#A80036" points="1155,2284.6953,1165,2288.6953,1155,2292.6953,1159,2288.6953" style="stroke: #A80036; stroke-width: 1.0;"/><line style="stroke: #A80036; stroke-width: 1.0;" x1="1017" x2="1161" y1="2288.6953" y2="2288.6953"/><text fill="#000000" font-family="sans-serif" font-size="13" lengthAdjust="spacingAndGlyphs" textLength="126" x="1024" y="2283.8389">Release to production</text><path d="M1137,2301.6953 L1137,2327.6953 L1192,2327.6953 L1192,2311.6953 L1182,2301.6953 L1137,2301.6953 " fill="#ADFF2F" filter="url(#ftxgcrts6c3uh)" style="stroke: #A80036; stroke-width: 1.0;"/><path d="M1182,2301.6953 L1182,2311.6953 L1192,2311.6953 L1182,2301.6953 " fill="#ADFF2F" style="stroke: #A80036; stroke-width: 1.0;"/><text fill="#000000" font-family="sans-serif" font-size="13" lengthAdjust="spacingAndGlyphs" textLength="34" x="1143" y="2320.1904">v1.3.2</text><!--MD5=[5499b814f595ed486aa8213ed9c833f4]
@startuml
title A STANDARD DEVELOPMENT WORKFLOW\n notes in green indicates when version is changed\n those commits are tagged and pushed to npm\n yellow boxes are branches
participant "master\n development" as mst
participant "feature-a\n (minor feature)" as f1
participant "feature-b\n (patch feature)" as f2
participant "feature-c\n (patch feature)" as f3
participant "qa\n" as qa
participant "qa-fixes-1.3.1\n ad-hoc qa fixes" as qafix
participant "qa-fixes-1.3.21\n ad-hoc qa fixes" as qafix2
participant "release\n" as rel
participant "production\n" as prod

note over mst #FFAAAA: v1.2.3-dev.3
mst -> f1: Start a development of feature A
note over f1 #FFAAAA: v1.2.3-dev.3
f1 -> f1: Develop a new feature
mst -> f2: Start a development of feature B
note over f2 #FFAAAA: v1.2.3-dev.3
f1 - -> f1: Dev test
f2 -> f2: Develop a new feature
f1 -> f1: Fix issues
note over f1 #FFAAAA: v1.2.3-dev.3
mst -> f1: Merge upstream changes (if any)
f1 -> mst: Feature A dev is complete (minor)
note over mst #GreenYellow: v1.3.0-dev.0

f2 - -> f2: Dev test
f2 -> f2: Fix issues
note over f2 #FFAAAA: v1.2.3-dev.3
mst -> f2: Merge upstream changes (if any)
f2 -> mst: Feature B dev is complete (patch)
note over mst #GreenYellow: v1.3.1-dev.0

mst -> qa: Add a set of changes to QA
note over qa #GreenYellow: v1.3.1-qa.0
qa - -> qa: Testing
qa -> qafix: Bugs found
note over qafix #FFAAAA: v1.3.1-qa.0
qafix -> qafix: Bug fixing
note over qafix #FFAAAA: v1.3.1-qa.0
qafix -> qa: Bugs fixed
note over qa #GreenYellow: v1.3.1-qa.1

mst -> f3: Start a development of feature C
note over f3 #FFAAAA: v1.3.1-dev.0
f3 -> f3: Develop a new feature
f3 - -> f3: Dev test
f3 -> f3: Fix issues
note over f3 #FFAAAA: v1.3.1-dev.0
mst -> f3: Merge upstream changes (if any)
note over f3 #FFAAAA: v1.3.1-dev.1
f3 -> mst: Feature C dev is complete (patch)
note over mst #GreenYellow: v1.3.2-dev.0

qa - -> qa: Testing
qa -> rel: Changes approved
note over rel #GreenYellow: v1.3.1-rel.0
rel -> mst: Merge fixes back
note over mst #GreenYellow: v1.3.2-dev.1

mst -> qa: Add a new set of changes to QA
note over qa #GreenYellow: v1.3.2-qa.0
qa - -> qa: Testing
qa -> qafix2: Bugs found
note over qafix2 #FFAAAA: v1.3.2-qa.0
qafix2 -> qafix2: Bug fixing
note over qafix2 #FFAAAA: v1.3.2-qa.0
qafix2 -> qa: Bugs fixed
note over qa #GreenYellow: v1.3.2-qa.1
qa - -> qa: Testing
qa -> rel: Changes approved
note over rel #GreenYellow: v1.3.2-rel.0
rel -> mst: Merge fixes back

rel -> prod: Release to production
note over prod #GreenYellow: v1.3.2
@enduml

PlantUML version 1.2019.11(Sun Sep 22 14:02:15 SAMT 2019)
(GPL source distribution)
Java Runtime: OpenJDK Runtime Environment
JVM: OpenJDK 64-Bit Server VM
Java Version: 11.0.5+10-b520.30
Operating System: Windows 10
Default Encoding: Cp1251
Language: en
Country: US
--></g></svg>