<?xml version="1.0" encoding="UTF-8" standalone="no"?><svg xmlns="http://www.w3.org/2000/svg" xmlns:xlink="http://www.w3.org/1999/xlink" contentScriptType="application/ecmascript" contentStyleType="text/css" height="1738.4px" preserveAspectRatio="none" style="width:869px;height:1738px;" version="1.1" viewBox="0 0 869 1738" width="869.6px" zoomAndPan="magnify"><defs><filter height="300%" id="fb6b96393fvdd" width="300%" x="-1" y="-1"><feGaussianBlur result="blurOut" stdDeviation="1.6"/><feColorMatrix in="blurOut" result="blurOut2" type="matrix" values="0 0 0 0 0 0 0 0 0 0 0 0 0 0 0 0 0 0 .4 0"/><feOffset dx="3.2" dy="3.2" in="blurOut2" result="blurOut3"/><feBlend in="SourceGraphic" in2="blurOut3" mode="normal"/></filter></defs><g><text fill="#000000" font-family="sans-serif" font-size="11.2" font-weight="bold" lengthAdjust="spacingAndGlyphs" textLength="237.6" x="316" y="19.6266">A FAST TRACK DEVELOPMENT WORKFLOW</text><text fill="#000000" font-family="sans-serif" font-size="11.2" font-weight="bold" lengthAdjust="spacingAndGlyphs" textLength="217.6" x="327.6" y="33.7141">green notes indicate a version change</text><text fill="#000000" font-family="sans-serif" font-size="11.2" font-weight="bold" lengthAdjust="spacingAndGlyphs" textLength="125.6" x="372" y="47.8016">gray notes are git tags</text><text fill="#000000" font-family="sans-serif" font-size="11.2" font-weight="bold" lengthAdjust="spacingAndGlyphs" textLength="150.4" x="361.2" y="61.8891">yellow boxes are branches</text><rect fill="#FFFFFF" filter="url(#fb6b96393fvdd)" height="1563.1438" style="stroke: #A80036; stroke-width: 0.8;" width="8" x="43.6" y="121.325"/><rect fill="#FFFFFF" filter="url(#fb6b96393fvdd)" height="276.1313" style="stroke: #A80036; stroke-width: 0.8;" width="8" x="226.8" y="171.4875"/><rect fill="#FFFFFF" filter="url(#fb6b96393fvdd)" height="335.0938" style="stroke: #A80036; stroke-width: 0.8;" width="8" x="346.8" y="262.7313"/><rect fill="#FFFFFF" filter="url(#fb6b96393fvdd)" height="184.8875" style="stroke: #A80036; stroke-width: 0.8;" width="8" x="472.4" y="812.5938"/><rect fill="#FFFFFF" filter="url(#fb6b96393fvdd)" height="869.475" style="stroke: #A80036; stroke-width: 0.8;" width="8" x="592.4" y="654.3875"/><rect fill="#FFFFFF" filter="url(#fb6b96393fvdd)" height="225.1688" style="stroke: #A80036; stroke-width: 0.8;" width="8" x="692.4" y="997.4813"/><rect fill="#FFFFFF" filter="url(#fb6b96393fvdd)" height="1563.1438" style="stroke: #A80036; stroke-width: 0.8;" width="8" x="810" y="121.325"/><line style="stroke: #A80036; stroke-width: 0.8; stroke-dasharray: 5.0,5.0;" x1="47.2" x2="47.2" y1="113.325" y2="1691.6688"/><line style="stroke: #A80036; stroke-width: 0.8; stroke-dasharray: 5.0,5.0;" x1="230.8" x2="230.8" y1="113.325" y2="1691.6688"/><line style="stroke: #A80036; stroke-width: 0.8; stroke-dasharray: 5.0,5.0;" x1="350.8" x2="350.8" y1="113.325" y2="1691.6688"/><line style="stroke: #A80036; stroke-width: 0.8; stroke-dasharray: 5.0,5.0;" x1="476.4" x2="476.4" y1="113.325" y2="1691.6688"/><line style="stroke: #A80036; stroke-width: 0.8; stroke-dasharray: 5.0,5.0;" x1="596.4" x2="596.4" y1="113.325" y2="1691.6688"/><line style="stroke: #A80036; stroke-width: 0.8; stroke-dasharray: 5.0,5.0;" x1="696" x2="696" y1="113.325" y2="1691.6688"/><line style="stroke: #A80036; stroke-width: 0.8; stroke-dasharray: 5.0,5.0;" x1="813.6" x2="813.6" y1="113.325" y2="1691.6688"/><rect fill="#FEFECE" filter="url(#fb6b96393fvdd)" height="39.375" style="stroke: #A80036; stroke-width: 1.2000000000000002;" width="79.2" x="6.4" y="69.95"/><text fill="#000000" font-family="sans-serif" font-size="11.2" lengthAdjust="spacingAndGlyphs" textLength="34.4" x="28.8" y="87.1766">master</text><text fill="#000000" font-family="sans-serif" font-size="11.2" lengthAdjust="spacingAndGlyphs" textLength="64.8" x="15.2" y="101.2641">development</text><rect fill="#FEFECE" filter="url(#fb6b96393fvdd)" height="39.375" style="stroke: #A80036; stroke-width: 1.2000000000000002;" width="79.2" x="6.4" y="1690.8688"/><text fill="#000000" font-family="sans-serif" font-size="11.2" lengthAdjust="spacingAndGlyphs" textLength="34.4" x="28.8" y="1708.0953">master</text><text fill="#000000" font-family="sans-serif" font-size="11.2" lengthAdjust="spacingAndGlyphs" textLength="64.8" x="15.2" y="1722.1828">development</text><rect fill="#FEFECE" filter="url(#fb6b96393fvdd)" height="39.375" style="stroke: #A80036; stroke-width: 1.2000000000000002;" width="89.6" x="184.4" y="69.95"/><text fill="#000000" font-family="sans-serif" font-size="11.2" lengthAdjust="spacingAndGlyphs" textLength="46.4" x="206" y="87.1766">feature-a</text><text fill="#000000" font-family="sans-serif" font-size="11.2" lengthAdjust="spacingAndGlyphs" textLength="75.2" x="193.2" y="101.2641">(minor feature)</text><rect fill="#FEFECE" filter="url(#fb6b96393fvdd)" height="39.375" style="stroke: #A80036; stroke-width: 1.2000000000000002;" width="89.6" x="184.4" y="1690.8688"/><text fill="#000000" font-family="sans-serif" font-size="11.2" lengthAdjust="spacingAndGlyphs" textLength="46.4" x="206" y="1708.0953">feature-a</text><text fill="#000000" font-family="sans-serif" font-size="11.2" lengthAdjust="spacingAndGlyphs" textLength="75.2" x="193.2" y="1722.1828">(minor feature)</text><rect fill="#FEFECE" filter="url(#fb6b96393fvdd)" height="39.375" style="stroke: #A80036; stroke-width: 1.2000000000000002;" width="89.6" x="304.4" y="69.95"/><text fill="#000000" font-family="sans-serif" font-size="11.2" lengthAdjust="spacingAndGlyphs" textLength="46.4" x="326" y="87.1766">feature-b</text><text fill="#000000" font-family="sans-serif" font-size="11.2" lengthAdjust="spacingAndGlyphs" textLength="75.2" x="313.2" y="101.2641">(patch feature)</text><rect fill="#FEFECE" filter="url(#fb6b96393fvdd)" height="39.375" style="stroke: #A80036; stroke-width: 1.2000000000000002;" width="89.6" x="304.4" y="1690.8688"/><text fill="#000000" font-family="sans-serif" font-size="11.2" lengthAdjust="spacingAndGlyphs" textLength="46.4" x="326" y="1708.0953">feature-b</text><text fill="#000000" font-family="sans-serif" font-size="11.2" lengthAdjust="spacingAndGlyphs" textLength="75.2" x="313.2" y="1722.1828">(patch feature)</text><rect fill="#FEFECE" filter="url(#fb6b96393fvdd)" height="39.375" style="stroke: #A80036; stroke-width: 1.2000000000000002;" width="139.2" x="405.2" y="69.95"/><text fill="#000000" font-family="sans-serif" font-size="11.2" lengthAdjust="spacingAndGlyphs" textLength="45.6" x="452" y="87.1766">feature-c</text><text fill="#000000" font-family="sans-serif" font-size="11.2" lengthAdjust="spacingAndGlyphs" textLength="124.8" x="414" y="101.2641">(major fast track feature)</text><rect fill="#FEFECE" filter="url(#fb6b96393fvdd)" height="39.375" style="stroke: #A80036; stroke-width: 1.2000000000000002;" width="139.2" x="405.2" y="1690.8688"/><text fill="#000000" font-family="sans-serif" font-size="11.2" lengthAdjust="spacingAndGlyphs" textLength="45.6" x="452" y="1708.0953">feature-c</text><text fill="#000000" font-family="sans-serif" font-size="11.2" lengthAdjust="spacingAndGlyphs" textLength="124.8" x="414" y="1722.1828">(major fast track feature)</text><rect fill="#FEFECE" filter="url(#fb6b96393fvdd)" height="39.375" style="stroke: #A80036; stroke-width: 1.2000000000000002;" width="24" x="582.8" y="69.95"/><text fill="#000000" font-family="sans-serif" font-size="11.2" lengthAdjust="spacingAndGlyphs" textLength="12.8" x="588.4" y="87.1766">qa</text><text fill="#000000" font-family="sans-serif" font-size="11.2" lengthAdjust="spacingAndGlyphs" textLength="0" x="596.4" y="101.2641"/><rect fill="#FEFECE" filter="url(#fb6b96393fvdd)" height="39.375" style="stroke: #A80036; stroke-width: 1.2000000000000002;" width="24" x="582.8" y="1690.8688"/><text fill="#000000" font-family="sans-serif" font-size="11.2" lengthAdjust="spacingAndGlyphs" textLength="12.8" x="588.4" y="1708.0953">qa</text><text fill="#000000" font-family="sans-serif" font-size="11.2" lengthAdjust="spacingAndGlyphs" textLength="0" x="596.4" y="1722.1828"/><rect fill="#FEFECE" filter="url(#fb6b96393fvdd)" height="39.375" style="stroke: #A80036; stroke-width: 1.2000000000000002;" width="88.8" x="650.4" y="69.95"/><text fill="#000000" font-family="sans-serif" font-size="11.2" lengthAdjust="spacingAndGlyphs" textLength="19.2" x="685.2" y="87.1766">ftqa</text><text fill="#000000" font-family="sans-serif" font-size="11.2" lengthAdjust="spacingAndGlyphs" textLength="74.4" x="659.2" y="101.2641">(fast-track QA)</text><rect fill="#FEFECE" filter="url(#fb6b96393fvdd)" height="39.375" style="stroke: #A80036; stroke-width: 1.2000000000000002;" width="88.8" x="650.4" y="1690.8688"/><text fill="#000000" font-family="sans-serif" font-size="11.2" lengthAdjust="spacingAndGlyphs" textLength="19.2" x="685.2" y="1708.0953">ftqa</text><text fill="#000000" font-family="sans-serif" font-size="11.2" lengthAdjust="spacingAndGlyphs" textLength="74.4" x="659.2" y="1722.1828">(fast-track QA)</text><rect fill="#FEFECE" filter="url(#fb6b96393fvdd)" height="39.375" style="stroke: #A80036; stroke-width: 1.2000000000000002;" width="64.8" x="780" y="69.95"/><text fill="#000000" font-family="sans-serif" font-size="11.2" lengthAdjust="spacingAndGlyphs" textLength="53.6" x="785.6" y="87.1766">production</text><text fill="#000000" font-family="sans-serif" font-size="11.2" lengthAdjust="spacingAndGlyphs" textLength="0" x="814" y="101.2641"/><rect fill="#FEFECE" filter="url(#fb6b96393fvdd)" height="39.375" style="stroke: #A80036; stroke-width: 1.2000000000000002;" width="64.8" x="780" y="1690.8688"/><text fill="#000000" font-family="sans-serif" font-size="11.2" lengthAdjust="spacingAndGlyphs" textLength="53.6" x="785.6" y="1708.0953">production</text><text fill="#000000" font-family="sans-serif" font-size="11.2" lengthAdjust="spacingAndGlyphs" textLength="0" x="814" y="1722.1828"/><rect fill="#FFFFFF" filter="url(#fb6b96393fvdd)" height="1563.1438" style="stroke: #A80036; stroke-width: 0.8;" width="8" x="43.6" y="121.325"/><rect fill="#FFFFFF" filter="url(#fb6b96393fvdd)" height="276.1313" style="stroke: #A80036; stroke-width: 0.8;" width="8" x="226.8" y="171.4875"/><rect fill="#FFFFFF" filter="url(#fb6b96393fvdd)" height="335.0938" style="stroke: #A80036; stroke-width: 0.8;" width="8" x="346.8" y="262.7313"/><rect fill="#FFFFFF" filter="url(#fb6b96393fvdd)" height="184.8875" style="stroke: #A80036; stroke-width: 0.8;" width="8" x="472.4" y="812.5938"/><rect fill="#FFFFFF" filter="url(#fb6b96393fvdd)" height="869.475" style="stroke: #A80036; stroke-width: 0.8;" width="8" x="592.4" y="654.3875"/><rect fill="#FFFFFF" filter="url(#fb6b96393fvdd)" height="225.1688" style="stroke: #A80036; stroke-width: 0.8;" width="8" x="692.4" y="997.4813"/><rect fill="#FFFFFF" filter="url(#fb6b96393fvdd)" height="1563.1438" style="stroke: #A80036; stroke-width: 0.8;" width="8" x="810" y="121.325"/><path d="M24,125.325 L24,146.125 L68,146.125 L68,133.325 L60,125.325 L24,125.325 " fill="#FFAAAA" filter="url(#fb6b96393fvdd)" style="stroke: #A80036; stroke-width: 0.8;"/><path d="M60,125.325 L60,133.325 L68,133.325 L60,125.325 " fill="#FFAAAA" style="stroke: #A80036; stroke-width: 0.8;"/><text fill="#000000" font-family="sans-serif" font-size="10.4" lengthAdjust="spacingAndGlyphs" textLength="27.2" x="28.8" y="140.1211">v1.2.3</text><polygon fill="#A80036" points="217.2,168.2875,225.2,171.4875,217.2,174.6875,220.4,171.4875" style="stroke: #A80036; stroke-width: 0.8;"/><line style="stroke: #A80036; stroke-width: 0.8;" x1="51.6" x2="222" y1="171.4875" y2="171.4875"/><text fill="#000000" font-family="sans-serif" font-size="10.4" lengthAdjust="spacingAndGlyphs" textLength="148" x="57.2" y="167.6023">Start a development of feature A</text><path d="M207.2,181.8875 L207.2,202.6875 L251.2,202.6875 L251.2,189.8875 L243.2,181.8875 L207.2,181.8875 " fill="#FFAAAA" filter="url(#fb6b96393fvdd)" style="stroke: #A80036; stroke-width: 0.8;"/><path d="M243.2,181.8875 L243.2,189.8875 L251.2,189.8875 L243.2,181.8875 " fill="#FFAAAA" style="stroke: #A80036; stroke-width: 0.8;"/><text fill="#000000" font-family="sans-serif" font-size="10.4" lengthAdjust="spacingAndGlyphs" textLength="27.2" x="212" y="196.6836">v1.2.3</text><line style="stroke: #A80036; stroke-width: 0.8;" x1="234.8" x2="268.4" y1="228.05" y2="228.05"/><line style="stroke: #A80036; stroke-width: 0.8;" x1="268.4" x2="268.4" y1="228.05" y2="238.45"/><line style="stroke: #A80036; stroke-width: 0.8;" x1="235.6" x2="268.4" y1="238.45" y2="238.45"/><polygon fill="#A80036" points="243.6,235.25,235.6,238.45,243.6,241.65,240.4,238.45" style="stroke: #A80036; stroke-width: 0.8;"/><text fill="#000000" font-family="sans-serif" font-size="10.4" lengthAdjust="spacingAndGlyphs" textLength="100.8" x="240.4" y="224.1648">Develop a new feature</text><polygon fill="#A80036" points="337.2,259.5313,345.2,262.7313,337.2,265.9313,340.4,262.7313" style="stroke: #A80036; stroke-width: 0.8;"/><line style="stroke: #A80036; stroke-width: 0.8;" x1="51.6" x2="342" y1="262.7313" y2="262.7313"/><text fill="#000000" font-family="sans-serif" font-size="10.4" lengthAdjust="spacingAndGlyphs" textLength="148" x="57.2" y="258.8461">Start a development of feature B</text><path d="M327.2,273.1313 L327.2,293.9313 L371.2,293.9313 L371.2,281.1313 L363.2,273.1313 L327.2,273.1313 " fill="#FFAAAA" filter="url(#fb6b96393fvdd)" style="stroke: #A80036; stroke-width: 0.8;"/><path d="M363.2,273.1313 L363.2,281.1313 L371.2,281.1313 L363.2,273.1313 " fill="#FFAAAA" style="stroke: #A80036; stroke-width: 0.8;"/><text fill="#000000" font-family="sans-serif" font-size="10.4" lengthAdjust="spacingAndGlyphs" textLength="27.2" x="332" y="287.9273">v1.2.3</text><line style="stroke: #A80036; stroke-width: 0.8; stroke-dasharray: 2.0,2.0;" x1="234.8" x2="268.4" y1="319.2938" y2="319.2938"/><line style="stroke: #A80036; stroke-width: 0.8; stroke-dasharray: 2.0,2.0;" x1="268.4" x2="268.4" y1="319.2938" y2="329.6938"/><line style="stroke: #A80036; stroke-width: 0.8; stroke-dasharray: 2.0,2.0;" x1="235.6" x2="268.4" y1="329.6938" y2="329.6938"/><polygon fill="#A80036" points="243.6,326.4938,235.6,329.6938,243.6,332.8938,240.4,329.6938" style="stroke: #A80036; stroke-width: 0.8;"/><text fill="#000000" font-family="sans-serif" font-size="10.4" lengthAdjust="spacingAndGlyphs" textLength="37.6" x="240.4" y="315.4086">Dev test</text><line style="stroke: #A80036; stroke-width: 0.8;" x1="354.8" x2="388.4" y1="353.975" y2="353.975"/><line style="stroke: #A80036; stroke-width: 0.8;" x1="388.4" x2="388.4" y1="353.975" y2="364.375"/><line style="stroke: #A80036; stroke-width: 0.8;" x1="355.6" x2="388.4" y1="364.375" y2="364.375"/><polygon fill="#A80036" points="363.6,361.175,355.6,364.375,363.6,367.575,360.4,364.375" style="stroke: #A80036; stroke-width: 0.8;"/><text fill="#000000" font-family="sans-serif" font-size="10.4" lengthAdjust="spacingAndGlyphs" textLength="100.8" x="360.4" y="350.0898">Develop a new feature</text><line style="stroke: #A80036; stroke-width: 0.8;" x1="234.8" x2="268.4" y1="388.6563" y2="388.6563"/><line style="stroke: #A80036; stroke-width: 0.8;" x1="268.4" x2="268.4" y1="388.6563" y2="399.0563"/><line style="stroke: #A80036; stroke-width: 0.8;" x1="235.6" x2="268.4" y1="399.0563" y2="399.0563"/><polygon fill="#A80036" points="243.6,395.8563,235.6,399.0563,243.6,402.2563,240.4,399.0563" style="stroke: #A80036; stroke-width: 0.8;"/><text fill="#000000" font-family="sans-serif" font-size="10.4" lengthAdjust="spacingAndGlyphs" textLength="48" x="240.4" y="384.7711">Fix issues</text><polygon fill="#A80036" points="217.2,420.1375,225.2,423.3375,217.2,426.5375,220.4,423.3375" style="stroke: #A80036; stroke-width: 0.8;"/><line style="stroke: #A80036; stroke-width: 0.8;" x1="51.6" x2="222" y1="423.3375" y2="423.3375"/><text fill="#000000" font-family="sans-serif" font-size="10.4" lengthAdjust="spacingAndGlyphs" textLength="152" x="57.2" y="419.4523">Merge upstream changes (if any)</text><polygon fill="#A80036" points="60.4,444.4188,52.4,447.6188,60.4,450.8188,57.2,447.6188" style="stroke: #A80036; stroke-width: 0.8;"/><line style="stroke: #A80036; stroke-width: 0.8;" x1="55.6" x2="230" y1="447.6188" y2="447.6188"/><text fill="#000000" font-family="sans-serif" font-size="10.4" lengthAdjust="spacingAndGlyphs" textLength="156" x="65.2" y="443.7336">Feature A dev is complete (minor)</text><path d="M24,458.0188 L24,478.8188 L68,478.8188 L68,466.0188 L60,458.0188 L24,458.0188 " fill="#FFAAAA" filter="url(#fb6b96393fvdd)" style="stroke: #A80036; stroke-width: 0.8;"/><path d="M60,458.0188 L60,466.0188 L68,466.0188 L60,458.0188 " fill="#FFAAAA" style="stroke: #A80036; stroke-width: 0.8;"/><text fill="#000000" font-family="sans-serif" font-size="10.4" lengthAdjust="spacingAndGlyphs" textLength="27.2" x="28.8" y="472.8148">v1.2.3</text><line style="stroke: #A80036; stroke-width: 0.8; stroke-dasharray: 2.0,2.0;" x1="354.8" x2="388.4" y1="504.1813" y2="504.1813"/><line style="stroke: #A80036; stroke-width: 0.8; stroke-dasharray: 2.0,2.0;" x1="388.4" x2="388.4" y1="504.1813" y2="514.5813"/><line style="stroke: #A80036; stroke-width: 0.8; stroke-dasharray: 2.0,2.0;" x1="355.6" x2="388.4" y1="514.5813" y2="514.5813"/><polygon fill="#A80036" points="363.6,511.3813,355.6,514.5813,363.6,517.7813,360.4,514.5813" style="stroke: #A80036; stroke-width: 0.8;"/><text fill="#000000" font-family="sans-serif" font-size="10.4" lengthAdjust="spacingAndGlyphs" textLength="37.6" x="360.4" y="500.2961">Dev test</text><line style="stroke: #A80036; stroke-width: 0.8;" x1="354.8" x2="388.4" y1="538.8625" y2="538.8625"/><line style="stroke: #A80036; stroke-width: 0.8;" x1="388.4" x2="388.4" y1="538.8625" y2="549.2625"/><line style="stroke: #A80036; stroke-width: 0.8;" x1="355.6" x2="388.4" y1="549.2625" y2="549.2625"/><polygon fill="#A80036" points="363.6,546.0625,355.6,549.2625,363.6,552.4625,360.4,549.2625" style="stroke: #A80036; stroke-width: 0.8;"/><text fill="#000000" font-family="sans-serif" font-size="10.4" lengthAdjust="spacingAndGlyphs" textLength="48" x="360.4" y="534.9773">Fix issues</text><polygon fill="#A80036" points="337.2,570.3438,345.2,573.5438,337.2,576.7438,340.4,573.5438" style="stroke: #A80036; stroke-width: 0.8;"/><line style="stroke: #A80036; stroke-width: 0.8;" x1="51.6" x2="342" y1="573.5438" y2="573.5438"/><text fill="#000000" font-family="sans-serif" font-size="10.4" lengthAdjust="spacingAndGlyphs" textLength="152" x="57.2" y="569.6586">Merge upstream changes (if any)</text><polygon fill="#A80036" points="60.4,594.625,52.4,597.825,60.4,601.025,57.2,597.825" style="stroke: #A80036; stroke-width: 0.8;"/><line style="stroke: #A80036; stroke-width: 0.8;" x1="55.6" x2="350" y1="597.825" y2="597.825"/><text fill="#000000" font-family="sans-serif" font-size="10.4" lengthAdjust="spacingAndGlyphs" textLength="156" x="65.2" y="593.9398">Feature B dev is complete (patch)</text><path d="M24,608.225 L24,629.025 L68,629.025 L68,616.225 L60,608.225 L24,608.225 " fill="#FFAAAA" filter="url(#fb6b96393fvdd)" style="stroke: #A80036; stroke-width: 0.8;"/><path d="M60,608.225 L60,616.225 L68,616.225 L60,608.225 " fill="#FFAAAA" style="stroke: #A80036; stroke-width: 0.8;"/><text fill="#000000" font-family="sans-serif" font-size="10.4" lengthAdjust="spacingAndGlyphs" textLength="27.2" x="28.8" y="623.0211">v1.2.3</text><polygon fill="#A80036" points="582.8,651.1875,590.8,654.3875,582.8,657.5875,586,654.3875" style="stroke: #A80036; stroke-width: 0.8;"/><line style="stroke: #A80036; stroke-width: 0.8;" x1="51.6" x2="587.6" y1="654.3875" y2="654.3875"/><text fill="#000000" font-family="sans-serif" font-size="10.4" lengthAdjust="spacingAndGlyphs" textLength="128.8" x="57.2" y="650.5023">Add a set of changes to QA</text><path d="M572.8,664.7875 L572.8,685.5875 L616.8,685.5875 L616.8,672.7875 L608.8,664.7875 L572.8,664.7875 " fill="#FFAAAA" filter="url(#fb6b96393fvdd)" style="stroke: #A80036; stroke-width: 0.8;"/><path d="M608.8,664.7875 L608.8,672.7875 L616.8,672.7875 L608.8,664.7875 " fill="#FFAAAA" style="stroke: #A80036; stroke-width: 0.8;"/><text fill="#000000" font-family="sans-serif" font-size="10.4" lengthAdjust="spacingAndGlyphs" textLength="27.2" x="577.6" y="679.5836">v1.2.3</text><path d="M543.2,697.0688 L543.2,717.8688 L645.6,717.8688 L645.6,705.0688 L637.6,697.0688 L543.2,697.0688 " fill="#B0C4DE" filter="url(#fb6b96393fvdd)" style="stroke: #A80036; stroke-width: 0.8;"/><path d="M637.6,697.0688 L637.6,705.0688 L645.6,705.0688 L637.6,697.0688 " fill="#B0C4DE" style="stroke: #A80036; stroke-width: 0.8;"/><text fill="#000000" font-family="sans-serif" font-size="10.4" lengthAdjust="spacingAndGlyphs" textLength="85.6" x="548" y="711.8648">tag: qa.200228345</text><line style="stroke: #A80036; stroke-width: 0.8; stroke-dasharray: 2.0,2.0;" x1="600.4" x2="634" y1="743.2313" y2="743.2313"/><line style="stroke: #A80036; stroke-width: 0.8; stroke-dasharray: 2.0,2.0;" x1="634" x2="634" y1="743.2313" y2="753.6313"/><line style="stroke: #A80036; stroke-width: 0.8; stroke-dasharray: 2.0,2.0;" x1="601.2" x2="634" y1="753.6313" y2="753.6313"/><polygon fill="#A80036" points="609.2,750.4313,601.2,753.6313,609.2,756.8313,606,753.6313" style="stroke: #A80036; stroke-width: 0.8;"/><text fill="#000000" font-family="sans-serif" font-size="10.4" lengthAdjust="spacingAndGlyphs" textLength="33.6" x="606" y="739.3461">Testing</text><line style="stroke: #A80036; stroke-width: 0.8;" x1="600.4" x2="634" y1="777.9125" y2="777.9125"/><line style="stroke: #A80036; stroke-width: 0.8;" x1="634" x2="634" y1="777.9125" y2="788.3125"/><line style="stroke: #A80036; stroke-width: 0.8;" x1="601.2" x2="634" y1="788.3125" y2="788.3125"/><polygon fill="#A80036" points="609.2,785.1125,601.2,788.3125,609.2,791.5125,606,788.3125" style="stroke: #A80036; stroke-width: 0.8;"/><text fill="#000000" font-family="sans-serif" font-size="10.4" lengthAdjust="spacingAndGlyphs" textLength="51.2" x="606" y="774.0273">Bugs fixing</text><polygon fill="#A80036" points="462.8,809.3938,470.8,812.5938,462.8,815.7938,466,812.5938" style="stroke: #A80036; stroke-width: 0.8;"/><line style="stroke: #A80036; stroke-width: 0.8;" x1="51.6" x2="467.6" y1="812.5938" y2="812.5938"/><text fill="#000000" font-family="sans-serif" font-size="10.4" lengthAdjust="spacingAndGlyphs" textLength="203.2" x="57.2" y="808.7086">Start a development of a fast-track feature C</text><path d="M452.8,822.9938 L452.8,843.7938 L496.8,843.7938 L496.8,830.9938 L488.8,822.9938 L452.8,822.9938 " fill="#FFAAAA" filter="url(#fb6b96393fvdd)" style="stroke: #A80036; stroke-width: 0.8;"/><path d="M488.8,822.9938 L488.8,830.9938 L496.8,830.9938 L488.8,822.9938 " fill="#FFAAAA" style="stroke: #A80036; stroke-width: 0.8;"/><text fill="#000000" font-family="sans-serif" font-size="10.4" lengthAdjust="spacingAndGlyphs" textLength="27.2" x="457.6" y="837.7898">v1.2.3</text><line style="stroke: #A80036; stroke-width: 0.8;" x1="480.4" x2="514" y1="869.1563" y2="869.1563"/><line style="stroke: #A80036; stroke-width: 0.8;" x1="514" x2="514" y1="869.1563" y2="879.5563"/><line style="stroke: #A80036; stroke-width: 0.8;" x1="481.2" x2="514" y1="879.5563" y2="879.5563"/><polygon fill="#A80036" points="489.2,876.3563,481.2,879.5563,489.2,882.7563,486,879.5563" style="stroke: #A80036; stroke-width: 0.8;"/><text fill="#000000" font-family="sans-serif" font-size="10.4" lengthAdjust="spacingAndGlyphs" textLength="100.8" x="486" y="865.2711">Develop a new feature</text><line style="stroke: #A80036; stroke-width: 0.8; stroke-dasharray: 2.0,2.0;" x1="480.4" x2="514" y1="903.8375" y2="903.8375"/><line style="stroke: #A80036; stroke-width: 0.8; stroke-dasharray: 2.0,2.0;" x1="514" x2="514" y1="903.8375" y2="914.2375"/><line style="stroke: #A80036; stroke-width: 0.8; stroke-dasharray: 2.0,2.0;" x1="481.2" x2="514" y1="914.2375" y2="914.2375"/><polygon fill="#A80036" points="489.2,911.0375,481.2,914.2375,489.2,917.4375,486,914.2375" style="stroke: #A80036; stroke-width: 0.8;"/><text fill="#000000" font-family="sans-serif" font-size="10.4" lengthAdjust="spacingAndGlyphs" textLength="37.6" x="486" y="899.9523">Dev test</text><line style="stroke: #A80036; stroke-width: 0.8;" x1="480.4" x2="514" y1="938.5188" y2="938.5188"/><line style="stroke: #A80036; stroke-width: 0.8;" x1="514" x2="514" y1="938.5188" y2="948.9188"/><line style="stroke: #A80036; stroke-width: 0.8;" x1="481.2" x2="514" y1="948.9188" y2="948.9188"/><polygon fill="#A80036" points="489.2,945.7188,481.2,948.9188,489.2,952.1188,486,948.9188" style="stroke: #A80036; stroke-width: 0.8;"/><text fill="#000000" font-family="sans-serif" font-size="10.4" lengthAdjust="spacingAndGlyphs" textLength="48" x="486" y="934.6336">Fix issues</text><polygon fill="#A80036" points="60.4,970,52.4,973.2,60.4,976.4,57.2,973.2" style="stroke: #A80036; stroke-width: 0.8;"/><line style="stroke: #A80036; stroke-width: 0.8;" x1="55.6" x2="471.6" y1="973.2" y2="973.2"/><text fill="#000000" font-family="sans-serif" font-size="10.4" lengthAdjust="spacingAndGlyphs" textLength="202.4" x="65.2" y="969.3148">Fast-track feature C dev is complete (major)</text><polygon fill="#A80036" points="682.8,994.2813,690.8,997.4813,682.8,1000.6813,686,997.4813" style="stroke: #A80036; stroke-width: 0.8;"/><line style="stroke: #A80036; stroke-width: 0.8;" x1="476.4" x2="687.6" y1="997.4813" y2="997.4813"/><text fill="#000000" font-family="sans-serif" font-size="10.4" lengthAdjust="spacingAndGlyphs" textLength="196.8" x="482" y="993.5961">Add a new set of fast-track changes to QA</text><path d="M672.8,1007.8813 L672.8,1028.6813 L716.8,1028.6813 L716.8,1015.8813 L708.8,1007.8813 L672.8,1007.8813 " fill="#FFAAAA" filter="url(#fb6b96393fvdd)" style="stroke: #A80036; stroke-width: 0.8;"/><path d="M708.8,1007.8813 L708.8,1015.8813 L716.8,1015.8813 L708.8,1007.8813 " fill="#FFAAAA" style="stroke: #A80036; stroke-width: 0.8;"/><text fill="#000000" font-family="sans-serif" font-size="10.4" lengthAdjust="spacingAndGlyphs" textLength="27.2" x="677.6" y="1022.6773">v1.2.3</text><path d="M640.8,1040.1625 L640.8,1060.9625 L748.8,1060.9625 L748.8,1048.1625 L740.8,1040.1625 L640.8,1040.1625 " fill="#B0C4DE" filter="url(#fb6b96393fvdd)" style="stroke: #A80036; stroke-width: 0.8;"/><path d="M740.8,1040.1625 L740.8,1048.1625 L748.8,1048.1625 L740.8,1040.1625 " fill="#B0C4DE" style="stroke: #A80036; stroke-width: 0.8;"/><text fill="#000000" font-family="sans-serif" font-size="10.4" lengthAdjust="spacingAndGlyphs" textLength="91.2" x="645.6" y="1054.9586">tag: ftqa.200228444</text><line style="stroke: #A80036; stroke-width: 0.8; stroke-dasharray: 2.0,2.0;" x1="700.4" x2="734" y1="1086.325" y2="1086.325"/><line style="stroke: #A80036; stroke-width: 0.8; stroke-dasharray: 2.0,2.0;" x1="734" x2="734" y1="1086.325" y2="1096.725"/><line style="stroke: #A80036; stroke-width: 0.8; stroke-dasharray: 2.0,2.0;" x1="701.2" x2="734" y1="1096.725" y2="1096.725"/><polygon fill="#A80036" points="709.2,1093.525,701.2,1096.725,709.2,1099.925,706,1096.725" style="stroke: #A80036; stroke-width: 0.8;"/><text fill="#000000" font-family="sans-serif" font-size="10.4" lengthAdjust="spacingAndGlyphs" textLength="33.6" x="706" y="1082.4398">Testing</text><line style="stroke: #A80036; stroke-width: 0.8;" x1="700.4" x2="734" y1="1121.0063" y2="1121.0063"/><line style="stroke: #A80036; stroke-width: 0.8;" x1="734" x2="734" y1="1121.0063" y2="1131.4063"/><line style="stroke: #A80036; stroke-width: 0.8;" x1="701.2" x2="734" y1="1131.4063" y2="1131.4063"/><polygon fill="#A80036" points="709.2,1128.2063,701.2,1131.4063,709.2,1134.6063,706,1131.4063" style="stroke: #A80036; stroke-width: 0.8;"/><text fill="#000000" font-family="sans-serif" font-size="10.4" lengthAdjust="spacingAndGlyphs" textLength="45.6" x="706" y="1117.1211">Bug fixing</text><path d="M640.8,1141.8063 L640.8,1162.6063 L748.8,1162.6063 L748.8,1149.8063 L740.8,1141.8063 L640.8,1141.8063 " fill="#B0C4DE" filter="url(#fb6b96393fvdd)" style="stroke: #A80036; stroke-width: 0.8;"/><path d="M740.8,1141.8063 L740.8,1149.8063 L748.8,1149.8063 L740.8,1141.8063 " fill="#B0C4DE" style="stroke: #A80036; stroke-width: 0.8;"/><text fill="#000000" font-family="sans-serif" font-size="10.4" lengthAdjust="spacingAndGlyphs" textLength="91.2" x="645.6" y="1156.6023">tag: ftqa.200228497</text><line style="stroke: #A80036; stroke-width: 0.8; stroke-dasharray: 2.0,2.0;" x1="700.4" x2="734" y1="1187.9688" y2="1187.9688"/><line style="stroke: #A80036; stroke-width: 0.8; stroke-dasharray: 2.0,2.0;" x1="734" x2="734" y1="1187.9688" y2="1198.3688"/><line style="stroke: #A80036; stroke-width: 0.8; stroke-dasharray: 2.0,2.0;" x1="701.2" x2="734" y1="1198.3688" y2="1198.3688"/><polygon fill="#A80036" points="709.2,1195.1688,701.2,1198.3688,709.2,1201.5688,706,1198.3688" style="stroke: #A80036; stroke-width: 0.8;"/><text fill="#000000" font-family="sans-serif" font-size="10.4" lengthAdjust="spacingAndGlyphs" textLength="33.6" x="706" y="1184.0836">Testing</text><polygon fill="#A80036" points="800.4,1219.45,808.4,1222.65,800.4,1225.85,803.6,1222.65" style="stroke: #A80036; stroke-width: 0.8;"/><line style="stroke: #A80036; stroke-width: 0.8;" x1="696.4" x2="805.2" y1="1222.65" y2="1222.65"/><text fill="#000000" font-family="sans-serif" font-size="10.4" lengthAdjust="spacingAndGlyphs" textLength="84.8" x="702" y="1218.7648">Changes approved</text><path d="M790.4,1233.05 L790.4,1253.85 L834.4,1253.85 L834.4,1241.05 L826.4,1233.05 L790.4,1233.05 " fill="#ADFF2F" filter="url(#fb6b96393fvdd)" style="stroke: #A80036; stroke-width: 0.8;"/><path d="M826.4,1233.05 L826.4,1241.05 L834.4,1241.05 L826.4,1233.05 " fill="#ADFF2F" style="stroke: #A80036; stroke-width: 0.8;"/><text fill="#000000" font-family="sans-serif" font-size="10.4" lengthAdjust="spacingAndGlyphs" textLength="27.2" x="795.2" y="1247.8461">v2.0.0</text><path d="M780,1265.3313 L780,1286.1313 L844.8,1286.1313 L844.8,1273.3313 L836.8,1265.3313 L780,1265.3313 " fill="#B0C4DE" filter="url(#fb6b96393fvdd)" style="stroke: #A80036; stroke-width: 0.8;"/><path d="M836.8,1265.3313 L836.8,1273.3313 L844.8,1273.3313 L836.8,1265.3313 " fill="#B0C4DE" style="stroke: #A80036; stroke-width: 0.8;"/><text fill="#000000" font-family="sans-serif" font-size="10.4" lengthAdjust="spacingAndGlyphs" textLength="48" x="784.8" y="1280.1273">tag: v2.0.0</text><path d="M768,1297.6125 L768,1318.4125 L856,1318.4125 L856,1305.6125 L848,1297.6125 L768,1297.6125 " fill="#FFFFFF" filter="url(#fb6b96393fvdd)" style="stroke: #A80036; stroke-width: 0.8;"/><path d="M848,1297.6125 L848,1305.6125 L856,1305.6125 L848,1297.6125 " fill="#FFFFFF" style="stroke: #A80036; stroke-width: 0.8;"/><text fill="#000000" font-family="sans-serif" font-size="10.4" lengthAdjust="spacingAndGlyphs" textLength="71.2" x="772.8" y="1312.4086">RC deployment</text><polygon fill="#A80036" points="60.4,1340.575,52.4,1343.775,60.4,1346.975,57.2,1343.775" style="stroke: #A80036; stroke-width: 0.8;"/><line style="stroke: #A80036; stroke-width: 0.8;" x1="55.6" x2="809.2" y1="1343.775" y2="1343.775"/><text fill="#000000" font-family="sans-serif" font-size="10.4" lengthAdjust="spacingAndGlyphs" textLength="143.2" x="65.2" y="1339.8898">Merge fast-track changes back</text><path d="M24,1354.175 L24,1374.975 L68,1374.975 L68,1362.175 L60,1354.175 L24,1354.175 " fill="#FFAAAA" filter="url(#fb6b96393fvdd)" style="stroke: #A80036; stroke-width: 0.8;"/><path d="M60,1354.175 L60,1362.175 L68,1362.175 L60,1354.175 " fill="#FFAAAA" style="stroke: #A80036; stroke-width: 0.8;"/><text fill="#000000" font-family="sans-serif" font-size="10.4" lengthAdjust="spacingAndGlyphs" textLength="27.2" x="28.8" y="1368.9711">v2.0.0</text><polygon fill="#A80036" points="609.2,1397.1375,601.2,1400.3375,609.2,1403.5375,606,1400.3375" style="stroke: #A80036; stroke-width: 0.8;"/><line style="stroke: #A80036; stroke-width: 0.8;" x1="604.4" x2="809.2" y1="1400.3375" y2="1400.3375"/><text fill="#000000" font-family="sans-serif" font-size="10.4" lengthAdjust="spacingAndGlyphs" textLength="190.4" x="614" y="1396.4523">Merge fast-track changes to "normal" QA</text><path d="M572.8,1410.7375 L572.8,1431.5375 L616.8,1431.5375 L616.8,1418.7375 L608.8,1410.7375 L572.8,1410.7375 " fill="#ADFF2F" filter="url(#fb6b96393fvdd)" style="stroke: #A80036; stroke-width: 0.8;"/><path d="M608.8,1410.7375 L608.8,1418.7375 L616.8,1418.7375 L608.8,1410.7375 " fill="#ADFF2F" style="stroke: #A80036; stroke-width: 0.8;"/><text fill="#000000" font-family="sans-serif" font-size="10.4" lengthAdjust="spacingAndGlyphs" textLength="27.2" x="577.6" y="1425.5336">v2.0.0</text><path d="M543.2,1443.0188 L543.2,1463.8188 L645.6,1463.8188 L645.6,1451.0188 L637.6,1443.0188 L543.2,1443.0188 " fill="#B0C4DE" filter="url(#fb6b96393fvdd)" style="stroke: #A80036; stroke-width: 0.8;"/><path d="M637.6,1443.0188 L637.6,1451.0188 L645.6,1451.0188 L637.6,1443.0188 " fill="#B0C4DE" style="stroke: #A80036; stroke-width: 0.8;"/><text fill="#000000" font-family="sans-serif" font-size="10.4" lengthAdjust="spacingAndGlyphs" textLength="85.6" x="548" y="1457.8148">tag: qa.200228561</text><line style="stroke: #A80036; stroke-width: 0.8; stroke-dasharray: 2.0,2.0;" x1="600.4" x2="634" y1="1489.1813" y2="1489.1813"/><line style="stroke: #A80036; stroke-width: 0.8; stroke-dasharray: 2.0,2.0;" x1="634" x2="634" y1="1489.1813" y2="1499.5813"/><line style="stroke: #A80036; stroke-width: 0.8; stroke-dasharray: 2.0,2.0;" x1="601.2" x2="634" y1="1499.5813" y2="1499.5813"/><polygon fill="#A80036" points="609.2,1496.3813,601.2,1499.5813,609.2,1502.7813,606,1499.5813" style="stroke: #A80036; stroke-width: 0.8;"/><text fill="#000000" font-family="sans-serif" font-size="10.4" lengthAdjust="spacingAndGlyphs" textLength="33.6" x="606" y="1485.2961">Testing</text><polygon fill="#A80036" points="800.4,1520.6625,808.4,1523.8625,800.4,1527.0625,803.6,1523.8625" style="stroke: #A80036; stroke-width: 0.8;"/><line style="stroke: #A80036; stroke-width: 0.8;" x1="596.4" x2="805.2" y1="1523.8625" y2="1523.8625"/><text fill="#000000" font-family="sans-serif" font-size="10.4" lengthAdjust="spacingAndGlyphs" textLength="84.8" x="602" y="1519.9773">Changes approved</text><path d="M790.4,1534.2625 L790.4,1555.0625 L834.4,1555.0625 L834.4,1542.2625 L826.4,1534.2625 L790.4,1534.2625 " fill="#ADFF2F" filter="url(#fb6b96393fvdd)" style="stroke: #A80036; stroke-width: 0.8;"/><path d="M826.4,1534.2625 L826.4,1542.2625 L834.4,1542.2625 L826.4,1534.2625 " fill="#ADFF2F" style="stroke: #A80036; stroke-width: 0.8;"/><text fill="#000000" font-family="sans-serif" font-size="10.4" lengthAdjust="spacingAndGlyphs" textLength="27.2" x="795.2" y="1549.0586">v2.1.0</text><path d="M780,1566.5438 L780,1587.3438 L844.8,1587.3438 L844.8,1574.5438 L836.8,1566.5438 L780,1566.5438 " fill="#B0C4DE" filter="url(#fb6b96393fvdd)" style="stroke: #A80036; stroke-width: 0.8;"/><path d="M836.8,1566.5438 L836.8,1574.5438 L844.8,1574.5438 L836.8,1566.5438 " fill="#B0C4DE" style="stroke: #A80036; stroke-width: 0.8;"/><text fill="#000000" font-family="sans-serif" font-size="10.4" lengthAdjust="spacingAndGlyphs" textLength="48" x="784.8" y="1581.3398">tag: v2.1.0</text><path d="M764.8,1598.825 L764.8,1619.625 L860,1619.625 L860,1606.825 L852,1598.825 L764.8,1598.825 " fill="#D8BFD8" filter="url(#fb6b96393fvdd)" style="stroke: #A80036; stroke-width: 0.8;"/><path d="M852,1598.825 L852,1606.825 L860,1606.825 L852,1598.825 " fill="#D8BFD8" style="stroke: #A80036; stroke-width: 0.8;"/><text fill="#000000" font-family="sans-serif" font-size="10.4" lengthAdjust="spacingAndGlyphs" textLength="78.4" x="769.6" y="1613.6211">Prod deployment</text><polygon fill="#A80036" points="60.4,1641.7875,52.4,1644.9875,60.4,1648.1875,57.2,1644.9875" style="stroke: #A80036; stroke-width: 0.8;"/><line style="stroke: #A80036; stroke-width: 0.8;" x1="55.6" x2="809.2" y1="1644.9875" y2="1644.9875"/><text fill="#000000" font-family="sans-serif" font-size="10.4" lengthAdjust="spacingAndGlyphs" textLength="79.2" x="65.2" y="1641.1023">Merge fixes back</text><path d="M24,1655.3875 L24,1676.1875 L68,1676.1875 L68,1663.3875 L60,1655.3875 L24,1655.3875 " fill="#FFAAAA" filter="url(#fb6b96393fvdd)" style="stroke: #A80036; stroke-width: 0.8;"/><path d="M60,1655.3875 L60,1663.3875 L68,1663.3875 L60,1655.3875 " fill="#FFAAAA" style="stroke: #A80036; stroke-width: 0.8;"/><text fill="#000000" font-family="sans-serif" font-size="10.4" lengthAdjust="spacingAndGlyphs" textLength="27.2" x="28.8" y="1670.1836">v2.1.0</text><!--MD5=[5b19ea10107fd92d25e94d3f5d345bdd]
@startuml
title A FAST TRACK DEVELOPMENT WORKFLOW\n green notes indicate a version change\n gray notes are git tags \n yellow boxes are branches
participant "master\n development" as mst
participant "feature-a\n (minor feature)" as f1
participant "feature-b\n (patch feature)" as f2
participant "feature-c\n (major fast track feature)" as f3
participant "qa\n" as qa
participant "ftqa\n (fast-track QA)" as ftqa
participant "production\n" as prod

activate mst
activate prod

note over mst #FFAAAA: v1.2.3
mst -> f1: Start a development of feature A
activate f1
note over f1 #FFAAAA: v1.2.3
f1 -> f1: Develop a new feature
mst -> f2: Start a development of feature B
activate f2
note over f2 #FFAAAA: v1.2.3
f1 - -> f1: Dev test
f2 -> f2: Develop a new feature
f1 -> f1: Fix issues
mst -> f1: Merge upstream changes (if any)
f1 -> mst: Feature A dev is complete (minor)
deactivate f1
note over mst #FFAAAA: v1.2.3

f2 - -> f2: Dev test
f2 -> f2: Fix issues
mst -> f2: Merge upstream changes (if any)
f2 -> mst: Feature B dev is complete (patch)
deactivate f2
note over mst #FFAAAA: v1.2.3

mst -> qa: Add a set of changes to QA
activate qa
note over qa #FFAAAA: v1.2.3
note over qa #LightSteelBlue: tag: qa.200228345
qa - -> qa: Testing
qa -> qa: Bugs fixing

mst -> f3: Start a development of a fast-track feature C
activate f3
note over f3 #FFAAAA: v1.2.3
f3 -> f3: Develop a new feature
f3 - -> f3: Dev test
f3 -> f3: Fix issues
f3 -> mst: Fast-track feature C dev is complete (major)
f3 -> ftqa: Add a new set of fast-track changes to QA
deactivate f3

activate ftqa
note over ftqa #FFAAAA: v1.2.3
note over ftqa #LightSteelBlue: tag: ftqa.200228444
ftqa - -> ftqa: Testing
ftqa -> ftqa: Bug fixing
note over ftqa #LightSteelBlue: tag: ftqa.200228497
ftqa - -> ftqa: Testing
ftqa -> prod: Changes approved
deactivate ftqa
note over prod #GreenYellow: v2.0.0
note over prod #LightSteelBlue: tag: v2.0.0
note over prod #White: RC deployment

prod -> mst: Merge fast-track changes back
note over mst #FFAAAA: v2.0.0
prod -> qa: Merge fast-track changes to "normal" QA
note over qa #GreenYellow: v2.0.0
note over qa #LightSteelBlue: tag: qa.200228561

qa - -> qa: Testing
qa -> prod: Changes approved
deactivate qa
note over prod #GreenYellow: v2.1.0
note over prod #LightSteelBlue: tag: v2.1.0
note over prod #Thistle: Prod deployment
prod -> mst: Merge fixes back
note over mst #FFAAAA: v2.1.0
@enduml

PlantUML version 1.2019.11(Sun Sep 22 14:02:15 SAMT 2019)
(GPL source distribution)
Java Runtime: OpenJDK Runtime Environment
JVM: OpenJDK 64-Bit Server VM
Java Version: 11.0.5+10-b520.38
Operating System: Windows 10
Default Encoding: Cp1251
Language: en
Country: US
--></g></svg>