<?xml version="1.0" encoding="UTF-8" standalone="no"?><svg xmlns="http://www.w3.org/2000/svg" xmlns:xlink="http://www.w3.org/1999/xlink" contentScriptType="application/ecmascript" contentStyleType="text/css" height="1495.8px" preserveAspectRatio="none" style="width:833px;height:1495px;" version="1.1" viewBox="0 0 833 1495" width="833.4px" zoomAndPan="magnify"><defs><filter height="300%" id="f1tugy5m9y1hec" width="300%" x="-1" y="-1"><feGaussianBlur result="blurOut" stdDeviation="1.2"/><feColorMatrix in="blurOut" result="blurOut2" type="matrix" values="0 0 0 0 0 0 0 0 0 0 0 0 0 0 0 0 0 0 .4 0"/><feOffset dx="2.4" dy="2.4" in="blurOut2" result="blurOut3"/><feBlend in="SourceGraphic" in2="blurOut3" mode="normal"/></filter></defs><g><text fill="#000000" font-family="sans-serif" font-size="8.4" font-weight="bold" lengthAdjust="spacingAndGlyphs" textLength="178.2" x="327.9" y="14.7199">A FAST TRACK DEVELOPMENT WORKFLOW</text><text fill="#000000" font-family="sans-serif" font-size="8.4" font-weight="bold" lengthAdjust="spacingAndGlyphs" textLength="211.2" x="312.6" y="25.2855">notes in green indicates when version is changed</text><text fill="#000000" font-family="sans-serif" font-size="8.4" font-weight="bold" lengthAdjust="spacingAndGlyphs" textLength="192.6" x="321.9" y="35.8512">those commits are tagged and pushed to npm</text><text fill="#000000" font-family="sans-serif" font-size="8.4" font-weight="bold" lengthAdjust="spacingAndGlyphs" textLength="112.8" x="361.8" y="46.4168">yellow boxes are branches</text><line style="stroke: #A80036; stroke-width: 0.6; stroke-dasharray: 5.0,5.0;" x1="35.4" x2="35.4" y1="84.9937" y2="1460.4609"/><line style="stroke: #A80036; stroke-width: 0.6; stroke-dasharray: 5.0,5.0;" x1="167.1" x2="167.1" y1="84.9937" y2="1460.4609"/><line style="stroke: #A80036; stroke-width: 0.6; stroke-dasharray: 5.0,5.0;" x1="251.1" x2="251.1" y1="84.9937" y2="1460.4609"/><line style="stroke: #A80036; stroke-width: 0.6; stroke-dasharray: 5.0,5.0;" x1="345.3" x2="345.3" y1="84.9937" y2="1460.4609"/><line style="stroke: #A80036; stroke-width: 0.6; stroke-dasharray: 5.0,5.0;" x1="429.3" x2="429.3" y1="84.9937" y2="1460.4609"/><line style="stroke: #A80036; stroke-width: 0.6; stroke-dasharray: 5.0,5.0;" x1="507" x2="507" y1="84.9937" y2="1460.4609"/><line style="stroke: #A80036; stroke-width: 0.6; stroke-dasharray: 5.0,5.0;" x1="576" x2="576" y1="84.9937" y2="1460.4609"/><line style="stroke: #A80036; stroke-width: 0.6; stroke-dasharray: 5.0,5.0;" x1="652.8" x2="652.8" y1="84.9937" y2="1460.4609"/><line style="stroke: #A80036; stroke-width: 0.6; stroke-dasharray: 5.0,5.0;" x1="713.4" x2="713.4" y1="84.9937" y2="1460.4609"/><line style="stroke: #A80036; stroke-width: 0.6; stroke-dasharray: 5.0,5.0;" x1="803.4" x2="803.4" y1="84.9937" y2="1460.4609"/><rect fill="#FEFECE" filter="url(#f1tugy5m9y1hec)" height="29.5313" style="stroke: #A80036; stroke-width: 0.8999999999999999;" width="59.4" x="4.8" y="52.4625"/><text fill="#000000" font-family="sans-serif" font-size="8.4" lengthAdjust="spacingAndGlyphs" textLength="25.8" x="21.6" y="65.3824">master</text><text fill="#000000" font-family="sans-serif" font-size="8.4" lengthAdjust="spacingAndGlyphs" textLength="48.6" x="11.4" y="75.948">development</text><rect fill="#FEFECE" filter="url(#f1tugy5m9y1hec)" height="29.5313" style="stroke: #A80036; stroke-width: 0.8999999999999999;" width="59.4" x="4.8" y="1459.8609"/><text fill="#000000" font-family="sans-serif" font-size="8.4" lengthAdjust="spacingAndGlyphs" textLength="25.8" x="21.6" y="1472.7809">master</text><text fill="#000000" font-family="sans-serif" font-size="8.4" lengthAdjust="spacingAndGlyphs" textLength="48.6" x="11.4" y="1483.3465">development</text><rect fill="#FEFECE" filter="url(#f1tugy5m9y1hec)" height="29.5313" style="stroke: #A80036; stroke-width: 0.8999999999999999;" width="67.2" x="132.3" y="52.4625"/><text fill="#000000" font-family="sans-serif" font-size="8.4" lengthAdjust="spacingAndGlyphs" textLength="34.8" x="148.5" y="65.3824">feature-a</text><text fill="#000000" font-family="sans-serif" font-size="8.4" lengthAdjust="spacingAndGlyphs" textLength="56.4" x="138.9" y="75.948">(minor feature)</text><rect fill="#FEFECE" filter="url(#f1tugy5m9y1hec)" height="29.5313" style="stroke: #A80036; stroke-width: 0.8999999999999999;" width="67.2" x="132.3" y="1459.8609"/><text fill="#000000" font-family="sans-serif" font-size="8.4" lengthAdjust="spacingAndGlyphs" textLength="34.8" x="148.5" y="1472.7809">feature-a</text><text fill="#000000" font-family="sans-serif" font-size="8.4" lengthAdjust="spacingAndGlyphs" textLength="56.4" x="138.9" y="1483.3465">(minor feature)</text><rect fill="#FEFECE" filter="url(#f1tugy5m9y1hec)" height="29.5313" style="stroke: #A80036; stroke-width: 0.8999999999999999;" width="67.2" x="216.3" y="52.4625"/><text fill="#000000" font-family="sans-serif" font-size="8.4" lengthAdjust="spacingAndGlyphs" textLength="34.8" x="232.5" y="65.3824">feature-b</text><text fill="#000000" font-family="sans-serif" font-size="8.4" lengthAdjust="spacingAndGlyphs" textLength="56.4" x="222.9" y="75.948">(patch feature)</text><rect fill="#FEFECE" filter="url(#f1tugy5m9y1hec)" height="29.5313" style="stroke: #A80036; stroke-width: 0.8999999999999999;" width="67.2" x="216.3" y="1459.8609"/><text fill="#000000" font-family="sans-serif" font-size="8.4" lengthAdjust="spacingAndGlyphs" textLength="34.8" x="232.5" y="1472.7809">feature-b</text><text fill="#000000" font-family="sans-serif" font-size="8.4" lengthAdjust="spacingAndGlyphs" textLength="56.4" x="222.9" y="1483.3465">(patch feature)</text><rect fill="#FEFECE" filter="url(#f1tugy5m9y1hec)" height="29.5313" style="stroke: #A80036; stroke-width: 0.8999999999999999;" width="104.4" x="291.9" y="52.4625"/><text fill="#000000" font-family="sans-serif" font-size="8.4" lengthAdjust="spacingAndGlyphs" textLength="34.2" x="327" y="65.3824">feature-c</text><text fill="#000000" font-family="sans-serif" font-size="8.4" lengthAdjust="spacingAndGlyphs" textLength="93.6" x="298.5" y="75.948">(major fast track feature)</text><rect fill="#FEFECE" filter="url(#f1tugy5m9y1hec)" height="29.5313" style="stroke: #A80036; stroke-width: 0.8999999999999999;" width="104.4" x="291.9" y="1459.8609"/><text fill="#000000" font-family="sans-serif" font-size="8.4" lengthAdjust="spacingAndGlyphs" textLength="34.2" x="327" y="1472.7809">feature-c</text><text fill="#000000" font-family="sans-serif" font-size="8.4" lengthAdjust="spacingAndGlyphs" textLength="93.6" x="298.5" y="1483.3465">(major fast track feature)</text><rect fill="#FEFECE" filter="url(#f1tugy5m9y1hec)" height="29.5313" style="stroke: #A80036; stroke-width: 0.8999999999999999;" width="18" x="419.1" y="52.4625"/><text fill="#000000" font-family="sans-serif" font-size="8.4" lengthAdjust="spacingAndGlyphs" textLength="9.6" x="423.3" y="65.3824">qa</text><text fill="#000000" font-family="sans-serif" font-size="8.4" lengthAdjust="spacingAndGlyphs" textLength="0" x="429.3" y="75.948"/><rect fill="#FEFECE" filter="url(#f1tugy5m9y1hec)" height="29.5313" style="stroke: #A80036; stroke-width: 0.8999999999999999;" width="18" x="419.1" y="1459.8609"/><text fill="#000000" font-family="sans-serif" font-size="8.4" lengthAdjust="spacingAndGlyphs" textLength="9.6" x="423.3" y="1472.7809">qa</text><text fill="#000000" font-family="sans-serif" font-size="8.4" lengthAdjust="spacingAndGlyphs" textLength="0" x="429.3" y="1483.3465"/><rect fill="#FEFECE" filter="url(#f1tugy5m9y1hec)" height="29.5313" style="stroke: #A80036; stroke-width: 0.8999999999999999;" width="52.2" x="480" y="52.4625"/><text fill="#000000" font-family="sans-serif" font-size="8.4" lengthAdjust="spacingAndGlyphs" textLength="17.4" x="497.4" y="65.3824">qa-ft</text><text fill="#000000" font-family="sans-serif" font-size="8.4" lengthAdjust="spacingAndGlyphs" textLength="41.4" x="486.6" y="75.948">(fast-track)</text><rect fill="#FEFECE" filter="url(#f1tugy5m9y1hec)" height="29.5313" style="stroke: #A80036; stroke-width: 0.8999999999999999;" width="52.2" x="480" y="1459.8609"/><text fill="#000000" font-family="sans-serif" font-size="8.4" lengthAdjust="spacingAndGlyphs" textLength="17.4" x="497.4" y="1472.7809">qa-ft</text><text fill="#000000" font-family="sans-serif" font-size="8.4" lengthAdjust="spacingAndGlyphs" textLength="41.4" x="486.6" y="1483.3465">(fast-track)</text><rect fill="#FEFECE" filter="url(#f1tugy5m9y1hec)" height="29.5313" style="stroke: #A80036; stroke-width: 0.8999999999999999;" width="68.4" x="540.6" y="52.4625"/><text fill="#000000" font-family="sans-serif" font-size="8.4" lengthAdjust="spacingAndGlyphs" textLength="51.6" x="549" y="65.3824">qa-fixes-1.3.1</text><text fill="#000000" font-family="sans-serif" font-size="8.4" lengthAdjust="spacingAndGlyphs" textLength="57.6" x="547.2" y="75.948">ad-hoc qa fixes</text><rect fill="#FEFECE" filter="url(#f1tugy5m9y1hec)" height="29.5313" style="stroke: #A80036; stroke-width: 0.8999999999999999;" width="68.4" x="540.6" y="1459.8609"/><text fill="#000000" font-family="sans-serif" font-size="8.4" lengthAdjust="spacingAndGlyphs" textLength="51.6" x="549" y="1472.7809">qa-fixes-1.3.1</text><text fill="#000000" font-family="sans-serif" font-size="8.4" lengthAdjust="spacingAndGlyphs" textLength="57.6" x="547.2" y="1483.3465">ad-hoc qa fixes</text><rect fill="#FEFECE" filter="url(#f1tugy5m9y1hec)" height="29.5313" style="stroke: #A80036; stroke-width: 0.8999999999999999;" width="68.4" x="617.4" y="52.4625"/><text fill="#000000" font-family="sans-serif" font-size="8.4" lengthAdjust="spacingAndGlyphs" textLength="56.4" x="623.4" y="65.3824">qa-fixes-1.3.21</text><text fill="#000000" font-family="sans-serif" font-size="8.4" lengthAdjust="spacingAndGlyphs" textLength="57.6" x="624" y="75.948">ad-hoc qa fixes</text><rect fill="#FEFECE" filter="url(#f1tugy5m9y1hec)" height="29.5313" style="stroke: #A80036; stroke-width: 0.8999999999999999;" width="68.4" x="617.4" y="1459.8609"/><text fill="#000000" font-family="sans-serif" font-size="8.4" lengthAdjust="spacingAndGlyphs" textLength="56.4" x="623.4" y="1472.7809">qa-fixes-1.3.21</text><text fill="#000000" font-family="sans-serif" font-size="8.4" lengthAdjust="spacingAndGlyphs" textLength="57.6" x="624" y="1483.3465">ad-hoc qa fixes</text><rect fill="#FEFECE" filter="url(#f1tugy5m9y1hec)" height="29.5313" style="stroke: #A80036; stroke-width: 0.8999999999999999;" width="36.6" x="694.2" y="52.4625"/><text fill="#000000" font-family="sans-serif" font-size="8.4" lengthAdjust="spacingAndGlyphs" textLength="28.2" x="698.4" y="65.3824">release</text><text fill="#000000" font-family="sans-serif" font-size="8.4" lengthAdjust="spacingAndGlyphs" textLength="0" x="713.7" y="75.948"/><rect fill="#FEFECE" filter="url(#f1tugy5m9y1hec)" height="29.5313" style="stroke: #A80036; stroke-width: 0.8999999999999999;" width="36.6" x="694.2" y="1459.8609"/><text fill="#000000" font-family="sans-serif" font-size="8.4" lengthAdjust="spacingAndGlyphs" textLength="28.2" x="698.4" y="1472.7809">release</text><text fill="#000000" font-family="sans-serif" font-size="8.4" lengthAdjust="spacingAndGlyphs" textLength="0" x="713.7" y="1483.3465"/><rect fill="#FEFECE" filter="url(#f1tugy5m9y1hec)" height="29.5313" style="stroke: #A80036; stroke-width: 0.8999999999999999;" width="48.6" x="778.2" y="52.4625"/><text fill="#000000" font-family="sans-serif" font-size="8.4" lengthAdjust="spacingAndGlyphs" textLength="40.2" x="782.4" y="65.3824">production</text><text fill="#000000" font-family="sans-serif" font-size="8.4" lengthAdjust="spacingAndGlyphs" textLength="0" x="803.7" y="75.948"/><rect fill="#FEFECE" filter="url(#f1tugy5m9y1hec)" height="29.5313" style="stroke: #A80036; stroke-width: 0.8999999999999999;" width="48.6" x="778.2" y="1459.8609"/><text fill="#000000" font-family="sans-serif" font-size="8.4" lengthAdjust="spacingAndGlyphs" textLength="40.2" x="782.4" y="1472.7809">production</text><text fill="#000000" font-family="sans-serif" font-size="8.4" lengthAdjust="spacingAndGlyphs" textLength="0" x="803.7" y="1483.3465"/><path d="M7.8,93.9937 L7.8,109.5938 L61.2,109.5938 L61.2,99.9937 L55.2,93.9937 L7.8,93.9937 " fill="#FFAAAA" filter="url(#f1tugy5m9y1hec)" style="stroke: #A80036; stroke-width: 0.6;"/><path d="M55.2,93.9937 L55.2,99.9937 L61.2,99.9937 L55.2,93.9937 " fill="#FFAAAA" style="stroke: #A80036; stroke-width: 0.6;"/><text fill="#000000" font-family="sans-serif" font-size="7.8" lengthAdjust="spacingAndGlyphs" textLength="40.8" x="11.4" y="105.0908">v1.2.3-dev.3</text><polygon fill="#A80036" points="159.9,126.2156,165.9,128.6156,159.9,131.0156,162.3,128.6156" style="stroke: #A80036; stroke-width: 0.6;"/><line style="stroke: #A80036; stroke-width: 0.6;" x1="35.7" x2="163.5" y1="128.6156" y2="128.6156"/><text fill="#000000" font-family="sans-serif" font-size="7.8" lengthAdjust="spacingAndGlyphs" textLength="111" x="39.9" y="125.7018">Start a development of feature A</text><path d="M139.2,136.4156 L139.2,152.0156 L192.6,152.0156 L192.6,142.4156 L186.6,136.4156 L139.2,136.4156 " fill="#FFAAAA" filter="url(#f1tugy5m9y1hec)" style="stroke: #A80036; stroke-width: 0.6;"/><path d="M186.6,136.4156 L186.6,142.4156 L192.6,142.4156 L186.6,136.4156 " fill="#FFAAAA" style="stroke: #A80036; stroke-width: 0.6;"/><text fill="#000000" font-family="sans-serif" font-size="7.8" lengthAdjust="spacingAndGlyphs" textLength="40.8" x="142.8" y="147.5127">v1.2.3-dev.3</text><line style="stroke: #A80036; stroke-width: 0.6;" x1="167.1" x2="192.3" y1="171.0375" y2="171.0375"/><line style="stroke: #A80036; stroke-width: 0.6;" x1="192.3" x2="192.3" y1="171.0375" y2="178.8375"/><line style="stroke: #A80036; stroke-width: 0.6;" x1="167.7" x2="192.3" y1="178.8375" y2="178.8375"/><polygon fill="#A80036" points="173.7,176.4375,167.7,178.8375,173.7,181.2375,171.3,178.8375" style="stroke: #A80036; stroke-width: 0.6;"/><text fill="#000000" font-family="sans-serif" font-size="7.8" lengthAdjust="spacingAndGlyphs" textLength="75.6" x="171.3" y="168.1236">Develop a new feature</text><polygon fill="#A80036" points="243.9,194.6484,249.9,197.0484,243.9,199.4484,246.3,197.0484" style="stroke: #A80036; stroke-width: 0.6;"/><line style="stroke: #A80036; stroke-width: 0.6;" x1="35.7" x2="247.5" y1="197.0484" y2="197.0484"/><text fill="#000000" font-family="sans-serif" font-size="7.8" lengthAdjust="spacingAndGlyphs" textLength="111" x="39.9" y="194.1346">Start a development of feature B</text><path d="M223.2,204.8484 L223.2,220.4484 L276.6,220.4484 L276.6,210.8484 L270.6,204.8484 L223.2,204.8484 " fill="#FFAAAA" filter="url(#f1tugy5m9y1hec)" style="stroke: #A80036; stroke-width: 0.6;"/><path d="M270.6,204.8484 L270.6,210.8484 L276.6,210.8484 L270.6,204.8484 " fill="#FFAAAA" style="stroke: #A80036; stroke-width: 0.6;"/><text fill="#000000" font-family="sans-serif" font-size="7.8" lengthAdjust="spacingAndGlyphs" textLength="40.8" x="226.8" y="215.9455">v1.2.3-dev.3</text><line style="stroke: #A80036; stroke-width: 0.6; stroke-dasharray: 2.0,2.0;" x1="167.1" x2="192.3" y1="239.4703" y2="239.4703"/><line style="stroke: #A80036; stroke-width: 0.6; stroke-dasharray: 2.0,2.0;" x1="192.3" x2="192.3" y1="239.4703" y2="247.2703"/><line style="stroke: #A80036; stroke-width: 0.6; stroke-dasharray: 2.0,2.0;" x1="167.7" x2="192.3" y1="247.2703" y2="247.2703"/><polygon fill="#A80036" points="173.7,244.8703,167.7,247.2703,173.7,249.6703,171.3,247.2703" style="stroke: #A80036; stroke-width: 0.6;"/><text fill="#000000" font-family="sans-serif" font-size="7.8" lengthAdjust="spacingAndGlyphs" textLength="28.2" x="171.3" y="236.5564">Dev test</text><line style="stroke: #A80036; stroke-width: 0.6;" x1="251.1" x2="276.3" y1="265.4813" y2="265.4813"/><line style="stroke: #A80036; stroke-width: 0.6;" x1="276.3" x2="276.3" y1="265.4813" y2="273.2813"/><line style="stroke: #A80036; stroke-width: 0.6;" x1="251.7" x2="276.3" y1="273.2813" y2="273.2813"/><polygon fill="#A80036" points="257.7,270.8812,251.7,273.2813,257.7,275.6813,255.3,273.2813" style="stroke: #A80036; stroke-width: 0.6;"/><text fill="#000000" font-family="sans-serif" font-size="7.8" lengthAdjust="spacingAndGlyphs" textLength="75.6" x="255.3" y="262.5674">Develop a new feature</text><line style="stroke: #A80036; stroke-width: 0.6;" x1="167.1" x2="192.3" y1="291.4922" y2="291.4922"/><line style="stroke: #A80036; stroke-width: 0.6;" x1="192.3" x2="192.3" y1="291.4922" y2="299.2922"/><line style="stroke: #A80036; stroke-width: 0.6;" x1="167.7" x2="192.3" y1="299.2922" y2="299.2922"/><polygon fill="#A80036" points="173.7,296.8922,167.7,299.2922,173.7,301.6922,171.3,299.2922" style="stroke: #A80036; stroke-width: 0.6;"/><text fill="#000000" font-family="sans-serif" font-size="7.8" lengthAdjust="spacingAndGlyphs" textLength="36" x="171.3" y="288.5783">Fix issues</text><path d="M139.2,307.0922 L139.2,322.6922 L192.6,322.6922 L192.6,313.0922 L186.6,307.0922 L139.2,307.0922 " fill="#FFAAAA" filter="url(#f1tugy5m9y1hec)" style="stroke: #A80036; stroke-width: 0.6;"/><path d="M186.6,307.0922 L186.6,313.0922 L192.6,313.0922 L186.6,307.0922 " fill="#FFAAAA" style="stroke: #A80036; stroke-width: 0.6;"/><text fill="#000000" font-family="sans-serif" font-size="7.8" lengthAdjust="spacingAndGlyphs" textLength="40.8" x="142.8" y="318.1893">v1.2.3-dev.3</text><polygon fill="#A80036" points="159.9,339.3141,165.9,341.7141,159.9,344.1141,162.3,341.7141" style="stroke: #A80036; stroke-width: 0.6;"/><line style="stroke: #A80036; stroke-width: 0.6;" x1="35.7" x2="163.5" y1="341.7141" y2="341.7141"/><text fill="#000000" font-family="sans-serif" font-size="7.8" lengthAdjust="spacingAndGlyphs" textLength="114" x="39.9" y="338.8002">Merge upstream changes (if any)</text><polygon fill="#A80036" points="42.3,357.525,36.3,359.925,42.3,362.325,39.9,359.925" style="stroke: #A80036; stroke-width: 0.6;"/><line style="stroke: #A80036; stroke-width: 0.6;" x1="38.7" x2="166.5" y1="359.925" y2="359.925"/><text fill="#000000" font-family="sans-serif" font-size="7.8" lengthAdjust="spacingAndGlyphs" textLength="117" x="45.9" y="357.0111">Feature A dev is complete (minor)</text><path d="M7.8,367.725 L7.8,383.325 L61.2,383.325 L61.2,373.725 L55.2,367.725 L7.8,367.725 " fill="#ADFF2F" filter="url(#f1tugy5m9y1hec)" style="stroke: #A80036; stroke-width: 0.6;"/><path d="M55.2,367.725 L55.2,373.725 L61.2,373.725 L55.2,367.725 " fill="#ADFF2F" style="stroke: #A80036; stroke-width: 0.6;"/><text fill="#000000" font-family="sans-serif" font-size="7.8" lengthAdjust="spacingAndGlyphs" textLength="40.8" x="11.4" y="378.8221">v1.3.0-dev.0</text><line style="stroke: #A80036; stroke-width: 0.6; stroke-dasharray: 2.0,2.0;" x1="251.1" x2="276.3" y1="402.3469" y2="402.3469"/><line style="stroke: #A80036; stroke-width: 0.6; stroke-dasharray: 2.0,2.0;" x1="276.3" x2="276.3" y1="402.3469" y2="410.1469"/><line style="stroke: #A80036; stroke-width: 0.6; stroke-dasharray: 2.0,2.0;" x1="251.7" x2="276.3" y1="410.1469" y2="410.1469"/><polygon fill="#A80036" points="257.7,407.7469,251.7,410.1469,257.7,412.5469,255.3,410.1469" style="stroke: #A80036; stroke-width: 0.6;"/><text fill="#000000" font-family="sans-serif" font-size="7.8" lengthAdjust="spacingAndGlyphs" textLength="28.2" x="255.3" y="399.433">Dev test</text><line style="stroke: #A80036; stroke-width: 0.6;" x1="251.1" x2="276.3" y1="428.3578" y2="428.3578"/><line style="stroke: #A80036; stroke-width: 0.6;" x1="276.3" x2="276.3" y1="428.3578" y2="436.1578"/><line style="stroke: #A80036; stroke-width: 0.6;" x1="251.7" x2="276.3" y1="436.1578" y2="436.1578"/><polygon fill="#A80036" points="257.7,433.7578,251.7,436.1578,257.7,438.5578,255.3,436.1578" style="stroke: #A80036; stroke-width: 0.6;"/><text fill="#000000" font-family="sans-serif" font-size="7.8" lengthAdjust="spacingAndGlyphs" textLength="36" x="255.3" y="425.4439">Fix issues</text><path d="M223.2,443.9578 L223.2,459.5578 L276.6,459.5578 L276.6,449.9578 L270.6,443.9578 L223.2,443.9578 " fill="#FFAAAA" filter="url(#f1tugy5m9y1hec)" style="stroke: #A80036; stroke-width: 0.6;"/><path d="M270.6,443.9578 L270.6,449.9578 L276.6,449.9578 L270.6,443.9578 " fill="#FFAAAA" style="stroke: #A80036; stroke-width: 0.6;"/><text fill="#000000" font-family="sans-serif" font-size="7.8" lengthAdjust="spacingAndGlyphs" textLength="40.8" x="226.8" y="455.0549">v1.2.3-dev.3</text><polygon fill="#A80036" points="243.9,476.1797,249.9,478.5797,243.9,480.9797,246.3,478.5797" style="stroke: #A80036; stroke-width: 0.6;"/><line style="stroke: #A80036; stroke-width: 0.6;" x1="35.7" x2="247.5" y1="478.5797" y2="478.5797"/><text fill="#000000" font-family="sans-serif" font-size="7.8" lengthAdjust="spacingAndGlyphs" textLength="114" x="39.9" y="475.6658">Merge upstream changes (if any)</text><polygon fill="#A80036" points="42.3,494.3906,36.3,496.7906,42.3,499.1906,39.9,496.7906" style="stroke: #A80036; stroke-width: 0.6;"/><line style="stroke: #A80036; stroke-width: 0.6;" x1="38.7" x2="250.5" y1="496.7906" y2="496.7906"/><text fill="#000000" font-family="sans-serif" font-size="7.8" lengthAdjust="spacingAndGlyphs" textLength="117" x="45.9" y="493.8768">Feature B dev is complete (patch)</text><path d="M7.8,504.5906 L7.8,520.1906 L61.2,520.1906 L61.2,510.5906 L55.2,504.5906 L7.8,504.5906 " fill="#ADFF2F" filter="url(#f1tugy5m9y1hec)" style="stroke: #A80036; stroke-width: 0.6;"/><path d="M55.2,504.5906 L55.2,510.5906 L61.2,510.5906 L55.2,504.5906 " fill="#ADFF2F" style="stroke: #A80036; stroke-width: 0.6;"/><text fill="#000000" font-family="sans-serif" font-size="7.8" lengthAdjust="spacingAndGlyphs" textLength="40.8" x="11.4" y="515.6877">v1.3.1-dev.0</text><polygon fill="#A80036" points="422.1,536.8125,428.1,539.2125,422.1,541.6125,424.5,539.2125" style="stroke: #A80036; stroke-width: 0.6;"/><line style="stroke: #A80036; stroke-width: 0.6;" x1="35.7" x2="425.7" y1="539.2125" y2="539.2125"/><text fill="#000000" font-family="sans-serif" font-size="7.8" lengthAdjust="spacingAndGlyphs" textLength="96.6" x="39.9" y="536.2986">Add a set of changes to QA</text><path d="M402.6,547.0125 L402.6,562.6125 L453,562.6125 L453,553.0125 L447,547.0125 L402.6,547.0125 " fill="#ADFF2F" filter="url(#f1tugy5m9y1hec)" style="stroke: #A80036; stroke-width: 0.6;"/><path d="M447,547.0125 L447,553.0125 L453,553.0125 L447,547.0125 " fill="#ADFF2F" style="stroke: #A80036; stroke-width: 0.6;"/><text fill="#000000" font-family="sans-serif" font-size="7.8" lengthAdjust="spacingAndGlyphs" textLength="37.8" x="406.2" y="558.1096">v1.3.1-qa.0</text><line style="stroke: #A80036; stroke-width: 0.6; stroke-dasharray: 2.0,2.0;" x1="429.3" x2="454.5" y1="581.6344" y2="581.6344"/><line style="stroke: #A80036; stroke-width: 0.6; stroke-dasharray: 2.0,2.0;" x1="454.5" x2="454.5" y1="581.6344" y2="589.4344"/><line style="stroke: #A80036; stroke-width: 0.6; stroke-dasharray: 2.0,2.0;" x1="429.9" x2="454.5" y1="589.4344" y2="589.4344"/><polygon fill="#A80036" points="435.9,587.0344,429.9,589.4344,435.9,591.8344,433.5,589.4344" style="stroke: #A80036; stroke-width: 0.6;"/><text fill="#000000" font-family="sans-serif" font-size="7.8" lengthAdjust="spacingAndGlyphs" textLength="25.2" x="433.5" y="578.7205">Testing</text><polygon fill="#A80036" points="568.8,605.2453,574.8,607.6453,568.8,610.0453,571.2,607.6453" style="stroke: #A80036; stroke-width: 0.6;"/><line style="stroke: #A80036; stroke-width: 0.6;" x1="429.3" x2="572.4" y1="607.6453" y2="607.6453"/><text fill="#000000" font-family="sans-serif" font-size="7.8" lengthAdjust="spacingAndGlyphs" textLength="39" x="433.5" y="604.7314">Bugs found</text><path d="M549.6,615.4453 L549.6,631.0453 L600,631.0453 L600,621.4453 L594,615.4453 L549.6,615.4453 " fill="#FFAAAA" filter="url(#f1tugy5m9y1hec)" style="stroke: #A80036; stroke-width: 0.6;"/><path d="M594,615.4453 L594,621.4453 L600,621.4453 L594,615.4453 " fill="#FFAAAA" style="stroke: #A80036; stroke-width: 0.6;"/><text fill="#000000" font-family="sans-serif" font-size="7.8" lengthAdjust="spacingAndGlyphs" textLength="37.8" x="553.2" y="626.5424">v1.3.1-qa.0</text><line style="stroke: #A80036; stroke-width: 0.6;" x1="576" x2="601.2" y1="650.0672" y2="650.0672"/><line style="stroke: #A80036; stroke-width: 0.6;" x1="601.2" x2="601.2" y1="650.0672" y2="657.8672"/><line style="stroke: #A80036; stroke-width: 0.6;" x1="576.6" x2="601.2" y1="657.8672" y2="657.8672"/><polygon fill="#A80036" points="582.6,655.4672,576.6,657.8672,582.6,660.2672,580.2,657.8672" style="stroke: #A80036; stroke-width: 0.6;"/><text fill="#000000" font-family="sans-serif" font-size="7.8" lengthAdjust="spacingAndGlyphs" textLength="34.2" x="580.2" y="647.1533">Bug fixing</text><path d="M549.6,665.6672 L549.6,681.2672 L600,681.2672 L600,671.6672 L594,665.6672 L549.6,665.6672 " fill="#FFAAAA" filter="url(#f1tugy5m9y1hec)" style="stroke: #A80036; stroke-width: 0.6;"/><path d="M594,665.6672 L594,671.6672 L600,671.6672 L594,665.6672 " fill="#FFAAAA" style="stroke: #A80036; stroke-width: 0.6;"/><text fill="#000000" font-family="sans-serif" font-size="7.8" lengthAdjust="spacingAndGlyphs" textLength="37.8" x="553.2" y="676.7643">v1.3.1-qa.0</text><polygon fill="#A80036" points="435.9,697.8891,429.9,700.2891,435.9,702.6891,433.5,700.2891" style="stroke: #A80036; stroke-width: 0.6;"/><line style="stroke: #A80036; stroke-width: 0.6;" x1="432.3" x2="575.4" y1="700.2891" y2="700.2891"/><text fill="#000000" font-family="sans-serif" font-size="7.8" lengthAdjust="spacingAndGlyphs" textLength="36.6" x="439.5" y="697.3752">Bugs fixed</text><path d="M402.6,708.0891 L402.6,723.6891 L453,723.6891 L453,714.0891 L447,708.0891 L402.6,708.0891 " fill="#ADFF2F" filter="url(#f1tugy5m9y1hec)" style="stroke: #A80036; stroke-width: 0.6;"/><path d="M447,708.0891 L447,714.0891 L453,714.0891 L447,708.0891 " fill="#ADFF2F" style="stroke: #A80036; stroke-width: 0.6;"/><text fill="#000000" font-family="sans-serif" font-size="7.8" lengthAdjust="spacingAndGlyphs" textLength="37.8" x="406.2" y="719.1861">v1.3.1-qa.1</text><polygon fill="#A80036" points="338.1,740.3109,344.1,742.7109,338.1,745.1109,340.5,742.7109" style="stroke: #A80036; stroke-width: 0.6;"/><line style="stroke: #A80036; stroke-width: 0.6;" x1="35.7" x2="341.7" y1="742.7109" y2="742.7109"/><text fill="#000000" font-family="sans-serif" font-size="7.8" lengthAdjust="spacingAndGlyphs" textLength="152.4" x="39.9" y="739.7971">Start a development of a fast-track feature C</text><path d="M317.4,750.5109 L317.4,766.1109 L370.8,766.1109 L370.8,756.5109 L364.8,750.5109 L317.4,750.5109 " fill="#FFAAAA" filter="url(#f1tugy5m9y1hec)" style="stroke: #A80036; stroke-width: 0.6;"/><path d="M364.8,750.5109 L364.8,756.5109 L370.8,756.5109 L364.8,750.5109 " fill="#FFAAAA" style="stroke: #A80036; stroke-width: 0.6;"/><text fill="#000000" font-family="sans-serif" font-size="7.8" lengthAdjust="spacingAndGlyphs" textLength="40.8" x="321" y="761.608">v1.3.1-dev.0</text><line style="stroke: #A80036; stroke-width: 0.6;" x1="345.3" x2="370.5" y1="785.1328" y2="785.1328"/><line style="stroke: #A80036; stroke-width: 0.6;" x1="370.5" x2="370.5" y1="785.1328" y2="792.9328"/><line style="stroke: #A80036; stroke-width: 0.6;" x1="345.9" x2="370.5" y1="792.9328" y2="792.9328"/><polygon fill="#A80036" points="351.9,790.5328,345.9,792.9328,351.9,795.3328,349.5,792.9328" style="stroke: #A80036; stroke-width: 0.6;"/><text fill="#000000" font-family="sans-serif" font-size="7.8" lengthAdjust="spacingAndGlyphs" textLength="75.6" x="349.5" y="782.2189">Develop a new feature</text><line style="stroke: #A80036; stroke-width: 0.6; stroke-dasharray: 2.0,2.0;" x1="345.3" x2="370.5" y1="811.1438" y2="811.1438"/><line style="stroke: #A80036; stroke-width: 0.6; stroke-dasharray: 2.0,2.0;" x1="370.5" x2="370.5" y1="811.1438" y2="818.9438"/><line style="stroke: #A80036; stroke-width: 0.6; stroke-dasharray: 2.0,2.0;" x1="345.9" x2="370.5" y1="818.9438" y2="818.9438"/><polygon fill="#A80036" points="351.9,816.5437,345.9,818.9438,351.9,821.3438,349.5,818.9438" style="stroke: #A80036; stroke-width: 0.6;"/><text fill="#000000" font-family="sans-serif" font-size="7.8" lengthAdjust="spacingAndGlyphs" textLength="28.2" x="349.5" y="808.2299">Dev test</text><line style="stroke: #A80036; stroke-width: 0.6;" x1="345.3" x2="370.5" y1="837.1547" y2="837.1547"/><line style="stroke: #A80036; stroke-width: 0.6;" x1="370.5" x2="370.5" y1="837.1547" y2="844.9547"/><line style="stroke: #A80036; stroke-width: 0.6;" x1="345.9" x2="370.5" y1="844.9547" y2="844.9547"/><polygon fill="#A80036" points="351.9,842.5547,345.9,844.9547,351.9,847.3547,349.5,844.9547" style="stroke: #A80036; stroke-width: 0.6;"/><text fill="#000000" font-family="sans-serif" font-size="7.8" lengthAdjust="spacingAndGlyphs" textLength="36" x="349.5" y="834.2408">Fix issues</text><path d="M317.4,852.7547 L317.4,868.3547 L370.8,868.3547 L370.8,858.7547 L364.8,852.7547 L317.4,852.7547 " fill="#FFAAAA" filter="url(#f1tugy5m9y1hec)" style="stroke: #A80036; stroke-width: 0.6;"/><path d="M364.8,852.7547 L364.8,858.7547 L370.8,858.7547 L364.8,852.7547 " fill="#FFAAAA" style="stroke: #A80036; stroke-width: 0.6;"/><text fill="#000000" font-family="sans-serif" font-size="7.8" lengthAdjust="spacingAndGlyphs" textLength="40.8" x="321" y="863.8518">v1.3.1-dev.0</text><polygon fill="#A80036" points="42.3,884.9766,36.3,887.3766,42.3,889.7766,39.9,887.3766" style="stroke: #A80036; stroke-width: 0.6;"/><line style="stroke: #A80036; stroke-width: 0.6;" x1="38.7" x2="344.7" y1="887.3766" y2="887.3766"/><text fill="#000000" font-family="sans-serif" font-size="7.8" lengthAdjust="spacingAndGlyphs" textLength="151.8" x="45.9" y="884.4627">Fast-track feature C dev is complete (major)</text><polygon fill="#A80036" points="500.1,903.1875,506.1,905.5875,500.1,907.9875,502.5,905.5875" style="stroke: #A80036; stroke-width: 0.6;"/><line style="stroke: #A80036; stroke-width: 0.6;" x1="345.3" x2="503.7" y1="905.5875" y2="905.5875"/><text fill="#000000" font-family="sans-serif" font-size="7.8" lengthAdjust="spacingAndGlyphs" textLength="147.6" x="349.5" y="902.6736">Add a new set of fast-track changes to QA</text><path d="M480.6,913.3875 L480.6,928.9875 L531,928.9875 L531,919.3875 L525,913.3875 L480.6,913.3875 " fill="#ADFF2F" filter="url(#f1tugy5m9y1hec)" style="stroke: #A80036; stroke-width: 0.6;"/><path d="M525,913.3875 L525,919.3875 L531,919.3875 L525,913.3875 " fill="#ADFF2F" style="stroke: #A80036; stroke-width: 0.6;"/><text fill="#000000" font-family="sans-serif" font-size="7.8" lengthAdjust="spacingAndGlyphs" textLength="37.8" x="484.2" y="924.4846">v2.0.0-qa.0</text><line style="stroke: #A80036; stroke-width: 0.6; stroke-dasharray: 2.0,2.0;" x1="507.3" x2="532.5" y1="948.0094" y2="948.0094"/><line style="stroke: #A80036; stroke-width: 0.6; stroke-dasharray: 2.0,2.0;" x1="532.5" x2="532.5" y1="948.0094" y2="955.8094"/><line style="stroke: #A80036; stroke-width: 0.6; stroke-dasharray: 2.0,2.0;" x1="507.9" x2="532.5" y1="955.8094" y2="955.8094"/><polygon fill="#A80036" points="513.9,953.4094,507.9,955.8094,513.9,958.2094,511.5,955.8094" style="stroke: #A80036; stroke-width: 0.6;"/><text fill="#000000" font-family="sans-serif" font-size="7.8" lengthAdjust="spacingAndGlyphs" textLength="25.2" x="511.5" y="945.0955">Testing</text><polygon fill="#A80036" points="645.6,971.6203,651.6,974.0203,645.6,976.4203,648,974.0203" style="stroke: #A80036; stroke-width: 0.6;"/><line style="stroke: #A80036; stroke-width: 0.6;" x1="507.3" x2="649.2" y1="974.0203" y2="974.0203"/><text fill="#000000" font-family="sans-serif" font-size="7.8" lengthAdjust="spacingAndGlyphs" textLength="39" x="511.5" y="971.1064">Bugs found</text><path d="M626.4,981.8203 L626.4,997.4203 L676.8,997.4203 L676.8,987.8203 L670.8,981.8203 L626.4,981.8203 " fill="#FFAAAA" filter="url(#f1tugy5m9y1hec)" style="stroke: #A80036; stroke-width: 0.6;"/><path d="M670.8,981.8203 L670.8,987.8203 L676.8,987.8203 L670.8,981.8203 " fill="#FFAAAA" style="stroke: #A80036; stroke-width: 0.6;"/><text fill="#000000" font-family="sans-serif" font-size="7.8" lengthAdjust="spacingAndGlyphs" textLength="37.8" x="630" y="992.9174">v2.0.0-qa.0</text><line style="stroke: #A80036; stroke-width: 0.6;" x1="652.8" x2="678" y1="1016.4422" y2="1016.4422"/><line style="stroke: #A80036; stroke-width: 0.6;" x1="678" x2="678" y1="1016.4422" y2="1024.2422"/><line style="stroke: #A80036; stroke-width: 0.6;" x1="653.4" x2="678" y1="1024.2422" y2="1024.2422"/><polygon fill="#A80036" points="659.4,1021.8422,653.4,1024.2422,659.4,1026.6422,657,1024.2422" style="stroke: #A80036; stroke-width: 0.6;"/><text fill="#000000" font-family="sans-serif" font-size="7.8" lengthAdjust="spacingAndGlyphs" textLength="34.2" x="657" y="1013.5283">Bug fixing</text><path d="M626.4,1032.0422 L626.4,1047.6422 L676.8,1047.6422 L676.8,1038.0422 L670.8,1032.0422 L626.4,1032.0422 " fill="#FFAAAA" filter="url(#f1tugy5m9y1hec)" style="stroke: #A80036; stroke-width: 0.6;"/><path d="M670.8,1032.0422 L670.8,1038.0422 L676.8,1038.0422 L670.8,1032.0422 " fill="#FFAAAA" style="stroke: #A80036; stroke-width: 0.6;"/><text fill="#000000" font-family="sans-serif" font-size="7.8" lengthAdjust="spacingAndGlyphs" textLength="37.8" x="630" y="1043.1393">v2.0.0-qa.0</text><polygon fill="#A80036" points="513.9,1064.2641,507.9,1066.6641,513.9,1069.0641,511.5,1066.6641" style="stroke: #A80036; stroke-width: 0.6;"/><line style="stroke: #A80036; stroke-width: 0.6;" x1="510.3" x2="652.2" y1="1066.6641" y2="1066.6641"/><text fill="#000000" font-family="sans-serif" font-size="7.8" lengthAdjust="spacingAndGlyphs" textLength="36.6" x="517.5" y="1063.7502">Bugs fixed</text><path d="M480.6,1074.4641 L480.6,1090.0641 L531,1090.0641 L531,1080.4641 L525,1074.4641 L480.6,1074.4641 " fill="#ADFF2F" filter="url(#f1tugy5m9y1hec)" style="stroke: #A80036; stroke-width: 0.6;"/><path d="M525,1074.4641 L525,1080.4641 L531,1080.4641 L525,1074.4641 " fill="#ADFF2F" style="stroke: #A80036; stroke-width: 0.6;"/><text fill="#000000" font-family="sans-serif" font-size="7.8" lengthAdjust="spacingAndGlyphs" textLength="37.8" x="484.2" y="1085.5611">v2.0.0-qa.1</text><line style="stroke: #A80036; stroke-width: 0.6; stroke-dasharray: 2.0,2.0;" x1="507.3" x2="532.5" y1="1109.0859" y2="1109.0859"/><line style="stroke: #A80036; stroke-width: 0.6; stroke-dasharray: 2.0,2.0;" x1="532.5" x2="532.5" y1="1109.0859" y2="1116.8859"/><line style="stroke: #A80036; stroke-width: 0.6; stroke-dasharray: 2.0,2.0;" x1="507.9" x2="532.5" y1="1116.8859" y2="1116.8859"/><polygon fill="#A80036" points="513.9,1114.4859,507.9,1116.8859,513.9,1119.2859,511.5,1116.8859" style="stroke: #A80036; stroke-width: 0.6;"/><text fill="#000000" font-family="sans-serif" font-size="7.8" lengthAdjust="spacingAndGlyphs" textLength="25.2" x="511.5" y="1106.1721">Testing</text><polygon fill="#A80036" points="706.5,1132.6969,712.5,1135.0969,706.5,1137.4969,708.9,1135.0969" style="stroke: #A80036; stroke-width: 0.6;"/><line style="stroke: #A80036; stroke-width: 0.6;" x1="507.3" x2="710.1" y1="1135.0969" y2="1135.0969"/><text fill="#000000" font-family="sans-serif" font-size="7.8" lengthAdjust="spacingAndGlyphs" textLength="63.6" x="511.5" y="1132.183">Changes approved</text><path d="M687,1142.8969 L687,1158.4969 L737.4,1158.4969 L737.4,1148.8969 L731.4,1142.8969 L687,1142.8969 " fill="#ADFF2F" filter="url(#f1tugy5m9y1hec)" style="stroke: #A80036; stroke-width: 0.6;"/><path d="M731.4,1142.8969 L731.4,1148.8969 L737.4,1148.8969 L731.4,1142.8969 " fill="#ADFF2F" style="stroke: #A80036; stroke-width: 0.6;"/><text fill="#000000" font-family="sans-serif" font-size="7.8" lengthAdjust="spacingAndGlyphs" textLength="37.8" x="690.6" y="1153.9939">v2.0.0-rel.0</text><polygon fill="#A80036" points="796.5,1175.1187,802.5,1177.5188,796.5,1179.9188,798.9,1177.5188" style="stroke: #A80036; stroke-width: 0.6;"/><line style="stroke: #A80036; stroke-width: 0.6;" x1="713.7" x2="800.1" y1="1177.5188" y2="1177.5188"/><text fill="#000000" font-family="sans-serif" font-size="7.8" lengthAdjust="spacingAndGlyphs" textLength="63" x="717.9" y="1174.6049">Fast-track release</text><path d="M786,1185.3188 L786,1200.9188 L819,1200.9188 L819,1191.3188 L813,1185.3188 L786,1185.3188 " fill="#ADFF2F" filter="url(#f1tugy5m9y1hec)" style="stroke: #A80036; stroke-width: 0.6;"/><path d="M813,1185.3188 L813,1191.3188 L819,1191.3188 L813,1185.3188 " fill="#ADFF2F" style="stroke: #A80036; stroke-width: 0.6;"/><text fill="#000000" font-family="sans-serif" font-size="7.8" lengthAdjust="spacingAndGlyphs" textLength="20.4" x="789.6" y="1196.4158">v2.0.0</text><polygon fill="#A80036" points="42.3,1217.5406,36.3,1219.9406,42.3,1222.3406,39.9,1219.9406" style="stroke: #A80036; stroke-width: 0.6;"/><line style="stroke: #A80036; stroke-width: 0.6;" x1="38.7" x2="713.1" y1="1219.9406" y2="1219.9406"/><text fill="#000000" font-family="sans-serif" font-size="7.8" lengthAdjust="spacingAndGlyphs" textLength="107.4" x="45.9" y="1217.0268">Merge fast-track changes back</text><path d="M7.8,1227.7406 L7.8,1243.3406 L61.2,1243.3406 L61.2,1233.7406 L55.2,1227.7406 L7.8,1227.7406 " fill="#ADFF2F" filter="url(#f1tugy5m9y1hec)" style="stroke: #A80036; stroke-width: 0.6;"/><path d="M55.2,1227.7406 L55.2,1233.7406 L61.2,1233.7406 L55.2,1227.7406 " fill="#ADFF2F" style="stroke: #A80036; stroke-width: 0.6;"/><text fill="#000000" font-family="sans-serif" font-size="7.8" lengthAdjust="spacingAndGlyphs" textLength="40.8" x="11.4" y="1238.8377">v2.0.0-dev.0</text><polygon fill="#A80036" points="435.9,1259.9625,429.9,1262.3625,435.9,1264.7625,433.5,1262.3625" style="stroke: #A80036; stroke-width: 0.6;"/><line style="stroke: #A80036; stroke-width: 0.6;" x1="432.3" x2="713.1" y1="1262.3625" y2="1262.3625"/><text fill="#000000" font-family="sans-serif" font-size="7.8" lengthAdjust="spacingAndGlyphs" textLength="142.8" x="439.5" y="1259.4486">Merge fast-track changes to "normal" QA</text><path d="M381.6,1270.1625 L381.6,1295.3625 L474,1295.3625 L474,1276.1625 L468,1270.1625 L381.6,1270.1625 " fill="#ADFF2F" filter="url(#f1tugy5m9y1hec)" style="stroke: #A80036; stroke-width: 0.6;"/><path d="M468,1270.1625 L468,1276.1625 L474,1276.1625 L468,1270.1625 " fill="#ADFF2F" style="stroke: #A80036; stroke-width: 0.6;"/><text fill="#000000" font-family="sans-serif" font-size="7.8" lengthAdjust="spacingAndGlyphs" textLength="37.8" x="385.2" y="1281.2596">v2.1.1-qa.0</text><text fill="#000000" font-family="sans-serif" font-size="7.8" lengthAdjust="spacingAndGlyphs" textLength="79.8" x="385.2" y="1291.0705">(2.0.0 + minor + patch)</text><line style="stroke: #A80036; stroke-width: 0.6; stroke-dasharray: 2.0,2.0;" x1="429.3" x2="454.5" y1="1314.5953" y2="1314.5953"/><line style="stroke: #A80036; stroke-width: 0.6; stroke-dasharray: 2.0,2.0;" x1="454.5" x2="454.5" y1="1314.5953" y2="1322.3953"/><line style="stroke: #A80036; stroke-width: 0.6; stroke-dasharray: 2.0,2.0;" x1="429.9" x2="454.5" y1="1322.3953" y2="1322.3953"/><polygon fill="#A80036" points="435.9,1319.9953,429.9,1322.3953,435.9,1324.7953,433.5,1322.3953" style="stroke: #A80036; stroke-width: 0.6;"/><text fill="#000000" font-family="sans-serif" font-size="7.8" lengthAdjust="spacingAndGlyphs" textLength="25.2" x="433.5" y="1311.6814">Testing</text><polygon fill="#A80036" points="706.5,1338.2063,712.5,1340.6063,706.5,1343.0063,708.9,1340.6063" style="stroke: #A80036; stroke-width: 0.6;"/><line style="stroke: #A80036; stroke-width: 0.6;" x1="429.3" x2="710.1" y1="1340.6063" y2="1340.6063"/><text fill="#000000" font-family="sans-serif" font-size="7.8" lengthAdjust="spacingAndGlyphs" textLength="63.6" x="433.5" y="1337.6924">Changes approved</text><path d="M687,1348.4063 L687,1364.0063 L737.4,1364.0063 L737.4,1354.4063 L731.4,1348.4063 L687,1348.4063 " fill="#ADFF2F" filter="url(#f1tugy5m9y1hec)" style="stroke: #A80036; stroke-width: 0.6;"/><path d="M731.4,1348.4063 L731.4,1354.4063 L737.4,1354.4063 L731.4,1348.4063 " fill="#ADFF2F" style="stroke: #A80036; stroke-width: 0.6;"/><text fill="#000000" font-family="sans-serif" font-size="7.8" lengthAdjust="spacingAndGlyphs" textLength="37.8" x="690.6" y="1359.5033">v2.1.1-rel.0</text><polygon fill="#A80036" points="42.3,1380.6281,36.3,1383.0281,42.3,1385.4281,39.9,1383.0281" style="stroke: #A80036; stroke-width: 0.6;"/><line style="stroke: #A80036; stroke-width: 0.6;" x1="38.7" x2="713.1" y1="1383.0281" y2="1383.0281"/><text fill="#000000" font-family="sans-serif" font-size="7.8" lengthAdjust="spacingAndGlyphs" textLength="59.4" x="45.9" y="1380.1143">Merge fixes back</text><path d="M7.8,1390.8281 L7.8,1406.4281 L61.2,1406.4281 L61.2,1396.8281 L55.2,1390.8281 L7.8,1390.8281 " fill="#ADFF2F" filter="url(#f1tugy5m9y1hec)" style="stroke: #A80036; stroke-width: 0.6;"/><path d="M55.2,1390.8281 L55.2,1396.8281 L61.2,1396.8281 L55.2,1390.8281 " fill="#ADFF2F" style="stroke: #A80036; stroke-width: 0.6;"/><text fill="#000000" font-family="sans-serif" font-size="7.8" lengthAdjust="spacingAndGlyphs" textLength="40.8" x="11.4" y="1401.9252">v2.1.1-dev.0</text><polygon fill="#A80036" points="796.5,1423.05,802.5,1425.45,796.5,1427.85,798.9,1425.45" style="stroke: #A80036; stroke-width: 0.6;"/><line style="stroke: #A80036; stroke-width: 0.6;" x1="713.7" x2="800.1" y1="1425.45" y2="1425.45"/><text fill="#000000" font-family="sans-serif" font-size="7.8" lengthAdjust="spacingAndGlyphs" textLength="75.6" x="717.9" y="1422.5361">Release to production</text><path d="M786,1433.25 L786,1448.85 L819,1448.85 L819,1439.25 L813,1433.25 L786,1433.25 " fill="#ADFF2F" filter="url(#f1tugy5m9y1hec)" style="stroke: #A80036; stroke-width: 0.6;"/><path d="M813,1433.25 L813,1439.25 L819,1439.25 L813,1433.25 " fill="#ADFF2F" style="stroke: #A80036; stroke-width: 0.6;"/><text fill="#000000" font-family="sans-serif" font-size="7.8" lengthAdjust="spacingAndGlyphs" textLength="20.4" x="789.6" y="1444.3471">v2.1.1</text><!--MD5=[8c6c741d254f732afbcdaeeeb57eb3ed]
@startuml
title A FAST TRACK DEVELOPMENT WORKFLOW\n notes in green indicates when version is changed\n those commits are tagged and pushed to npm\n yellow boxes are branches
participant "master\n development" as mst
participant "feature-a\n (minor feature)" as f1
participant "feature-b\n (patch feature)" as f2
participant "feature-c\n (major fast track feature)" as f3
participant "qa\n" as qa
participant "qa-ft\n (fast-track)" as qaft
participant "qa-fixes-1.3.1\n ad-hoc qa fixes" as qafix
participant "qa-fixes-1.3.21\n ad-hoc qa fixes" as qafix2
participant "release\n" as rel
participant "production\n" as prod

note over mst #FFAAAA: v1.2.3-dev.3
mst -> f1: Start a development of feature A
note over f1 #FFAAAA: v1.2.3-dev.3
f1 -> f1: Develop a new feature
mst -> f2: Start a development of feature B
note over f2 #FFAAAA: v1.2.3-dev.3
f1 - -> f1: Dev test
f2 -> f2: Develop a new feature
f1 -> f1: Fix issues
note over f1 #FFAAAA: v1.2.3-dev.3
mst -> f1: Merge upstream changes (if any)
f1 -> mst: Feature A dev is complete (minor)
note over mst #GreenYellow: v1.3.0-dev.0

f2 - -> f2: Dev test
f2 -> f2: Fix issues
note over f2 #FFAAAA: v1.2.3-dev.3
mst -> f2: Merge upstream changes (if any)
f2 -> mst: Feature B dev is complete (patch)
note over mst #GreenYellow: v1.3.1-dev.0

mst -> qa: Add a set of changes to QA
note over qa #GreenYellow: v1.3.1-qa.0
qa - -> qa: Testing
qa -> qafix: Bugs found
note over qafix #FFAAAA: v1.3.1-qa.0
qafix -> qafix: Bug fixing
note over qafix #FFAAAA: v1.3.1-qa.0
qafix -> qa: Bugs fixed
note over qa #GreenYellow: v1.3.1-qa.1

mst -> f3: Start a development of a fast-track feature C
note over f3 #FFAAAA: v1.3.1-dev.0
f3 -> f3: Develop a new feature
f3 - -> f3: Dev test
f3 -> f3: Fix issues
note over f3 #FFAAAA: v1.3.1-dev.0
f3 -> mst: Fast-track feature C dev is complete (major)

f3 -> qaft: Add a new set of fast-track changes to QA
note over qaft #GreenYellow: v2.0.0-qa.0
qaft - -> qaft: Testing
qaft -> qafix2: Bugs found
note over qafix2 #FFAAAA: v2.0.0-qa.0
qafix2 -> qafix2: Bug fixing
note over qafix2 #FFAAAA: v2.0.0-qa.0
qafix2 -> qaft: Bugs fixed
note over qaft #GreenYellow: v2.0.0-qa.1
qaft - -> qaft: Testing
qaft -> rel: Changes approved
note over rel #GreenYellow: v2.0.0-rel.0
rel -> prod: Fast-track release
note over prod #GreenYellow: v2.0.0

rel -> mst: Merge fast-track changes back
note over mst #GreenYellow: v2.0.0-dev.0
rel -> qa: Merge fast-track changes to "normal" QA
note over qa #GreenYellow: v2.1.1-qa.0\n(2.0.0 + minor + patch)

qa - -> qa: Testing
qa -> rel: Changes approved
note over rel #GreenYellow: v2.1.1-rel.0
rel -> mst: Merge fixes back
note over mst #GreenYellow: v2.1.1-dev.0

rel -> prod: Release to production
note over prod #GreenYellow: v2.1.1
@enduml

PlantUML version 1.2019.11(Sun Sep 22 14:02:15 SAMT 2019)
(GPL source distribution)
Java Runtime: OpenJDK Runtime Environment
JVM: OpenJDK 64-Bit Server VM
Java Version: 11.0.5+10-b520.30
Operating System: Windows 10
Default Encoding: Cp1251
Language: en
Country: US
--></g></svg>