<?xml version="1.0" encoding="UTF-8" standalone="no"?><svg xmlns="http://www.w3.org/2000/svg" xmlns:xlink="http://www.w3.org/1999/xlink" contentScriptType="application/ecmascript" contentStyleType="text/css" height="1738.4px" preserveAspectRatio="none" style="width:758px;height:1738px;" version="1.1" viewBox="0 0 758 1738" width="758.4px" zoomAndPan="magnify"><defs><filter height="300%" id="foq2b62290mp1" width="300%" x="-1" y="-1"><feGaussianBlur result="blurOut" stdDeviation="1.6"/><feColorMatrix in="blurOut" result="blurOut2" type="matrix" values="0 0 0 0 0 0 0 0 0 0 0 0 0 0 0 0 0 0 .4 0"/><feOffset dx="3.2" dy="3.2" in="blurOut2" result="blurOut3"/><feBlend in="SourceGraphic" in2="blurOut3" mode="normal"/></filter></defs><g><text fill="#000000" font-family="sans-serif" font-size="11.2" font-weight="bold" lengthAdjust="spacingAndGlyphs" textLength="228.8" x="264.8" y="19.6266">A STANDARD DEVELOPMENT WORKFLOW</text><text fill="#000000" font-family="sans-serif" font-size="11.2" font-weight="bold" lengthAdjust="spacingAndGlyphs" textLength="217.6" x="272" y="33.7141">green notes indicate a version change</text><text fill="#000000" font-family="sans-serif" font-size="11.2" font-weight="bold" lengthAdjust="spacingAndGlyphs" textLength="125.6" x="316.4" y="47.8016">gray notes are git tags</text><text fill="#000000" font-family="sans-serif" font-size="11.2" font-weight="bold" lengthAdjust="spacingAndGlyphs" textLength="150.4" x="305.6" y="61.8891">yellow boxes are branches</text><rect fill="#FFFFFF" filter="url(#foq2b62290mp1)" height="1563.1438" style="stroke: #A80036; stroke-width: 0.8;" width="8" x="43.6" y="121.325"/><rect fill="#FFFFFF" filter="url(#foq2b62290mp1)" height="276.1313" style="stroke: #A80036; stroke-width: 0.8;" width="8" x="226.8" y="171.4875"/><rect fill="#FFFFFF" filter="url(#foq2b62290mp1)" height="335.0938" style="stroke: #A80036; stroke-width: 0.8;" width="8" x="346.8" y="262.7313"/><rect fill="#FFFFFF" filter="url(#foq2b62290mp1)" height="184.8875" style="stroke: #A80036; stroke-width: 0.8;" width="8" x="466.8" y="844.875"/><rect fill="#FFFFFF" filter="url(#foq2b62290mp1)" height="466.6188" style="stroke: #A80036; stroke-width: 0.8;" width="8" x="586.8" y="654.3875"/><rect fill="#FFFFFF" filter="url(#foq2b62290mp1)" height="225.1688" style="stroke: #A80036; stroke-width: 0.8;" width="8" x="586.8" y="1298.6938"/><rect fill="#FFFFFF" filter="url(#foq2b62290mp1)" height="1563.1438" style="stroke: #A80036; stroke-width: 0.8;" width="8" x="698.8" y="121.325"/><line style="stroke: #A80036; stroke-width: 0.8; stroke-dasharray: 5.0,5.0;" x1="47.2" x2="47.2" y1="113.325" y2="1691.6688"/><line style="stroke: #A80036; stroke-width: 0.8; stroke-dasharray: 5.0,5.0;" x1="230.8" x2="230.8" y1="113.325" y2="1691.6688"/><line style="stroke: #A80036; stroke-width: 0.8; stroke-dasharray: 5.0,5.0;" x1="350.8" x2="350.8" y1="113.325" y2="1691.6688"/><line style="stroke: #A80036; stroke-width: 0.8; stroke-dasharray: 5.0,5.0;" x1="470.8" x2="470.8" y1="113.325" y2="1691.6688"/><line style="stroke: #A80036; stroke-width: 0.8; stroke-dasharray: 5.0,5.0;" x1="590.8" x2="590.8" y1="113.325" y2="1691.6688"/><line style="stroke: #A80036; stroke-width: 0.8; stroke-dasharray: 5.0,5.0;" x1="702.4" x2="702.4" y1="113.325" y2="1691.6688"/><rect fill="#FEFECE" filter="url(#foq2b62290mp1)" height="39.375" style="stroke: #A80036; stroke-width: 1.2000000000000002;" width="79.2" x="6.4" y="69.95"/><text fill="#000000" font-family="sans-serif" font-size="11.2" lengthAdjust="spacingAndGlyphs" textLength="34.4" x="28.8" y="87.1766">master</text><text fill="#000000" font-family="sans-serif" font-size="11.2" lengthAdjust="spacingAndGlyphs" textLength="64.8" x="15.2" y="101.2641">development</text><rect fill="#FEFECE" filter="url(#foq2b62290mp1)" height="39.375" style="stroke: #A80036; stroke-width: 1.2000000000000002;" width="79.2" x="6.4" y="1690.8688"/><text fill="#000000" font-family="sans-serif" font-size="11.2" lengthAdjust="spacingAndGlyphs" textLength="34.4" x="28.8" y="1708.0953">master</text><text fill="#000000" font-family="sans-serif" font-size="11.2" lengthAdjust="spacingAndGlyphs" textLength="64.8" x="15.2" y="1722.1828">development</text><rect fill="#FEFECE" filter="url(#foq2b62290mp1)" height="39.375" style="stroke: #A80036; stroke-width: 1.2000000000000002;" width="89.6" x="184.4" y="69.95"/><text fill="#000000" font-family="sans-serif" font-size="11.2" lengthAdjust="spacingAndGlyphs" textLength="46.4" x="206" y="87.1766">feature-a</text><text fill="#000000" font-family="sans-serif" font-size="11.2" lengthAdjust="spacingAndGlyphs" textLength="75.2" x="193.2" y="101.2641">(minor feature)</text><rect fill="#FEFECE" filter="url(#foq2b62290mp1)" height="39.375" style="stroke: #A80036; stroke-width: 1.2000000000000002;" width="89.6" x="184.4" y="1690.8688"/><text fill="#000000" font-family="sans-serif" font-size="11.2" lengthAdjust="spacingAndGlyphs" textLength="46.4" x="206" y="1708.0953">feature-a</text><text fill="#000000" font-family="sans-serif" font-size="11.2" lengthAdjust="spacingAndGlyphs" textLength="75.2" x="193.2" y="1722.1828">(minor feature)</text><rect fill="#FEFECE" filter="url(#foq2b62290mp1)" height="39.375" style="stroke: #A80036; stroke-width: 1.2000000000000002;" width="89.6" x="304.4" y="69.95"/><text fill="#000000" font-family="sans-serif" font-size="11.2" lengthAdjust="spacingAndGlyphs" textLength="46.4" x="326" y="87.1766">feature-b</text><text fill="#000000" font-family="sans-serif" font-size="11.2" lengthAdjust="spacingAndGlyphs" textLength="75.2" x="313.2" y="101.2641">(patch feature)</text><rect fill="#FEFECE" filter="url(#foq2b62290mp1)" height="39.375" style="stroke: #A80036; stroke-width: 1.2000000000000002;" width="89.6" x="304.4" y="1690.8688"/><text fill="#000000" font-family="sans-serif" font-size="11.2" lengthAdjust="spacingAndGlyphs" textLength="46.4" x="326" y="1708.0953">feature-b</text><text fill="#000000" font-family="sans-serif" font-size="11.2" lengthAdjust="spacingAndGlyphs" textLength="75.2" x="313.2" y="1722.1828">(patch feature)</text><rect fill="#FEFECE" filter="url(#foq2b62290mp1)" height="39.375" style="stroke: #A80036; stroke-width: 1.2000000000000002;" width="89.6" x="424.4" y="69.95"/><text fill="#000000" font-family="sans-serif" font-size="11.2" lengthAdjust="spacingAndGlyphs" textLength="45.6" x="446.4" y="87.1766">feature-c</text><text fill="#000000" font-family="sans-serif" font-size="11.2" lengthAdjust="spacingAndGlyphs" textLength="75.2" x="433.2" y="101.2641">(patch feature)</text><rect fill="#FEFECE" filter="url(#foq2b62290mp1)" height="39.375" style="stroke: #A80036; stroke-width: 1.2000000000000002;" width="89.6" x="424.4" y="1690.8688"/><text fill="#000000" font-family="sans-serif" font-size="11.2" lengthAdjust="spacingAndGlyphs" textLength="45.6" x="446.4" y="1708.0953">feature-c</text><text fill="#000000" font-family="sans-serif" font-size="11.2" lengthAdjust="spacingAndGlyphs" textLength="75.2" x="433.2" y="1722.1828">(patch feature)</text><rect fill="#FEFECE" filter="url(#foq2b62290mp1)" height="39.375" style="stroke: #A80036; stroke-width: 1.2000000000000002;" width="24" x="577.2" y="69.95"/><text fill="#000000" font-family="sans-serif" font-size="11.2" lengthAdjust="spacingAndGlyphs" textLength="12.8" x="582.8" y="87.1766">qa</text><text fill="#000000" font-family="sans-serif" font-size="11.2" lengthAdjust="spacingAndGlyphs" textLength="0" x="590.8" y="101.2641"/><rect fill="#FEFECE" filter="url(#foq2b62290mp1)" height="39.375" style="stroke: #A80036; stroke-width: 1.2000000000000002;" width="24" x="577.2" y="1690.8688"/><text fill="#000000" font-family="sans-serif" font-size="11.2" lengthAdjust="spacingAndGlyphs" textLength="12.8" x="582.8" y="1708.0953">qa</text><text fill="#000000" font-family="sans-serif" font-size="11.2" lengthAdjust="spacingAndGlyphs" textLength="0" x="590.8" y="1722.1828"/><rect fill="#FEFECE" filter="url(#foq2b62290mp1)" height="39.375" style="stroke: #A80036; stroke-width: 1.2000000000000002;" width="64.8" x="668.8" y="69.95"/><text fill="#000000" font-family="sans-serif" font-size="11.2" lengthAdjust="spacingAndGlyphs" textLength="53.6" x="674.4" y="87.1766">production</text><text fill="#000000" font-family="sans-serif" font-size="11.2" lengthAdjust="spacingAndGlyphs" textLength="0" x="702.8" y="101.2641"/><rect fill="#FEFECE" filter="url(#foq2b62290mp1)" height="39.375" style="stroke: #A80036; stroke-width: 1.2000000000000002;" width="64.8" x="668.8" y="1690.8688"/><text fill="#000000" font-family="sans-serif" font-size="11.2" lengthAdjust="spacingAndGlyphs" textLength="53.6" x="674.4" y="1708.0953">production</text><text fill="#000000" font-family="sans-serif" font-size="11.2" lengthAdjust="spacingAndGlyphs" textLength="0" x="702.8" y="1722.1828"/><rect fill="#FFFFFF" filter="url(#foq2b62290mp1)" height="1563.1438" style="stroke: #A80036; stroke-width: 0.8;" width="8" x="43.6" y="121.325"/><rect fill="#FFFFFF" filter="url(#foq2b62290mp1)" height="276.1313" style="stroke: #A80036; stroke-width: 0.8;" width="8" x="226.8" y="171.4875"/><rect fill="#FFFFFF" filter="url(#foq2b62290mp1)" height="335.0938" style="stroke: #A80036; stroke-width: 0.8;" width="8" x="346.8" y="262.7313"/><rect fill="#FFFFFF" filter="url(#foq2b62290mp1)" height="184.8875" style="stroke: #A80036; stroke-width: 0.8;" width="8" x="466.8" y="844.875"/><rect fill="#FFFFFF" filter="url(#foq2b62290mp1)" height="466.6188" style="stroke: #A80036; stroke-width: 0.8;" width="8" x="586.8" y="654.3875"/><rect fill="#FFFFFF" filter="url(#foq2b62290mp1)" height="225.1688" style="stroke: #A80036; stroke-width: 0.8;" width="8" x="586.8" y="1298.6938"/><rect fill="#FFFFFF" filter="url(#foq2b62290mp1)" height="1563.1438" style="stroke: #A80036; stroke-width: 0.8;" width="8" x="698.8" y="121.325"/><path d="M24,125.325 L24,146.125 L68,146.125 L68,133.325 L60,125.325 L24,125.325 " fill="#FFAAAA" filter="url(#foq2b62290mp1)" style="stroke: #A80036; stroke-width: 0.8;"/><path d="M60,125.325 L60,133.325 L68,133.325 L60,125.325 " fill="#FFAAAA" style="stroke: #A80036; stroke-width: 0.8;"/><text fill="#000000" font-family="sans-serif" font-size="10.4" lengthAdjust="spacingAndGlyphs" textLength="27.2" x="28.8" y="140.1211">v1.2.3</text><polygon fill="#A80036" points="217.2,168.2875,225.2,171.4875,217.2,174.6875,220.4,171.4875" style="stroke: #A80036; stroke-width: 0.8;"/><line style="stroke: #A80036; stroke-width: 0.8;" x1="51.6" x2="222" y1="171.4875" y2="171.4875"/><text fill="#000000" font-family="sans-serif" font-size="10.4" lengthAdjust="spacingAndGlyphs" textLength="148" x="57.2" y="167.6023">Start a development of feature A</text><path d="M207.2,181.8875 L207.2,202.6875 L251.2,202.6875 L251.2,189.8875 L243.2,181.8875 L207.2,181.8875 " fill="#FFAAAA" filter="url(#foq2b62290mp1)" style="stroke: #A80036; stroke-width: 0.8;"/><path d="M243.2,181.8875 L243.2,189.8875 L251.2,189.8875 L243.2,181.8875 " fill="#FFAAAA" style="stroke: #A80036; stroke-width: 0.8;"/><text fill="#000000" font-family="sans-serif" font-size="10.4" lengthAdjust="spacingAndGlyphs" textLength="27.2" x="212" y="196.6836">v1.2.3</text><line style="stroke: #A80036; stroke-width: 0.8;" x1="234.8" x2="268.4" y1="228.05" y2="228.05"/><line style="stroke: #A80036; stroke-width: 0.8;" x1="268.4" x2="268.4" y1="228.05" y2="238.45"/><line style="stroke: #A80036; stroke-width: 0.8;" x1="235.6" x2="268.4" y1="238.45" y2="238.45"/><polygon fill="#A80036" points="243.6,235.25,235.6,238.45,243.6,241.65,240.4,238.45" style="stroke: #A80036; stroke-width: 0.8;"/><text fill="#000000" font-family="sans-serif" font-size="10.4" lengthAdjust="spacingAndGlyphs" textLength="100.8" x="240.4" y="224.1648">Develop a new feature</text><polygon fill="#A80036" points="337.2,259.5313,345.2,262.7313,337.2,265.9313,340.4,262.7313" style="stroke: #A80036; stroke-width: 0.8;"/><line style="stroke: #A80036; stroke-width: 0.8;" x1="51.6" x2="342" y1="262.7313" y2="262.7313"/><text fill="#000000" font-family="sans-serif" font-size="10.4" lengthAdjust="spacingAndGlyphs" textLength="148" x="57.2" y="258.8461">Start a development of feature B</text><path d="M327.2,273.1313 L327.2,293.9313 L371.2,293.9313 L371.2,281.1313 L363.2,273.1313 L327.2,273.1313 " fill="#FFAAAA" filter="url(#foq2b62290mp1)" style="stroke: #A80036; stroke-width: 0.8;"/><path d="M363.2,273.1313 L363.2,281.1313 L371.2,281.1313 L363.2,273.1313 " fill="#FFAAAA" style="stroke: #A80036; stroke-width: 0.8;"/><text fill="#000000" font-family="sans-serif" font-size="10.4" lengthAdjust="spacingAndGlyphs" textLength="27.2" x="332" y="287.9273">v1.2.3</text><line style="stroke: #A80036; stroke-width: 0.8; stroke-dasharray: 2.0,2.0;" x1="234.8" x2="268.4" y1="319.2938" y2="319.2938"/><line style="stroke: #A80036; stroke-width: 0.8; stroke-dasharray: 2.0,2.0;" x1="268.4" x2="268.4" y1="319.2938" y2="329.6938"/><line style="stroke: #A80036; stroke-width: 0.8; stroke-dasharray: 2.0,2.0;" x1="235.6" x2="268.4" y1="329.6938" y2="329.6938"/><polygon fill="#A80036" points="243.6,326.4938,235.6,329.6938,243.6,332.8938,240.4,329.6938" style="stroke: #A80036; stroke-width: 0.8;"/><text fill="#000000" font-family="sans-serif" font-size="10.4" lengthAdjust="spacingAndGlyphs" textLength="37.6" x="240.4" y="315.4086">Dev test</text><line style="stroke: #A80036; stroke-width: 0.8;" x1="354.8" x2="388.4" y1="353.975" y2="353.975"/><line style="stroke: #A80036; stroke-width: 0.8;" x1="388.4" x2="388.4" y1="353.975" y2="364.375"/><line style="stroke: #A80036; stroke-width: 0.8;" x1="355.6" x2="388.4" y1="364.375" y2="364.375"/><polygon fill="#A80036" points="363.6,361.175,355.6,364.375,363.6,367.575,360.4,364.375" style="stroke: #A80036; stroke-width: 0.8;"/><text fill="#000000" font-family="sans-serif" font-size="10.4" lengthAdjust="spacingAndGlyphs" textLength="100.8" x="360.4" y="350.0898">Develop a new feature</text><line style="stroke: #A80036; stroke-width: 0.8;" x1="234.8" x2="268.4" y1="388.6563" y2="388.6563"/><line style="stroke: #A80036; stroke-width: 0.8;" x1="268.4" x2="268.4" y1="388.6563" y2="399.0563"/><line style="stroke: #A80036; stroke-width: 0.8;" x1="235.6" x2="268.4" y1="399.0563" y2="399.0563"/><polygon fill="#A80036" points="243.6,395.8563,235.6,399.0563,243.6,402.2563,240.4,399.0563" style="stroke: #A80036; stroke-width: 0.8;"/><text fill="#000000" font-family="sans-serif" font-size="10.4" lengthAdjust="spacingAndGlyphs" textLength="48" x="240.4" y="384.7711">Fix issues</text><polygon fill="#A80036" points="217.2,420.1375,225.2,423.3375,217.2,426.5375,220.4,423.3375" style="stroke: #A80036; stroke-width: 0.8;"/><line style="stroke: #A80036; stroke-width: 0.8;" x1="51.6" x2="222" y1="423.3375" y2="423.3375"/><text fill="#000000" font-family="sans-serif" font-size="10.4" lengthAdjust="spacingAndGlyphs" textLength="152" x="57.2" y="419.4523">Merge upstream changes (if any)</text><polygon fill="#A80036" points="60.4,444.4188,52.4,447.6188,60.4,450.8188,57.2,447.6188" style="stroke: #A80036; stroke-width: 0.8;"/><line style="stroke: #A80036; stroke-width: 0.8;" x1="55.6" x2="230" y1="447.6188" y2="447.6188"/><text fill="#000000" font-family="sans-serif" font-size="10.4" lengthAdjust="spacingAndGlyphs" textLength="156" x="65.2" y="443.7336">Feature A dev is complete (minor)</text><path d="M24,458.0188 L24,478.8188 L68,478.8188 L68,466.0188 L60,458.0188 L24,458.0188 " fill="#FFAAAA" filter="url(#foq2b62290mp1)" style="stroke: #A80036; stroke-width: 0.8;"/><path d="M60,458.0188 L60,466.0188 L68,466.0188 L60,458.0188 " fill="#FFAAAA" style="stroke: #A80036; stroke-width: 0.8;"/><text fill="#000000" font-family="sans-serif" font-size="10.4" lengthAdjust="spacingAndGlyphs" textLength="27.2" x="28.8" y="472.8148">v1.2.3</text><line style="stroke: #A80036; stroke-width: 0.8; stroke-dasharray: 2.0,2.0;" x1="354.8" x2="388.4" y1="504.1813" y2="504.1813"/><line style="stroke: #A80036; stroke-width: 0.8; stroke-dasharray: 2.0,2.0;" x1="388.4" x2="388.4" y1="504.1813" y2="514.5813"/><line style="stroke: #A80036; stroke-width: 0.8; stroke-dasharray: 2.0,2.0;" x1="355.6" x2="388.4" y1="514.5813" y2="514.5813"/><polygon fill="#A80036" points="363.6,511.3813,355.6,514.5813,363.6,517.7813,360.4,514.5813" style="stroke: #A80036; stroke-width: 0.8;"/><text fill="#000000" font-family="sans-serif" font-size="10.4" lengthAdjust="spacingAndGlyphs" textLength="37.6" x="360.4" y="500.2961">Dev test</text><line style="stroke: #A80036; stroke-width: 0.8;" x1="354.8" x2="388.4" y1="538.8625" y2="538.8625"/><line style="stroke: #A80036; stroke-width: 0.8;" x1="388.4" x2="388.4" y1="538.8625" y2="549.2625"/><line style="stroke: #A80036; stroke-width: 0.8;" x1="355.6" x2="388.4" y1="549.2625" y2="549.2625"/><polygon fill="#A80036" points="363.6,546.0625,355.6,549.2625,363.6,552.4625,360.4,549.2625" style="stroke: #A80036; stroke-width: 0.8;"/><text fill="#000000" font-family="sans-serif" font-size="10.4" lengthAdjust="spacingAndGlyphs" textLength="48" x="360.4" y="534.9773">Fix issues</text><polygon fill="#A80036" points="337.2,570.3438,345.2,573.5438,337.2,576.7438,340.4,573.5438" style="stroke: #A80036; stroke-width: 0.8;"/><line style="stroke: #A80036; stroke-width: 0.8;" x1="51.6" x2="342" y1="573.5438" y2="573.5438"/><text fill="#000000" font-family="sans-serif" font-size="10.4" lengthAdjust="spacingAndGlyphs" textLength="152" x="57.2" y="569.6586">Merge upstream changes (if any)</text><polygon fill="#A80036" points="60.4,594.625,52.4,597.825,60.4,601.025,57.2,597.825" style="stroke: #A80036; stroke-width: 0.8;"/><line style="stroke: #A80036; stroke-width: 0.8;" x1="55.6" x2="350" y1="597.825" y2="597.825"/><text fill="#000000" font-family="sans-serif" font-size="10.4" lengthAdjust="spacingAndGlyphs" textLength="156" x="65.2" y="593.9398">Feature B dev is complete (patch)</text><path d="M24,608.225 L24,629.025 L68,629.025 L68,616.225 L60,608.225 L24,608.225 " fill="#FFAAAA" filter="url(#foq2b62290mp1)" style="stroke: #A80036; stroke-width: 0.8;"/><path d="M60,608.225 L60,616.225 L68,616.225 L60,608.225 " fill="#FFAAAA" style="stroke: #A80036; stroke-width: 0.8;"/><text fill="#000000" font-family="sans-serif" font-size="10.4" lengthAdjust="spacingAndGlyphs" textLength="27.2" x="28.8" y="623.0211">v1.2.3</text><polygon fill="#A80036" points="577.2,651.1875,585.2,654.3875,577.2,657.5875,580.4,654.3875" style="stroke: #A80036; stroke-width: 0.8;"/><line style="stroke: #A80036; stroke-width: 0.8;" x1="51.6" x2="582" y1="654.3875" y2="654.3875"/><text fill="#000000" font-family="sans-serif" font-size="10.4" lengthAdjust="spacingAndGlyphs" textLength="128.8" x="57.2" y="650.5023">Add a set of changes to QA</text><path d="M567.2,664.7875 L567.2,685.5875 L611.2,685.5875 L611.2,672.7875 L603.2,664.7875 L567.2,664.7875 " fill="#FFAAAA" filter="url(#foq2b62290mp1)" style="stroke: #A80036; stroke-width: 0.8;"/><path d="M603.2,664.7875 L603.2,672.7875 L611.2,672.7875 L603.2,664.7875 " fill="#FFAAAA" style="stroke: #A80036; stroke-width: 0.8;"/><text fill="#000000" font-family="sans-serif" font-size="10.4" lengthAdjust="spacingAndGlyphs" textLength="27.2" x="572" y="679.5836">v1.2.3</text><path d="M537.6,697.0688 L537.6,717.8688 L640,717.8688 L640,705.0688 L632,697.0688 L537.6,697.0688 " fill="#B0C4DE" filter="url(#foq2b62290mp1)" style="stroke: #A80036; stroke-width: 0.8;"/><path d="M632,697.0688 L632,705.0688 L640,705.0688 L632,697.0688 " fill="#B0C4DE" style="stroke: #A80036; stroke-width: 0.8;"/><text fill="#000000" font-family="sans-serif" font-size="10.4" lengthAdjust="spacingAndGlyphs" textLength="85.6" x="542.4" y="711.8648">tag: qa.200228345</text><line style="stroke: #A80036; stroke-width: 0.8; stroke-dasharray: 2.0,2.0;" x1="594.8" x2="628.4" y1="743.2313" y2="743.2313"/><line style="stroke: #A80036; stroke-width: 0.8; stroke-dasharray: 2.0,2.0;" x1="628.4" x2="628.4" y1="743.2313" y2="753.6313"/><line style="stroke: #A80036; stroke-width: 0.8; stroke-dasharray: 2.0,2.0;" x1="595.6" x2="628.4" y1="753.6313" y2="753.6313"/><polygon fill="#A80036" points="603.6,750.4313,595.6,753.6313,603.6,756.8313,600.4,753.6313" style="stroke: #A80036; stroke-width: 0.8;"/><text fill="#000000" font-family="sans-serif" font-size="10.4" lengthAdjust="spacingAndGlyphs" textLength="33.6" x="600.4" y="739.3461">Testing</text><line style="stroke: #A80036; stroke-width: 0.8;" x1="594.8" x2="628.4" y1="777.9125" y2="777.9125"/><line style="stroke: #A80036; stroke-width: 0.8;" x1="628.4" x2="628.4" y1="777.9125" y2="788.3125"/><line style="stroke: #A80036; stroke-width: 0.8;" x1="595.6" x2="628.4" y1="788.3125" y2="788.3125"/><polygon fill="#A80036" points="603.6,785.1125,595.6,788.3125,603.6,791.5125,600.4,788.3125" style="stroke: #A80036; stroke-width: 0.8;"/><text fill="#000000" font-family="sans-serif" font-size="10.4" lengthAdjust="spacingAndGlyphs" textLength="45.6" x="600.4" y="774.0273">Bug fixing</text><path d="M537.6,798.7125 L537.6,819.5125 L640,819.5125 L640,806.7125 L632,798.7125 L537.6,798.7125 " fill="#B0C4DE" filter="url(#foq2b62290mp1)" style="stroke: #A80036; stroke-width: 0.8;"/><path d="M632,798.7125 L632,806.7125 L640,806.7125 L632,798.7125 " fill="#B0C4DE" style="stroke: #A80036; stroke-width: 0.8;"/><text fill="#000000" font-family="sans-serif" font-size="10.4" lengthAdjust="spacingAndGlyphs" textLength="85.6" x="542.4" y="813.5086">tag: qa.200228367</text><polygon fill="#A80036" points="457.2,841.675,465.2,844.875,457.2,848.075,460.4,844.875" style="stroke: #A80036; stroke-width: 0.8;"/><line style="stroke: #A80036; stroke-width: 0.8;" x1="51.6" x2="462" y1="844.875" y2="844.875"/><text fill="#000000" font-family="sans-serif" font-size="10.4" lengthAdjust="spacingAndGlyphs" textLength="148" x="57.2" y="840.9898">Start a development of feature C</text><path d="M447.2,855.275 L447.2,876.075 L491.2,876.075 L491.2,863.275 L483.2,855.275 L447.2,855.275 " fill="#FFAAAA" filter="url(#foq2b62290mp1)" style="stroke: #A80036; stroke-width: 0.8;"/><path d="M483.2,855.275 L483.2,863.275 L491.2,863.275 L483.2,855.275 " fill="#FFAAAA" style="stroke: #A80036; stroke-width: 0.8;"/><text fill="#000000" font-family="sans-serif" font-size="10.4" lengthAdjust="spacingAndGlyphs" textLength="27.2" x="452" y="870.0711">v1.2.3</text><line style="stroke: #A80036; stroke-width: 0.8;" x1="474.8" x2="508.4" y1="901.4375" y2="901.4375"/><line style="stroke: #A80036; stroke-width: 0.8;" x1="508.4" x2="508.4" y1="901.4375" y2="911.8375"/><line style="stroke: #A80036; stroke-width: 0.8;" x1="475.6" x2="508.4" y1="911.8375" y2="911.8375"/><polygon fill="#A80036" points="483.6,908.6375,475.6,911.8375,483.6,915.0375,480.4,911.8375" style="stroke: #A80036; stroke-width: 0.8;"/><text fill="#000000" font-family="sans-serif" font-size="10.4" lengthAdjust="spacingAndGlyphs" textLength="100.8" x="480.4" y="897.5523">Develop a new feature</text><line style="stroke: #A80036; stroke-width: 0.8; stroke-dasharray: 2.0,2.0;" x1="474.8" x2="508.4" y1="936.1188" y2="936.1188"/><line style="stroke: #A80036; stroke-width: 0.8; stroke-dasharray: 2.0,2.0;" x1="508.4" x2="508.4" y1="936.1188" y2="946.5188"/><line style="stroke: #A80036; stroke-width: 0.8; stroke-dasharray: 2.0,2.0;" x1="475.6" x2="508.4" y1="946.5188" y2="946.5188"/><polygon fill="#A80036" points="483.6,943.3188,475.6,946.5188,483.6,949.7188,480.4,946.5188" style="stroke: #A80036; stroke-width: 0.8;"/><text fill="#000000" font-family="sans-serif" font-size="10.4" lengthAdjust="spacingAndGlyphs" textLength="37.6" x="480.4" y="932.2336">Dev test</text><line style="stroke: #A80036; stroke-width: 0.8;" x1="474.8" x2="508.4" y1="970.8" y2="970.8"/><line style="stroke: #A80036; stroke-width: 0.8;" x1="508.4" x2="508.4" y1="970.8" y2="981.2"/><line style="stroke: #A80036; stroke-width: 0.8;" x1="475.6" x2="508.4" y1="981.2" y2="981.2"/><polygon fill="#A80036" points="483.6,978,475.6,981.2,483.6,984.4,480.4,981.2" style="stroke: #A80036; stroke-width: 0.8;"/><text fill="#000000" font-family="sans-serif" font-size="10.4" lengthAdjust="spacingAndGlyphs" textLength="48" x="480.4" y="966.9148">Fix issues</text><polygon fill="#A80036" points="457.2,1002.2813,465.2,1005.4813,457.2,1008.6813,460.4,1005.4813" style="stroke: #A80036; stroke-width: 0.8;"/><line style="stroke: #A80036; stroke-width: 0.8;" x1="51.6" x2="462" y1="1005.4813" y2="1005.4813"/><text fill="#000000" font-family="sans-serif" font-size="10.4" lengthAdjust="spacingAndGlyphs" textLength="152" x="57.2" y="1001.5961">Merge upstream changes (if any)</text><polygon fill="#A80036" points="60.4,1026.5625,52.4,1029.7625,60.4,1032.9625,57.2,1029.7625" style="stroke: #A80036; stroke-width: 0.8;"/><line style="stroke: #A80036; stroke-width: 0.8;" x1="55.6" x2="470" y1="1029.7625" y2="1029.7625"/><text fill="#000000" font-family="sans-serif" font-size="10.4" lengthAdjust="spacingAndGlyphs" textLength="156" x="65.2" y="1025.8773">Feature C dev is complete (patch)</text><path d="M24,1040.1625 L24,1060.9625 L68,1060.9625 L68,1048.1625 L60,1040.1625 L24,1040.1625 " fill="#FFAAAA" filter="url(#foq2b62290mp1)" style="stroke: #A80036; stroke-width: 0.8;"/><path d="M60,1040.1625 L60,1048.1625 L68,1048.1625 L60,1040.1625 " fill="#FFAAAA" style="stroke: #A80036; stroke-width: 0.8;"/><text fill="#000000" font-family="sans-serif" font-size="10.4" lengthAdjust="spacingAndGlyphs" textLength="27.2" x="28.8" y="1054.9586">v1.2.3</text><line style="stroke: #A80036; stroke-width: 0.8; stroke-dasharray: 2.0,2.0;" x1="594.8" x2="628.4" y1="1086.325" y2="1086.325"/><line style="stroke: #A80036; stroke-width: 0.8; stroke-dasharray: 2.0,2.0;" x1="628.4" x2="628.4" y1="1086.325" y2="1096.725"/><line style="stroke: #A80036; stroke-width: 0.8; stroke-dasharray: 2.0,2.0;" x1="595.6" x2="628.4" y1="1096.725" y2="1096.725"/><polygon fill="#A80036" points="603.6,1093.525,595.6,1096.725,603.6,1099.925,600.4,1096.725" style="stroke: #A80036; stroke-width: 0.8;"/><text fill="#000000" font-family="sans-serif" font-size="10.4" lengthAdjust="spacingAndGlyphs" textLength="33.6" x="600.4" y="1082.4398">Testing</text><polygon fill="#A80036" points="689.2,1117.8063,697.2,1121.0063,689.2,1124.2063,692.4,1121.0063" style="stroke: #A80036; stroke-width: 0.8;"/><line style="stroke: #A80036; stroke-width: 0.8;" x1="590.8" x2="694" y1="1121.0063" y2="1121.0063"/><text fill="#000000" font-family="sans-serif" font-size="10.4" lengthAdjust="spacingAndGlyphs" textLength="84.8" x="596.4" y="1117.1211">Changes approved</text><path d="M679.2,1131.4063 L679.2,1152.2063 L723.2,1152.2063 L723.2,1139.4063 L715.2,1131.4063 L679.2,1131.4063 " fill="#ADFF2F" filter="url(#foq2b62290mp1)" style="stroke: #A80036; stroke-width: 0.8;"/><path d="M715.2,1131.4063 L715.2,1139.4063 L723.2,1139.4063 L715.2,1131.4063 " fill="#ADFF2F" style="stroke: #A80036; stroke-width: 0.8;"/><text fill="#000000" font-family="sans-serif" font-size="10.4" lengthAdjust="spacingAndGlyphs" textLength="27.2" x="684" y="1146.2023">v1.3.0</text><path d="M668.8,1163.6875 L668.8,1184.4875 L733.6,1184.4875 L733.6,1171.6875 L725.6,1163.6875 L668.8,1163.6875 " fill="#B0C4DE" filter="url(#foq2b62290mp1)" style="stroke: #A80036; stroke-width: 0.8;"/><path d="M725.6,1163.6875 L725.6,1171.6875 L733.6,1171.6875 L725.6,1163.6875 " fill="#B0C4DE" style="stroke: #A80036; stroke-width: 0.8;"/><text fill="#000000" font-family="sans-serif" font-size="10.4" lengthAdjust="spacingAndGlyphs" textLength="48" x="673.6" y="1178.4836">tag: v1.3.0</text><path d="M656.8,1195.9688 L656.8,1216.7688 L744.8,1216.7688 L744.8,1203.9688 L736.8,1195.9688 L656.8,1195.9688 " fill="#FFFFFF" filter="url(#foq2b62290mp1)" style="stroke: #A80036; stroke-width: 0.8;"/><path d="M736.8,1195.9688 L736.8,1203.9688 L744.8,1203.9688 L736.8,1195.9688 " fill="#FFFFFF" style="stroke: #A80036; stroke-width: 0.8;"/><text fill="#000000" font-family="sans-serif" font-size="10.4" lengthAdjust="spacingAndGlyphs" textLength="71.2" x="661.6" y="1210.7648">RC deployment</text><polygon fill="#A80036" points="60.4,1238.9313,52.4,1242.1313,60.4,1245.3313,57.2,1242.1313" style="stroke: #A80036; stroke-width: 0.8;"/><line style="stroke: #A80036; stroke-width: 0.8;" x1="55.6" x2="698" y1="1242.1313" y2="1242.1313"/><text fill="#000000" font-family="sans-serif" font-size="10.4" lengthAdjust="spacingAndGlyphs" textLength="79.2" x="65.2" y="1238.2461">Merge fixes back</text><path d="M24,1252.5313 L24,1273.3313 L68,1273.3313 L68,1260.5313 L60,1252.5313 L24,1252.5313 " fill="#FFAAAA" filter="url(#foq2b62290mp1)" style="stroke: #A80036; stroke-width: 0.8;"/><path d="M60,1252.5313 L60,1260.5313 L68,1260.5313 L60,1252.5313 " fill="#FFAAAA" style="stroke: #A80036; stroke-width: 0.8;"/><text fill="#000000" font-family="sans-serif" font-size="10.4" lengthAdjust="spacingAndGlyphs" textLength="27.2" x="28.8" y="1267.3273">v1.3.0</text><polygon fill="#A80036" points="577.2,1295.4938,585.2,1298.6938,577.2,1301.8938,580.4,1298.6938" style="stroke: #A80036; stroke-width: 0.8;"/><line style="stroke: #A80036; stroke-width: 0.8;" x1="51.6" x2="582" y1="1298.6938" y2="1298.6938"/><text fill="#000000" font-family="sans-serif" font-size="10.4" lengthAdjust="spacingAndGlyphs" textLength="150.4" x="57.2" y="1294.8086">Add a new set of changes to QA</text><path d="M567.2,1309.0938 L567.2,1329.8938 L611.2,1329.8938 L611.2,1317.0938 L603.2,1309.0938 L567.2,1309.0938 " fill="#FFAAAA" filter="url(#foq2b62290mp1)" style="stroke: #A80036; stroke-width: 0.8;"/><path d="M603.2,1309.0938 L603.2,1317.0938 L611.2,1317.0938 L603.2,1309.0938 " fill="#FFAAAA" style="stroke: #A80036; stroke-width: 0.8;"/><text fill="#000000" font-family="sans-serif" font-size="10.4" lengthAdjust="spacingAndGlyphs" textLength="27.2" x="572" y="1323.8898">v1.3.0</text><path d="M537.6,1341.375 L537.6,1362.175 L640,1362.175 L640,1349.375 L632,1341.375 L537.6,1341.375 " fill="#B0C4DE" filter="url(#foq2b62290mp1)" style="stroke: #A80036; stroke-width: 0.8;"/><path d="M632,1341.375 L632,1349.375 L640,1349.375 L632,1341.375 " fill="#B0C4DE" style="stroke: #A80036; stroke-width: 0.8;"/><text fill="#000000" font-family="sans-serif" font-size="10.4" lengthAdjust="spacingAndGlyphs" textLength="85.6" x="542.4" y="1356.1711">tag: qa.200228455</text><line style="stroke: #A80036; stroke-width: 0.8; stroke-dasharray: 2.0,2.0;" x1="594.8" x2="628.4" y1="1387.5375" y2="1387.5375"/><line style="stroke: #A80036; stroke-width: 0.8; stroke-dasharray: 2.0,2.0;" x1="628.4" x2="628.4" y1="1387.5375" y2="1397.9375"/><line style="stroke: #A80036; stroke-width: 0.8; stroke-dasharray: 2.0,2.0;" x1="595.6" x2="628.4" y1="1397.9375" y2="1397.9375"/><polygon fill="#A80036" points="603.6,1394.7375,595.6,1397.9375,603.6,1401.1375,600.4,1397.9375" style="stroke: #A80036; stroke-width: 0.8;"/><text fill="#000000" font-family="sans-serif" font-size="10.4" lengthAdjust="spacingAndGlyphs" textLength="33.6" x="600.4" y="1383.6523">Testing</text><line style="stroke: #A80036; stroke-width: 0.8;" x1="594.8" x2="628.4" y1="1422.2188" y2="1422.2188"/><line style="stroke: #A80036; stroke-width: 0.8;" x1="628.4" x2="628.4" y1="1422.2188" y2="1432.6188"/><line style="stroke: #A80036; stroke-width: 0.8;" x1="595.6" x2="628.4" y1="1432.6188" y2="1432.6188"/><polygon fill="#A80036" points="603.6,1429.4188,595.6,1432.6188,603.6,1435.8188,600.4,1432.6188" style="stroke: #A80036; stroke-width: 0.8;"/><text fill="#000000" font-family="sans-serif" font-size="10.4" lengthAdjust="spacingAndGlyphs" textLength="45.6" x="600.4" y="1418.3336">Bug fixing</text><path d="M537.6,1443.0188 L537.6,1463.8188 L640,1463.8188 L640,1451.0188 L632,1443.0188 L537.6,1443.0188 " fill="#B0C4DE" filter="url(#foq2b62290mp1)" style="stroke: #A80036; stroke-width: 0.8;"/><path d="M632,1443.0188 L632,1451.0188 L640,1451.0188 L632,1443.0188 " fill="#B0C4DE" style="stroke: #A80036; stroke-width: 0.8;"/><text fill="#000000" font-family="sans-serif" font-size="10.4" lengthAdjust="spacingAndGlyphs" textLength="85.6" x="542.4" y="1457.8148">tag: qa.200228501</text><line style="stroke: #A80036; stroke-width: 0.8; stroke-dasharray: 2.0,2.0;" x1="594.8" x2="628.4" y1="1489.1813" y2="1489.1813"/><line style="stroke: #A80036; stroke-width: 0.8; stroke-dasharray: 2.0,2.0;" x1="628.4" x2="628.4" y1="1489.1813" y2="1499.5813"/><line style="stroke: #A80036; stroke-width: 0.8; stroke-dasharray: 2.0,2.0;" x1="595.6" x2="628.4" y1="1499.5813" y2="1499.5813"/><polygon fill="#A80036" points="603.6,1496.3813,595.6,1499.5813,603.6,1502.7813,600.4,1499.5813" style="stroke: #A80036; stroke-width: 0.8;"/><text fill="#000000" font-family="sans-serif" font-size="10.4" lengthAdjust="spacingAndGlyphs" textLength="33.6" x="600.4" y="1485.2961">Testing</text><polygon fill="#A80036" points="689.2,1520.6625,697.2,1523.8625,689.2,1527.0625,692.4,1523.8625" style="stroke: #A80036; stroke-width: 0.8;"/><line style="stroke: #A80036; stroke-width: 0.8;" x1="590.8" x2="694" y1="1523.8625" y2="1523.8625"/><text fill="#000000" font-family="sans-serif" font-size="10.4" lengthAdjust="spacingAndGlyphs" textLength="84.8" x="596.4" y="1519.9773">Changes approved</text><path d="M679.2,1534.2625 L679.2,1555.0625 L723.2,1555.0625 L723.2,1542.2625 L715.2,1534.2625 L679.2,1534.2625 " fill="#ADFF2F" filter="url(#foq2b62290mp1)" style="stroke: #A80036; stroke-width: 0.8;"/><path d="M715.2,1534.2625 L715.2,1542.2625 L723.2,1542.2625 L715.2,1534.2625 " fill="#ADFF2F" style="stroke: #A80036; stroke-width: 0.8;"/><text fill="#000000" font-family="sans-serif" font-size="10.4" lengthAdjust="spacingAndGlyphs" textLength="27.2" x="684" y="1549.0586">v1.3.1</text><path d="M668.8,1566.5438 L668.8,1587.3438 L733.6,1587.3438 L733.6,1574.5438 L725.6,1566.5438 L668.8,1566.5438 " fill="#B0C4DE" filter="url(#foq2b62290mp1)" style="stroke: #A80036; stroke-width: 0.8;"/><path d="M725.6,1566.5438 L725.6,1574.5438 L733.6,1574.5438 L725.6,1566.5438 " fill="#B0C4DE" style="stroke: #A80036; stroke-width: 0.8;"/><text fill="#000000" font-family="sans-serif" font-size="10.4" lengthAdjust="spacingAndGlyphs" textLength="48" x="673.6" y="1581.3398">tag: v1.3.1</text><path d="M653.6,1598.825 L653.6,1619.625 L748.8,1619.625 L748.8,1606.825 L740.8,1598.825 L653.6,1598.825 " fill="#D8BFD8" filter="url(#foq2b62290mp1)" style="stroke: #A80036; stroke-width: 0.8;"/><path d="M740.8,1598.825 L740.8,1606.825 L748.8,1606.825 L740.8,1598.825 " fill="#D8BFD8" style="stroke: #A80036; stroke-width: 0.8;"/><text fill="#000000" font-family="sans-serif" font-size="10.4" lengthAdjust="spacingAndGlyphs" textLength="78.4" x="658.4" y="1613.6211">Prod deployment</text><polygon fill="#A80036" points="60.4,1641.7875,52.4,1644.9875,60.4,1648.1875,57.2,1644.9875" style="stroke: #A80036; stroke-width: 0.8;"/><line style="stroke: #A80036; stroke-width: 0.8;" x1="55.6" x2="698" y1="1644.9875" y2="1644.9875"/><text fill="#000000" font-family="sans-serif" font-size="10.4" lengthAdjust="spacingAndGlyphs" textLength="84" x="65.2" y="1641.1023">Merge fixes to dev</text><path d="M24,1655.3875 L24,1676.1875 L68,1676.1875 L68,1663.3875 L60,1655.3875 L24,1655.3875 " fill="#FFAAAA" filter="url(#foq2b62290mp1)" style="stroke: #A80036; stroke-width: 0.8;"/><path d="M60,1655.3875 L60,1663.3875 L68,1663.3875 L60,1655.3875 " fill="#FFAAAA" style="stroke: #A80036; stroke-width: 0.8;"/><text fill="#000000" font-family="sans-serif" font-size="10.4" lengthAdjust="spacingAndGlyphs" textLength="27.2" x="28.8" y="1670.1836">v1.3.1</text><!--MD5=[7c914997d98d8f4bf0bc69ba47a2b96a]
@startuml
title A STANDARD DEVELOPMENT WORKFLOW\n green notes indicate a version change\n gray notes are git tags \n yellow boxes are branches
participant "master\n development" as mst
participant "feature-a\n (minor feature)" as f1
participant "feature-b\n (patch feature)" as f2
participant "feature-c\n (patch feature)" as f3
participant "qa\n" as qa
participant "production\n" as prod

activate mst
activate prod

note over mst #FFAAAA: v1.2.3
mst -> f1: Start a development of feature A
activate f1
note over f1 #FFAAAA: v1.2.3
f1 -> f1: Develop a new feature
mst -> f2: Start a development of feature B
activate f2
note over f2 #FFAAAA: v1.2.3
f1 - -> f1: Dev test
f2 -> f2: Develop a new feature
f1 -> f1: Fix issues
mst -> f1: Merge upstream changes (if any)
f1 -> mst: Feature A dev is complete (minor)
deactivate f1
note over mst #FFAAAA: v1.2.3

f2 - -> f2: Dev test
f2 -> f2: Fix issues
mst -> f2: Merge upstream changes (if any)
f2 -> mst: Feature B dev is complete (patch)
deactivate f2
note over mst #FFAAAA: v1.2.3

mst -> qa: Add a set of changes to QA
activate qa
note over qa #FFAAAA: v1.2.3
note over qa #LightSteelBlue: tag: qa.200228345
qa - -> qa: Testing
qa -> qa: Bug fixing
note over qa #LightSteelBlue: tag: qa.200228367

mst -> f3: Start a development of feature C
activate f3
note over f3 #FFAAAA: v1.2.3
f3 -> f3: Develop a new feature
f3 - -> f3: Dev test
f3 -> f3: Fix issues
mst -> f3: Merge upstream changes (if any)
f3 -> mst: Feature C dev is complete (patch)
deactivate f3
note over mst #FFAAAA: v1.2.3

qa - -> qa: Testing
qa -> prod: Changes approved
deactivate qa
note over prod #GreenYellow: v1.3.0
note over prod #LightSteelBlue: tag: v1.3.0
note over prod #White: RC deployment
prod -> mst: Merge fixes back
note over mst #FFAAAA: v1.3.0

mst -> qa: Add a new set of changes to QA
activate qa
note over qa #FFAAAA: v1.3.0
note over qa #LightSteelBlue: tag: qa.200228455
qa - -> qa: Testing
qa -> qa: Bug fixing
note over qa #LightSteelBlue: tag: qa.200228501
qa - -> qa: Testing
qa -> prod: Changes approved
deactivate qa
note over prod #GreenYellow: v1.3.1
note over prod #LightSteelBlue: tag: v1.3.1
note over prod #Thistle: Prod deployment
prod -> mst: Merge fixes to dev
note over mst #FFAAAA: v1.3.1

@enduml

PlantUML version 1.2019.11(Sun Sep 22 14:02:15 SAMT 2019)
(GPL source distribution)
Java Runtime: OpenJDK Runtime Environment
JVM: OpenJDK 64-Bit Server VM
Java Version: 11.0.5+10-b520.38
Operating System: Windows 10
Default Encoding: Cp1251
Language: en
Country: US
--></g></svg>